<svg id="Layer_1" data-name="Layer 1" xmlns="http://www.w3.org/2000/svg" viewBox="0 0 470 440"><defs><style>.cls-1{opacity:0.3;}.cls-2{fill:#df9227;}.cls-3{fill:#fff;}.cls-4{fill:none;stroke:#000;stroke-linecap:round;stroke-miterlimit:10;stroke-width:3px;}.cls-5,.cls-6,.cls-7{fill:#603813;}.cls-5{opacity:0.5;}.cls-7,.cls-9{opacity:0.7;}.cls-8,.cls-9{fill:#42210b;}</style></defs><title>cookie</title><ellipse class="cls-1" cx="211" cy="401" rx="116.5" ry="24.5"/><path class="cls-2" d="M366.5,212.5c0,15.1411,7.7673,32.38,3,46-5.3952,15.4144-23.5779,23.5579-34,36-11.4738,13.6976-17.8921,33.29-34,42-16.2517,8.7876-31.5939,4.7741-51,7-5.7383.6582-22.0748,10-28,10-23.8127,0-38.1953-12.3091-58-22-13.725-6.716-35.271-7.6471-46-18-15.7264-15.175-17.0332-39.2172-24-60-4.4068-13.1461-15-27.4668-15-42,0-10.8268,10.5048-23.896,13-34,3.3233-13.4576.848-29.3924,8-41,9.2513-15.0147,29.6526-17.325,44-28,7.8488-5.84,8.9681-23.7839,18-28,9.97-4.6542,22.8982.381,34-2,10.2819-2.2052,25.0164-10,36-10,13.472,0,22.5135,8.7495,34.8857,12.0252C281.192,84.1805,295.6917,86.3626,307.5,93.5c16.7079,10.0989,25.8945,28.452,37,44,9.449,13.2288,23.8647,20.0215,28,36C375.2259,184.0329,366.5,201.1683,366.5,212.5Z"/><path class="cls-2" d="M264,336.8546l13.3364,68.1636c.03.1542.267.2733.6078.3611a2.8506,2.8506,0,0,0,2.2589,1.1207h12.0484a2.8667,2.8667,0,0,0,2.8667-2.8667v-3.1575a2.8667,2.8667,0,0,0-2.8667-2.8667H281.0958L274.3727,325"/><path class="cls-2" d="M186.1182,330.8546l-13.3364,68.1636c-.03.1542-.267.2733-.6078.3611a2.8508,2.8508,0,0,1-2.2589,1.1207H157.8667A2.8667,2.8667,0,0,1,155,397.6333v-3.1575a2.8666,2.8666,0,0,1,2.8667-2.8667h11.1557L175.7454,319"/><path class="cls-2" d="M359.8714,224.1779c12.3051-4.2832,25.7173-13.5088,33.0488-22.578,16.604-20.54,14.0028-37.1393,15.9935-41.8337-4.7585,8.2072-23.3879,37.2885-44.1558,35.8088"/><path class="cls-2" d="M407.83,164.1269s21.9451-22.3285,16.6545-28.725c-.9291-1.1233-5.5035,1.9266-5.5035,1.9266s-.096-13.06-3.4487-12.9656c-3.7485.1056-3.0341,14.69-3.0341,14.69s-5.111-14.9667-8.9362-13.5884C394.4138,128.7608,407.83,164.1269,407.83,164.1269Z"/><path class="cls-2" d="M94.6433,192.8c-12.181,4.6241-25.3312,14.22-32.4073,23.4894C46.21,237.2831,49.2727,253.804,47.4135,258.552c4.5281-8.3365,22.3406-37.9252,43.1416-37.0244"/><path class="cls-2" d="M48.3751,254.1628S27.06,277.0938,32.5269,283.3405c.96,1.097,5.4477-2.0792,5.4477-2.0792s.4595,13.0523,3.8084,12.8646c3.7441-.21,2.6238-14.7688,2.6238-14.7688s5.5258,14.8186,9.3111,13.3343C62.7712,289.1416,48.3751,254.1628,48.3751,254.1628Z"/><circle class="cls-3" cx="266.5" cy="188.5" r="23.5"/><path d="M266.5,172.5a15.9456,15.9456,0,0,1,5.2238.89,2.2742,2.2742,0,0,0-.5363.43c-1.381,1.561-.3311,4.7457,2.345,7.113s5.965,3.0211,7.346,1.46a2.2415,2.2415,0,0,0,.2519-.3533A15.9957,15.9957,0,1,1,266.5,172.5Z"/><circle class="cls-3" cx="192" cy="188" r="23.5"/><path d="M192,172a15.9456,15.9456,0,0,0-5.2238.89,2.2742,2.2742,0,0,1,.5363.43c1.381,1.561.3311,4.7457-2.345,7.113s-5.965,3.0211-7.346,1.46a2.2415,2.2415,0,0,1-.2519-.3533A15.9957,15.9957,0,1,0,192,172Z"/><path class="cls-4" d="M242.5,224.5c0,9.9411-5.3726,18-12,18s-12-8.0589-12-18"/><path class="cls-5" d="M332.1471,135.8333c-.5144,1.893-2.2478,2.8931-3.2414,4.4211-1.0938,1.6821-1.7057,4.0883-3.2414,5.1579-1.5493,1.0792-6.9666,2.0877-7.5314,2.0877-2.27,0-8.892-3.6409-9.9148-4.9123-1.4993-1.8636-1.6239-4.8161-2.2881-7.3684-.42-1.6144-1.43-3.3731-1.43-5.1579a45.9554,45.9554,0,0,1,2.002-9.21c.882-1.8439.28-3.4192,1.648-4.73.7483-.7172,3.4017-1.6292,4.2628-2.147.95-.5716,2.183.0468,3.2414-.2456.98-.2708,2.3849-1.2281,3.432-1.2281,1.2844,0,6.0244,2.1936,7.15,3.07,1.5929,1.24,2.4687,3.4941,3.5274,5.4035.9008,1.6246,2.2752,2.4588,2.6694,4.421A51.74,51.74,0,0,1,332.1471,135.8333Z"/><path class="cls-5" d="M141.75,294.8415c-1.9717.7618-10.4468,1.2166-12.3093.6039-1.879-.6182-2.3253-2.1542-3.6774-3.532-.4-.4074-2.3435-.9894-2.6831-1.4627-1.3645-1.902-2.1472-9.744-1.6454-11.402.7355-2.43,3.2536-4.395,5.0959-6.56,1.1653-1.3692,2.1028-3.3234,3.67-4.4479a51.74,51.74,0,0,1,9.2924-4.1258,34.4264,34.4264,0,0,1,9.5926.6191c1.0733.4363,4.6761,3.7854,5.3055,4.6627.772,1.0761-.29,5.8375-.3828,7.3329-.1318,2.116-1.4329,10.4074-2.9193,11.9741A58.6094,58.6094,0,0,1,141.75,294.8415Z"/><path class="cls-5" d="M128.0257,160.8333c-.5679,2.0553-2.4819,3.1411-3.5789,4.8-1.2077,1.8264-1.8833,4.4387-3.5789,5.6-1.7107,1.1717-7.6919,2.2667-8.3156,2.2667-2.5065,0-9.8178-3.953-10.9471-5.3333-1.6554-2.0234-1.793-5.229-2.5263-8-.4639-1.7529-1.5789-3.6623-1.5789-5.6a49.1775,49.1775,0,0,1,2.21-10c.9738-2.002.3093-3.7123,1.82-5.1357.8262-.7786,3.756-1.7688,4.7067-2.331,1.0494-.6206,2.41.0508,3.5788-.2667,1.0823-.294,2.6333-1.3333,3.7894-1.3333,1.4181,0,6.6516,2.3817,7.8946,3.3333,1.7587,1.3466,2.7257,3.7936,3.8946,5.8667.9946,1.7638,2.5121,2.6695,2.9473,4.8C128.6284,150.9044,128.5275,159.0173,128.0257,160.8333Z"/><path class="cls-5" d="M367.194,193.1667c-.3664,1.5144-1.6012,2.3144-2.309,3.5368-.7792,1.3457-1.215,3.2706-2.3089,4.1263-1.1037.8634-4.9626,1.67-5.3649,1.67-1.6172,0-6.3341-2.9127-7.0627-3.93-1.068-1.4909-1.1567-3.8529-1.63-5.8948-.2993-1.2915-1.0187-2.6985-1.0187-4.1263a40.691,40.691,0,0,1,1.4261-7.3684c.6283-1.4751.2-2.7354,1.1739-3.7841a22.7735,22.7735,0,0,1,3.0366-1.7177c.677-.4572,1.555.0375,2.3089-.1964.6982-.2167,1.6989-.9825,2.4448-.9825.9149,0,4.2913,1.7549,5.0932,2.4561,1.1347.9922,1.7585,2.7953,2.5127,4.3228.6417,1.3,1.6207,1.9671,1.9015,3.5369A46.46,46.46,0,0,1,367.194,193.1667Z"/><path class="cls-5" d="M216.0716,324.8333c-.513,1.244-2.2417,1.9012-3.2326,2.9053-1.0908,1.1054-1.701,2.6866-3.2325,3.3895-1.5451.7091-6.9475,1.3719-7.5109,1.3719-2.2639,0-8.8676-2.3926-9.8877-3.2281-1.4952-1.2246-1.6194-3.1649-2.2818-4.8421-.419-1.0609-1.4261-2.2166-1.4261-3.3894a21.7243,21.7243,0,0,1,1.9966-6.0527c.88-1.2117.2794-2.2469,1.6434-3.1084a41.8926,41.8926,0,0,1,4.2512-1.4109c.9479-.3756,2.177.0308,3.2325-.1614a21.9045,21.9045,0,0,1,3.4227-.807,30.7594,30.7594,0,0,1,7.1306,2.0175c1.5884.815,2.4619,2.2962,3.5177,3.5509.8984,1.0676,2.2689,1.6158,2.6621,2.9053A22.5106,22.5106,0,0,1,216.0716,324.8333Z"/><path class="cls-5" d="M285.194,247.8333c-.3664,1.244-1.6012,1.9012-2.309,2.9053-.7792,1.1054-1.215,2.6866-2.3089,3.3895-1.1037.7091-4.9626,1.3719-5.3649,1.3719-1.6172,0-6.3341-2.3926-7.0627-3.2281-1.068-1.2246-1.1567-3.1649-1.63-4.8421-.2993-1.0609-1.0187-2.2166-1.0187-3.3894a28.1983,28.1983,0,0,1,1.4261-6.0527c.6283-1.2117.2-2.2469,1.1739-3.1084a24.5054,24.5054,0,0,1,3.0366-1.4109c.677-.3756,1.555.0308,2.3089-.1614a12.05,12.05,0,0,1,2.4448-.807,17.4379,17.4379,0,0,1,5.0932,2.0175c1.1347.815,1.7585,2.2962,2.5127,3.5509.6417,1.0676,1.6207,1.6158,1.9015,2.9053A31.3912,31.3912,0,0,1,285.194,247.8333Z"/><path class="cls-6" d="M279.2993,105.8333c-.1634.595-.7139.9093-1.03,1.39-.3474.5287-.5417,1.2849-1.0295,1.6211a8.3236,8.3236,0,0,1-2.392.6561,7.778,7.778,0,0,1-3.149-1.5439,6.2264,6.2264,0,0,1-.7267-2.3157,6.6339,6.6339,0,0,1-.4542-1.6211,14.3152,14.3152,0,0,1,.6358-2.8947c.28-.58.089-1.0747.5235-1.4867a10.5935,10.5935,0,0,1,1.3538-.6747c.3019-.18.6934.0147,1.0295-.0772a5.1227,5.1227,0,0,1,1.09-.386,7.4748,7.4748,0,0,1,2.2709.9649,5.4027,5.4027,0,0,1,1.12,1.6983c.2861.51.7226.7727.8478,1.3894A16.092,16.092,0,0,1,279.2993,105.8333Z"/><path class="cls-6" d="M319.7686,197.8333c-.1166.4327-.51.6613-.735,1.0106-.248.3845-.3867.9344-.7349,1.1789a5.8542,5.8542,0,0,1-1.7076.4772,5.5129,5.5129,0,0,1-2.2481-1.1228,4.5908,4.5908,0,0,1-.5188-1.6842,4.8986,4.8986,0,0,1-.3242-1.179,10.5756,10.5756,0,0,1,.4539-2.1052c.2-.4215.0636-.7816.3737-1.0812a7.5188,7.5188,0,0,1,.9665-.4908c.2155-.1306.495.0107.7349-.0561a3.6128,3.6128,0,0,1,.7782-.2807,5.2835,5.2835,0,0,1,1.6212.7018,3.9354,3.9354,0,0,1,.8,1.235c.2042.3714.5158.562.6052,1.0106A11.9266,11.9266,0,0,1,319.7686,197.8333Z"/><path class="cls-6" d="M255.2771,299.8333c-.1814.595-.7928.9093-1.1433,1.3895-.3858.5287-.6016,1.2849-1.1433,1.6211a10.0612,10.0612,0,0,1-2.6565.6561,9.0493,9.0493,0,0,1-3.4971-1.5439,5.7966,5.7966,0,0,1-.807-2.3157,6.1335,6.1335,0,0,1-.5044-1.6211,13.1007,13.1007,0,0,1,.7061-2.8947c.3111-.58.0989-1.0747.5813-1.4867a12.3313,12.3313,0,0,1,1.5036-.6747c.3352-.18.77.0147,1.1433-.0772a6.1142,6.1142,0,0,1,1.21-.386,8.8159,8.8159,0,0,1,2.522.9649,5.3989,5.3989,0,0,1,1.2442,1.6983c.3177.51.8024.7727.9415,1.3894A14.5017,14.5017,0,0,1,255.2771,299.8333Z"/><path class="cls-6" d="M194.3659,261.5c-.1092.4868-.4772.7439-.6881,1.1368-.2322.4326-.3621,1.0513-.6881,1.3264a4.7832,4.7832,0,0,1-1.5987.5368,4.8972,4.8972,0,0,1-2.1047-1.2632,5.9407,5.9407,0,0,1-.4857-1.8947,6.4032,6.4032,0,0,1-.3035-1.3263,13.99,13.99,0,0,1,.425-2.3684c.1872-.4742.0594-.8793.35-1.2164a6.6742,6.6742,0,0,1,.9049-.5521c.2017-.1469.4634.0121.688-.0631.2081-.07.5063-.3158.7286-.3158a2.7968,2.7968,0,0,1,2.2665,2.1789c.1912.4178.483.6323.5667,1.1369A16.1141,16.1141,0,0,1,194.3659,261.5Z"/><path class="cls-6" d="M154.3659,151.5c-.1092.3245-.4772.496-.6881.7579-.2322.2884-.3621.7008-.6881.8842a6.5762,6.5762,0,0,1-1.5987.3579,5.7368,5.7368,0,0,1-2.1047-.8421,2.9754,2.9754,0,0,1-.4857-1.2632,3.1237,3.1237,0,0,1-.3035-.8842,6.5956,6.5956,0,0,1,.425-1.5789c.1872-.3161.0594-.5862.35-.8109a7.819,7.819,0,0,1,.9049-.3681c.2017-.098.4634.0081.688-.0421a3.9607,3.9607,0,0,1,.7286-.21,5.6538,5.6538,0,0,1,1.5178.5263,2.98,2.98,0,0,1,.7487.9263c.1912.2785.483.4215.5667.7579A7.1839,7.1839,0,0,1,154.3659,151.5Z"/><path class="cls-6" d="M327.7686,239.8333c-.1166.4327-.51.6613-.735,1.0106-.248.3845-.3867.9344-.7349,1.1789a5.8542,5.8542,0,0,1-1.7076.4772,5.5129,5.5129,0,0,1-2.2481-1.1228,4.5908,4.5908,0,0,1-.5188-1.6842,4.8986,4.8986,0,0,1-.3242-1.179,10.5756,10.5756,0,0,1,.4539-2.1052c.2-.4215.0636-.7816.3737-1.0812a7.5188,7.5188,0,0,1,.9665-.4908c.2155-.1306.495.0107.7349-.0561a3.6128,3.6128,0,0,1,.7782-.2807,5.2835,5.2835,0,0,1,1.6212.7018,3.9354,3.9354,0,0,1,.8,1.235c.2042.3714.5158.562.6052,1.0106A11.9266,11.9266,0,0,1,327.7686,239.8333Z"/><path class="cls-6" d="M115.8362,216.1667c-.0617.2163-.2693.3306-.3883.5052-.1311.1923-.2044.4673-.3883.59a3.2331,3.2331,0,0,1-.9022.2386,2.979,2.979,0,0,1-1.1878-.5614,2.208,2.208,0,0,1-.2741-.8421,2.3474,2.3474,0,0,1-.1713-.5895,5.0441,5.0441,0,0,1,.24-1.0526c.1056-.2107.0335-.3908.1974-.5406a4.0575,4.0575,0,0,1,.5106-.2454c.1139-.0653.2615.0054.3883-.028a1.9754,1.9754,0,0,1,.4112-.14,2.877,2.877,0,0,1,.8565.3509,1.96,1.96,0,0,1,.4225.6175c.108.1857.2726.281.32.5053A5.6487,5.6487,0,0,1,115.8362,216.1667Z"/><path class="cls-6" d="M224.7686,164.8333c-.1166.4327-.51.6613-.735,1.0106-.248.3845-.3867.9344-.7349,1.1789a5.8542,5.8542,0,0,1-1.7076.4772,5.5129,5.5129,0,0,1-2.2481-1.1228,4.5908,4.5908,0,0,1-.5188-1.6842,4.8986,4.8986,0,0,1-.3242-1.179,10.5756,10.5756,0,0,1,.4539-2.1052c.2-.4215.0636-.7816.3737-1.0812a7.5188,7.5188,0,0,1,.9665-.4908c.2155-.1306.495.0107.7349-.0561a3.6128,3.6128,0,0,1,.7782-.2807,5.2835,5.2835,0,0,1,1.6212.7018,3.9354,3.9354,0,0,1,.8,1.235c.2042.3714.5158.562.6052,1.0106A11.9266,11.9266,0,0,1,224.7686,164.8333Z"/><path class="cls-7" d="M186.0716,110.8333c-.513,2.0553-4.9336,9.2387-6.4651,10.4-1.5451,1.1717-3.0038.6366-4.8488.9334-.5455.0877-2.0987,1.3333-2.6621,1.3333-2.2639,0-8.8676-3.953-9.8877-5.3333-1.4952-2.0234-1.6194-5.229-2.2818-8-.419-1.7529-1.4261-3.6623-1.4261-5.6a53.7223,53.7223,0,0,1,1.9966-10A34.33,34.33,0,0,1,166.3912,87.1c.9479-.6206,5.6109-1.6,6.6552-1.6,1.2808,0,4.4239,3.6544,5.5466,4.6061,1.5885,1.3465,7.3706,7.2634,7.7638,9.3939A61.1262,61.1262,0,0,1,186.0716,110.8333Z"/><path class="cls-5" d="M329.5108,284.2163c1.12,1.565,3.1382,9.7813,2.8751,11.9632-.2655,2.2013-1.7061,3.4579-2.8223,5.5347-.33.6141-.5478,2.8609-.9543,3.45-1.6337,2.366-9.2651,7.2887-11.002,7.6637-2.546.55-4.96-.9253-7.4469-1.62-1.5732-.44-3.6844-.3429-5.0893-1.313a34.9519,34.9519,0,0,1-5.81-7.0928c-.8168-1.9215-1.3721-8.72-1.16-9.8985a43.8554,43.8554,0,0,1,3.6425-7.7564c.9243-1.3386,5.842-2.794,7.3421-3.4909,2.1226-.986,10.5851-4.0668,12.4135-3.4112C322.7048,278.6767,328.5212,282.8335,329.5108,284.2163Z"/><path class="cls-5" d="M164.0716,222.5c-.513,1.6226-2.2417,2.48-3.2326,3.79-1.0908,1.4418-1.701,3.5042-3.2325,4.421-1.5451.925-6.9475,1.79-7.5109,1.79-2.2639,0-8.8676-3.1208-9.8877-4.21-1.4952-1.5974-1.6194-4.1282-2.2818-6.3158-.419-1.3838-1.4261-2.8913-1.4261-4.4211a34.6892,34.6892,0,0,1,1.9966-7.8947c.88-1.5805.2794-2.9308,1.6434-4.0545.7463-.6147,3.3925-1.3964,4.2512-1.84.9479-.49,2.177.04,3.2325-.2106.9775-.2321,2.3784-1.0526,3.4227-1.0526,1.2808,0,6.0079,1.88,7.1306,2.6316,1.5884,1.063,2.4619,2.9949,3.5177,4.6316.8984,1.3925,2.2689,2.1075,2.6621,3.7894A38.1684,38.1684,0,0,1,164.0716,222.5Z"/><path class="cls-6" d="M160.2236,222.8333c-.4228,1.5685-1.8475,2.3972-2.6642,3.6632-.899,1.3938-1.4019,3.3874-2.6641,4.2737-1.2734.8942-5.7259,1.73-6.19,1.73-1.8659,0-7.3085-3.0167-8.1492-4.07-1.2322-1.5441-1.3346-3.99-1.8805-6.1052-.3453-1.3377-1.1754-2.7949-1.1754-4.2737a38.3412,38.3412,0,0,1,1.6455-7.6316c.7249-1.5278.23-2.8331,1.3545-3.9193.615-.5942,2.7959-1.35,3.5036-1.7789.7813-.4736,1.7943.0387,2.6642-.2036.8057-.2243,1.96-1.0175,2.8209-1.0175,1.0556,0,4.9515,1.8176,5.8767,2.5439,1.3092,1.0276,2.0291,2.8951,2.8993,4.4772.74,1.346,1.87,2.0372,2.194,3.6631A43.22,43.22,0,0,1,160.2236,222.8333Z"/><path class="cls-8" d="M159.2093,221.5c-.3481,1.2981-1.5211,1.9838-2.1935,3.0316-.74,1.1535-1.1543,2.8034-2.1935,3.5368-1.0485.74-4.7144,1.4316-5.0967,1.4316-1.5363,0-6.0173-2.4966-6.7095-3.3684-1.0146-1.2779-1.0989-3.3025-1.5484-5.0527a14.7473,14.7473,0,0,1-.9677-3.5368,31.8731,31.8731,0,0,1,1.3548-6.3158c.5969-1.2644.19-2.3446,1.1152-3.2435a22.3784,22.3784,0,0,1,2.8847-1.4723c.6433-.3919,1.4773.0321,2.1935-.1684a10.7441,10.7441,0,0,1,2.3226-.8421,15.7306,15.7306,0,0,1,4.8386,2.1053c1.0779.85,1.6705,2.3959,2.387,3.7052.61,1.114,1.54,1.686,1.8064,3.0316A35.9507,35.9507,0,0,1,159.2093,221.5Z"/><path class="cls-6" d="M126.0869,159.8333c-.4947,1.893-2.1616,2.8931-3.1171,4.4211-1.0519,1.6821-1.64,4.0883-3.1171,5.1579-1.49,1.0792-6.6994,2.0877-7.2426,2.0877-2.1831,0-8.551-3.6409-9.5346-4.9123-1.4418-1.8636-1.5616-4.8161-2.2-7.3684-.404-1.6144-1.3752-3.3731-1.3752-5.1579a47.5345,47.5345,0,0,1,1.9253-9.21c.8481-1.8439.2694-3.4192,1.5847-4.73.72-.7172,3.2713-1.6292,4.0993-2.147.9141-.5716,2.0993.0468,3.1171-.2456.9427-.2708,2.2935-1.2281,3.3-1.2281,1.2351,0,5.7933,2.1936,6.8759,3.07,1.5317,1.24,2.374,3.4941,3.3921,5.4035.8663,1.6246,2.1879,2.4588,2.567,4.421A53.797,53.797,0,0,1,126.0869,159.8333Z"/><path class="cls-9" d="M125.4175,160.5c-.4078,1.6226-1.782,2.48-2.57,3.79-.8672,1.4418-1.3523,3.5042-2.57,4.421-1.2282.925-5.5228,1.79-5.9706,1.79-1.8,0-7.0492-3.1208-7.86-4.21-1.1885-1.5974-1.2873-4.1282-1.8138-6.3158-.3331-1.3838-1.1337-2.8913-1.1337-4.4211a42.161,42.161,0,0,1,1.5871-7.8947c.6992-1.5805.2221-2.9308,1.3065-4.0545.5932-.6147,2.6967-1.3964,3.3793-1.84.7536-.49,1.7306.04,2.57-.2106.7771-.2321,1.8907-1.0526,2.7208-1.0526,1.0181,0,4.7758,1.88,5.6683,2.6316,1.2627,1.063,1.957,2.9949,2.7964,4.6316.7141,1.3925,1.8036,2.1075,2.1161,3.7894A47.93,47.93,0,0,1,125.4175,160.5Z"/><path class="cls-6" d="M184.2,110.5c-.46,1.7848-4.42,8.0231-5.7917,9.0316-1.3841,1.0175-2.6908.5528-4.3437.8105-.4887.0762-1.88,1.1579-2.3848,1.1579-2.0281,0-7.9439-3.4328-8.8577-4.6316-1.3395-1.7571-1.4508-4.5409-2.0441-6.9473-.3754-1.5222-1.2776-3.18-1.2776-4.8632a45.3966,45.3966,0,0,1,1.7886-8.6842,29.9854,29.9854,0,0,1,5.2806-6.4842A23.0473,23.0473,0,0,1,172.5311,88.5c1.1475,0,3.9632,3.1736,4.9689,4,1.423,1.1694,6.6029,6.3077,6.9551,8.1579A51.4768,51.4768,0,0,1,184.2,110.5Z"/><path class="cls-8" d="M181.2761,112.6927c-.368,1.429-3.5387,6.4238-4.6372,7.2313-1.1082.8146-2.1545.4426-3.4778.6489-.3914.061-1.5054.9271-1.91.9271-1.6238,0-6.36-2.7485-7.0921-3.7083-1.0724-1.4069-1.1615-3.6358-1.6366-5.5626-.3-1.2187-1.0229-2.5464-1.0229-3.8937a36.3458,36.3458,0,0,1,1.4321-6.9532,24.0091,24.0091,0,0,1,4.2279-5.1916,18.4532,18.4532,0,0,1,4.7736-1.1125c.9187,0,3.1731,2.5409,3.9784,3.2026,1.1393.9363,5.2866,5.05,5.5686,6.5318A41.2075,41.2075,0,0,1,181.2761,112.6927Z"/><path class="cls-5" d="M248.0869,90.1667c-.4947,1.6766-2.1616,2.5624-3.1171,3.9158-1.0519,1.49-1.64,3.621-3.1171,4.5684-1.49.9558-6.6994,1.8491-7.2426,1.8491-2.1831,0-8.551-3.2248-9.5346-4.3509-1.4418-1.6506-1.5616-4.2657-2.2-6.5263-.404-1.43-1.3752-2.9876-1.3752-4.5684a37.9542,37.9542,0,0,1,1.9253-8.1579c.8481-1.6332.2694-3.0285,1.5847-4.19.72-.6352,3.2713-1.443,4.0993-1.9016.9141-.5063,2.0993.0414,3.1171-.2176.9427-.24,2.2935-1.0877,3.3-1.0877,1.2351,0,5.7933,1.9429,6.8759,2.7193,1.5317,1.0985,2.374,3.0948,3.3921,4.786.8663,1.4389,2.1879,2.1777,2.567,3.9158A42.2418,42.2418,0,0,1,248.0869,90.1667Z"/><path class="cls-6" d="M245.2236,89.8333c-.4228,1.5685-1.8475,2.3972-2.6642,3.6632-.899,1.3938-1.4019,3.3874-2.6641,4.2737-1.2734.8942-5.7259,1.73-6.19,1.73-1.8659,0-7.3085-3.0167-8.1492-4.07-1.2322-1.5441-1.3346-3.99-1.8805-6.1052C223.33,87.9869,222.5,86.53,222.5,85.0509a38.3412,38.3412,0,0,1,1.6455-7.6316c.7249-1.5278.23-2.8331,1.3545-3.9193.615-.5942,2.7959-1.35,3.5036-1.7789.7813-.4736,1.7943.0387,2.6642-.2036.8057-.2243,1.96-1.0175,2.8209-1.0175,1.0556,0,4.9515,1.8176,5.8767,2.5439,1.3092,1.0276,2.0291,2.8951,2.8993,4.4772.74,1.346,1.87,2.0372,2.194,3.6631A43.22,43.22,0,0,1,245.2236,89.8333Z"/><path class="cls-8" d="M242.194,90.1221c-.3664,1.3594-1.6012,2.0776-2.309,3.1748-.7792,1.208-1.215,2.9358-2.3089,3.7039-1.1037.775-4.9626,1.4992-5.3649,1.4992-1.6172,0-6.3341-2.6145-7.0627-3.5275-1.068-1.3383-1.1567-3.4585-1.63-5.2913-.2993-1.1593-1.0187-2.4222-1.0187-3.7039a33.2294,33.2294,0,0,1,1.4261-6.6141c.6283-1.3241.2-2.4554,1.1739-3.3968a23.5915,23.5915,0,0,1,3.0366-1.5417c.677-.41,1.555.0336,2.3089-.1764a11.3432,11.3432,0,0,1,2.4448-.8819,16.6038,16.6038,0,0,1,5.0932,2.2047c1.1347.8906,1.7585,2.5091,2.5127,3.88.6417,1.1666,1.6207,1.7656,1.9015,3.1748A37.4593,37.4593,0,0,1,242.194,90.1221Z"/><path class="cls-6" d="M330.193,135.1667c-.4594,1.6766-2.0076,2.5624-2.895,3.9158-.977,1.49-1.5235,3.621-2.8951,4.5684-1.3838.9558-6.2222,1.8491-6.7267,1.8491-2.0276,0-7.9419-3.2248-8.8554-4.3509-1.3391-1.6506-1.45-4.2657-2.0436-6.5263-.3752-1.43-1.2772-2.9876-1.2772-4.5684a40.4082,40.4082,0,0,1,1.7881-8.1579c.7877-1.6332.25-3.0285,1.4719-4.19.6683-.6352,3.0383-1.443,3.8073-1.9016.849-.5063,1.95.0414,2.895-.2176.8755-.24,2.13-1.0877,3.0654-1.0877,1.1471,0,5.3806,1.9429,6.3861,2.7193,1.4226,1.0985,2.2049,3.0948,3.1505,4.786.8045,1.4389,2.032,2.1777,2.3841,3.9158A45.4529,45.4529,0,0,1,330.193,135.1667Z"/><path class="cls-8" d="M327.1634,135.4345c-.4031,1.4709-1.7613,2.248-2.54,3.4353-.8571,1.3072-1.3365,3.1768-2.54,4.0079-1.214.8386-5.4588,1.6223-5.9014,1.6223-1.7789,0-6.9675-2.8291-7.7689-3.8171-1.1748-1.4481-1.2725-3.7423-1.7929-5.7256-.3292-1.2544-1.12-2.621-1.12-4.0079a35.4577,35.4577,0,0,1,1.5687-7.157c.6911-1.4328.22-2.6569,1.2913-3.6755a26.1142,26.1142,0,0,1,3.34-1.6683c.7448-.4442,1.7105.0363,2.54-.1909.768-.21,1.8687-.9543,2.6892-.9543,1.0064,0,4.7205,1.7046,5.6026,2.3857,1.2481.9637,1.9343,2.7151,2.7639,4.1988.7059,1.2623,1.7828,1.91,2.0917,3.4353A39.8784,39.8784,0,0,1,327.1634,135.4345Z"/><path class="cls-5" d="M264.9375,143.1667c-.3058,1.0276-1.3364,1.5705-1.9272,2.4-.65.9131-1.0141,2.2193-1.9271,2.8a16.6206,16.6206,0,0,1-4.4778,1.1333c-1.35,0-5.2867-1.9765-5.8948-2.6667-.8914-1.0116-.9655-2.6144-1.36-4a10.7841,10.7841,0,0,1-.85-2.8,23.0939,23.0939,0,0,1,1.19-5c.5244-1.0009.1666-1.8561.98-2.5678a20.5611,20.5611,0,0,1,2.5344-1.1655c.5651-.31,1.2979.0254,1.9272-.1333a10.1279,10.1279,0,0,1,2.04-.6667,14.643,14.643,0,0,1,4.2511,1.6667A9.3114,9.3114,0,0,1,263.52,135.1c.5356.8819,1.3527,1.3348,1.5871,2.4A25.6669,25.6669,0,0,1,264.9375,143.1667Z"/><path class="cls-6" d="M283.24,247.8333c-.3115,1.244-1.361,1.9012-1.9626,2.9053-.6623,1.1054-1.0328,2.6866-1.9626,3.3895a14.7765,14.7765,0,0,1-4.56,1.3719c-1.3746,0-5.384-2.3926-6.0033-3.2281-.9078-1.2246-.9832-3.1649-1.3853-4.8421A14.928,14.928,0,0,1,266.5,244.04a32.4335,32.4335,0,0,1,1.2122-6.0527c.534-1.2117.17-2.2469.9978-3.1084a19.5544,19.5544,0,0,1,2.5811-1.4109c.5755-.3756,1.3217.0308,1.9626-.1614.5935-.1779,1.444-.807,2.078-.807a13.612,13.612,0,0,1,4.3293,2.0175c.9645.815,1.4947,2.2962,2.1358,3.5509.5454,1.0676,1.3775,1.6158,1.6163,2.9053A36.8861,36.8861,0,0,1,283.24,247.8333Z"/><path class="cls-8" d="M282.2705,245.7353c-.2748,1.0976-1.2009,1.6775-1.7317,2.5635-.5844.9753-.9113,2.37-1.7317,2.9907a13.0376,13.0376,0,0,1-4.0237,1.21c-1.2129,0-4.7506-2.1111-5.297-2.8483-.801-1.0806-.8676-2.7926-1.2224-4.2724a13.1706,13.1706,0,0,1-.764-2.9908,28.6116,28.6116,0,0,1,1.07-5.34c.4712-1.0692.15-1.9826.88-2.7427a17.2445,17.2445,0,0,1,2.2774-1.2449c.5078-.3314,1.1663.0271,1.7317-.1424.5237-.1571,1.2742-.7121,1.8336-.7121a12.01,12.01,0,0,1,3.82,1.78,10.0962,10.0962,0,0,1,1.8845,3.1331c.4812.942,1.2155,1.4257,1.4261,2.5635A32.5481,32.5481,0,0,1,282.2705,245.7353Z"/><path class="cls-6" d="M329.217,284.6533c1.0376,1.4475,2.9131,9.0426,2.672,11.0587-.2432,2.0342-1.5744,3.1939-2.6046,5.112-.3047.5671-.5037,2.6433-.879,3.187-1.5087,2.1848-8.5621,6.726-10.1683,7.0707-2.3543.5053-4.5885-.86-6.89-1.5052-1.4556-.408-3.4082-.3209-4.7087-1.2188a32.4164,32.4164,0,0,1-5.3811-6.561c-.7575-1.7766-1.2783-8.06-1.0834-9.1489a40.4132,40.4132,0,0,1,3.3609-7.1642c.8535-1.2361,5.4006-2.5759,6.7874-3.2183,1.9622-.909,9.7864-3.7472,11.4782-3.1393C322.916,279.5267,328.3,283.3743,329.217,284.6533Z"/><path class="cls-8" d="M327.4749,285.095c.96,1.3386,2.6941,8.3628,2.4711,10.2273-.2249,1.8812-1.456,2.9538-2.4088,4.7277-.2817.5245-.4658,2.4446-.8129,2.9474-1.3952,2.0206-7.9184,6.22-9.4038,6.5392-2.1773.4673-4.2436-.7957-6.3718-1.3921-1.3461-.3773-3.1519-.2967-4.3547-1.1272a29.9832,29.9832,0,0,1-4.9766-6.0677c-.7-1.6431-1.1821-7.4538-1.0019-8.4611a37.3716,37.3716,0,0,1,3.1082-6.6256c.7894-1.1432,4.9946-2.3822,6.2772-2.9764,1.8147-.8406,9.0506-3.4654,10.6153-2.9033C321.6476,280.3538,326.627,283.9122,327.4749,285.095Z"/><path class="cls-6" d="M214.1175,325.5556c-.458,1.1267-2.0015,1.722-2.8862,2.6315-.974,1.0013-1.5188,2.4335-2.8862,3.07A32.5666,32.5666,0,0,1,201.639,332.5c-2.0214,0-7.9176-2.1672-8.8284-2.924-1.335-1.1093-1.4459-2.8667-2.0373-4.3859-.3741-.961-1.2733-2.0078-1.2733-3.07a19.8783,19.8783,0,0,1,1.7826-5.4825c.7854-1.0975.25-2.0352,1.4674-2.8156a37.0413,37.0413,0,0,1,3.7957-1.2779c.8463-.34,1.9438.0278,2.8862-.1462a19.32,19.32,0,0,1,3.0559-.731,27.1584,27.1584,0,0,1,6.3666,1.8275c1.4183.7382,2.1982,2.08,3.1409,3.2163.8021.967,2.0258,1.4636,2.3768,2.6316A20.68,20.68,0,0,1,214.1175,325.5556Z"/><path class="cls-8" d="M213.17,325.5c-.3957.9735-1.7293,1.4879-2.4937,2.2737-.8415.8651-1.3122,2.1025-2.4936,2.6526a28.14,28.14,0,0,1-5.7941,1.0737,23.4065,23.4065,0,0,1-7.6277-2.5263c-1.1534-.9584-1.2493-2.4769-1.76-3.79-.3232-.83-1.1-1.7347-1.1-2.6526a17.1768,17.1768,0,0,1,1.54-4.7369c.6785-.9483.2155-1.7584,1.2678-2.4326a31.9765,31.9765,0,0,1,3.28-1.1042c.7312-.294,1.6794.0241,2.4936-.1263a16.6887,16.6887,0,0,1,2.64-.6316,23.4694,23.4694,0,0,1,5.5007,1.5789,9.51,9.51,0,0,1,2.7137,2.779c.693.8355,1.75,1.2645,2.0536,2.2737A17.8671,17.8671,0,0,1,213.17,325.5Z"/><path class="cls-6" d="M141.66,293.0847c-1.7181.667-9.0953,1.0857-10.7145.5589-1.6336-.5316-2.0177-1.8642-3.1906-3.057-.3468-.3526-2.0368-.8527-2.331-1.2627-1.1822-1.6479-1.8414-8.4558-1.4-9.897.6469-2.1126,2.844-3.8258,4.4534-5.7107,1.018-1.1923,1.8394-2.892,3.2067-3.8729a45.4029,45.4029,0,0,1,8.0988-3.609,29.9873,29.9873,0,0,1,8.3467.5109,23.0447,23.0447,0,0,1,4.6044,4.0343c.6689.9323-.2684,5.07-.3536,6.369-.1207,1.8379-1.2763,9.0419-2.5743,10.4066A51.4659,51.4659,0,0,1,141.66,293.0847Z"/><path class="cls-8" d="M141.1373,293.4879c-1.615.6271-8.55,1.0206-10.0719.5254-1.5357-.5-1.8967-1.7524-2.9993-2.8736-.326-.3315-1.9146-.8016-2.1912-1.187-1.1113-1.5491-1.731-7.9487-1.3161-9.3035.6081-1.9859,2.6734-3.5964,4.1863-5.3682.9569-1.1208,1.7291-2.7186,3.0144-3.6407a42.6783,42.6783,0,0,1,7.6131-3.3925,28.19,28.19,0,0,1,7.8462.48,21.6652,21.6652,0,0,1,4.3282,3.7923c.6288.8764-.2523,4.7661-.3324,5.9871-.1134,1.7277-1.2,8.5-2.42,9.7825A48.3781,48.3781,0,0,1,141.1373,293.4879Z"/><path class="cls-6" d="M365.2552,194.1667c-.2931,1.5144-1.281,2.3144-1.8472,3.5368-.6233,1.3457-.972,3.2706-1.8471,4.1263-.883.8634-3.97,1.67-4.292,1.67-1.2937,0-5.0672-2.9127-5.65-3.93-.8544-1.4909-.9254-3.8529-1.3039-5.8948a22.6132,22.6132,0,0,1-.8149-4.1263,49.8384,49.8384,0,0,1,1.1409-7.3684c.5026-1.4751.16-2.7354.9391-3.7841a17.6659,17.6659,0,0,1,2.4292-1.7177c.5417-.4572,1.2441.0375,1.8472-.1964.5586-.2167,1.3591-.9825,1.9558-.9825.7319,0,3.4331,1.7549,4.0746,2.4561.9077.9922,1.4068,2.7953,2.01,4.3228.5133,1.3,1.2965,1.9671,1.5212,3.5369A58.0071,58.0071,0,0,1,365.2552,194.1667Z"/><path class="cls-8" d="M364.13,193.8333c-.2722,1.4063-1.1894,2.1492-1.7152,3.2842-.5788,1.25-.9026,3.037-1.7152,3.8316A10.8278,10.8278,0,0,1,356.714,202.5c-1.2013,0-4.7053-2.7047-5.2465-3.6491-.7934-1.3844-.8593-3.5777-1.2108-5.4737a20.9977,20.9977,0,0,1-.7567-3.8316,46.2839,46.2839,0,0,1,1.0594-6.8421c.4667-1.37.1483-2.54.872-3.5138a16.4,16.4,0,0,1,2.2558-1.595c.5029-.4246,1.1551.0348,1.7152-.1824.5187-.2012,1.262-.9123,1.8161-.9123.68,0,3.1879,1.63,3.7836,2.2807.8428.9213,1.3063,2.5956,1.8665,4.014.4767,1.2069,1.2039,1.8266,1.4126,3.2842A53.8667,53.8667,0,0,1,364.13,193.8333Z"/><path class="cls-6" d="M264.2072,143.8333c-.2736.9195-1.1957,1.4052-1.7243,2.1474-.5819.8171-.9074,1.9857-1.7243,2.5053a14.8714,14.8714,0,0,1-4.0064,1.014,13.4883,13.4883,0,0,1-5.2743-2.386c-.7976-.9051-.8639-2.3392-1.2172-3.5789A9.65,9.65,0,0,1,249.5,141.03a20.6644,20.6644,0,0,1,1.065-4.4737c.4692-.8956.149-1.6607.8767-2.2975a18.3944,18.3944,0,0,1,2.2676-1.0428c.5056-.2776,1.1613.0227,1.7243-.1193a9.0635,9.0635,0,0,1,1.8257-.5965,13.1031,13.1031,0,0,1,3.8036,1.4912,8.3334,8.3334,0,0,1,1.8764,2.6246c.4792.7891,1.21,1.1943,1.42,2.1474A22.9641,22.9641,0,0,1,264.2072,143.8333Z"/><path class="cls-8" d="M262.3164,143.1667c-.22.8653-.9607,1.3225-1.3854,2.021-.4675.769-.729,1.8689-1.3854,2.3579a10.542,10.542,0,0,1-3.2189.9544,10.18,10.18,0,0,1-4.2376-2.2456c-.6408-.8519-.694-2.2017-.9779-3.3684a10.2629,10.2629,0,0,1-.6112-2.3579,22.2737,22.2737,0,0,1,.8557-4.2106c.3769-.8429.12-1.563.7043-2.1623a13.8589,13.8589,0,0,1,1.8219-.9815c.4063-.2613.933.0214,1.3854-.1123.4189-.1238,1.0193-.5614,1.4669-.5614a9.6737,9.6737,0,0,1,3.0559,1.4035,7.9365,7.9365,0,0,1,1.5076,2.47c.385.7427.9724,1.124,1.1409,2.021A25.2906,25.2906,0,0,1,262.3164,143.1667Z"/></svg>
