<svg id="Layer_1" data-name="Layer 1" xmlns="http://www.w3.org/2000/svg" viewBox="0 0 1920 1080"><defs><style>.cls-1{fill:#f997a4;opacity:0.37;}.cls-2{fill:#ffc2d4;}.cls-3{fill:#42210b;}.cls-4{fill:#f898a4;}.cls-5{fill:#fff;}.cls-6{fill:#603813;}</style></defs><title>game over</title><rect class="cls-1" y="-3" width="1919" height="1083"/><rect class="cls-2" y="-3" width="33.5418" height="1081.5119"/><rect class="cls-2" x="70.1165" y="-3" width="33.5418" height="1081.5119"/><rect class="cls-2" x="136.1838" y="-3" width="33.5418" height="1081.5119"/><rect class="cls-2" x="202.2511" y="-3" width="33.5418" height="1081.5119"/><rect class="cls-2" x="271.3676" y="-3" width="33.5418" height="1081.5119"/><rect class="cls-2" x="337.4349" y="-3" width="33.5418" height="1081.5119"/><rect class="cls-2" x="405.535" y="-2.5144" width="33.5418" height="1079.5311"/><rect class="cls-2" x="474.6515" y="-2.5144" width="33.5418" height="1079.5311"/><rect class="cls-2" x="540.7188" y="-2.5144" width="33.5418" height="1079.5311"/><rect class="cls-2" x="606.786" y="-2.5144" width="33.5418" height="1079.5311"/><rect class="cls-2" x="675.9025" y="-2.5144" width="33.5418" height="1079.5311"/><rect class="cls-2" x="741.9698" y="-2.5144" width="33.5418" height="1079.5311"/><rect class="cls-2" x="809.0535" y="-3" width="33.5418" height="1078.5215"/><rect class="cls-2" x="878.17" y="-3" width="33.5418" height="1078.5215"/><rect class="cls-2" x="944.2373" y="-3" width="33.5418" height="1078.5215"/><rect class="cls-2" x="1010.3046" y="-3" width="33.5418" height="1078.5215"/><rect class="cls-2" x="1079.4211" y="-3" width="33.5418" height="1078.5215"/><rect class="cls-2" x="1145.4883" y="-3" width="33.5418" height="1078.5215"/><rect class="cls-2" x="1213.5885" y="-3" width="33.5418" height="1077.0263"/><rect class="cls-2" x="1282.705" y="-3" width="33.5418" height="1077.0263"/><rect class="cls-2" x="1348.7722" y="-3" width="33.5418" height="1077.0263"/><rect class="cls-2" x="1414.8395" y="-3" width="33.5418" height="1077.0263"/><rect class="cls-2" x="1483.956" y="-3" width="33.5418" height="1077.0263"/><rect class="cls-2" x="1550.0233" y="-3" width="33.5418" height="1077.0263"/><rect class="cls-2" x="1616.0906" y="-3" width="33.5418" height="1075.5311"/><rect class="cls-2" x="1685.2071" y="-3" width="33.5418" height="1075.5311"/><rect class="cls-2" x="1751.2744" y="-3" width="33.5418" height="1075.5311"/><rect class="cls-2" x="1817.3416" y="-3" width="33.5418" height="1075.5311"/><rect class="cls-2" x="1886.4582" y="-3" width="33.5418" height="1075.5311"/><path class="cls-3" d="M943.3612,190.1544a8.8327,8.8327,0,0,0-6.7635,3.422,89.1674,89.1674,0,0,1-24.5124,20.4156c-9.3669,5.3106-17.6579,8.1261-25.0259,8.3962-11.4561.4238-19.3952-2.909-23.9138-10.1713,19.2007-5.726,32.8937-12.49,40.9721-20.7529,8.0716-8.2522,12.1183-17.9444,11.9369-29.1738-.1547-9.5954-3.2734-17.1629-9.451-22.6423-6.1756-5.4773-14.3551-8.0717-24.4322-7.6923a53.34,53.34,0,0,0-29.8668,9.9682,56.8065,56.8065,0,0,0-19.221,24.34,67.2193,67.2193,0,0,0-5.0338,31.8149,70.3727,70.3727,0,0,0,1.5344,10.3227c-3.1128,3.8884-5.816,7.0455-8.1017,9.4087-4.2,4.3423-7.9058,6.66-11.1759,6.95-4.7428.4229-7.4151-2.5887-8.0268-9.0711-.4215-4.5329.2516-13.9985,2.1595-28.3863,2.1958-16.8631,3.1107-28.4537,2.5571-34.7766-.9022-10.53-6.9973-15.3405-18.2693-14.2452-9.1829.8979-18.6125,6.4812-28.01,16.754-9.4023,10.2774-17.0207,25.9362-22.6383,46.8974.1043-2.97.4274-7.4473.9942-13.4336,1.3729-13.9741,1.79-23.541,1.1114-28.7068q-1.0434-7.9857-5.2978-11.3643c-2.8414-2.2447-7.2942-2.9643-13.3327-2.11-6.0408.8554-12.1613,3.9386-18.2811,9.2432-6.1226,5.3089-11.6657,12.8357-16.5564,22.5646q-7.3384,14.5931-10.6887,34.5463a157.8392,157.8392,0,0,1-.6441-18.1066q.2521-7.3529,1.1077-17.4165c.9776-9.418,1.28-15.4117.8379-17.9791q-.577-3.3656-2.8458-4.2156c-1.5155-.562-3.9916-.5472-7.4259.0631-6.3583,1.1307-11.0987,3.1272-14.2,5.944q-4.66,4.2278-5.61,11.6263a182.4381,182.4381,0,0,0,1.5614,56.5812c-3.7753,6.378-6.9373,11.34-9.53,14.8359-3.5641,4.8152-6.8552,7.5525-9.9162,8.213a6.0494,6.0494,0,0,1-5.1858-1.12,8.7837,8.7837,0,0,1-3.0775-5.3211c-1.5719-7.15-2.5373-20.27-2.6738-39.39-.2216-13.1014-.6432-21.3319-1.3608-24.6733-1.1856-5.5648-5.9526-7.4764-14.2763-5.6285a62.924,62.924,0,0,0-10.981,3.4868q-2.4784-4.9356-4.8623-6.5162c-1.5894-1.0476-4.264-1.1381-8.0093-.2484a58.8315,58.8315,0,0,0-30.5879,18.5658,76.7845,76.7845,0,0,0-18.1353,63.8128Q519.76,267.48,508.3689,282.7224q-1.4052-9.27-2.7767-18.547c-2.6125-18.4216-4.3486-30.2161-5.3559-35.3527q-1.1525-6.534-5.7721-8.8394a13.2279,13.2279,0,0,0-10.11-.6093q-23.2571,7.1912-46.3365,15.1317c-4.1147,1.416-6.9729,3.7982-8.5678,7.1157q-2.3918,4.9827-.0969,11.4233,2.529,7.1325,7.2617,8.9541,4.7287,1.83,11.4993-.5088,12.3548-4.2441,24.7635-8.27,2.89,14.7147,5.8489,29.4118c-10.3507,8.6936-20.854,14.9466-31.6968,18.7863-19.4733,6.9019-36.0859,7.5658-50.2832,1.6621-14.1752-5.8953-25.0616-17.7473-32.3789-35.8582-7.1252-17.6508-10.146-34.033-8.7934-49.1862,1.3446-15.1418,6.1665-27.9936,14.46-38.4194A68.5233,68.5233,0,0,1,401.54,157.26c10.4016-3.6436,18.446-4.37,24.05-2.3018q8.4147,3.111,11.6005,12.8647a50.045,50.045,0,0,1,1.8256,10.7068,52.8188,52.8188,0,0,0,1.5865,8.2164,10.2614,10.2614,0,0,0,6.9443,6.9618q5.1721,1.6431,12.0008-.5574c6.7512-2.1617,11.0835-6.5334,13.043-13.1868,1.9527-6.6452,1.5643-14.5613-1.2351-23.7476-4.2641-14.0041-12.7817-23.723-25.77-28.93-12.9687-5.1972-29.9593-4.4-50.6035,2.7911-21.5215,7.5035-39.1523,19.5338-52.4758,35.66a102.4805,102.4805,0,0,0-23.2314,55.7976c-2.188,20.9718,1.77,42.47,11.3365,64.5608,6.855,15.8323,16.6006,28.0871,28.9849,36.9751a83.2711,83.2711,0,0,0,42.04,15.3349c15.661,1.3976,31.939-1.0488,49.1667-7.2367,11.6894-4.1973,22.7457-10.8515,33.3689-20.01q.3757,2.3176.7538,4.6348c-12.1623,17.9033-20.6009,33.3305-25.77,46.0921-5.1667,12.7668-7.8016,23.404-8.14,31.8738a58.692,58.692,0,0,0,3.6122,23.4242c2.951,7.7571,7.6347,13.1507,13.99,16.2444s13.1155,3.3291,20.3671.7314c13.4993-4.8323,21.5061-17.75,24.5485-39.1325q4.5319-32.0638-1.3281-83.0945c10.778-13.696,19.8863-24.6692,27.0327-33.0341a37.8158,37.8158,0,0,0,9.4573,9.5811c7.8036,5.4275,16.4988,6.8395,26.2388,4.2978,12.4023-3.2338,21.03-12.3773,26.1989-27.6547a34.1417,34.1417,0,0,0,13.3323,12.298,23.057,23.057,0,0,0,15.5782,2.1264c6.8023-1.4932,13.2413-5.7683,19.4423-12.8477q3.6467-4.1622,7.0322-8.8663a40.9515,40.9515,0,0,0,2.905,5.6319c3.7354,5.9014,8.593,8.2649,14.6336,7.1329,4.9253-.9221,8.3041-2.8959,10.146-5.9545q2.7554-4.5854,3.4343-16.3485a196.6671,196.6671,0,0,1,3.8786-27.91,116.6,116.6,0,0,1,7.4041-23.9823c2.9087-6.4033,5.66-9.8,8.1823-10.19,1.8493-.2863,2.9738.8625,3.3662,3.4327.4939,3.2193.8506,10.0781,1.1161,20.5722.1325,11.8335.7074,20.8037,1.6594,26.912q1.6958,10.8522,6.8529,17.8336c3.4274,4.66,7.754,6.5955,13.0269,5.8314,5.112-.74,8.6479-2.54,10.6218-5.44q2.9557-4.3425,4.0822-16.3121a162.2288,162.2288,0,0,1,5.9505-29.3179,111.5419,111.5419,0,0,1,9.3846-22.9042c3.3935-5.8873,6.2188-8.9507,8.4152-9.1961,1.8569-.2071,2.93.9886,3.2134,3.5732.428,3.8824.0951,11.0387-.9226,21.467-1.0225,11.9038-1.2308,20.12-.7154,24.6445,1.0377,9.0559,3.9395,15.7216,8.6544,20.0289,4.7155,4.3125,11.1341,6.0345,19.3182,5.24a48.3319,48.3319,0,0,0,26.4593-10.6451,107.23,107.23,0,0,0,12.4293-11.9454,45.8168,45.8168,0,0,0,5.0263,5.0619c10.032,8.6389,23.3626,12.4856,40.26,11.8308A73.33,73.33,0,0,0,920.0715,236.68c10.8529-6.3379,19.3661-13.0994,25.4723-20.405,3.1293-3.5671,4.7355-8.6,4.776-15.1109q.032-5.1255-1.8285-8.0647A5.8044,5.8044,0,0,0,943.3612,190.1544ZM491.0891,393.0576c-1.4169,10.644-3.9336,16.6184-7.6986,17.9591q-6.0786,2.1658-9.313-6.7722c-2.21-6.1211-2.3376-14.0835-.2278-23.9,2.11-9.81,7.1176-21.7166,15.3183-35.612C491.8189,366.3205,492.5012,382.4114,491.0891,393.0576ZM588.95,239.9308q.2676,10.7355-3.0433,18.08c-2.2053,4.905-5.0472,7.794-8.5632,8.6884a10.6731,10.6731,0,0,1-9.1962-1.4127q-3.9293-2.7591-5.8568-10.0726a63.2447,63.2447,0,0,1-1.4037-26.3722,50.3262,50.3262,0,0,1,9.1855-22.6049A31.6454,31.6454,0,0,1,587.71,194.0577Q588.1921,217.0118,588.95,239.9308Zm269.1615-46.9966c-.5489-9.9069,1.12-18.4794,5.0964-25.69,3.9738-7.206,9.1689-10.9587,15.5025-11.2156a9.6192,9.6192,0,0,1,7.416,2.5259,10.2879,10.2879,0,0,1,2.943,7.3463c.2041,6.02-2.5047,11.3964-8.0389,16.1718-5.5389,4.7816-13.1688,8.5325-22.8921,11.3487Q858.1249,193.1778,858.1113,192.9342Z"/><path class="cls-3" d="M1453.498,257.3317a10.0348,10.0348,0,0,0-7.6182.6733c-9.4988,4.26-16.4344,5.6742-20.9516,4.151-4.0329-1.3584-5.1548-4.7249-3.36-10.1334.5131-1.5413,2.4408-5.1892,5.8146-10.9259q6.0754-10.8353,7.1-13.8386c3.3757-10.0147-.3614-16.8813-11.251-20.4114-5.5237-1.7868-12.1795-1.9378-19.8944-.4127-7.7188,1.5275-16.2688,5.4813-25.5528,11.9017q-13.9316,9.63-27.6934,27.5744a162.4017,162.4017,0,0,1,7.3652-16.6874q3.4787-6.6242,8.6506-15.3c5.0048-8.0435,7.8974-13.3029,8.6193-15.8061q.9492-3.28-.7332-5.0382c-1.1253-1.1689-3.3739-2.24-6.75-3.1943-6.2488-1.7661-11.4085-2.0433-15.443-.8655q-6.0581,1.7661-10.1484,8.0074a181.6079,181.6079,0,0,0-23.1855,51.1569,89.8077,89.8077,0,0,1-21.7765,8.7331c-10.4865,2.6914-19.2739,3.2558-26.5048,1.6018-11.2408-2.567-18.0862-7.8461-20.5953-16.0339,20.123-.55,35.1869-3.5227,45.1811-9.4021,9.9854-5.8709,16.43-14.179,19.16-25.0733,2.333-9.309,1.2561-17.4311-3.3342-24.3315-4.59-6.8983-11.8693-11.5312-21.761-13.7833a53.7814,53.7814,0,0,0-31.5831,1.8767,56.8305,56.8305,0,0,0-24.9427,18.53,65.1864,65.1864,0,0,0-6.0149,9.21,185.61,185.61,0,0,1-20.4272-1.0669c5.6486-8.5831,9.1786-16.4594,10.4792-23.6658q1.6945-9.3658-2.0406-15.12a15.94,15.94,0,0,0-11.2451-7.0293,25.3574,25.3574,0,0,0-16.0015,2.3158,33.5,33.5,0,0,0-12.475,10.9,37.2586,37.2586,0,0,0-4.9641,32.5744c-6.301,7.7668-15.4778,18.074-27.2439,31.0769,1.7742-29.9738,3.81-54.2454,6.3112-72.7914q.88-6.5307-1.9772-9.7443c-1.9126-2.1385-5.1172-3.5061-9.6106-4.0724-5.8775-.74-10.4178-.2118-13.5971,1.5415q-4.777,2.6373-5.9369,10.6152-.4857,4.2436-.97,8.4873c-.6616,5.78-1.2341,11.9287-1.7372,18.3914a154.1718,154.1718,0,0,1-20.6324.8027c-.0868-12.598-3.6564-23.5587-10.8715-32.8021-7.2082-9.2392-17.5063-14.4173-30.697-15.359a53.1526,53.1526,0,0,0-29.8593,6.3452,54.6336,54.6336,0,0,0-21.6262,21.7334c-5.3226,9.4839-8.1207,20.4258-8.5421,32.7812a60.283,60.283,0,0,0,4.54,25.5637,46.2876,46.2876,0,0,0,14.9391,19.4575c6.6448,5.0505,14.7434,7.8508,24.3937,8.4848,11.4149.7513,21.899-2.5421,31.6883-9.94,9.78-7.392,16.9678-17.6764,21.4738-30.9658a134.1525,134.1525,0,0,0,23.6664-.6123q-.3384,7.69-.58,15.871-.4692,16.9,4.2792,25.3331a18.5322,18.5322,0,0,0,14.55,9.718,26.9954,26.9954,0,0,0,16.5625-2.89c5.1362-2.7148,11.5964-8.1768,19.5127-16.3341q10.3922-10.7346,19.4526-20.8522a75.46,75.46,0,0,0,19.9641,6.434,91.1861,91.1861,0,0,0,11.2245,1.3177c-1.316,13.119,1.3385,24.3761,7.8162,33.8341,7.4963,10.945,19.4372,18.1168,36.0237,21.8736a74.29,74.29,0,0,0,36.4521-.8066,126.2556,126.2556,0,0,0,14.2863-4.7464,43.9575,43.9575,0,0,0,.0733,7.9432c.7962,6.9416,4.15,11.1912,10.1071,12.8146q7.2858,1.9879,11.7795-.9178,4.4984-2.9194,10.2554-13.2034a161.1642,161.1642,0,0,1,17.2158-24.4949q9.5756-11.18,17.9578-17.1977c5.5742-4.0109,9.624-5.6212,12.0814-4.862,1.8024.5568,2.3178,2.0841,1.5452,4.5669q-.507,1.634-2.4453,6.1414a35.562,35.562,0,0,0-2.8991,6.7671c-2.2147,7.1524-1.7543,13.506,1.3243,19.081,3.0781,5.577,8.8007,9.7,17.2109,12.4743a43.162,43.162,0,0,0,20.52,1.6446,71.8894,71.8894,0,0,0,19.63-5.912q6.5064-3.1176,9.59-11.5971a12.8874,12.8874,0,0,0,.7112-7.6564A6.0782,6.0782,0,0,0,1453.498,257.3317Zm-399.2269-39.4365a18.1611,18.1611,0,0,1-14.1063,5.35c-4.749-.3185-8.7266-2.9245-11.9865-7.8452-3.262-4.9166-4.67-11.8357-4.18-20.7736.6233-11.3691,3.3308-20.0668,8.2041-26.0551,4.8665-5.9833,10.7595-8.7547,17.59-8.2727q.64.0452,1.28.0909a40.11,40.11,0,0,0-1.3219,7.7364,38.8827,38.8827,0,0,0,2.9113,17.83,34.7534,34.7534,0,0,0,10.8631,14.3084Q1060.55,212.0227,1054.2711,217.8952Zm195.42,4.6562c2.03-9.7122,5.87-17.56,11.5951-23.4934,5.7231-5.93,11.7385-8.2062,17.9574-6.81a9.7012,9.7012,0,0,1,6.552,4.3665,10.2511,10.2511,0,0,1,.9593,7.861c-1.36,5.8679-5.3823,10.3575-11.9962,13.5326-6.6191,3.18-15.0005,4.8222-25.1674,5.02C1249.6246,222.87,1249.6583,222.7106,1249.6914,222.5514Z"/><path class="cls-3" d="M1583.4226,167.6942c-12.3066-5.1619-21.8489-3.3711-28.48,5.1767q-15.9441,20.9481-35.9771,50.5747c-13.3215,19.7733-24.52,37.6923-33.76,53.6649q-.47.8655-.94,1.7312-1.659,4.3335.6629,7.5754a15.1548,15.1548,0,0,0,7.0737,5.1061c6.5018,2.55,11.578,1.79,15.2774-2.3381,12.9437-14.2625,27.6083-31.2464,44.16-50.8711,16.5493-19.6206,30.6025-36.3034,41.8928-50.2155a16.5594,16.5594,0,0,0,2.7072-4.1476C1598.6937,177.84,1594.5057,172.356,1583.4226,167.6942Z"/><path class="cls-3" d="M1480.1949,300.8109c-7.2523-2.7989-13.6846-2.8655-19.23-.2425-5.5492,2.6234-9.5622,7.3947-12.0842,14.2674-2.1868,5.9585-2.2052,11.4089-.1016,16.3552,2.1067,4.95,6.5056,8.68,13.2349,11.2658,6.878,2.6448,13.0962,2.6991,18.7359.1257,5.6312-2.5708,9.8756-7.3023,12.6771-14.2456,2.5571-6.3361,2.7444-11.8333.5193-16.4911C1491.7207,307.1938,1487.1292,303.4887,1480.1949,300.8109Z"/><ellipse class="cls-4" cx="971.3784" cy="804.8649" rx="160.3784" ry="136.1351"/><ellipse class="cls-2" cx="980.7027" cy="801.1351" rx="160.3784" ry="136.1351"/><path class="cls-5" d="M922.8919,856.4325V744.4272a19.2118,19.2118,0,0,1,28.6112-16.7554l95.6712,53.6692a19.2118,19.2118,0,0,1,.6024,33.1584l-95.6712,58.3361A19.2118,19.2118,0,0,1,922.8919,856.4325Z"/><path class="cls-6" d="M953.3612,182.1544a8.8327,8.8327,0,0,0-6.7635,3.422,89.1674,89.1674,0,0,1-24.5124,20.4156c-9.3669,5.3106-17.6579,8.1261-25.0259,8.3962-11.4561.4238-19.3952-2.909-23.9138-10.1713,19.2007-5.726,32.8937-12.49,40.9721-20.7529,8.0716-8.2522,12.1183-17.9444,11.9369-29.1738-.1547-9.5954-3.2734-17.1629-9.451-22.6423-6.1756-5.4773-14.3551-8.0717-24.4322-7.6923a53.34,53.34,0,0,0-29.8668,9.9682,56.8065,56.8065,0,0,0-19.221,24.34,67.2193,67.2193,0,0,0-5.0338,31.8149,70.3727,70.3727,0,0,0,1.5344,10.3227c-3.1128,3.8884-5.816,7.0455-8.1017,9.4087-4.2,4.3423-7.9058,6.66-11.1759,6.95-4.7428.4229-7.4151-2.5887-8.0268-9.0711-.4215-4.5329.2516-13.9985,2.1595-28.3863,2.1958-16.8631,3.1107-28.4537,2.5571-34.7766-.9022-10.53-6.9973-15.3405-18.2693-14.2452-9.1829.8979-18.6125,6.4812-28.01,16.754-9.4023,10.2774-17.0207,25.9362-22.6383,46.8974.1043-2.97.4274-7.4473.9942-13.4336,1.3729-13.9741,1.79-23.541,1.1114-28.7068q-1.0434-7.9857-5.2978-11.3643c-2.8414-2.2447-7.2942-2.9643-13.3327-2.11-6.0408.8554-12.1613,3.9386-18.2811,9.2432-6.1226,5.3089-11.6657,12.8357-16.5564,22.5646q-7.3384,14.5931-10.6887,34.5463a157.8392,157.8392,0,0,1-.6441-18.1066q.2521-7.3529,1.1077-17.4165c.9776-9.418,1.28-15.4117.8379-17.9791q-.577-3.3656-2.8458-4.2156c-1.5155-.562-3.9916-.5472-7.4259.0631-6.3583,1.1307-11.0987,3.1272-14.2,5.944q-4.66,4.2278-5.61,11.6263a182.4381,182.4381,0,0,0,1.5614,56.5812c-3.7753,6.378-6.9373,11.34-9.53,14.8359-3.5641,4.8152-6.8552,7.5525-9.9162,8.213a6.0494,6.0494,0,0,1-5.1858-1.12,8.7837,8.7837,0,0,1-3.0775-5.3211c-1.5719-7.15-2.5373-20.27-2.6738-39.39-.2216-13.1014-.6432-21.3319-1.3608-24.6733-1.1856-5.5648-5.9526-7.4764-14.2763-5.6285a62.924,62.924,0,0,0-10.981,3.4868q-2.4784-4.9356-4.8623-6.5162c-1.5894-1.0476-4.264-1.1381-8.0093-.2484a58.8315,58.8315,0,0,0-30.5879,18.5658,76.7845,76.7845,0,0,0-18.1353,63.8128Q529.76,259.48,518.3689,274.7224q-1.4052-9.27-2.7767-18.547c-2.6125-18.4216-4.3486-30.2161-5.3559-35.3527q-1.1525-6.534-5.7721-8.8394a13.2279,13.2279,0,0,0-10.11-.6093q-23.2571,7.1912-46.3365,15.1317c-4.1147,1.416-6.9729,3.7982-8.5678,7.1157q-2.3918,4.9827-.0969,11.4233,2.529,7.1325,7.2617,8.9541,4.7287,1.83,11.4993-.5088,12.3548-4.2441,24.7635-8.27,2.89,14.7147,5.8489,29.4118c-10.3507,8.6936-20.854,14.9466-31.6968,18.7863-19.4733,6.9019-36.0859,7.5658-50.2832,1.6621-14.1752-5.8953-25.0616-17.7473-32.3789-35.8582-7.1252-17.6508-10.146-34.033-8.7934-49.1862,1.3446-15.1418,6.1665-27.9936,14.46-38.4194A68.5233,68.5233,0,0,1,411.54,149.26c10.4016-3.6436,18.446-4.37,24.05-2.3018q8.4147,3.111,11.6005,12.8647a50.045,50.045,0,0,1,1.8256,10.7068,52.8188,52.8188,0,0,0,1.5865,8.2164,10.2614,10.2614,0,0,0,6.9443,6.9618q5.1721,1.6431,12.0008-.5574c6.7512-2.1617,11.0835-6.5334,13.043-13.1868,1.9527-6.6452,1.5643-14.5613-1.2351-23.7476-4.2641-14.0041-12.7817-23.723-25.77-28.93-12.9687-5.1972-29.9593-4.4-50.6035,2.7911-21.5215,7.5035-39.1523,19.5338-52.4758,35.66a102.4805,102.4805,0,0,0-23.2314,55.7976c-2.188,20.9718,1.77,42.47,11.3365,64.5608,6.855,15.8323,16.6006,28.0871,28.9849,36.9751a83.2711,83.2711,0,0,0,42.04,15.3349c15.661,1.3976,31.939-1.0488,49.1667-7.2367,11.6894-4.1973,22.7457-10.8515,33.3689-20.01q.3757,2.3176.7538,4.6348c-12.1623,17.9033-20.6009,33.3305-25.77,46.0921-5.1667,12.7668-7.8016,23.404-8.14,31.8738a58.692,58.692,0,0,0,3.6122,23.4242c2.951,7.7571,7.6347,13.1507,13.99,16.2444s13.1155,3.3291,20.3671.7314c13.4993-4.8323,21.5061-17.75,24.5485-39.1325q4.5319-32.0638-1.3281-83.0945c10.778-13.696,19.8863-24.6692,27.0327-33.0341a37.8158,37.8158,0,0,0,9.4573,9.5811c7.8036,5.4275,16.4988,6.8395,26.2388,4.2978,12.4023-3.2338,21.03-12.3773,26.1989-27.6547a34.1417,34.1417,0,0,0,13.3323,12.298,23.057,23.057,0,0,0,15.5782,2.1264c6.8023-1.4932,13.2413-5.7683,19.4423-12.8477q3.6467-4.1622,7.0322-8.8663a40.9515,40.9515,0,0,0,2.905,5.6319c3.7354,5.9014,8.593,8.2649,14.6336,7.1329,4.9253-.9221,8.3041-2.8959,10.146-5.9545q2.7554-4.5853,3.4343-16.3485a196.6671,196.6671,0,0,1,3.8786-27.91,116.6,116.6,0,0,1,7.4041-23.9823c2.9087-6.4033,5.66-9.8,8.1823-10.19,1.8493-.2863,2.9738.8625,3.3662,3.4327.4939,3.2193.8506,10.0781,1.1161,20.5722.1325,11.8335.7074,20.8037,1.6594,26.912q1.6958,10.8522,6.8529,17.8336c3.4274,4.66,7.754,6.5955,13.0269,5.8314,5.112-.74,8.6479-2.54,10.6218-5.44q2.9557-4.3425,4.0822-16.3121a162.2288,162.2288,0,0,1,5.9505-29.3179,111.5419,111.5419,0,0,1,9.3846-22.9042c3.3935-5.8873,6.2188-8.9507,8.4152-9.1961,1.8569-.2071,2.93.9886,3.2134,3.5732.428,3.8824.0951,11.0387-.9226,21.467-1.0225,11.9038-1.2308,20.12-.7154,24.6445,1.0377,9.0559,3.9395,15.7216,8.6544,20.0289,4.7155,4.3125,11.1341,6.0345,19.3182,5.24a48.3319,48.3319,0,0,0,26.4593-10.6451,107.23,107.23,0,0,0,12.4293-11.9454,45.8168,45.8168,0,0,0,5.0263,5.0619c10.032,8.6389,23.3626,12.4856,40.26,11.8308A73.33,73.33,0,0,0,930.0715,228.68c10.8529-6.3379,19.3661-13.0994,25.4723-20.405,3.1293-3.5671,4.7355-8.6,4.776-15.1109q.032-5.1255-1.8285-8.0647A5.8044,5.8044,0,0,0,953.3612,182.1544ZM501.0891,385.0576c-1.4169,10.644-3.9336,16.6184-7.6986,17.9591q-6.0786,2.1658-9.313-6.7722c-2.21-6.1211-2.3376-14.0835-.2278-23.9,2.11-9.81,7.1176-21.7166,15.3183-35.612C501.8189,358.3205,502.5012,374.4114,501.0891,385.0576ZM598.95,231.9308q.2676,10.7355-3.0433,18.08c-2.2053,4.905-5.0472,7.794-8.5632,8.6884a10.6731,10.6731,0,0,1-9.1962-1.4127q-3.9293-2.7591-5.8568-10.0726a63.2447,63.2447,0,0,1-1.4037-26.3722,50.3262,50.3262,0,0,1,9.1855-22.6049A31.6454,31.6454,0,0,1,597.71,186.0577Q598.1921,209.0118,598.95,231.9308Zm269.1615-46.9966c-.5489-9.9069,1.12-18.4794,5.0964-25.69,3.9738-7.206,9.1689-10.9587,15.5025-11.2156a9.6192,9.6192,0,0,1,7.416,2.5259,10.2879,10.2879,0,0,1,2.943,7.3463c.2041,6.02-2.5047,11.3964-8.0389,16.1718-5.5389,4.7816-13.1688,8.5325-22.8921,11.3487Q868.1249,185.1778,868.1113,184.9342Z"/><path class="cls-6" d="M1463.498,249.3317a10.0348,10.0348,0,0,0-7.6182.6733c-9.4988,4.26-16.4344,5.6742-20.9516,4.151-4.0329-1.3584-5.1548-4.7249-3.36-10.1334.5131-1.5413,2.4408-5.1892,5.8146-10.9259q6.0754-10.8353,7.1-13.8386c3.3757-10.0147-.3614-16.8813-11.251-20.4114-5.5237-1.7868-12.1795-1.9378-19.8944-.4127-7.7188,1.5275-16.2688,5.4813-25.5528,11.9017q-13.9316,9.63-27.6934,27.5744a162.4017,162.4017,0,0,1,7.3652-16.6874q3.4787-6.6242,8.6506-15.3c5.0048-8.0435,7.8974-13.3029,8.6193-15.8061q.9492-3.28-.7332-5.0382c-1.1253-1.1689-3.3739-2.24-6.75-3.1943-6.2488-1.7661-11.4085-2.0433-15.443-.8655q-6.0581,1.7661-10.1484,8.0074a181.6079,181.6079,0,0,0-23.1855,51.1569,89.8077,89.8077,0,0,1-21.7765,8.7331c-10.4865,2.6914-19.2739,3.2558-26.5048,1.6018-11.2408-2.567-18.0862-7.8461-20.5953-16.0339,20.123-.55,35.1869-3.5227,45.1811-9.4021,9.9854-5.8709,16.43-14.179,19.16-25.0733,2.333-9.309,1.2561-17.4311-3.3342-24.3315-4.59-6.8983-11.8693-11.5312-21.761-13.7833a53.7814,53.7814,0,0,0-31.5831,1.8767,56.8305,56.8305,0,0,0-24.9427,18.53,65.1864,65.1864,0,0,0-6.0149,9.21,185.61,185.61,0,0,1-20.4272-1.0669c5.6486-8.5831,9.1786-16.4594,10.4792-23.6658q1.6945-9.3658-2.0406-15.12a15.94,15.94,0,0,0-11.2451-7.0293,25.3574,25.3574,0,0,0-16.0015,2.3158,33.5,33.5,0,0,0-12.475,10.9,37.2586,37.2586,0,0,0-4.9641,32.5744c-6.301,7.7668-15.4778,18.074-27.2439,31.0769,1.7742-29.9738,3.81-54.2454,6.3112-72.7914q.88-6.5307-1.9772-9.7443c-1.9126-2.1385-5.1172-3.5061-9.6106-4.0724-5.8775-.74-10.4178-.2118-13.5971,1.5415q-4.777,2.6373-5.9369,10.6152-.4857,4.2436-.97,8.4873c-.6616,5.78-1.2341,11.9287-1.7372,18.3914a154.1718,154.1718,0,0,1-20.6324.8027c-.0868-12.598-3.6564-23.5587-10.8715-32.8021-7.2082-9.2392-17.5063-14.4173-30.697-15.359a53.1526,53.1526,0,0,0-29.8593,6.3452,54.6336,54.6336,0,0,0-21.6262,21.7334c-5.3226,9.4839-8.1207,20.4258-8.5421,32.7812a60.283,60.283,0,0,0,4.54,25.5637,46.2876,46.2876,0,0,0,14.9391,19.4575c6.6448,5.0505,14.7434,7.8508,24.3937,8.4848,11.4149.7513,21.899-2.5421,31.6883-9.94,9.78-7.392,16.9678-17.6764,21.4738-30.9658a134.1525,134.1525,0,0,0,23.6664-.6123q-.3384,7.69-.58,15.871-.4692,16.9,4.2792,25.3331a18.5322,18.5322,0,0,0,14.55,9.718,26.9954,26.9954,0,0,0,16.5625-2.89c5.1362-2.7148,11.5964-8.1768,19.5127-16.3341q10.3922-10.7346,19.4526-20.8522a75.46,75.46,0,0,0,19.9641,6.434,91.1861,91.1861,0,0,0,11.2245,1.3177c-1.316,13.119,1.3385,24.3761,7.8162,33.8341,7.4963,10.945,19.4372,18.1168,36.0237,21.8736a74.29,74.29,0,0,0,36.4521-.8066,126.2556,126.2556,0,0,0,14.2863-4.7464,43.9575,43.9575,0,0,0,.0733,7.9432c.7962,6.9416,4.15,11.1912,10.1071,12.8146q7.2858,1.9879,11.7795-.9178,4.4984-2.9194,10.2554-13.2034a161.1642,161.1642,0,0,1,17.2158-24.4949q9.5756-11.18,17.9578-17.1977c5.5742-4.0109,9.624-5.6212,12.0814-4.862,1.8024.5568,2.3178,2.0841,1.5452,4.5669q-.507,1.634-2.4453,6.1414a35.562,35.562,0,0,0-2.8991,6.7671c-2.2147,7.1524-1.7543,13.506,1.3243,19.081,3.0781,5.577,8.8007,9.7,17.2109,12.4743a43.162,43.162,0,0,0,20.52,1.6446,71.8894,71.8894,0,0,0,19.63-5.912q6.5064-3.1176,9.59-11.5971a12.8874,12.8874,0,0,0,.7112-7.6564A6.0782,6.0782,0,0,0,1463.498,249.3317Zm-399.2269-39.4365a18.1611,18.1611,0,0,1-14.1063,5.35c-4.749-.3185-8.7266-2.9245-11.9865-7.8452-3.262-4.9166-4.67-11.8357-4.18-20.7736.6233-11.3691,3.3308-20.0668,8.2041-26.0551,4.8665-5.9833,10.7595-8.7547,17.59-8.2727q.64.0452,1.28.0909a40.11,40.11,0,0,0-1.3219,7.7364,38.8827,38.8827,0,0,0,2.9113,17.83,34.7534,34.7534,0,0,0,10.8631,14.3084Q1070.55,204.0227,1064.2711,209.8952Zm195.42,4.6562c2.03-9.7122,5.87-17.56,11.5951-23.4934,5.7231-5.93,11.7385-8.2062,17.9574-6.81a9.7012,9.7012,0,0,1,6.552,4.3665,10.2511,10.2511,0,0,1,.9593,7.861c-1.36,5.8679-5.3823,10.3575-11.9962,13.5326-6.6191,3.18-15.0005,4.8222-25.1674,5.02C1259.6246,214.87,1259.6583,214.7106,1259.6914,214.5514Z"/><path class="cls-6" d="M1593.4226,159.6942c-12.3066-5.1619-21.8489-3.3711-28.48,5.1767q-15.9441,20.9481-35.9771,50.5747c-13.3215,19.7733-24.52,37.6923-33.76,53.6649q-.47.8655-.94,1.7312-1.659,4.3335.6629,7.5754a15.1548,15.1548,0,0,0,7.0737,5.1061c6.5018,2.55,11.578,1.79,15.2774-2.3381,12.9437-14.2625,27.6083-31.2464,44.16-50.8711,16.5493-19.6206,30.6025-36.3034,41.8928-50.2155a16.5594,16.5594,0,0,0,2.7072-4.1476C1608.6937,169.84,1604.5057,164.356,1593.4226,159.6942Z"/><path class="cls-6" d="M1490.1949,292.8109c-7.2523-2.7989-13.6846-2.8655-19.23-.2425-5.5492,2.6234-9.5622,7.3947-12.0842,14.2674-2.1868,5.9585-2.2052,11.4089-.1016,16.3552,2.1067,4.95,6.5056,8.68,13.2349,11.2658,6.878,2.6448,13.0962,2.6991,18.7359.1257,5.6312-2.5708,9.8756-7.3023,12.6771-14.2456,2.5571-6.3361,2.7444-11.8333.5193-16.4911C1501.7207,299.1938,1497.1292,295.4887,1490.1949,292.8109Z"/><path class="cls-3" d="M731.0452,538.2092c-2.0453-7.3732-5.8258-13.0122-11.4347-16.8473a45.4876,45.4876,0,0,0-18.7053-7.4051,208.3447,208.3447,0,0,0-26.8957-2.1327c-9.1708-.1371-16.4349-.3467-21.744-.7695a42.3744,42.3744,0,0,1-14.31-3.5013,16.2322,16.2322,0,0,1-8.82-9.3391c-2.4542-6.4715-1.33-12.6633,3.5162-18.5233,4.837-5.85,13.1815-10.8962,24.99-14.8493,8.3711-2.8,15.8163-3.7582,22.2416-2.9526,6.4279.8119,10.3479,3.7065,11.81,8.5923q.42,1.4,1.3806,6.8157a29.9329,29.9329,0,0,0,1.2319,6.29,8.687,8.687,0,0,0,5.495,5.5842,14.2253,14.2253,0,0,0,9.5112.2617c4.9239-1.4107,8.1344-4.3108,9.6644-8.7613,1.5239-4.4454,1.321-10.3645-.6648-17.7573a26.6129,26.6129,0,0,0-12.7525-16.9179c-6.52-3.7358-14.4656-5.62-23.7878-5.5464a95.5217,95.5217,0,0,0-29.3806,5.2037c-13.7293,4.5775-24.987,10.6427-33.6548,17.921-8.6747,7.2853-14.2993,15.2177-16.9327,23.617a35.2031,35.2031,0,0,0,1.1557,24.7289c3.21,7.7458,8.145,13.2864,14.6988,16.7238a55.5989,55.5989,0,0,0,20.8505,6.1718c7.3549.6914,16.5435.9423,27.5332.933,8.5874.067,15.2629.4308,20.0679.9563a34.7718,34.7718,0,0,1,12.7121,3.7487,14.636,14.636,0,0,1,7.3208,8.8773c1.98,6.3865.5422,12.2555-4.1793,17.6654-4.726,5.4206-12.1775,9.8248-22.4074,13.4549-9.871,3.5077-17.9567,5.1538-24.3843,4.7731-6.4227-.3735-10.6721-3.0459-12.701-8.126a23.9682,23.9682,0,0,1-1.1439-3.664,18.8617,18.8617,0,0,0-.6689-2.4793,30.5249,30.5249,0,0,0-1.8048-6.146,7.8217,7.8217,0,0,0-5.5832-4.8341,14.1409,14.1409,0,0,0-9.139.9678c-4.5857,1.8948-7.3645,4.9911-8.3063,9.225-.9469,4.2391-.0686,9.4216,2.5854,15.5508,5.0336,11.6018,13.51,18.1113,25.21,19.9153,11.7223,1.8143,25.1879-.2415,40.8179-5.8355,17.6265-6.2962,30.6026-14.4023,39.209-25.0358C732.2311,564.1572,734.8683,552.04,731.0452,538.2092Z"/><path class="cls-3" d="M858.1173,458.56c5.872-.6956,10.4291-2.619,13.7122-5.83a14.1106,14.1106,0,0,0,4.237-12.056,10.4921,10.4921,0,0,0-5.75-8.7638c-3.4566-1.844-7.8057-2.4806-13.0138-1.8776-5.7751.67-10.4235,2.6988-13.8992,6.0313-3.4815,3.338-4.9015,7.1253-4.3226,11.3355a12.1767,12.1767,0,0,0,5.6641,9.2576C847.9345,458.6257,852.3792,459.2413,858.1173,458.56Z"/><path class="cls-3" d="M960.2911,508.3418a6.8938,6.8938,0,0,0-5.19,2.6194c-6.0694,7.0242-10.9424,12.0572-14.7719,15.04a23.1463,23.1463,0,0,1-13.4634,4.8408,10.5877,10.5877,0,0,1-8.119-2.7581q-3.2184-3.0037-5.0328-10.3739c13.2671-19.5829,24.4567-38.8708,32.9906-58.1593,8.5407-19.2771,13.1493-36.0578,13-50.5219-.0963-10.0814-2.1621-17.812-6.2919-23.1556-4.1271-5.3391-9.7936-7.9339-16.907-7.705-12.6.4071-23.1886,7.79-31.2241,21.9387-8.0475,14.1548-13.3568,30.9193-16.0915,50.1686-2.7355,19.2539-3.2318,36.2643-1.8822,51.0214a107.1481,107.1481,0,0,0,2.615,15.9538c-4.14,5.5217-7.49,9.743-10.1221,12.608-3.0946,3.3739-5.7444,5.1932-8.0037,5.4489a5.3358,5.3358,0,0,1-5.4244-2.3051q-1.8568-2.7109-2.5171-8.1407c-.5643-4.7027-.15-13.8719,1.4521-27.5127,1.2193-11.268,1.7311-18.4135,1.39-21.4325-.4521-4.1-4.1252-5.7891-11.0082-4.9482-4.451.5474-7.5921,1.697-9.4153,3.4105s-3.0709,4.584-3.735,8.6a166.7874,166.7874,0,0,0-2.4425,24.5505,137.5551,137.5551,0,0,0,.5009,18.3764,95.6755,95.6755,0,0,1-8.1648,10.3469,19.8292,19.8292,0,0,1-11.1025,6.2791,26.85,26.85,0,0,1-6.7354.0831,63.8854,63.8854,0,0,0,6.0063-17.8938,55.4615,55.4615,0,0,0,.1571-19.0613c-1.4554-8.744-4.9593-15.4383-10.6207-20a23.1219,23.1219,0,0,0-19.7963-4.6747,28.6617,28.6617,0,0,0-12.5693,5.8062c-3.686,2.95-7.1231,7.2727-10.254,12.9562q-.6788-2.0876-1.6783-6.5331-1.2009-4.3967-3.4365-5.4809c-1.4933-.7159-3.64-.7578-6.4341-.102a22.1143,22.1143,0,0,0-11.2111,5.8966c-2.677,2.7975-3.4976,5.8921-2.4976,9.2716q2.9511,9.9667,9.4864,35.7575c-7.125,21.4908-10.7782,40.6684-11.7065,57.42-.9193,16.7583.5486,30.8144,3.9357,42.2274,2.39,8.0352,5.6968,13.8921,9.8458,17.6187,4.1573,3.7257,9.1051,4.7652,14.9437,3.1765,9.613-2.6111,14.9589-12.0291,16.46-28.5724,1.4763-16.5355.5532-36.4113-3.0518-59.6355a44.2179,44.2179,0,0,0,20.2584-11.3939,20.87,20.87,0,0,0,17.0275,3.82,38.187,38.187,0,0,0,19.617-9.56,82.5271,82.5271,0,0,0,7.5255-7.9521,29.1792,29.1792,0,0,0,3.054,4.1757c4.4274,5.022,10.56,6.99,18.517,6.0313,9.4233-1.1332,18.7818-8.0446,28.7418-20.6866.5783,1.01,1.1729,1.996,1.7992,2.9433,6.1182,9.2533,14.444,13.4771,25.2592,12.8933a39.301,39.301,0,0,0,20.9595-7.0631,88.7512,88.7512,0,0,0,17.2645-16.1754c2.3752-2.69,3.5732-6.4594,3.5539-11.32a10.7448,10.7448,0,0,0-1.4743-6.0064A4.511,4.511,0,0,0,960.2911,508.3418ZM767.5146,618.6987c1.53,14.3506.8817,21.9-2.1061,22.7073q-1.658.4478-3.7253-2.1966a24.1473,24.1473,0,0,1-3.6252-8.2641c-2.0017-7.2613-3.0777-16.6107-3.0538-28.0676a221.7228,221.7228,0,0,1,3.3206-36.85Q765.2583,597.168,767.5146,618.6987Zm28.8541-90.703a43.433,43.433,0,0,1-6.3008,15.797,26.2607,26.2607,0,0,1-10.8371,9.7277q-.8195-4.4823-2.6581-12.664-3.4035-15.108-4.9735-22.9756c4.5325-10.4821,9.31-16.2142,14.0194-17.18a7.9233,7.9233,0,0,1,6.8364,1.5039q2.9008,2.31,3.94,7.6767A46.6391,46.6391,0,0,1,796.3687,527.9957Zm116.5827-77.9732q3.2058-22.6461,8.721-38.0643c3.6661-10.2728,7.2664-15.4683,10.6144-15.5924,4.077-.15,6.2607,4.4092,6.54,13.6351.3669,11.7813-2.2539,24.885-7.4712,39.3777a282.5933,282.5933,0,0,1-20.5776,43.868A232.0065,232.0065,0,0,1,912.9514,450.0225Z"/><path class="cls-3" d="M1030.36,453.9545c5.8961.3817,10.7213-.683,14.5318-3.2441a14.1147,14.1147,0,0,0,6.3531-11.0868,10.4947,10.4947,0,0,0-4.06-9.6616c-3.0629-2.44-7.223-3.8563-12.4481-4.2083-5.7941-.3893-10.7271.7622-14.7445,3.4086-4.0215,2.6507-6.1016,6.1177-6.2972,10.3628-.1956,4.25,1.1086,7.6192,3.88,10.1317C1020.3486,452.1709,1024.6023,453.5828,1030.36,453.9545Z"/><path class="cls-3" d="M1320.0409,582.791a4.6261,4.6261,0,0,0-2.8619-3.6035,7.083,7.083,0,0,0-5.9019.2789,185.8276,185.8276,0,0,1-18.7659,7.98c-4.4013,1.45-7.771,1.7282-10.1606.8025-3.4667-1.34-4.3407-4.2636-2.6181-8.81,1.2106-3.1771,4.8229-9.2819,10.9607-18.2454,7.1678-10.5194,11.6941-17.9437,13.412-22.3594,2.8792-7.344.1458-12.6844-8.2522-15.83-4.259-1.591-9.4382-1.9994-15.4707-1.18-6.036.8229-12.7616,3.4436-20.083,7.9072q-10.9852,6.6923-21.9209,19.6794a115.8759,115.8759,0,0,1,5.9776-12.2488q2.805-4.8418,6.9627-11.1593c4.0186-5.8479,6.36-9.6817,6.9634-11.5307q.7933-2.4236-.4869-3.8007c-.8562-.9175-2.5918-1.8-5.2045-2.6335-4.8387-1.542-8.8536-1.92-12.01-1.1669a13.6525,13.6525,0,0,0-7.9991,5.6784,129.5668,129.5668,0,0,0-18.62,37.6271,70.68,70.68,0,0,1-16.8622,5.9924c-8.0882,1.7736-14.8343,2.0239-20.37.6567-8.604-2.12-13.8274-6.161-15.7212-12.3192,15.4754-.1248,27.096-2.03,34.864-6.2081,7.759-4.1689,12.8379-10.2178,15.0672-18.3019,1.9053-6.9068,1.1536-13.0156-2.3581-18.2952-3.5112-5.2759-9.15-8.9174-16.8443-10.8063a42.5055,42.5055,0,0,0-43.9724,14.38,48.3513,48.3513,0,0,0-10.1156,21.8757c-.1331.689-.2491,1.3715-.3546,2.0482a273.211,273.211,0,0,0-26.1283,11.8957q1.8879-5.5968,3.604-10.5768,1.712-4.9785,3.2119-9.16c5.2477-14.6355,8.5541-23.7361,9.7289-27.3547a23.66,23.66,0,0,0,.796-3.3751q.6939-3.9452-1.165-5.66c-1.2406-1.139-3.5331-1.997-6.8656-2.5481a46.0659,46.0659,0,0,0-8.92-.6907q-.3879-4.1146-1.6641-5.88c-.85-1.1713-2.76-1.9873-5.7192-2.4194a46.2633,46.2633,0,0,0-27.3068,4.4063A55.7434,55.7434,0,0,0,1055.0887,496.6a54.5689,54.5689,0,0,0-9.5385,25.7372c-2.6411,2.3283-4.9175,4.2276-6.8258,5.6655-3.6551,2.7565-6.5891,4.0645-8.8546,3.9059a5.331,5.331,0,0,1-4.9109-3.2513q-1.33-3.0032-.9931-8.4621c.3-4.7268,2.3682-13.6687,6.4185-26.7921,3.2434-10.8592,5.0423-17.7932,5.256-20.8241.3-4.1134-3.003-6.4413-9.9154-6.8637-4.4706-.27-7.7627.2913-9.8624,1.6452q-3.1522,2.0325-5.2251,7.7792a166.966,166.966,0,0,0-6.8494,23.6991,124.3411,124.3411,0,0,0-3.006,20.951c-.3277,9.2287,1.2759,16.697,4.7043,22.4316,3.4336,5.7416,9.0944,8.7911,17.086,9.2916,7.7589.4885,16.1891-2.8561,25.639-9.9329a27.4449,27.4449,0,0,0,2.2236,3.9093c4.0685,5.88,9.8385,9.2075,17.4328,10.095a22.41,22.41,0,0,0,10.3479-1.3891,21.9375,21.9375,0,0,0,9.2309-6.3927q-1.0458,3.4425-2.083,6.8871c-20.8626,11.7383-34.5479,22.7133-42.0573,31.9545-7.5027,9.262-11.4158,18.2659-12.095,26.8614-.4852,6.1786.9336,11.3114,4.1816,15.43a18.5776,18.5776,0,0,0,13.3087,7.0308c10.51,1.0969,19.96-4.9437,28.9356-18.2334q13.4364-19.9354,26.3629-56.0213,6.469-2.9259,13.0363-5.7514c4.674-2.1131,11.655-5.1444,21.0813-8.9112a34.25,34.25,0,0,0,4.8159,10.1493c5.72,8.2573,14.8019,13.747,27.4425,16.831a59.0959,59.0959,0,0,0,27.8855.1269,100.2325,100.2325,0,0,0,11.0083-3.197,32.2892,32.2892,0,0,0-.0631,5.9415c.5033,5.2122,2.9964,8.4747,7.52,9.8554,3.688,1.1263,6.688,1.02,9.0222-.3442q3.4958-2.0482,8.1074-9.5572a110.9852,110.9852,0,0,1,13.8036-17.7235,87.45,87.45,0,0,1,14.1144-12.2511c4.266-2.8356,7.246-3.9458,8.8823-3.3685,1.3841.4882,1.75,1.6534,1.0984,3.4821-.9767,2.748-3.569,7.4323-7.7163,14.0864-4.6329,7.6407-7.4725,13.0864-8.5953,16.2961-2.241,6.4266-2.3924,11.8692-.5113,16.3387,1.88,4.4743,5.7893,7.7807,11.7621,10.0191a39.2066,39.2066,0,0,0,22.0161,1.9214,93.009,93.009,0,0,0,22.4375-7.8427c3.3-1.4929,5.9329-4.4548,7.8643-8.9156A10.5811,10.5811,0,0,0,1320.0409,582.791Zm-256.7454,26.0172c-4.4767,6.8073-8.0594,10.0757-10.8918,9.7735a3.8937,3.8937,0,0,1-3.4513-2.3745,10.44,10.44,0,0,1-.5982-5.1893c.4872-4.8342,2.9906-10.2685,7.6517-16.2416s12.0041-12.4311,22.2727-19.1622C1072.7147,590.93,1067.7719,602.0005,1063.2955,608.8082Zm30.0984-88.3251q-3.0531,9.14-7.6965,13.6534c-3.095,3.0169-6.0581,4.3443-8.9335,3.9851a8.2563,8.2563,0,0,1-6.157-3.4995q-2.0385-2.9913-1.3993-8.6a45.9276,45.9276,0,0,1,6.28-18.7137,37.7607,37.7607,0,0,1,12.7914-13.18,24.1768,24.1768,0,0,1,15.8244-3.5788Q1098.6423,505.4893,1093.3939,520.4831Zm67.77,9.1213c1.5978-7.234,4.587-13.0473,9.0447-17.3955,4.4536-4.3429,9.1362-5.943,13.954-4.7795a7.7009,7.7009,0,0,1,5.0582,3.3958,7.4756,7.4756,0,0,1,.6915,5.9012c-1.0942,4.3627-4.2407,7.638-9.3711,9.8887-5.1351,2.2559-11.6131,3.34-19.4559,3.3449Q1161.1243,529.7823,1161.1637,529.6044Z"/><path class="cls-6" d="M741.0452,534.2092c-2.0453-7.3732-5.8258-13.0122-11.4347-16.8473a45.4876,45.4876,0,0,0-18.7053-7.4051,208.3447,208.3447,0,0,0-26.8957-2.1327c-9.1708-.1371-16.4349-.3467-21.744-.7695a42.3744,42.3744,0,0,1-14.31-3.5013,16.2322,16.2322,0,0,1-8.82-9.3391c-2.4542-6.4715-1.33-12.6633,3.5162-18.5233,4.837-5.85,13.1815-10.8962,24.99-14.8493,8.3711-2.8,15.8163-3.7582,22.2416-2.9526,6.4279.8119,10.3479,3.7065,11.81,8.5923q.42,1.4,1.3806,6.8157a29.9329,29.9329,0,0,0,1.2319,6.29,8.687,8.687,0,0,0,5.495,5.5842,14.2253,14.2253,0,0,0,9.5112.2617c4.9239-1.4107,8.1344-4.3108,9.6644-8.7613,1.5239-4.4454,1.321-10.3645-.6648-17.7573a26.6129,26.6129,0,0,0-12.7525-16.9179c-6.52-3.7358-14.4656-5.62-23.7878-5.5464a95.5217,95.5217,0,0,0-29.3806,5.2037c-13.7293,4.5775-24.987,10.6427-33.6548,17.921-8.6747,7.2853-14.2993,15.2177-16.9327,23.617a35.2031,35.2031,0,0,0,1.1557,24.7289c3.21,7.7458,8.145,13.2864,14.6988,16.7238a55.5989,55.5989,0,0,0,20.8505,6.1718c7.3549.6914,16.5435.9423,27.5332.933,8.5874.067,15.2629.4308,20.0679.9563a34.7718,34.7718,0,0,1,12.7121,3.7487,14.636,14.636,0,0,1,7.3208,8.8773c1.98,6.3865.5422,12.2555-4.1793,17.6654-4.726,5.4206-12.1775,9.8248-22.4074,13.4549-9.871,3.5077-17.9567,5.1538-24.3843,4.7731-6.4227-.3735-10.6721-3.0459-12.701-8.126a23.9682,23.9682,0,0,1-1.1439-3.664,18.8617,18.8617,0,0,0-.6689-2.4793,30.5249,30.5249,0,0,0-1.8048-6.146,7.8217,7.8217,0,0,0-5.5832-4.8341,14.1409,14.1409,0,0,0-9.139.9678c-4.5857,1.8948-7.3645,4.9911-8.3063,9.225-.9469,4.2391-.0686,9.4216,2.5854,15.5508,5.0336,11.6018,13.51,18.1113,25.21,19.9153,11.7223,1.8143,25.1879-.2415,40.8179-5.8355,17.6265-6.2962,30.6026-14.4023,39.209-25.0358C742.2311,560.1572,744.8683,548.04,741.0452,534.2092Z"/><path class="cls-6" d="M868.1173,454.56c5.872-.6956,10.4291-2.619,13.7122-5.83a14.1106,14.1106,0,0,0,4.237-12.056,10.4921,10.4921,0,0,0-5.75-8.7638c-3.4566-1.844-7.8057-2.4806-13.0138-1.8776-5.7751.67-10.4235,2.6988-13.8992,6.0313-3.4815,3.338-4.9015,7.1253-4.3226,11.3355a12.1767,12.1767,0,0,0,5.6641,9.2576C857.9345,454.6257,862.3792,455.2413,868.1173,454.56Z"/><path class="cls-6" d="M970.2911,504.3418a6.8938,6.8938,0,0,0-5.19,2.6194c-6.0694,7.0242-10.9424,12.0572-14.7719,15.04a23.1463,23.1463,0,0,1-13.4634,4.8408,10.5877,10.5877,0,0,1-8.119-2.7581q-3.2184-3.0037-5.0328-10.3739c13.2671-19.5829,24.4567-38.8708,32.9906-58.1593,8.5407-19.2771,13.1493-36.0578,13-50.5219-.0963-10.0814-2.1621-17.812-6.2919-23.1556-4.1271-5.3391-9.7936-7.9339-16.907-7.705-12.6.4071-23.1886,7.79-31.2241,21.9387-8.0475,14.1548-13.3568,30.9193-16.0915,50.1686-2.7355,19.2539-3.2318,36.2643-1.8822,51.0214a107.1481,107.1481,0,0,0,2.615,15.9538c-4.14,5.5217-7.49,9.743-10.1221,12.608-3.0946,3.3739-5.7444,5.1932-8.0037,5.4489a5.3358,5.3358,0,0,1-5.4244-2.3051q-1.8568-2.7109-2.5171-8.1407c-.5643-4.7027-.15-13.8719,1.4521-27.5127,1.2193-11.268,1.7311-18.4135,1.39-21.4325-.4521-4.1-4.1252-5.7891-11.0082-4.9482-4.451.5474-7.5921,1.697-9.4153,3.4105s-3.0709,4.584-3.735,8.6a166.7874,166.7874,0,0,0-2.4425,24.5505,137.5551,137.5551,0,0,0,.5009,18.3764,95.6755,95.6755,0,0,1-8.1648,10.3469,19.8292,19.8292,0,0,1-11.1025,6.2791,26.85,26.85,0,0,1-6.7354.0831,63.8854,63.8854,0,0,0,6.0063-17.8938,55.4615,55.4615,0,0,0,.1571-19.0613c-1.4554-8.744-4.9593-15.4383-10.6207-20a23.1219,23.1219,0,0,0-19.7963-4.6747,28.6617,28.6617,0,0,0-12.5693,5.8062c-3.686,2.95-7.1231,7.2727-10.254,12.9562q-.6788-2.0876-1.6783-6.5331-1.2009-4.3967-3.4365-5.4809c-1.4933-.7159-3.64-.7578-6.4341-.102a22.1143,22.1143,0,0,0-11.2111,5.8966c-2.677,2.7975-3.4976,5.8921-2.4976,9.2716q2.9511,9.9667,9.4864,35.7575c-7.125,21.4908-10.7782,40.6684-11.7065,57.42-.9193,16.7583.5486,30.8144,3.9357,42.2274,2.39,8.0352,5.6968,13.8921,9.8458,17.6187,4.1573,3.7257,9.1051,4.7652,14.9437,3.1765,9.613-2.6111,14.9589-12.0291,16.46-28.5724,1.4763-16.5355.5532-36.4113-3.0518-59.6355a44.2179,44.2179,0,0,0,20.2584-11.3939,20.87,20.87,0,0,0,17.0275,3.82,38.187,38.187,0,0,0,19.617-9.56,82.5271,82.5271,0,0,0,7.5255-7.9521,29.1792,29.1792,0,0,0,3.054,4.1757c4.4274,5.022,10.56,6.99,18.517,6.0313,9.4233-1.1332,18.7818-8.0446,28.7418-20.6866.5783,1.01,1.1729,1.996,1.7992,2.9433,6.1182,9.2533,14.444,13.4771,25.2592,12.8933a39.301,39.301,0,0,0,20.9595-7.0631,88.7512,88.7512,0,0,0,17.2645-16.1754c2.3752-2.69,3.5732-6.4594,3.5539-11.32a10.7448,10.7448,0,0,0-1.4743-6.0064A4.511,4.511,0,0,0,970.2911,504.3418ZM777.5146,614.6987c1.53,14.3506.8817,21.9-2.1061,22.7073q-1.658.4478-3.7253-2.1966a24.1473,24.1473,0,0,1-3.6252-8.2641c-2.0017-7.2613-3.0777-16.6107-3.0538-28.0676a221.7228,221.7228,0,0,1,3.3206-36.85Q775.2583,593.168,777.5146,614.6987Zm28.8541-90.703a43.433,43.433,0,0,1-6.3008,15.797,26.2607,26.2607,0,0,1-10.8371,9.7277q-.8195-4.4823-2.6581-12.664-3.4035-15.108-4.9735-22.9756c4.5325-10.4821,9.31-16.2142,14.0194-17.18a7.9233,7.9233,0,0,1,6.8364,1.5039q2.9008,2.31,3.94,7.6767A46.6391,46.6391,0,0,1,806.3687,523.9957Zm116.5827-77.9732q3.2058-22.6461,8.721-38.0643c3.6661-10.2728,7.2664-15.4683,10.6144-15.5924,4.077-.15,6.2607,4.4092,6.54,13.6351.3669,11.7813-2.2539,24.885-7.4712,39.3777a282.5933,282.5933,0,0,1-20.5776,43.868A232.0065,232.0065,0,0,1,922.9514,446.0225Z"/><path class="cls-6" d="M1040.36,449.9545c5.8961.3817,10.7213-.683,14.5318-3.2441a14.1147,14.1147,0,0,0,6.3531-11.0868,10.4947,10.4947,0,0,0-4.06-9.6616c-3.0629-2.44-7.223-3.8563-12.4481-4.2083-5.7941-.3893-10.7271.7622-14.7445,3.4086-4.0215,2.6507-6.1016,6.1177-6.2972,10.3628-.1956,4.25,1.1086,7.6192,3.88,10.1317C1030.3486,448.1709,1034.6023,449.5828,1040.36,449.9545Z"/><path class="cls-6" d="M1330.0409,578.791a4.6261,4.6261,0,0,0-2.8619-3.6035,7.083,7.083,0,0,0-5.9019.2789,185.8276,185.8276,0,0,1-18.7659,7.98c-4.4013,1.45-7.771,1.7282-10.1606.8025-3.4667-1.34-4.3407-4.2636-2.6181-8.81,1.2106-3.1771,4.8229-9.2819,10.9607-18.2454,7.1678-10.5194,11.6941-17.9437,13.412-22.3594,2.8792-7.344.1458-12.6844-8.2522-15.83-4.259-1.591-9.4382-1.9994-15.4707-1.18-6.036.8229-12.7616,3.4436-20.083,7.9072q-10.9852,6.6923-21.9209,19.6794a115.8759,115.8759,0,0,1,5.9776-12.2488q2.805-4.8418,6.9627-11.1593c4.0186-5.8479,6.36-9.6817,6.9634-11.5307q.7933-2.4236-.4869-3.8007c-.8562-.9175-2.5918-1.8-5.2045-2.6335-4.8387-1.542-8.8536-1.92-12.01-1.1669a13.6525,13.6525,0,0,0-7.9991,5.6784,129.5668,129.5668,0,0,0-18.62,37.6271,70.68,70.68,0,0,1-16.8622,5.9924c-8.0882,1.7736-14.8343,2.0239-20.37.6567-8.604-2.12-13.8274-6.161-15.7212-12.3192,15.4754-.1248,27.096-2.03,34.864-6.2081,7.759-4.1689,12.8379-10.2178,15.0672-18.3019,1.9053-6.9068,1.1536-13.0156-2.3581-18.2952-3.5112-5.2759-9.15-8.9174-16.8443-10.8063a42.5055,42.5055,0,0,0-43.9724,14.38A48.3513,48.3513,0,0,0,1147.65,523.15c-.1331.689-.2491,1.3715-.3546,2.0482a273.211,273.211,0,0,0-26.1283,11.8957q1.8879-5.5968,3.604-10.5768,1.712-4.9785,3.2119-9.16c5.2477-14.6355,8.5541-23.7361,9.7289-27.3547a23.66,23.66,0,0,0,.796-3.3751q.6939-3.9452-1.165-5.66c-1.2406-1.139-3.5331-1.997-6.8656-2.5481a46.0659,46.0659,0,0,0-8.92-.6907q-.3879-4.1146-1.6641-5.88c-.85-1.1713-2.76-1.9873-5.7192-2.4194a46.2633,46.2633,0,0,0-27.3068,4.4063A55.7434,55.7434,0,0,0,1065.0887,492.6a54.5689,54.5689,0,0,0-9.5385,25.7372c-2.6411,2.3283-4.9175,4.2276-6.8258,5.6655-3.6551,2.7565-6.5891,4.0645-8.8546,3.9059a5.331,5.331,0,0,1-4.9109-3.2513q-1.33-3.0032-.9931-8.4621c.3-4.7268,2.3682-13.6687,6.4185-26.7921,3.2434-10.8592,5.0423-17.7932,5.256-20.8241.3-4.1134-3.003-6.4413-9.9154-6.8637-4.4706-.27-7.7627.2913-9.8624,1.6452q-3.1522,2.0325-5.2251,7.7792a166.966,166.966,0,0,0-6.8494,23.6991,124.3411,124.3411,0,0,0-3.006,20.951c-.3277,9.2287,1.2759,16.697,4.7043,22.4316,3.4336,5.7416,9.0944,8.7911,17.086,9.2916,7.7589.4885,16.1891-2.8561,25.639-9.9329a27.4449,27.4449,0,0,0,2.2236,3.9093c4.0685,5.88,9.8385,9.2075,17.4328,10.095a22.41,22.41,0,0,0,10.3479-1.3891,21.9375,21.9375,0,0,0,9.2309-6.3927q-1.0458,3.4425-2.083,6.8871c-20.8626,11.7383-34.5479,22.7133-42.0573,31.9545-7.5027,9.262-11.4158,18.2659-12.095,26.8614-.4852,6.1786.9336,11.3114,4.1816,15.43a18.5776,18.5776,0,0,0,13.3087,7.0308c10.51,1.0969,19.96-4.9437,28.9356-18.2334q13.4364-19.9354,26.3629-56.0213,6.469-2.9259,13.0363-5.7514c4.674-2.1131,11.655-5.1444,21.0813-8.9112a34.25,34.25,0,0,0,4.8159,10.1493c5.72,8.2573,14.8019,13.747,27.4425,16.831a59.0959,59.0959,0,0,0,27.8855.1269,100.2325,100.2325,0,0,0,11.0083-3.197,32.2892,32.2892,0,0,0-.0631,5.9415c.5033,5.2122,2.9964,8.4747,7.52,9.8554,3.688,1.1263,6.688,1.02,9.0222-.3442q3.4958-2.0482,8.1074-9.5572a110.9852,110.9852,0,0,1,13.8036-17.7235,87.45,87.45,0,0,1,14.1144-12.2511c4.266-2.8356,7.246-3.9458,8.8823-3.3685,1.3841.4882,1.75,1.6534,1.0984,3.4821-.9767,2.748-3.569,7.4323-7.7163,14.0864-4.6329,7.6407-7.4725,13.0864-8.5953,16.2961-2.241,6.4266-2.3924,11.8692-.5113,16.3387,1.88,4.4743,5.7893,7.7807,11.7621,10.0191a39.2066,39.2066,0,0,0,22.0161,1.9214,93.009,93.009,0,0,0,22.4375-7.8427c3.3-1.4929,5.9329-4.4548,7.8643-8.9156A10.5811,10.5811,0,0,0,1330.0409,578.791Zm-256.7454,26.0172c-4.4767,6.8073-8.0594,10.0757-10.8918,9.7735a3.8937,3.8937,0,0,1-3.4513-2.3745,10.44,10.44,0,0,1-.5982-5.1893c.4872-4.8342,2.9906-10.2685,7.6517-16.2416s12.0041-12.4311,22.2727-19.1622C1082.7147,586.93,1077.7719,598.0005,1073.2955,604.8082Zm30.0984-88.3251q-3.0531,9.14-7.6965,13.6534c-3.095,3.0169-6.0581,4.3443-8.9335,3.9851a8.2563,8.2563,0,0,1-6.157-3.4995q-2.0385-2.9913-1.3993-8.6a45.9276,45.9276,0,0,1,6.28-18.7137,37.7607,37.7607,0,0,1,12.7914-13.18,24.1768,24.1768,0,0,1,15.8244-3.5788Q1108.6423,501.4893,1103.3939,516.4831Zm67.77,9.1213c1.5978-7.234,4.587-13.0473,9.0447-17.3955,4.4536-4.3429,9.1362-5.943,13.954-4.78a7.7009,7.7009,0,0,1,5.0582,3.3958,7.4756,7.4756,0,0,1,.6915,5.9012c-1.0942,4.3627-4.2407,7.638-9.3711,9.8887-5.1351,2.2559-11.6131,3.34-19.4559,3.3449Q1171.1243,525.7823,1171.1637,525.6044Z"/></svg>