<svg id="Layer_1" data-name="Layer 1" xmlns="http://www.w3.org/2000/svg" viewBox="0 0 800 600"><defs><style>.cls-1{fill:#f997a4;stroke:#fff;stroke-miterlimit:10;stroke-width:2px;opacity:0.8;}.cls-2,.cls-3{fill:#fff;}.cls-3{opacity:0.5;}</style></defs><title>Artboard 1</title><rect class="cls-1" x="9.9966" y="7" width="779.5563" height="586.2543" rx="39.57"/><path class="cls-2" d="M95.9087,307.5444q-1.0518-1.2106-1.0513-4.5854a50.6733,50.6733,0,0,1,.4273-5.8325q.4261-3.5582,1.4131-9.795,1.7079-11.5173,2.6948-19.956a81.6248,81.6248,0,0,0,.5918-8.8042q0-3.301-2.1695-3.3013a7.0777,7.0777,0,0,0-4.1079,1.9444,29.1768,29.1768,0,0,0-5.2915,6.1992,2.54,2.54,0,0,1-2.0376,1.394,1.961,1.961,0,0,1-1.61-.99,3.821,3.821,0,0,1-.6905-2.2378,7.1262,7.1262,0,0,1,.4273-2.3843,13.737,13.737,0,0,1,1.4136-2.7515,26.2943,26.2943,0,0,1,7.0332-7.5937,13.58,13.58,0,0,1,7.7558-2.6777,6.5459,6.5459,0,0,1,5.5547,2.5678q1.938,2.5694,1.939,7.4834a39.0075,39.0075,0,0,1-.3286,4.6592q-.33,2.6786-.5918,4.3652-.2637,1.6882-.3946,2.3477,3.7471-11.9575,8.4136-16.6909t10.2544-4.7324a7.9,7.9,0,0,1,6.7373,3.375q2.4647,3.375,2.4649,9.5376a38.2046,38.2046,0,0,1-.5918,6.0161q3.2863-10.1242,7.6909-14.5269a13.9176,13.9176,0,0,1,10.1225-4.4018,8.2878,8.2878,0,0,1,7.066,3.3017q2.4645,3.3011,2.4648,9.2442a44.3863,44.3863,0,0,1-.8545,7.85l-4.01,20.9834a36.5459,36.5459,0,0,0-.6572,6.31,7.0973,7.0973,0,0,0,1.2818,4.6221,4.4018,4.4018,0,0,0,3.5825,1.541,6.8394,6.8394,0,0,0,4.24-1.6142,29.4809,29.4809,0,0,0,4.897-5.356,2.239,2.239,0,0,1,1.7744-1.0269,1.5,1.5,0,0,1,1.3477.88,4.9831,4.9831,0,0,1,.4926,2.4209,7.4849,7.4849,0,0,1-1.2485,4.5488,26.5473,26.5473,0,0,1-6.7705,6.75,12.9219,12.9219,0,0,1-7.0332,2.1275,10.8643,10.8643,0,0,1-8.7422-3.7051q-3.1552-3.7038-3.1548-9.9414a72.2864,72.2864,0,0,1,1.5772-12.5454l2.6294-13.4268q.1311-.66.46-2.3476t.5259-3.1914a22.7611,22.7611,0,0,0,.1973-2.9712,6.81,6.81,0,0,0-.8872-3.8521,2.8964,2.8964,0,0,0-2.5308-1.2837q-3.09,0-6.4746,4.4385t-6.4414,14.7105a161.8472,161.8472,0,0,0-4.9629,26.7055q-.4607,4.4027-1.61,5.9063a4.379,4.379,0,0,1-3.7138,1.5039,4.0877,4.0877,0,0,1-3.2534-1.1738q-1.02-1.1727-1.0191-4.4019a56.2032,56.2032,0,0,1,.7232-7.8872q.7228-4.8786,1.84-11.4819,3.0226-17.7547,3.0239-22.8907a7.083,7.083,0,0,0-.9531-4.1089,3.2969,3.2969,0,0,0-2.8594-1.32q-3.2211,0-6.6387,4.0718t-6.6718,14.4536q-3.2535,10.3821-5.4229,28.063a14.2963,14.2963,0,0,1-1.3476,5.209q-.887,1.4685-3.4507,1.4673A4.4,4.4,0,0,1,95.9087,307.5444Z"/><path class="cls-2" d="M170.1514,305.71a14.2476,14.2476,0,0,1-1.8731-7.5937,71.341,71.341,0,0,1,.6572-10.0879,69.32,69.32,0,0,1,2.169-9.7212,6.2192,6.2192,0,0,1,1.84-3.1548,5.9593,5.9593,0,0,1,3.7471-.9541,2.9891,2.9891,0,0,1,2.0044.5137,1.9939,1.9939,0,0,1,.5591,1.5405,33.6955,33.6955,0,0,1-.7232,3.9619q-.6576,2.7151-1.0517,4.9161a76.9033,76.9033,0,0,0-1.3145,10.271,5.0324,5.0324,0,0,0,.3286,2.1645,1.1041,1.1041,0,0,0,1.0518.6235q.9858,0,2.4648-2.2006a33.7449,33.7449,0,0,0,3.1548-6.6768,96.5285,96.5285,0,0,0,3.2539-11.0049,5.9383,5.9383,0,0,1,1.61-3.1548,4.8087,4.8087,0,0,1,3.2534-.9541,3.9566,3.9566,0,0,1,2.1035.4038,1.6958,1.6958,0,0,1,.5918,1.5039,78.6606,78.6606,0,0,1-1.6436,10.0513q-1.8405,9.3926-1.84,11.5923a3.8017,3.8017,0,0,0,.5259,2.1641,1.6026,1.6026,0,0,0,1.38.77q1.3139,0,3.122-1.7974a56.8968,56.8968,0,0,0,4.8316-5.833,2.24,2.24,0,0,1,1.7744-1.0269,1.5,1.5,0,0,1,1.3477.88,4.9827,4.9827,0,0,1,.4931,2.4209,7.2871,7.2871,0,0,1-1.249,4.5488,30.6681,30.6681,0,0,1-6.08,6.3833,11.8345,11.8345,0,0,1-7.395,2.4942,4.9192,4.9192,0,0,1-4.6338-2.7144,16.15,16.15,0,0,1-1.479-7.63,18.0431,18.0431,0,0,1-3.3521,7.6669q-2.2353,2.6793-4.7983,2.6778A5.546,5.546,0,0,1,170.1514,305.71Z"/><path class="cls-2" d="M205.6455,308.6084a5.408,5.408,0,0,1-1.8076-3.9619,4.7839,4.7839,0,0,1,1.249-3.3018,4.69,4.69,0,0,1,3.6812-1.394,13.0508,13.0508,0,0,1,2.0044.1836q1.15.1837,1.7421.2568a10.3839,10.3839,0,0,0-.7558-3.5952,18.6063,18.6063,0,0,0-1.7422-3.2647q-1.0518-1.5768-1.9717-2.7514a49.075,49.075,0,0,1-4.0425,7.19,52.3093,52.3093,0,0,1-4.3711,5.43,3.3786,3.3786,0,0,1-2.498,1.32,2.0645,2.0645,0,0,1-1.709-.8437,3.3,3.3,0,0,1-.6572-2.0908,4.4815,4.4815,0,0,1,.92-2.7149l.8545-1.1738a94.9992,94.9992,0,0,0,5.4556-8.2173q1.1169-2.127,2.6294-5.6855,1.5109-3.5581,2.9575-7.3736,1.248-3.2277,5.1928-3.2285a6.242,6.242,0,0,1,2.5635.3672,1.23,1.23,0,0,1,.7232,1.1738,5.9985,5.9985,0,0,1-.2627,1.3941,11.3477,11.3477,0,0,1-.7232,1.9072,11.3926,11.3926,0,0,0-1.1831,4.4756,5.2981,5.2981,0,0,0,.69,2.4214,27.5862,27.5862,0,0,0,2.1362,3.3012,47.4577,47.4577,0,0,1,3.188,5.2456,10.4162,10.4162,0,0,1,1.0845,4.7325q0,.7346-.1314,2.0542,3.22-1.3925,7.5591-7.41a2.2405,2.2405,0,0,1,1.7749-1.0269,1.5,1.5,0,0,1,1.3472.88,4.9827,4.9827,0,0,1,.4931,2.4209,7.6883,7.6883,0,0,1-1.249,4.5488,20.8894,20.8894,0,0,1-6.2773,6.2,16.278,16.278,0,0,1-7.3946,1.7974,8.77,8.77,0,0,1-6.2446,2.4946A7.1888,7.1888,0,0,1,205.6455,308.6084Z"/><path class="cls-2" d="M228.5845,305.38a17.8949,17.8949,0,0,1-1.939-8.9507,60.8927,60.8927,0,0,1,.7559-8.4741,86.9883,86.9883,0,0,1,1.9389-9.6475,6.4352,6.4352,0,0,1,1.5777-3.2285,4.665,4.665,0,0,1,3.1552-.88q3.3523,0,3.3521,2.4947a63.8261,63.8261,0,0,1-1.249,8.5107,70.3544,70.3544,0,0,0-1.5772,10.9316,8.5131,8.5131,0,0,0,.5259,3.375,1.8135,1.8135,0,0,0,1.7744,1.1739q1.1837,0,2.958-1.834a63.4477,63.4477,0,0,0,4.7324-5.7964,2.2405,2.2405,0,0,1,1.7749-1.0269,1.5,1.5,0,0,1,1.3477.88,4.9831,4.9831,0,0,1,.4927,2.4209,7.29,7.29,0,0,1-1.2486,4.5488q-6.5075,8.8785-12.1606,8.8775A6.6278,6.6278,0,0,1,228.5845,305.38Zm2.5967-37.4541a5.5184,5.5184,0,0,1-1.38-3.9986,5.6866,5.6866,0,0,1,1.8076-4.2919,6.27,6.27,0,0,1,4.5024-1.7242,5.7813,5.7813,0,0,1,3.9439,1.3208,4.7045,4.7045,0,0,1,1.5117,3.7417,6.3245,6.3245,0,0,1-1.709,4.6587,6.1012,6.1012,0,0,1-4.5356,1.7241A5.5011,5.5011,0,0,1,231.1812,267.9258Z"/><path class="cls-2" d="M282.22,292.9077a4.9831,4.9831,0,0,1,.4927,2.4209,7.29,7.29,0,0,1-1.2485,4.5488,33.864,33.864,0,0,1-5.9815,6.4566,11.1164,11.1164,0,0,1-7.165,2.4209,10.758,10.758,0,0,1-8.15-3.228,11.8918,11.8918,0,0,1-3.0894-8.584,4.2416,4.2416,0,0,1,2.6294-4.1084,11.69,11.69,0,0,0,4.1406-2.9717,6.0134,6.0134,0,0,0,1.2491-3.8516,3.2918,3.2918,0,0,0-.4932-1.9809,1.471,1.471,0,0,0-1.2158-.6607q-1.7746,0-3.9111,2.8614a33.5034,33.5034,0,0,0-3.9766,7.3735,56.9289,56.9289,0,0,0-2.8921,9.2812,12.2091,12.2091,0,0,1-1.6763,4.6587,3.5735,3.5735,0,0,1-2.9907,1.2105,3.207,3.207,0,0,1-2.9907-1.65,13.0608,13.0608,0,0,1-1.2818-5.0991q-.33-3.4484-.3286-10.125a141.3944,141.3944,0,0,1,2.07-23.5508,76.5614,76.5614,0,0,1,6.1133-20.58q4.0423-8.3262,9.6953-8.3276a5.6353,5.6353,0,0,1,4.897,2.8984,13.6429,13.6429,0,0,1,1.8731,7.52,35.0362,35.0362,0,0,1-3.878,15.3706q-3.8789,7.9614-12.6206,18.5987-.197,3.8159-.1968,7.85,3.1546-9.17,7.23-13.316,4.0752-4.144,7.625-4.1455a6.4591,6.4591,0,0,1,5.2915,2.4947,9.5283,9.5283,0,0,1,2.0044,6.163,15.2232,15.2232,0,0,1-1.84,7.41,16.4,16.4,0,0,1-6.31,6.0166,5.0162,5.0162,0,0,0,1.61,3.1914,4.6955,4.6955,0,0,0,3.2539,1.21,5.8,5.8,0,0,0,3.9438-1.7608,46.6812,46.6812,0,0,0,4.9952-5.87,2.24,2.24,0,0,1,1.7749-1.0269A1.5,1.5,0,0,1,282.22,292.9077ZM257.21,250.4644a69.4959,69.4959,0,0,0-2.7935,10.1982q-1.3483,6.42-2.2021,13.9766a53.5206,53.5206,0,0,0,6.7373-11.6656,29.7937,29.7937,0,0,0,2.6621-11.4453,10.8932,10.8932,0,0,0-.46-3.5952q-.4606-1.2465-1.3144-1.2471Q258.6553,246.686,257.21,250.4644Z"/><path class="cls-2" d="M136.3662,468.99a4.9826,4.9826,0,0,1,.4932,2.4209,7.4855,7.4855,0,0,1-1.249,4.5489,25.1761,25.1761,0,0,1-7.1319,6.8964,16.44,16.44,0,0,1-8.3149,1.981,20.0588,20.0588,0,0,1-6.31-.9536,68.8465,68.8465,0,0,1-7.0332-2.8613,60.5171,60.5171,0,0,0-7.2305-3.0083q-3.3522,6.8232-10.0566,6.8232a8.7814,8.7814,0,0,1-5.8833-1.8706,6.0214,6.0214,0,0,1-2.2017-4.8057,7.2725,7.2725,0,0,1,3.0894-5.9795,13.0979,13.0979,0,0,1,8.2163-2.3842h.8545l1.1831-21.35a37.2432,37.2432,0,0,1,2.3662-12.106,23.884,23.884,0,0,1,5.4556-8.1435,20.4367,20.4367,0,0,1,6.9018-4.439,22.5352,22.5352,0,0,1,8.2163-1.5039q7.1,0,10.9117,4.1084a15.1272,15.1272,0,0,1,3.812,10.7119,15.5529,15.5529,0,0,1-1.4458,7.2266,4.4243,4.4243,0,0,1-4.01,2.7514,4.0476,4.0476,0,0,1-2.8921-.9907,3.6893,3.6893,0,0,1-1.0517-2.8242,19.6379,19.6379,0,0,1,.2631-2.4214,19.69,19.69,0,0,0,.3941-3.6685,7.0466,7.0466,0,0,0-1.61-4.8789,6.2474,6.2474,0,0,0-4.8969-1.7973,10.506,10.506,0,0,0-8.94,4.2187q-3.1545,4.2195-4.0093,13.2427l-1.5117,16.6543a57.7949,57.7949,0,0,1-.8545,6.09q4.2055.8079,10.5166,2.5679,3.68,1.0284,5.6529,1.4673a16.2248,16.2248,0,0,0,3.4838.44,13.9134,13.9134,0,0,0,6.54-1.4306,16.16,16.16,0,0,0,5.16-4.5855,2.24,2.24,0,0,1,1.7745-1.0268A1.5,1.5,0,0,1,136.3662,468.99Z"/><path class="cls-2" d="M166.5361,469.1733a4.8519,4.8519,0,0,1,.4932,2.3111,6.1946,6.1946,0,0,1-.46,2.6416,4.606,4.606,0,0,1-1.4458,1.6875l-12.6206,9.4643q-2.4982,15.1868-6.54,23.8814t-10.2871,8.6938a7.0361,7.0361,0,0,1-5.4556-2.311,8.6423,8.6423,0,0,1-2.103-6.0527,19.1506,19.1506,0,0,1,1.4131-7.0435,32.127,32.127,0,0,1,5.2583-8.2539,90.8515,90.8515,0,0,1,10.8784-10.6748l.1973-1.6875q.4592-2.7137,1.0517-7.7774a19.4689,19.4689,0,0,1-3.6811,8.0342q-2.3658,2.751-4.9951,2.751a5.5462,5.5462,0,0,1-4.8316-3.0444,14.2491,14.2491,0,0,1-1.873-7.5938,71.3282,71.3282,0,0,1,.6572-10.0879,69.3224,69.3224,0,0,1,2.1689-9.7212,6.2189,6.2189,0,0,1,1.84-3.1547,5.9583,5.9583,0,0,1,3.747-.9542,2.9889,2.9889,0,0,1,2.0044.5137,1.994,1.994,0,0,1,.5591,1.5405,33.7113,33.7113,0,0,1-.7231,3.962q-.6577,2.715-1.0518,4.916-.5266,3.0087-.92,5.7593a33.0817,33.0817,0,0,0-.394,4.5117q0,2.79,1.38,2.7881.986,0,2.4649-2.2007a33.7505,33.7505,0,0,0,3.1548-6.6768,96.5632,96.5632,0,0,0,3.2539-11.0049,5.9386,5.9386,0,0,1,1.61-3.1547,4.8083,4.8083,0,0,1,3.2534-.9542,3.6779,3.6779,0,0,1,2.1036.44,1.71,1.71,0,0,1,.5918,1.4673q0,1.8346-1.709,12.6191l-1.709,11.812q5.06-4.2538,9.8594-7.7768a2.7853,2.7853,0,0,1,1.5117-.587A1.4979,1.4979,0,0,1,166.5361,469.1733ZM140.08,506.481q2.0361-4.2561,4.0752-14.16a40.2914,40.2914,0,0,0-7.3291,8.6938,14.2161,14.2161,0,0,0-2.2676,6.86,4.3608,4.3608,0,0,0,.4273,2.0542,1.476,1.476,0,0,0,1.413.8071Q138.0406,510.7363,140.08,506.481Z"/><path class="cls-2" d="M201.0444,468.99a4.9831,4.9831,0,0,1,.4927,2.4209,7.29,7.29,0,0,1-1.2485,4.5489,33.5354,33.5354,0,0,1-5.916,6.2729,10.1817,10.1817,0,0,1-6.376,2.6045q-4.9959,0-7.6245-6.53a19.95,19.95,0,0,1-4.8316,5.21,8.7882,8.7882,0,0,1-4.831,1.32,8.0207,8.0207,0,0,1-6.606-3.3379,13.7548,13.7548,0,0,1-2.5962-8.6943,26.5039,26.5039,0,0,1,2.2349-10.895,21.859,21.859,0,0,1,6.1455-8.2173,16.8294,16.8294,0,0,1,8.7754-3.7783,101.3835,101.3835,0,0,1,4.7651-24.3213q3.5157-10.0869,9.2354-10.0884a5.5015,5.5015,0,0,1,4.7,2.8613q1.8735,2.8616,1.8735,8.6577,0,8.2178-3.6152,19.2222a150.7665,150.7665,0,0,1-9.6626,22.5972,17.5832,17.5832,0,0,0,1.15,6.09q.887,1.8346,2.2676,1.834a5.346,5.346,0,0,0,3.6152-1.7608,51.6865,51.6865,0,0,0,4.93-5.87,2.24,2.24,0,0,1,1.7749-1.0268A1.5,1.5,0,0,1,201.0444,468.99Zm-25.5366,7.3a21.1224,21.1224,0,0,0,3.1553-4.2182,54.4409,54.4409,0,0,1-.6577-8.878q0-1.7607.1318-5.7226a11.3216,11.3216,0,0,0-6.0146,5.3926,18.0435,18.0435,0,0,0-2.399,9.208q0,5.3562,3.2867,5.3554A3.74,3.74,0,0,0,175.5078,476.29Zm13.9351-48.6425a99.7779,99.7779,0,0,0-2.1363,12.9492q-.8877,7.998-1.2817,16.728,7.3608-17.9,7.3618-28.76a17.0476,17.0476,0,0,0-.4272-4.3287q-.4285-1.5409-1.0191-1.5405Q190.6909,422.6953,189.4429,427.6475Z"/><rect class="cls-3" x="588" y="242" width="141" height="80" rx="40"/><circle class="cls-2" cx="628.5" cy="281.5" r="35.5"/><rect class="cls-3" x="588" y="411" width="141" height="80" rx="40" transform="translate(1317 902) rotate(180)"/><circle class="cls-2" cx="628.5" cy="450.5" r="35.5"/><path class="cls-2" d="M119.5063,57.53a2.747,2.747,0,0,1,1.1832,2.2378,5.3658,5.3658,0,0,1-1.3145,3.7783,4.8365,4.8365,0,0,1-3.7471,1.4307q-3.8122,0-5.7841.0732-.1326.88-1.1832,7.9238-1.1827,7.8516-1.4462,9.6114l-1.38,9.6108q-1.4474,10.7848-2.3008,18.0483,1.3806-.0717,3.7466-.0732,3.4833,0,4.7329,1.0273a3.7626,3.7626,0,0,1,1.2485,3.0816,4.3486,4.3486,0,0,1-1.3471,3.228,5.1739,5.1739,0,0,1-3.78,1.3208q-1.6435,0-5.1929-.147-3.2871-.1479-4.3379-.1464a56.3886,56.3886,0,0,0-9.0708.8066,21.4772,21.4772,0,0,1-3.0894.3672,3.5185,3.5185,0,0,1-2.4321-.88,3.2636,3.2636,0,0,1-.9858-2.5679,4.7273,4.7273,0,0,1,2.103-4.1088,10.6147,10.6147,0,0,1,5.916-1.5406l3.0894-.0737.1972-1.6138q1.5769-11.7378,2.3-16.581l1.4463-9.6114q1.314-8.51,2.3662-17.5346l-5.5214.0732a4.7531,4.7531,0,0,1-3.2535-.8437,3.1314,3.1314,0,0,1-.8877-2.3843q0-4.9886,6.4419-5.356,3.0228-.1464,7.3618-.1469l12.0289.0737A4.5805,4.5805,0,0,1,119.5063,57.53Z"/><path class="cls-2" d="M120.9849,115.82q-1.02-2.9334-1.0186-9.3911a66.1558,66.1558,0,0,1,2.4321-18.1216,5.5454,5.5454,0,0,1,1.939-3.1181,6.2773,6.2773,0,0,1,3.7793-.9908,3.3831,3.3831,0,0,1,1.8408.3667,1.5964,1.5964,0,0,1,.5259,1.3941,30.8656,30.8656,0,0,1-.9863,5.2827q-.6577,2.9355-1.0518,5.1357t-.6572,5.4292a43.5078,43.5078,0,0,1,4.8642-10.2715,20.14,20.14,0,0,1,5.2915-5.6494,8.9313,8.9313,0,0,1,4.7652-1.6875q4.2721,0,4.2724,4.7691a65.43,65.43,0,0,1-1.4458,10.3447,56.3652,56.3652,0,0,0-1.249,8.4375q0,2.9348,1.9063,2.9346,1.3139,0,3.122-1.7974a56.8968,56.8968,0,0,0,4.8316-5.833,2.24,2.24,0,0,1,1.7744-1.0269,1.5,1.5,0,0,1,1.3477.88,4.9827,4.9827,0,0,1,.4931,2.4209,7.2871,7.2871,0,0,1-1.249,4.5488,30.6681,30.6681,0,0,1-6.08,6.3833,11.8345,11.8345,0,0,1-7.395,2.4942,6.0559,6.0559,0,0,1-5.061-2.1641,9.9359,9.9359,0,0,1-1.709-6.2729,50.7854,50.7854,0,0,1,.92-7.3369,42.1652,42.1652,0,0,0,.8545-6.3829q0-1.1733-.7227-1.1738-.8555,0-2.3994,2.4575a40.9958,40.9958,0,0,0-3.1548,6.4932,54.532,54.532,0,0,0-2.5966,8.5107,12.2023,12.2023,0,0,1-1.6763,4.6587,3.5737,3.5737,0,0,1-2.9907,1.2105Q122.0031,118.7549,120.9849,115.82Z"/><path class="cls-2" d="M191.1191,102.9077a4.9819,4.9819,0,0,1,.4927,2.4209,7.29,7.29,0,0,1-1.2485,4.5488,33.5328,33.5328,0,0,1-5.916,6.273,10.1817,10.1817,0,0,1-6.376,2.6045q-4.9959,0-7.6245-6.53a19.9481,19.9481,0,0,1-4.8316,5.21,8.789,8.789,0,0,1-4.831,1.32,8.0207,8.0207,0,0,1-6.606-3.3379,13.7548,13.7548,0,0,1-2.5962-8.6943,26.5047,26.5047,0,0,1,2.2349-10.8951,21.8594,21.8594,0,0,1,6.1455-8.2172,16.83,16.83,0,0,1,8.7754-3.7784,101.3855,101.3855,0,0,1,4.7651-24.3213q3.5157-10.0869,9.2354-10.0883a5.5015,5.5015,0,0,1,4.7,2.8613q1.8735,2.8616,1.8735,8.6577,0,8.2177-3.6152,19.2222a150.7612,150.7612,0,0,1-9.6626,22.5971,17.5839,17.5839,0,0,0,1.15,6.09q.8869,1.8346,2.2676,1.834a5.3458,5.3458,0,0,0,3.6152-1.7608,51.6956,51.6956,0,0,0,4.93-5.87,2.2405,2.2405,0,0,1,1.7749-1.0269A1.5,1.5,0,0,1,191.1191,102.9077Zm-25.5366,7.3a21.1185,21.1185,0,0,0,3.1553-4.2182,54.4409,54.4409,0,0,1-.6577-8.878q0-1.7607.1318-5.7226a11.3218,11.3218,0,0,0-6.0146,5.3925,18.0442,18.0442,0,0,0-2.399,9.2081q0,5.3562,3.2867,5.3554A3.74,3.74,0,0,0,165.5825,110.2075Zm13.9351-48.6426a99.8,99.8,0,0,0-2.1363,12.9493q-.8876,7.998-1.2817,16.728,7.3608-17.9,7.3618-28.76a17.0468,17.0468,0,0,0-.4272-4.3286q-.4285-1.541-1.0191-1.5405Q180.7656,56.6128,179.5176,61.5649Z"/><path class="cls-2" d="M193.2876,118.6084a5.408,5.408,0,0,1-1.8076-3.9619,4.7839,4.7839,0,0,1,1.249-3.3018,4.69,4.69,0,0,1,3.6812-1.394,13.0508,13.0508,0,0,1,2.0044.1836q1.15.1838,1.7421.2568a10.3862,10.3862,0,0,0-.7558-3.5952,18.6063,18.6063,0,0,0-1.7422-3.2647q-1.0518-1.5768-1.9717-2.7514a49.075,49.075,0,0,1-4.0425,7.19,52.3093,52.3093,0,0,1-4.3711,5.43,3.3786,3.3786,0,0,1-2.498,1.32,2.0645,2.0645,0,0,1-1.709-.8437,3.3,3.3,0,0,1-.6572-2.0908,4.4815,4.4815,0,0,1,.92-2.7149l.8545-1.1738a94.9707,94.9707,0,0,0,5.4555-8.2173q1.117-2.127,2.6294-5.6855t2.9576-7.3736q1.248-3.2277,5.1928-3.2285a6.242,6.242,0,0,1,2.5635.3672,1.23,1.23,0,0,1,.7232,1.1738,5.9985,5.9985,0,0,1-.2627,1.3941,11.3477,11.3477,0,0,1-.7232,1.9072,11.3926,11.3926,0,0,0-1.1831,4.4756,5.2981,5.2981,0,0,0,.69,2.4214,27.5862,27.5862,0,0,0,2.1362,3.3012,47.4577,47.4577,0,0,1,3.188,5.2456,10.4161,10.4161,0,0,1,1.0844,4.7325q0,.7345-.1313,2.0542,3.22-1.3924,7.5591-7.41a2.2405,2.2405,0,0,1,1.7749-1.0269,1.4994,1.4994,0,0,1,1.3471.88,4.9815,4.9815,0,0,1,.4932,2.4209,7.6883,7.6883,0,0,1-1.249,4.5488,20.8885,20.8885,0,0,1-6.2774,6.2,16.2772,16.2772,0,0,1-7.3945,1.7974,8.77,8.77,0,0,1-6.2446,2.4946A7.1888,7.1888,0,0,1,193.2876,118.6084Z"/><path class="cls-2" d="M245.0171,102.9077a4.9826,4.9826,0,0,1,.4932,2.4209,7.2865,7.2865,0,0,1-1.2491,4.5488,29.3853,29.3853,0,0,1-6.1787,6.3833,12.5411,12.5411,0,0,1-7.69,2.4942q-13.4093,0-13.4092-21.0562,0-3.2277.1973-6.53h-2.5635a3.4237,3.4237,0,0,1-2.6621-.8071,3.9108,3.9108,0,0,1-.69-2.5679q0-4.108,2.9576-4.1088h3.747a78.0392,78.0392,0,0,1,3.418-14.7466A34.3059,34.3059,0,0,1,226.9414,58.3q3.2535-3.9616,7-3.9614a4.8312,4.8312,0,0,1,4.3384,2.7143,13.4158,13.4158,0,0,1,1.5776,6.8233,26.9529,26.9529,0,0,1-8.5449,19.8091h7.3618a1.9479,1.9479,0,0,1,1.5117.5136,2.9315,2.9315,0,0,1,.46,1.9077q0,5.0625-7.4272,5.0625h-8.02q-.1326,3.6695-.1313,5.7227,0,7.6311,1.61,10.7114a5.3648,5.3648,0,0,0,5.0943,3.0816,7.34,7.34,0,0,0,4.9956-1.9077,42.36,42.36,0,0,0,5.1269-5.7227,2.2405,2.2405,0,0,1,1.7749-1.0269A1.5,1.5,0,0,1,245.0171,102.9077ZM229.9648,64.1328a42.2336,42.2336,0,0,0-2.3,7.63q-1.0848,4.88-1.8077,10.8218a24.9269,24.9269,0,0,0,5.8169-8.4009,22.3092,22.3092,0,0,0,1.939-8.4741q0-4.3279-1.4458-4.3287Q231.1812,61.3813,229.9648,64.1328Z"/><path class="cls-2" d="M242.0586,115.38a17.8949,17.8949,0,0,1-1.939-8.9507,60.8927,60.8927,0,0,1,.7559-8.4741,86.9647,86.9647,0,0,1,1.939-9.6475,6.4352,6.4352,0,0,1,1.5776-3.2285,4.6651,4.6651,0,0,1,3.1553-.88q3.3522,0,3.352,2.4947a63.8261,63.8261,0,0,1-1.249,8.5107,70.3544,70.3544,0,0,0-1.5772,10.9316,8.5149,8.5149,0,0,0,.5259,3.375,1.8135,1.8135,0,0,0,1.7744,1.1739q1.1836,0,2.958-1.834a63.4621,63.4621,0,0,0,4.7325-5.7964,2.24,2.24,0,0,1,1.7749-1.0269,1.5,1.5,0,0,1,1.3476.88,4.9831,4.9831,0,0,1,.4927,2.4209,7.29,7.29,0,0,1-1.2485,4.5488q-6.5076,8.8785-12.1607,8.8775A6.6278,6.6278,0,0,1,242.0586,115.38Zm2.5967-37.4541a5.5188,5.5188,0,0,1-1.38-3.9986,5.687,5.687,0,0,1,1.8076-4.2919,6.27,6.27,0,0,1,4.5025-1.7242,5.781,5.781,0,0,1,3.9438,1.3208,4.7045,4.7045,0,0,1,1.5117,3.7417,6.3245,6.3245,0,0,1-1.709,4.6587,6.1012,6.1012,0,0,1-4.5356,1.7241A5.5012,5.5012,0,0,1,244.6553,77.9258Z"/><path class="cls-2" d="M282.6138,102.9077a4.9827,4.9827,0,0,1,.4931,2.4209,7.2871,7.2871,0,0,1-1.249,4.5488,29.8151,29.8151,0,0,1-6.146,6.3833,12.2066,12.2066,0,0,1-7.5259,2.4942q-5.7853,0-8.5781-5.8692t-2.7934-15.187a115.9555,115.9555,0,0,1,2.07-20.3965A74.6828,74.6828,0,0,1,264.998,57.64q4.0423-8.2155,9.6294-8.2172,3.1554,0,4.9629,3.2651t1.8076,9.3545q0,8.7319-4.3383,20.2495a116.0215,116.0215,0,0,1-11.7661,22.8169,9.0613,9.0613,0,0,0,1.5122,4.2925,3.3933,3.3933,0,0,0,2.7607,1.2837,7.1049,7.1049,0,0,0,4.7324-1.7242,38.4762,38.4762,0,0,0,5.1929-5.9062,2.24,2.24,0,0,1,1.7744-1.0269A1.5,1.5,0,0,1,282.6138,102.9077ZM269.7632,62.7754a109.5623,109.5623,0,0,0-3.3521,15.1138,121.6483,121.6483,0,0,0-1.5776,17.3149,99.6835,99.6835,0,0,0,7.4277-17.2051,52.0128,52.0128,0,0,0,2.7608-15.7373q0-5.5744-1.84-5.5757Q271.6686,56.686,269.7632,62.7754Z"/><path class="cls-2" d="M304.0415,102.9077a4.9826,4.9826,0,0,1,.4932,2.4209,7.2865,7.2865,0,0,1-1.2491,4.5488,29.81,29.81,0,0,1-6.146,6.3833,12.2061,12.2061,0,0,1-7.5258,2.4942q-5.7855,0-8.5782-5.8692t-2.7934-15.187a115.9555,115.9555,0,0,1,2.07-20.3965A74.6865,74.6865,0,0,1,286.4258,57.64q4.0422-8.2155,9.6294-8.2172,3.1553,0,4.9629,3.2651t1.8076,9.3545q0,8.7319-4.3384,20.2495a116.0161,116.0161,0,0,1-11.7661,22.8169,9.0613,9.0613,0,0,0,1.5122,4.2925,3.3933,3.3933,0,0,0,2.7607,1.2837,7.1051,7.1051,0,0,0,4.7325-1.7242,38.4767,38.4767,0,0,0,5.1928-5.9062,2.24,2.24,0,0,1,1.7744-1.0269A1.5,1.5,0,0,1,304.0415,102.9077ZM291.1909,62.7754a109.549,109.549,0,0,0-3.352,15.1138,121.6343,121.6343,0,0,0-1.5777,17.3149A99.6841,99.6841,0,0,0,293.689,77.999,52.0156,52.0156,0,0,0,296.45,62.2617q0-5.5744-1.84-5.5757Q293.0962,56.686,291.1909,62.7754Z"/><path class="cls-2" d="M301.0825,115.38a17.896,17.896,0,0,1-1.9389-8.9507,60.89,60.89,0,0,1,.7558-8.4741,86.9647,86.9647,0,0,1,1.939-9.6475,6.4352,6.4352,0,0,1,1.5776-3.2285,4.6651,4.6651,0,0,1,3.1553-.88q3.3523,0,3.352,2.4947a63.8261,63.8261,0,0,1-1.249,8.5107,70.35,70.35,0,0,0-1.5771,10.9316,8.5152,8.5152,0,0,0,.5258,3.375,1.8137,1.8137,0,0,0,1.7745,1.1739q1.1835,0,2.958-1.834a63.4646,63.4646,0,0,0,4.7324-5.7964,2.2405,2.2405,0,0,1,1.7749-1.0269,1.5,1.5,0,0,1,1.3476.88,4.9819,4.9819,0,0,1,.4927,2.4209,7.29,7.29,0,0,1-1.2485,4.5488q-6.5076,8.8785-12.1607,8.8775A6.6278,6.6278,0,0,1,301.0825,115.38Zm2.5967-37.4541a5.5188,5.5188,0,0,1-1.38-3.9986,5.687,5.687,0,0,1,1.8076-4.2919,6.27,6.27,0,0,1,4.5025-1.7242,5.781,5.781,0,0,1,3.9438,1.3208,4.7042,4.7042,0,0,1,1.5118,3.7417,6.3249,6.3249,0,0,1-1.709,4.6587,6.1016,6.1016,0,0,1-4.5357,1.7241A5.5012,5.5012,0,0,1,303.6792,77.9258Z"/><path class="cls-2" d="M316.5283,115.82q-1.02-2.9334-1.0185-9.3911a66.152,66.152,0,0,1,2.4321-18.1216,5.5444,5.5444,0,0,1,1.939-3.1181,6.2771,6.2771,0,0,1,3.7793-.9908,3.3835,3.3835,0,0,1,1.8408.3667,1.5964,1.5964,0,0,1,.5259,1.3941,30.8593,30.8593,0,0,1-.9864,5.2827q-.6576,2.9355-1.0517,5.1357t-.6573,5.4292a43.5038,43.5038,0,0,1,4.8643-10.2715,20.14,20.14,0,0,1,5.2915-5.6494,8.931,8.931,0,0,1,4.7651-1.6875q4.2723,0,4.2725,4.7691a65.43,65.43,0,0,1-1.4458,10.3447,56.3652,56.3652,0,0,0-1.249,8.4375q0,2.9348,1.9062,2.9346,1.314,0,3.1221-1.7974a56.8987,56.8987,0,0,0,4.8315-5.833,2.24,2.24,0,0,1,1.7745-1.0269,1.5,1.5,0,0,1,1.3476.88,4.9826,4.9826,0,0,1,.4932,2.4209,7.2871,7.2871,0,0,1-1.249,4.5488,30.6706,30.6706,0,0,1-6.08,6.3833,11.8347,11.8347,0,0,1-7.395,2.4942,6.0562,6.0562,0,0,1-5.0611-2.1641,9.9365,9.9365,0,0,1-1.709-6.2729,50.79,50.79,0,0,1,.92-7.3369,42.1609,42.1609,0,0,0,.8544-6.3829q0-1.1733-.7226-1.1738-.8554,0-2.3994,2.4575a40.9871,40.9871,0,0,0-3.1548,6.4932,54.5322,54.5322,0,0,0-2.5967,8.5107,12.2005,12.2005,0,0,1-1.6763,4.6587,3.5735,3.5735,0,0,1-2.9907,1.2105Q317.5467,118.7549,316.5283,115.82Z"/><path class="cls-2" d="M382.9814,103.0908a4.85,4.85,0,0,1,.4932,2.3111,6.1966,6.1966,0,0,1-.46,2.6416,4.6079,4.6079,0,0,1-1.4458,1.6875q-5.6544,4.2553-8.2823,6.31l-4.2065,3.1548q-2.499,15.1867-6.5405,23.8814t-10.2867,8.6938a7.0358,7.0358,0,0,1-5.4555-2.311,8.64,8.64,0,0,1-2.1035-6.0528q0-5.21,3.6806-11.1889,3.68-5.98,13.8037-14.71l.3946-2.8613a8.011,8.011,0,0,1-2.9253,3.0449,7.0355,7.0355,0,0,1-3.5825,1.0635,7.68,7.68,0,0,1-6.5074-3.3013,14.2456,14.2456,0,0,1-2.4316-8.6577,26.11,26.11,0,0,1,2.4316-11.1152,22.67,22.67,0,0,1,6.4746-8.437,13.6188,13.6188,0,0,1,8.5782-3.1915,2.39,2.39,0,0,1,1.9389.6236,5.6312,5.6312,0,0,1,.8218,2.2378,12.764,12.764,0,0,1,2.8921-.2935,3.8031,3.8031,0,0,1,2.3335.55,2.68,2.68,0,0,1,.69,2.1641,11.6079,11.6079,0,0,1-.0659,1.394q-.2629,2.2749-1.6431,11.5186-.2635,1.7615-.5585,3.852t-.6246,4.4385q5.0611-4.4019,9.7281-7.7769a2.7858,2.7858,0,0,1,1.5117-.5869A1.4979,1.4979,0,0,1,382.9814,103.0908ZM356.689,140.252q2.07-4.4026,3.977-14.0132a41.18,41.18,0,0,0-7.2964,8.73,14.16,14.16,0,0,0-2.2348,6.8233,4.3624,4.3624,0,0,0,.4272,2.0542,1.4762,1.4762,0,0,0,1.4131.8071Q354.6179,144.6538,356.689,140.252Zm4.6342-30.9615a14.6169,14.6169,0,0,0,1.9717-5.8691l2.1035-12.5459a7.3628,7.3628,0,0,0-4.9956,2.311,15.897,15.897,0,0,0-3.6806,5.9058,21.9025,21.9025,0,0,0-1.38,7.7773,5.6348,5.6348,0,0,0,.8213,3.3745,2.673,2.673,0,0,0,2.2681,1.1006Q359.9421,111.3447,361.3232,109.2905Z"/><path class="cls-2" d="M410.1274,102.9077a4.9815,4.9815,0,0,1,.4932,2.4209,7.2871,7.2871,0,0,1-1.249,4.5488,24.6908,24.6908,0,0,1-6.8687,6.09,17.5345,17.5345,0,0,1-9.498,2.7876q-6.9024,0-10.7144-4.1817t-3.8125-11.4453A23.2907,23.2907,0,0,1,380.3843,93.7a17.0577,17.0577,0,0,1,5.2915-6.9331,12.3462,12.3462,0,0,1,7.6577-2.5679,7.8621,7.8621,0,0,1,6.1128,2.5313,9.8164,9.8164,0,0,1,2.3008,6.86,12.5838,12.5838,0,0,1-3.2539,8.6944q-3.2535,3.6313-11.01,5.7593,1.642,3.375,6.2441,3.375a13.3107,13.3107,0,0,0,6.7378-2.3116,23.0084,23.0084,0,0,0,6.54-6.0527,2.24,2.24,0,0,1,1.7749-1.0269A1.4994,1.4994,0,0,1,410.1274,102.9077Zm-22.02-8.3642a16.0761,16.0761,0,0,0-1.6763,7.63v.147a14.2761,14.2761,0,0,0,6.1128-3.0815,6.3023,6.3023,0,0,0,2.2349-4.7691,3.4282,3.4282,0,0,0-.69-2.2378,2.295,2.295,0,0,0-1.8736-.8437Q389.7834,91.3887,388.1079,94.5435Z"/><path class="cls-2" d="M406.4458,115.82q-1.02-2.9334-1.0186-9.3911a66.152,66.152,0,0,1,2.4322-18.1216,5.5448,5.5448,0,0,1,1.9389-3.1181,6.2775,6.2775,0,0,1,3.7793-.9908,3.3837,3.3837,0,0,1,1.8409.3667,1.5963,1.5963,0,0,1,.5258,1.3941,30.8656,30.8656,0,0,1-.9863,5.2827q-.6578,2.9355-1.0518,5.1357t-.6572,5.4292a43.5038,43.5038,0,0,1,4.8643-10.2715,20.14,20.14,0,0,1,5.2915-5.6494,8.931,8.931,0,0,1,4.7651-1.6875q4.2723,0,4.2725,4.7691a40.9653,40.9653,0,0,1-.5913,4.622,29.7863,29.7863,0,0,0-.5259,3.6685q0,2.5693,1.6431,2.5679,1.84,0,4.7329-3.2281a2.4184,2.4184,0,0,1,1.7744-.9541,1.5068,1.5068,0,0,1,1.3476.8438,4.4168,4.4168,0,0,1,.4932,2.2378,6.3529,6.3529,0,0,1-1.3149,4.2554,18.116,18.116,0,0,1-4.3052,3.6318,9.87,9.87,0,0,1-5.2256,1.5039,6.8016,6.8016,0,0,1-5.2915-1.981,7.6389,7.6389,0,0,1-1.8076-5.3559,12.4679,12.4679,0,0,1,.1972-2.2007q.1311-1.467.1314-1.981,0-1.1733-.7227-1.1738-.9866,0-2.5966,2.4575a35.8526,35.8526,0,0,0-3.188,6.4932,57.0529,57.0529,0,0,0-2.5635,8.5107,12.2005,12.2005,0,0,1-1.6763,4.6587,3.5735,3.5735,0,0,1-2.9907,1.2105Q407.4642,118.7549,406.4458,115.82Z"/><path class="cls-2" d="M695.6281,87.75l16.8048-16.8049a2.7422,2.7422,0,1,0-3.8781-3.878L691.75,83.8719,674.9452,67.0671a2.7422,2.7422,0,1,0-3.8781,3.878L687.8719,87.75l-16.8048,16.8048a2.7422,2.7422,0,1,0,3.8781,3.8781L691.75,91.6281l16.8048,16.8048a2.7422,2.7422,0,1,0,3.8781-3.8781Z"/></svg>
