<svg id="Layer_1" data-name="Layer 1" xmlns="http://www.w3.org/2000/svg" xmlns:xlink="http://www.w3.org/1999/xlink" viewBox="0 0 410 600"><defs><style>.cls-1{fill:none;}.cls-2{opacity:0.3;}.cls-3{clip-path:url(#clip-path);}.cls-4{fill:#df9227;}.cls-5{clip-path:url(#clip-path-2);}.cls-6{fill:#fbd088;}.cls-7{fill:#ec9f2d;}.cls-8{fill:#fff;}.cls-9{fill:#d88d2d;}.cls-10{fill:#8d173a;}.cls-11{fill:#f997a4;}.cls-12{fill:#fdb0b7;}.cls-13{fill:#fcc5cb;opacity:0.62;}.cls-14{fill:#fee7ed;}</style><clipPath id="clip-path"><path class="cls-1" d="M210.58,509.1093C148,398,92.5,254.5,92.5,254.5l249,2S284,407,230.0252,508.9305C225.73,517.0425,215.0843,517.1071,210.58,509.1093Z"/></clipPath><clipPath id="clip-path-2"><path class="cls-1" d="M210.58,509.6093C148,398.5,92.5,255,92.5,255l249,2S284,407.5,230.0252,509.4305C225.73,517.5425,215.0843,517.6071,210.58,509.6093Z"/></clipPath></defs><title>is</title><ellipse class="cls-2" cx="205" cy="555.5" rx="123.5" ry="29.5"/><g class="cls-3"><path class="cls-4" d="M210.58,509.6093C148,398.5,92.5,255,92.5,255l249,2S284,407.5,230.0252,509.4305C225.73,517.5425,215.0843,517.6071,210.58,509.6093Z"/><g class="cls-5"><path class="cls-6" d="M172.9218,137.1279c-2.8174,2.6717-4.2341,4.0042-7.0834,6.662q-27.22,25.142-55.6538,48.8063c-3.0866,2.5459-4.6377,3.8148-7.7558,6.3446q-29.7693,23.9152-60.66,46.2569C38.4164,247.6,36.7329,248.796,33.35,251.18q-36.6237,25.577-74.6484,48.9429,30.4677,34.02,62.9778,66.0217c3.1114,3.0382,4.6758,4.5531,7.8218,7.5742q29.9745,28.5317,61.4,55.3873c3.4025,2.8843,5.1124,4.3216,8.5487,7.1864q32.7242,27.0411,66.7926,52.2911c3.6873,2.71,5.5394,4.06,9.26,6.7488q40.2,28.7859,82.0123,55.0833,37.2953-30.3877,72.8584-62.7246c3.2882-3.0161,4.924-4.5279,8.1789-7.5584q30.05-28.1984,58.6888-57.7758c3.0049-3.13,4.4987-4.698,7.47-7.84q27.4149-29.2253,53.35-59.7221c2.7191-3.2258,4.07-4.8413,6.7557-8.0773q28.0026-34.0631,54.0133-69.6018-40.1017-19.6237-78.8314-41.7321c-3.5832-2.07-5.3674-3.1107-8.9205-5.2046q-32.8315-19.58-64.4757-40.8909c-3.3232-2.2653-4.9772-3.4035-8.2692-5.6905q-30.4071-21.3648-59.5133-44.3483c-3.0551-2.4409-4.5747-3.6663-7.5977-6.1266Q259.6436,107.1378,229.9,79.1758,202.2769,109.044,172.9218,137.1279Zm-55.72,62.62q28.4525-23.8635,55.6111-49.0975,26.7962,25.8427,54.9494,50.0855-26.9974,26.3818-55.2519,51.32Q144.1129,226.6327,117.2014,199.7475Zm178.3938,54.5739q-26.7258,27.6656-54.7542,53.9223-30.998-23.8816-60.6014-49.4,28.2666-25.1429,55.1986-51.6217Q264.8937,231.6279,295.5952,254.3214Zm73.5967,49.8039q-26.379,29-54.1533,56.6121-33.5278-22.1829-65.77-46.1181,28.0325-26.4669,54.6892-54.2341Q335.9851,283.1765,369.1919,304.1253ZM181.76,373.7036q30.5906-25.272,59.87-51.9953,32.3026,24.1349,65.837,46.4437-29.044,27.9965-59.4044,54.5025Q214.2421,399.0465,181.76,373.7036Zm-69.52-58.8924q30.781-23.8749,60.2981-49.2363,29.6555,25.7148,60.656,49.715-29.33,26.596-59.9257,51.6662Q142.0329,341.6925,112.24,314.8112ZM48.8224,252.6973q30.9189-22.5462,60.628-46.5652,26.9752,27.0972,55.3519,52.6132-29.5635,25.2389-60.342,48.9175Q75.87,280.9272,48.8224,252.6973ZM-25.1512,302.416q33.3428-21.0375,65.5593-43.6943,27.0851,28.4322,55.6706,55.2877Q63.963,337.926,30.7237,360.1858,1.9911,332.0377-25.1512,302.416Zm63.693,65.298q33.25-22.463,65.3221-46.5124,29.8385,27.0865,61.0731,52.4775-31.9257,25.3481-65.029,49.0723Q68.4775,396.0316,38.5418,367.714Zm69.91,62.1764q33.1062-23.933,64.9837-49.4188,32.5364,25.5514,66.36,49.2939-31.6818,26.8229-64.5965,52.0557Q141.1276,456.7142,108.4513,429.89Zm212.05,51.9562q-31.38,28.3405-64.05,55.1262-36.6435-23.3107-72-48.4516,32.91-25.4472,64.5381-52.4125Q284.1592,459.9359,320.5008,481.8466Zm66.96-64.9367Q358.76,446.35,328.69,474.3361q-36.3348-21.7692-71.4416-45.3848,30.3478-26.7131,59.3357-54.8418Q351.4662,396.4756,387.4611,416.91Zm60.9228-67.1843q-25.9989,30.3695-53.4411,59.39-35.9839-20.301-70.7966-42.4644,27.7548-27.8125,54.0754-56.9344Q412.7747,330.6941,448.3839,349.7256Zm54.8437-69.051q-23.2809,31.1288-48.0754,61.0169-35.5956-18.9065-70.0734-39.6905Q410.2073,273.2333,433.85,243.31,468.0376,262.9727,503.2276,280.6746Zm-78.31-42.6084Q401.2,267.8939,376.06,296.4517,342.8627,275.62,310.9015,253.02q25.4515-27.4719,49.4563-56.1362Q392.0972,218.3918,424.9172,238.0662Zm-72.8387-46.9108q-24.0747,28.5738-49.53,55.8414-30.7176-22.6-60.0933-46.801,25.7238-26.2207,50.0382-53.67Q321.6853,169.7052,352.0785,191.1554ZM234.7866,193.748Q206.6151,169.59,179.89,143.95q25.9491-25.014,50.5247-51.2917,26.5782,24.661,54.4725,47.704Q260.5063,167.7264,234.7866,193.748Z"/></g><path class="cls-7" d="M67.3211,243.5188q10.8607-8.1859,21.5414-16.6032a17.87,17.87,0,0,1,23.5724,1.2573q9.7416,9.5175,19.7011,18.7953a17.8206,17.8206,0,0,1-.782,26.7794q-10.9686,9.0594-22.137,17.87a17.783,17.783,0,0,1-23.3086-1.1268q-10.3905-9.9714-20.53-20.19A17.822,17.822,0,0,1,67.3211,243.5188Z"/><path class="cls-7" d="M276.02,260.0017q-12.8263,12.9286-25.9886,25.5088a15.7835,15.7835,0,0,1-20.6644,1.0019q-14.7258-11.5981-29.0915-23.6236a15.7959,15.7959,0,0,1-.5112-23.7936q12.9306-11.8122,25.5434-23.9566a15.7653,15.7653,0,0,1,20.8638-.887q13.95,11.29,28.2131,22.157A15.7454,15.7454,0,0,1,276.02,260.0017Z"/><path class="cls-7" d="M343.2514,318.127q-9.8172,10.4556-19.8776,20.6772a15.8836,15.8836,0,0,1-20.2267,2.0031q-12.4908-8.4682-24.7492-17.2564a15.87,15.87,0,0,1-1.8768-24.268q9.9062-9.6432,19.5887-19.509a15.86,15.86,0,0,1,20.3659-1.9283q11.8755,8.232,23.9577,16.145A15.8659,15.8659,0,0,1,343.2514,318.127Z"/><path class="cls-7" d="M212.5145,358.2634q10.0876-8.6185,19.9849-17.4556a16.4652,16.4652,0,0,1,20.6722-1.0278q11.148,8.1228,22.487,15.9651a16.4726,16.4726,0,0,1,1.84,25.5963q-10.0738,9.3913-20.3525,18.5586a16.4915,16.4915,0,0,1-20.5582,1.1088q-11.7347-8.385-23.2543-17.0506A16.4768,16.4768,0,0,1,212.5145,358.2634Z"/><path class="cls-7" d="M143.1372,303.2344q11.5587-9.231,22.8753-18.7556a13.8841,13.8841,0,0,1,17.9223.0292q11.4692,9.72,23.2054,19.1043a13.9063,13.9063,0,0,1,.5856,21.2929q-11.5278,10.1578-23.315,20.0116a13.9314,13.9314,0,0,1-17.8061.0517Q154.4429,334.9229,142.58,324.54A13.8919,13.8919,0,0,1,143.1372,303.2344Z"/><path class="cls-7" d="M142.4617,417.6362q10.956-8.2078,21.7368-16.6462a17.323,17.323,0,0,1,21.2282-.1052q11.215,8.6031,22.6251,16.9338a17.338,17.338,0,0,1,.75,27.4239q-10.9887,8.9847-22.1672,17.7341a17.3632,17.3632,0,0,1-21.1439.1947q-11.8042-8.8914-23.3892-18.0542A17.3416,17.3416,0,0,1,142.4617,417.6362Z"/><path class="cls-7" d="M298.3389,495.4586q-13.6275,11.9674-27.5655,23.5723a14.0314,14.0314,0,0,1-16.613.9939q-15.9923-10.35-31.6654-21.1546a13.9615,13.9615,0,0,1-.7607-22.3978q13.8108-10.9858,27.3278-22.3311a13.9349,13.9349,0,0,1,16.6684-.9327q15.245,10.1411,30.7715,19.8231A14.0038,14.0038,0,0,1,298.3389,495.4586Z"/><path class="cls-7" d="M74.4617,361.6362q10.956-8.2078,21.7368-16.6462a17.323,17.323,0,0,1,21.2282-.1052q11.2151,8.6031,22.6251,16.9338a17.338,17.338,0,0,1,.75,27.4239q-10.9887,8.9847-22.1672,17.7341a17.3632,17.3632,0,0,1-21.1439.1947Q85.6861,398.28,74.1011,389.1171A17.3416,17.3416,0,0,1,74.4617,361.6362Z"/></g><circle class="cls-8" cx="267.5" cy="327" r="23.5"/><path d="M267.5,311a15.9456,15.9456,0,0,0-5.2238.89,2.2742,2.2742,0,0,1,.5363.43c1.381,1.561.3311,4.7457-2.345,7.113s-5.965,3.0211-7.346,1.46a2.2415,2.2415,0,0,1-.2519-.3533A15.9957,15.9957,0,1,0,267.5,311Z"/><path class="cls-9" d="M322.1924,394.671a29.5,29.5,0,0,1-34.62,23.2807c16.1311-12.1259,32.1355-31.41,5.0213-43.8524,1.75-3.7333,5.25-11.2,6.3175-14.0478A29.5,29.5,0,0,1,322.1924,394.671Z"/><path class="cls-9" d="M281.8637,428.8835C278.01,429.3547,280,425.5,280,425.5s-6.2762,2.7068-7.2765-.6049C272,422.5,276,420.5,276,420.5s-5.889-1.9973-1-4c3.4705-1.4216,11.88,1.4109,12.5372,1.5756C287.2485,418.9157,285,428.5,281.8637,428.8835Z"/><path class="cls-9" d="M111.1284,389.671C114.26,405.66,122,411.5,140,422.5c-13-23-26.3875-40.9579.7266-53.4007-1.75-3.7333-5.25-11.2-6.3175-14.0478A29.5,29.5,0,0,0,111.1284,389.671Z"/><path class="cls-9" d="M145.31,432.8835c3.854.4712,1.8637-3.3835,1.8637-3.3835s6.2762,2.7068,7.2765-.6049c.7235-2.3951-3.2765-4.3951-3.2765-4.3951s5.889-1.9973,1-4c-3.4705-1.4216-11.88,1.4109-12.5373,1.5756C139.9247,422.9157,142.1732,432.5,145.31,432.8835Z"/><path class="cls-9" d="M261.2515,551.1091H250.0958L243.3727,478.5,233,490.3546l13.3364,68.1636c.03.1542.267.2733.6078.3611A2.8506,2.8506,0,0,0,249.2031,560h12.0484a2.8667,2.8667,0,0,0,2.8667-2.8667v-3.1575A2.8667,2.8667,0,0,0,261.2515,551.1091Z"/><path class="cls-9" d="M178.8667,551.1091h11.1557l6.723-72.6091,10.3728,11.8546-13.3364,68.1636c-.03.1542-.267.2733-.6078.3611A2.8508,2.8508,0,0,1,190.9151,560H178.8667A2.8667,2.8667,0,0,1,176,557.1333v-3.1575A2.8666,2.8666,0,0,1,178.8667,551.1091Z"/><path class="cls-10" d="M251,360.5c0,11.598-9.7827,34-20,34s-19-20.402-19-32a30.2238,30.2238,0,0,0,19,6C237,368.5,244,366.5,251,360.5Z"/><path class="cls-11" d="M231,394.5c-5,0-24-15,0-13C251,378.5,239,394.5,231,394.5Z"/><path class="cls-11" d="M310.3619,214.8676C329.9886,210.3337,340,208.5,342,187.5c0-20.1-13.7816-25.7328-46.5355-27.106,15.68-1.87,18.0355-9.394,18.1616-17.7434.2367-15.6732-10.2441-24.0083-28.3975-26.7711C304.7444,96.44,305.3848,65.2693,214,14.5c-.9675,45.47-66.8494,40.51-51.5,84.5-18.1985-1.3378-35.0836,2.0882-38.5,17.5-2.5054,13.235,2.1454,21.8589,11.3959,27.6586C116.592,141.986,100.8025,148.8271,99,165.5c-1.38,12.7667,6,22,25.569,27.9442C101.7174,190.5506,84.5,204,82,220.5c-6,60,55.6706,46.3012,126.92,52.5269C283,279.5,345,284.5,351,247.5,355.198,221.6125,337.8388,215.798,310.3619,214.8676Z"/><path class="cls-12" d="M276.5,118c19.5158-19.4392,29.3848-49.2307-62-100,18.6605,40.8754-35.5981,38.33-37.1494,68.1211a15.7187,15.7187,0,0,0,11.5909,15.8134C230.25,113.4448,248.82,118,276.5,118Z"/><path class="cls-12" d="M311.5317,212.0772c14.8412-4.4263,21.4155-7.1543,23.47-22.4647.4109-15.6071-15.2032-15.6071-47.2532-21.9724-24.454-4.4277-75.0395-12.9495-101.0808-13.64-15.6141.9093-28.7628,1.8187-32.05,14.5494-1.0238,10.48,4.5708,21.0631,19.0876,25.9424C193.6835,197.4106,277.0652,221.291,311.5317,212.0772Z"/><path class="cls-13" d="M312.8036,208.6629c14.0373-4.2284,20.2556-6.8345,22.1988-21.46.3886-14.9094-12.8252-16.6468-43.1392-22.7276C280.9812,162.7374,276.3175,161,260.7719,161c-20.2094,0-30.3141,3.4748-31.8686,17.3738-.9684,10.0111-1.294,21.4,12.4365,26.0607C261.373,209.1871,287.9768,213.99,312.8036,208.6629Z"/><path class="cls-12" d="M303.9609,218.0972c-33.3368-7.3722-102.197-14.47-119.0974-15.6782-14.886-2.2177-31.2477,4.1888-34.1468,23.5173-3.9086,45.9858,45.7694,37.3768,92.1827,42.1484,48.2573,4.9611,88.6454,8.7933,92.5539-19.5646C338.188,228.6792,333.9435,223.9765,303.9609,218.0972Z"/><path class="cls-13" d="M310.1906,218.165c-26.8856-7.3617-35.4027-8.5785-49.0326-9.785-12.0053-2.2146-25.2008,5.1613-27.5389,24.4625-1.3433,29.3549,8.7319,33.2689,27.3264,35.2391,38.9641,4.1283,71.4911,8.7808,74.6433-19.5369C337.7942,228.732,334.3711,224.036,310.1906,218.165Z"/><path class="cls-12" d="M259.9918,161c24.1247-1.0566,24.1247-1.0566,35.0088-3.9543,9.6612-3.6652,11.5423-7.9918,11.6267-14.8493.1631-13.2442-7.0588-20.2875-19.5676-22.6222-32.0326-5.0326-48.3991-4.0213-86.8189-14.1589a8.4736,8.4736,0,0,0-1.4939-.2592c-12.132-.9426-20.477,2.1819-22.7837,14.9425-1.4753,9.5572.65,16.269,5.2779,21.0776,1.4529,1.51,7.9552,3.519,9.823,3.9747C235.3662,155.9594,236.166,158.913,259.9918,161Z"/><path class="cls-13" d="M243.4354,157.1845c30.2557,4.7713,38.3534,5.48,51.867,0,8.0976-4.0627,10.3733-6.68,11.3475-15.0736,1.377-11.8656-7.0822-18.3223-19.6324-20.4307-20.2419-1.7115-39.8781-9.2619-58.2777-3.62C213.18,122.8315,207.1286,151.459,243.4354,157.1845Z"/><path class="cls-13" d="M276.5,118c19-22,18.3758-51.2357-46-87,13.1453,28.7946-.9072,49.0139-2,70-.2681,5.1475,4.9338,12.05,10,13C254.5,117,257.0009,118,276.5,118Z"/><path class="cls-14" d="M274.3474,101.1153C284.2457,91.2559,296.85,72.75,250.5,47,271.5958,72.6819,261.5065,99.2809,274.3474,101.1153Z"/><circle class="cls-8" cx="199" cy="326.5" r="23.5"/><path d="M199,310.5a15.9456,15.9456,0,0,0-5.2238.89,2.2742,2.2742,0,0,1,.5363.43c1.381,1.561.3311,4.7457-2.345,7.113s-5.965,3.0211-7.346,1.46a2.2415,2.2415,0,0,1-.2519-.3533A15.9957,15.9957,0,1,0,199,310.5Z"/></svg>
