<svg id="Layer_1" data-name="Layer 1" xmlns="http://www.w3.org/2000/svg" viewBox="0 0 370 630"><defs><style>.cls-1,.cls-13{opacity:0.3;}.cls-2{fill:#d9bfa0;}.cls-3{fill:#f2f2f2;}.cls-4{fill:#603813;}.cls-5{fill:#ccc;}.cls-6{fill:#ff7bac;}.cls-10,.cls-7{fill:none;}.cls-7{stroke:#e6e6e6;stroke-linejoin:round;}.cls-8{fill:#8d173a;}.cls-12,.cls-13,.cls-9{fill:#fff;}.cls-10{stroke:#000;stroke-linecap:round;stroke-miterlimit:10;stroke-width:5px;}.cls-11{fill:#fbb03b;}.cls-12{opacity:0.2;}</style></defs><title>iskaffe</title><ellipse class="cls-1" cx="164" cy="575" rx="123.5" ry="29.5"/><path class="cls-2" d="M91.075,357.1542c1.0017-15.5668.2233-15.6169.6741-22.622-9.04,4.642-18.4,13.2214-23.0792,21.021-10.5985,17.6641-6.79,30.2036-7.8188,34.0452C63.6368,382.7436,79.6273,365.0149,91.075,357.1542Z"/><path class="cls-2" d="M61.2152,386.1129s-14.53,19.6248-9.75,23.9919c.8394.7669,4.042-2.0846,4.042-2.0846s1.49,10.0769,4.069,9.6406c2.8839-.4878.7513-11.6751.7513-11.6751s5.57,11.006,8.375,9.5269C75.4112,411.9749,61.2152,386.1129,61.2152,386.1129Z"/><path class="cls-2" d="M249.6728,509.3529c-36.092,11.16-103.168,10.38-142.3871-.9183-8.2768-2.3845-12.9716-10.43-14.1683-18.96-8.2289-58.6555-20.77-206.7535-21.8781-274.3126,51.8669,19.8888,166.52,23.0086,217.607,0-1.098,71.37-17.549,239.0557-24.459,276.0519-1.2212,6.538-1.889,11.391-8.64,15.4354A27.83,27.83,0,0,1,249.6728,509.3529Z"/><path class="cls-3" d="M294.306,212.0528c-21.4488,10.7244-50.8955,20.0188-113.6782,20.0188-58.0725,0-88.36-9.7711-113.6782-20.0188a113.6782,113.6782,0,1,1,227.3564,0Z"/><path class="cls-2" d="M245.3245,138.9636c-5.3878-14.208-20.1786-24.416-37.5934-24.416A42.6906,42.6906,0,0,0,189.24,118.706a39.3132,39.3132,0,0,0-14.2665-2.5985c-12.5363,0-23.2467,5.5332-27.5786,13.3474-.81-.0522-1.6251-.0882-2.45-.0882-15.5916,0-28.781,9.4728-33.1609,22.5122-9.6073,2.8718-16.3661,9.6938-16.3661,17.6554,0,.16.0113.3179.0167.4769a23.0061,23.0061,0,0,0-21.0755,22.9217c0,11.8611-9.5794,22.1508,1.95,23.3986,14.3278,9.7754,63.1952,15.9891,98.2741,15.9891,29.3677,0,78.223-10.1394,81.8951-10.1394,11.0316,0,25.6718-1.8995,30.4182-10.5294,2.0183-3.67-2.0662-12.19-1.95-16.379C285.6949,168.33,257.9917,140.7445,245.3245,138.9636Z"/><path class="cls-4" d="M275.5833,215.1616a3.9,3.9,0,0,1-3.8876-3.6423c-.9841-14.87-5.4871-25.59-13.3837-31.8639-5.5168-4.3834-11.6289-5.8351-17.54-7.2393-7.5158-1.785-15.8092-.2437-21.3417-7.9515-3.8133-5.3123-5.1176-9.0574-5.46-13.2592-.3036-3.73-1.2435-8.5242-3.9-11.6993-4.6416-5.5469-15.051-4.9349-28.0783-4.68-2.1354.0453-.3466-7.5158-.3892-9.669a3.9,3.9,0,0,1,3.8217-3.9764c15.5141-.2963,26.5332,3.3145,32.7664,10.764,4.2475,5.0762,4.6428,9.9356,4.9916,14.2227.2974,3.6526.5541,6.8071,3.1053,10.3614,3.8332,5.3409,9.3286,6.646,16.2861,8.2989,6.4278,1.5267,13.7128,3.2569,20.5892,8.7207,9.69,7.6979,15.1786,20.3,16.3147,37.4557a3.9,3.9,0,0,1-3.634,4.1488Q275.7131,215.1618,275.5833,215.1616Z"/><path class="cls-4" d="M239.6666,224.7259c-1.4994-10.06-5.1543-18.4336-10.8626-24.8873-4.7571-5.3781-9.7449-8.0326-13.7528-10.1656-4.5982-2.4473-7.0577-3.8849-8.3468-7.3346a10.0149,10.0149,0,0,1-.4831-1.774q-.049-.7557-.15-1.5047a22.357,22.357,0,0,1,1.232-6.6718c1.1692-4.0635,2.4941-8.6689.366-14.04-3.08-7.7717-11.7869-12.7847-25.8786-14.8991a3.8966,3.8966,0,0,0-3.9833,1.9819,126.4744,126.4744,0,0,0-15.314-2.0249c-20.2137,1.0774-16.7012,21.4286-21.7062,32.5217-2.8711,6.3641-2.4259,12.5056-2.0679,17.44.3359,4.6321.356,6.64-.82,7.8626-1.3116,1.3641-3.5483,1.2856-7.7211,1.01-5.2205-.3434-12.368-.8134-20.6752,3.4243a39.4046,39.4046,0,0,0-9.7281,7.0893,5.92,5.92,0,0,0-.4962,7.5619,4.4425,4.4425,0,0,0,3.55,1.8656,4.3276,4.3276,0,0,0,3.0494-1.297,30.1191,30.1191,0,0,1,7.4309-5.4224c6.2331-3.1789,11.5991-2.8263,16.3329-2.5148,5.0487.3338,10.267.6751,14.5472-3.7751,4.7125-4.9,4.2379-11.4391,3.8571-16.6926-.2986-4.1155-.58-8.0022,1.0549-11.6268,1.007-2.2318,7.4681-4.3093,15.555-6.4548a6.045,6.045,0,0,1,1.7365,1.7662,4.21,4.21,0,0,0,.39.6256,41.6442,41.6442,0,0,0-3.7074,8.6939c-1.1433,3.5041.3042,7.4617,1.7042,11.2887a23.5041,23.5041,0,0,1,1.459,4.9391c-.7354,1.4891-2.6708,2.2515-5.7171,3.3072-2.8811.9985-6.1467,2.13-8.391,4.8214-4.4215,5.3016-6.1745,12.2283-5.211,20.5876a3.9,3.9,0,1,0,7.7485-.8934c-.72-6.2423.4094-11.05,3.4523-14.6988.8561-1.0263,2.8471-1.7164,4.9554-2.4472,3.7174-1.2884,8.3438-2.8917,10.4186-7.7965,1.3142-3.1069.0007-6.6974-1.39-10.4989-.6645-1.8162-1.9011-5.1969-1.6144-6.19,1.5078-4.62,4.7834-5.73,7.9511-6.8032,1.464-.4959,11.739-4.9833,12.91-5.7156l.0119-.01c.0388.0092.0847.0134.1211.0243,3.0245.91,4.7815,1.51,5.7261,3.2476,1.6025,2.9481.3077,8.3223-.9442,13.52-1.6235,6.7389-3.464,14.377.8025,19.8425.8132,1.0419,10.3545,14.8489,11.4416,14.8528,1.0452.0038,6.9868-.5932,7.7995-1.56,1.6581-1.9727-7.7642-14.3355-9.3594-16.379-.9-1.1533-3.5262-10.4021-2.6981-13.8391.1991-.8267.4041-1.6788.6039-2.5492a41.2194,41.2194,0,0,0,6.53,4.0244c3.8106,2.0283,7.7511,4.1256,11.5747,8.4477,4.6923,5.3051,7.7169,12.3269,8.99,20.87a3.9,3.9,0,0,0,3.8521,3.325,3.9557,3.9557,0,0,0,.58-.043A3.9,3.9,0,0,0,239.6666,224.7259Z"/><path class="cls-4" d="M83.396,213.6017a3.5226,3.5226,0,0,0,3.5624-3.2192c.9017-13.1424,5.028-22.6176,12.2639-28.1623,5.0553-3.8743,11.0579-3.2553,16.4744-4.4964,6.887-1.5776,15.2092-2.547,20.2787-9.3594a22.6934,22.6934,0,0,0,4.68-12.4793c.2781-3.2966,1.4656-8.1131,3.9-10.9193,4.2533-4.9025,10.6813-4.1253,22.6187-3.9,1.9567.04,2.3-5.11,2.3394-7.0131a3.5058,3.5058,0,0,0-3.502-3.5144c-14.2161-.2619-25.8838.8236-31.5955,7.4077-3.8921,4.4865-5.14,10.25-5.46,14.0392-.2726,3.2283-.7815,6.218-3.1192,9.3594-3.5125,4.72-7.6644,5.5588-14.04,7.02-5.89,1.3494-10.7194,3.6293-17.02,8.4584-8.8789,6.8037-13.9087,17.942-14.95,33.1046a3.4923,3.4923,0,0,0,3.33,3.6669Q83.2771,213.6018,83.396,213.6017Z"/><path class="cls-5" d="M180.2378,238.3111c-60.9879,0-92.469-10.6748-117.1891-20.6805a6.24,6.24,0,1,1,4.682-11.5676c23.63,9.5647,53.7612,19.7689,112.5071,19.7689,64.2616,0,92.7074-9.8907,112.0577-19.5659a6.24,6.24,0,0,1,5.5808,11.1616C277.2228,227.7543,247.0952,238.3111,180.2378,238.3111Z"/><path class="cls-6" d="M200.4058,31.8984l.0515-.307-.2334-.0271c-.9175-1.3509-4.0964-2.6994-8.0656-3.2858-4.546-.6716-8.5293-.1073-9.4065,1.2543l-.0609-.0071-.03.1806a1.0723,1.0723,0,0,0-.0732.1952,1.0267,1.0267,0,0,0-.014.3249L162.6218,149.14a19.0345,19.0345,0,0,0,17.7665,2.0658c3.9442-23.3986,19.8252-118.1606,19.8252-118.1606a1.1856,1.1856,0,0,0,.26-.5008A1.1045,1.1045,0,0,0,200.4058,31.8984Z"/><path class="cls-7" d="M188.6758,100.9231c5.09,1.0712,8.526,3.1038,8.526,5.435,0,3.4461-7.5078,6.24-16.769,6.24s-16.769-2.7935-16.769-6.24c0-2.1538,2.559-4.3384,7.02-5.46"/><ellipse class="cls-8" cx="191.5306" cy="31.2228" rx="3.0037" ry="9.0426" transform="translate(134.1084 216.5914) rotate(-82.0472)"/><path class="cls-6" d="M270.5174,446.4177c-58.4965,26.5184-123.2326,27.2984-182.5091,0-3.9-38.9976-10.9193-127.9123-14.4291-175.8794,51.8669,19.1088,143.9014,30.8081,212.9272,0C282.2167,316.9455,275.1971,407.42,270.5174,446.4177Z"/><circle class="cls-9" cx="191.3521" cy="329.8147" r="18.3289"/><path d="M191.3521,317.3355a12.4342,12.4342,0,0,0-4.0743.694,1.7772,1.7772,0,0,1,.4183.335c1.0771,1.2176.2582,3.7014-1.829,5.5479s-4.6524,2.3563-5.73,1.1387a1.7478,1.7478,0,0,1-.1965-.2755,12.4759,12.4759,0,1,0,11.411-7.44Z"/><circle class="cls-9" cx="123.8862" cy="329.4247" r="18.3289"/><path d="M123.8862,316.9455a12.4363,12.4363,0,0,0-4.0743.694,1.7726,1.7726,0,0,1,.4182.3351c1.0771,1.2175.2582,3.7014-1.829,5.5478s-4.6524,2.3563-5.73,1.1387a1.7516,1.7516,0,0,1-.1965-.2754,12.4759,12.4759,0,1,0,11.4111-7.44Z"/><path class="cls-2" d="M267.2211,347.0149c-1.0017-15.5669-.2233-15.617-.674-22.6221,9.04,4.642,18.3994,13.2215,23.0791,21.021,10.5985,17.6641,6.79,30.2036,7.8189,34.0452C294.6593,372.6042,278.6688,354.8755,267.2211,347.0149Z"/><path class="cls-2" d="M297.0809,375.9735s14.53,19.6248,9.75,23.9919c-.8393.7669-4.0419-2.0846-4.0419-2.0846s-1.49,10.0769-4.0691,9.6406c-2.8839-.4878-.7512-11.6751-.7512-11.6751s-5.57,11.006-8.3751,9.5269C282.8849,401.8355,297.0809,375.9735,297.0809,375.9735Z"/><path class="cls-2" d="M237.1769,567.0765h-9.8543l-5.9388-68.7919L212.221,509.516l11.7807,64.58c.0267.1461.2359.2589.5369.3421A2.4646,2.4646,0,0,0,226.534,575.5h10.6429a2.629,2.629,0,0,0,2.5323-2.716v-2.9915A2.629,2.629,0,0,0,237.1769,567.0765Z"/><path class="cls-2" d="M126.4185,567.0765h9.8543l5.9388-68.7919,9.1628,11.2314-11.7807,64.58c-.0267.1461-.2359.2589-.5369.3421a2.4646,2.4646,0,0,1-1.9954,1.0618H126.4185a2.629,2.629,0,0,1-2.5323-2.716v-2.9915A2.629,2.629,0,0,1,126.4185,567.0765Z"/><path class="cls-10" d="M177.313,369.9823a18.3289,18.3289,0,1,1-36.6578,0"/><path class="cls-11" d="M222.3356,155.0733c0,.2547.1306.5447.05.7738-.0907.2593-.3966.3962-.5719.6055-.193.23-.3009.56-.5719.7065a2.1634,2.1634,0,0,1-.8579.1177c-.0965.0111-.3713.1683-.4709.1683a2.0911,2.0911,0,0,1-.9756-.37c-.2309-.113-.5933-.1286-.7738-.3028a2.3231,2.3231,0,0,1-.4037-1.0092,2.4314,2.4314,0,0,1-.2523-.7065c0-.1821.1767-.402.2187-.5719.0559-.2264.0142-.4944.1345-.69.1556-.2525.4988-.2914.74-.471.1321-.0982.1509-.4.3028-.4709.1677-.0783.3852.0064.5719-.0337a3.392,3.392,0,0,1,.6056-.1682c.2266,0,.3787.1472.5868.2023a2.5514,2.5514,0,0,1,.6747.2182,2.4008,2.4008,0,0,1,.6224.74c.1589.2225.4014.3367.471.6055C222.4823,154.5945,222.3356,154.8827,222.3356,155.0733Z"/><path class="cls-11" d="M110.5559,195.8959c0,.2.1028.4288.04.6092-.0715.2042-.3123.3121-.45.4768-.152.1815-.237.441-.45.5563a1.7024,1.7024,0,0,1-.6755.0927c-.076.0088-.2924.1325-.3709.1325a1.6462,1.6462,0,0,1-.7682-.2914c-.1818-.089-.4671-.1013-.6092-.2384a1.8294,1.8294,0,0,1-.3179-.7947,1.9125,1.9125,0,0,1-.1987-.5563c0-.1434.1392-.3165.1722-.45.044-.1782.0112-.3893.106-.543.1225-.1989.3927-.23.5827-.3709.104-.0773.1188-.315.2384-.3708.1321-.0617.3033.005.45-.0265a2.669,2.669,0,0,1,.4768-.1325c.1784,0,.2982.1159.462.1593a2.0039,2.0039,0,0,1,.5313.1719,1.8907,1.8907,0,0,1,.49.5827c.1251.1752.3161.2652.3708.4768C110.6714,195.5188,110.5559,195.7458,110.5559,195.8959Z"/><path class="cls-11" d="M240.8081,166.2577c0,.2005.1028.4288.04.6092-.0715.2042-.3123.312-.45.4768-.152.1814-.237.4409-.45.5563a1.7035,1.7035,0,0,1-.6754.0927c-.076.0087-.2924.1325-.3709.1325a1.6472,1.6472,0,0,1-.7682-.2914c-.1818-.089-.4671-.1013-.6092-.2384a1.83,1.83,0,0,1-.3179-.7947,1.9125,1.9125,0,0,1-.1987-.5563c0-.1434.1392-.3165.1722-.45.044-.1783.0112-.3893.106-.543.1225-.1989.3927-.23.5827-.3709.104-.0773.1188-.315.2384-.3708.1321-.0617.3033.005.45-.0265a2.6724,2.6724,0,0,1,.4769-.1325c.1784,0,.2981.1159.462.1593a2.0073,2.0073,0,0,1,.5313.1718,1.8923,1.8923,0,0,1,.49.5828c.1251.1752.3161.2652.3708.4768C240.9236,165.8806,240.8081,166.1076,240.8081,166.2577Z"/><path class="cls-11" d="M224.429,126.48c0,.2006.1029.4289.04.6093-.0715.2042-.3123.312-.45.4768-.1519.1814-.2369.4409-.45.5563a1.7037,1.7037,0,0,1-.6755.0927c-.076.0087-.2923.1324-.3708.1324a1.6471,1.6471,0,0,1-.7682-.2913c-.1818-.089-.4672-.1013-.6093-.2384a1.83,1.83,0,0,1-.3178-.7947,1.9125,1.9125,0,0,1-.1987-.5563c0-.1434.1391-.3165.1722-.45.044-.1783.0112-.3893.1059-.5431.1226-.1988.3928-.2294.5828-.3708.104-.0774.1188-.315.2384-.3709.1321-.0616.3033.0051.45-.0265a2.6734,2.6734,0,0,1,.4768-.1324c.1785,0,.2982.1159.4621.1593a2.0073,2.0073,0,0,1,.5313.1718,1.8906,1.8906,0,0,1,.49.5828c.1252.1752.3161.2652.3709.4768C224.5446,126.103,224.429,126.33,224.429,126.48Z"/><path class="cls-11" d="M196.6026,187.4455c0,.2961.1519.6332.0587.9-.1056.3015-.4612.4608-.665.7041-.2244.2679-.35.6511-.665.8214a2.5144,2.5144,0,0,1-.9974.1369c-.1122.0129-.4317.1956-.5476.1956a2.4306,2.4306,0,0,1-1.1343-.43c-.2685-.1313-.69-.1495-.9-.352a2.7013,2.7013,0,0,1-.4694-1.1735,2.8271,2.8271,0,0,1-.2933-.8214c0-.2117.2054-.4673.2542-.6649.065-.2632.0166-.5749.1565-.8019.1809-.2936.58-.3388.8605-.5476.1535-.1142.1754-.4652.352-.5476.195-.091.4479.0074.665-.0391a3.9388,3.9388,0,0,1,.7041-.1956c.2635,0,.44.1711.6823.2352a2.9644,2.9644,0,0,1,.7845.2537,2.792,2.792,0,0,1,.7236.8606c.1848.2587.4668.3915.5476.704C196.7732,186.8887,196.6026,187.2239,196.6026,187.4455Z"/><path class="cls-11" d="M141.2259,155.4674c0,.2961.1519.6333.0587.9-.1055.3015-.4612.4608-.665.7041-.2244.2679-.35.6511-.6649.8214a2.5149,2.5149,0,0,1-.9975.1369c-.1122.0129-.4317.1956-.5476.1956a2.4306,2.4306,0,0,1-1.1343-.43c-.2684-.1313-.69-.15-.9-.352a2.7013,2.7013,0,0,1-.4693-1.1734,2.825,2.825,0,0,1-.2934-.8215c0-.2117.2054-.4673.2542-.6649.065-.2632.0166-.5749.1565-.8019.1809-.2936.58-.3388.8605-.5476.1535-.1142.1754-.4651.3521-.5476.195-.091.4478.0075.6649-.0391a3.9471,3.9471,0,0,1,.7041-.1956c.2635,0,.44.1711.6823.2352a2.9634,2.9634,0,0,1,.7845.2538,2.7916,2.7916,0,0,1,.7236.8605c.1848.2587.4668.3916.5476.7041C141.3966,154.9107,141.2259,155.2458,141.2259,155.4674Z"/><path class="cls-11" d="M154.2332,173.2772c0,.2006.1029.4289.04.6093-.0715.2042-.3123.312-.45.4768-.152.1814-.237.4409-.45.5563a1.7035,1.7035,0,0,1-.6754.0927c-.076.0087-.2924.1324-.3709.1324a1.6471,1.6471,0,0,1-.7682-.2913c-.1818-.089-.4671-.1013-.6092-.2384a1.8287,1.8287,0,0,1-.3179-.7947,1.9125,1.9125,0,0,1-.1987-.5563c0-.1434.1391-.3165.1722-.45.044-.1783.0112-.3893.1059-.5431.1226-.1988.3928-.2294.5828-.3708.104-.0774.1188-.315.2384-.3709.1321-.0616.3033.0051.45-.0265a2.6734,2.6734,0,0,1,.4768-.1324c.1785,0,.2982.1159.4621.1593a2.0073,2.0073,0,0,1,.5313.1718,1.8923,1.8923,0,0,1,.49.5828c.1251.1752.316.2652.3708.4768C154.3488,172.9,154.2332,173.1271,154.2332,173.2772Z"/><path class="cls-11" d="M189.5775,204.99c0,.2547.1307.5447.05.7738-.0908.2593-.3966.3962-.5719.6055-.193.23-.301.56-.5719.7065a2.1655,2.1655,0,0,1-.8579.1178c-.0965.011-.3713.1682-.471.1682a2.0919,2.0919,0,0,1-.9756-.37c-.2308-.113-.5933-.1286-.7737-.3028a2.3206,2.3206,0,0,1-.4037-1.0092,2.4277,2.4277,0,0,1-.2524-.7065c0-.1821.1767-.4019.2187-.5719.0559-.2264.0143-.4944.1346-.69.1556-.2525.4988-.2914.74-.4709.132-.0983.1509-.4.3028-.471.1677-.0783.3851.0064.5719-.0337a3.3909,3.3909,0,0,1,.6055-.1682c.2266,0,.3787.1472.5868.2023a2.5509,2.5509,0,0,1,.6748.2182,2.4022,2.4022,0,0,1,.6224.74c.1589.2225.4014.3367.471.6055C189.7243,204.5115,189.5775,204.8,189.5775,204.99Z"/><path class="cls-11" d="M194.0109,201.3556c0,.2.1028.4288.04.6092-.0715.2042-.3123.312-.45.4768-.152.1814-.237.4409-.45.5563a1.7035,1.7035,0,0,1-.6754.0927c-.076.0087-.2924.1325-.3709.1325a1.6472,1.6472,0,0,1-.7682-.2914c-.1818-.089-.4671-.1013-.6092-.2384a1.83,1.83,0,0,1-.3179-.7947,1.9125,1.9125,0,0,1-.1987-.5563c0-.1434.1392-.3165.1722-.45.044-.1783.0112-.3893.106-.543.1225-.1989.3927-.23.5827-.3709.104-.0773.1188-.315.2384-.3709.1321-.0616.3033.0051.45-.0264a2.669,2.669,0,0,1,.4768-.1325c.1784,0,.2981.1159.462.1593a2.0073,2.0073,0,0,1,.5313.1718,1.8923,1.8923,0,0,1,.49.5828c.1251.1752.3161.2652.3708.4768C194.1264,200.9785,194.0109,201.2055,194.0109,201.3556Z"/><path class="cls-11" d="M208.05,183.4166c0,.2006.1029.4289.04.6093-.0714.2041-.3122.312-.45.4768-.1519.1814-.2369.4409-.45.5563a1.7037,1.7037,0,0,1-.6755.0927c-.076.0087-.2923.1324-.3708.1324a1.6462,1.6462,0,0,1-.7682-.2914c-.1818-.0889-.4672-.1012-.6093-.2384a1.8276,1.8276,0,0,1-.3178-.7946,1.9135,1.9135,0,0,1-.1987-.5563c0-.1434.1391-.3165.1722-.45.044-.1783.0112-.3893.1059-.5431.1226-.1988.3928-.2294.5828-.3708.1039-.0774.1188-.315.2384-.3709.132-.0616.3033.0051.45-.0265a2.6711,2.6711,0,0,1,.4768-.1324c.1785,0,.2982.1159.4621.1593a2.0085,2.0085,0,0,1,.5313.1718,1.8908,1.8908,0,0,1,.49.5828c.1252.1752.3161.2652.3709.4768C208.1656,183.04,208.05,183.2665,208.05,183.4166Z"/><path class="cls-11" d="M216.63,204.4754c0,.2005.1029.4288.04.6092-.0714.2042-.3122.312-.45.4768-.152.1815-.237.4409-.45.5563a1.7042,1.7042,0,0,1-.6755.0927c-.076.0087-.2924.1325-.3708.1325a1.6472,1.6472,0,0,1-.7682-.2914c-.1818-.089-.4672-.1013-.6093-.2384a1.8294,1.8294,0,0,1-.3179-.7947,1.9152,1.9152,0,0,1-.1986-.5563c0-.1434.1391-.3165.1721-.45.0441-.1782.0113-.3893.106-.543.1225-.1989.3927-.23.5828-.3709.1039-.0773.1188-.315.2384-.3708.132-.0617.3033.005.45-.0265a2.6713,2.6713,0,0,1,.4768-.1325c.1784,0,.2982.1159.4621.1593a2.0085,2.0085,0,0,1,.5313.1718,1.892,1.892,0,0,1,.49.5828c.1252.1752.3161.2652.3709.4768C216.7451,204.0983,216.63,204.3253,216.63,204.4754Z"/><path class="cls-11" d="M131.8665,210.8441c0,.2961.1519.6332.0586.9-.1055.3015-.4611.4608-.6649.7041-.2244.2679-.35.6511-.665.8214a2.5144,2.5144,0,0,1-.9974.1369c-.1122.0129-.4317.1956-.5476.1956a2.4314,2.4314,0,0,1-1.1344-.43c-.2684-.1313-.69-.15-.9-.352a2.7013,2.7013,0,0,1-.4694-1.1735,2.8242,2.8242,0,0,1-.2933-.8214c0-.2117.2054-.4673.2542-.6649.065-.2632.0166-.5749.1565-.8019.1809-.2936.58-.3388.8605-.5476.1535-.1142.1754-.4652.352-.5476.195-.091.4479.0074.665-.0391a3.9364,3.9364,0,0,1,.7041-.1956c.2634,0,.44.1711.6822.2352a2.9652,2.9652,0,0,1,.7846.2537,2.7933,2.7933,0,0,1,.7236.8606c.1848.2587.4667.3915.5476.704C132.0371,210.2873,131.8665,210.6225,131.8665,210.8441Z"/><path class="cls-11" d="M254.3191,201.4846c0,.2962.1519.6333.0587.9-.1055.3015-.4611.4607-.665.7041-.2244.2678-.35.651-.6649.8214a2.5183,2.5183,0,0,1-.9974.1369c-.1123.0128-.4318.1955-.5477.1955a2.4316,2.4316,0,0,1-1.1343-.43c-.2684-.1314-.69-.15-.9-.3521A2.6992,2.6992,0,0,1,249,202.2865a2.8255,2.8255,0,0,1-.2934-.8214c0-.2118.2055-.4674.2543-.665.065-.2632.0165-.5748.1564-.8018.181-.2937.58-.3389.8606-.5476.1535-.1143.1753-.4652.352-.5477.195-.091.4478.0075.6649-.0391a3.9469,3.9469,0,0,1,.7041-.1955c.2635,0,.44.1711.6823.2351a2.9634,2.9634,0,0,1,.7845.2538,2.7919,2.7919,0,0,1,.7237.8605c.1848.2587.4667.3916.5476.7041C254.49,200.9279,254.3191,201.263,254.3191,201.4846Z"/><path class="cls-11" d="M121.4752,190.4362c0,.2.1029.4289.04.6093-.0714.2041-.3122.312-.45.4768-.1519.1814-.237.4409-.45.5563a1.706,1.706,0,0,1-.6755.0927c-.076.0087-.2924.1324-.3708.1324a1.6462,1.6462,0,0,1-.7682-.2914c-.1818-.0889-.4672-.1013-.6093-.2384a1.8294,1.8294,0,0,1-.3179-.7947,1.9156,1.9156,0,0,1-.1986-.5562c0-.1434.1391-.3165.1722-.45.044-.1782.0112-.3893.1059-.543.1225-.1989.3927-.23.5828-.3708.1039-.0774.1188-.3151.2384-.3709.132-.0616.3033.005.45-.0265a2.6711,2.6711,0,0,1,.4768-.1324c.1784,0,.2982.1158.4621.1592a2.0123,2.0123,0,0,1,.5313.1719,1.89,1.89,0,0,1,.49.5828c.1252.1752.3161.2651.3709.4768C121.5908,190.0592,121.4752,190.2861,121.4752,190.4362Z"/><path class="cls-11" d="M217.6558,172.2323c0,.2547.1307.5446.05.7737-.0907.2593-.3966.3963-.5719.6056-.193.23-.301.56-.5719.7065a2.1634,2.1634,0,0,1-.8579.1177c-.0965.0111-.3713.1682-.471.1682a2.0918,2.0918,0,0,1-.9756-.37c-.2308-.113-.5932-.1287-.7737-.3028a2.3227,2.3227,0,0,1-.4037-1.0093,2.4308,2.4308,0,0,1-.2523-.7064c0-.1821.1767-.402.2186-.5719.0559-.2264.0143-.4944.1346-.69.1556-.2526.4988-.2914.74-.471.132-.0982.1509-.4.3028-.471.1677-.0782.3852.0064.5719-.0336a3.392,3.392,0,0,1,.6056-.1682c.2266,0,.3786.1472.5868.2023a2.5477,2.5477,0,0,1,.6747.2182,2.4016,2.4016,0,0,1,.6224.74c.1589.2225.4014.3368.471.6056C217.8026,171.7534,217.6558,172.0417,217.6558,172.2323Z"/><path class="cls-11" d="M239.2481,185.7565c0,.2005.1029.4288.04.6092-.0715.2042-.3123.3121-.45.4769-.152.1814-.237.4409-.45.5562a1.7017,1.7017,0,0,1-.6754.0927c-.076.0088-.2924.1325-.3709.1325a1.6462,1.6462,0,0,1-.7682-.2914c-.1818-.0889-.4671-.1013-.6092-.2384a1.8294,1.8294,0,0,1-.3179-.7947,1.9125,1.9125,0,0,1-.1987-.5563c0-.1434.1391-.3165.1722-.45.044-.1782.0112-.3893.106-.543.1225-.1989.3927-.23.5827-.3709.104-.0773.1188-.315.2384-.3708.1321-.0617.3033.005.45-.0265a2.6724,2.6724,0,0,1,.4769-.1325c.1784,0,.2981.1159.462.1593a2.0039,2.0039,0,0,1,.5313.1719,1.8907,1.8907,0,0,1,.49.5827c.1251.1752.316.2652.3708.4768C239.3637,185.3794,239.2481,185.6064,239.2481,185.7565Z"/><path class="cls-11" d="M253.2873,167.8176c0,.2005.1029.4288.04.6092-.0714.2042-.3122.312-.45.4768-.1519.1814-.237.4409-.45.5563a1.7042,1.7042,0,0,1-.6755.0927c-.076.0087-.2924.1325-.3708.1325a1.6472,1.6472,0,0,1-.7682-.2914c-.1818-.089-.4672-.1013-.6093-.2384a1.8294,1.8294,0,0,1-.3179-.7947,1.9152,1.9152,0,0,1-.1986-.5563c0-.1434.1391-.3165.1722-.45.044-.1782.0112-.3893.1059-.543.1225-.1989.3927-.23.5828-.3709.1039-.0773.1188-.315.2384-.3708.132-.0617.3033.005.45-.0265a2.6713,2.6713,0,0,1,.4768-.1325c.1784,0,.2982.1159.4621.1593a2.0085,2.0085,0,0,1,.5313.1718,1.892,1.892,0,0,1,.49.5828c.1252.1752.3161.2652.3709.4768C253.4029,167.4405,253.2873,167.6675,253.2873,167.8176Z"/><path class="cls-11" d="M263.4267,201.3556c0,.2.1029.4288.04.6092-.0714.2042-.3123.312-.45.4768-.152.1814-.237.4409-.45.5563a1.7042,1.7042,0,0,1-.6755.0927c-.076.0087-.2924.1325-.3708.1325a1.6472,1.6472,0,0,1-.7682-.2914c-.1818-.089-.4672-.1013-.6093-.2384a1.83,1.83,0,0,1-.3179-.7947,1.9152,1.9152,0,0,1-.1986-.5563c0-.1434.1391-.3165.1721-.45.0441-.1783.0113-.3893.106-.543.1225-.1989.3927-.23.5828-.3709.1039-.0773.1187-.315.2384-.3709.132-.0616.3033.0051.45-.0264a2.6713,2.6713,0,0,1,.4768-.1325c.1784,0,.2982.1159.4621.1593a2.0085,2.0085,0,0,1,.5313.1718,1.8934,1.8934,0,0,1,.49.5828c.1252.1752.3161.2652.3709.4768C263.5423,200.9785,263.4267,201.2055,263.4267,201.3556Z"/><path class="cls-11" d="M232.48,196.025c0,.2961.1519.6332.0587.9-.1055.3015-.4611.4607-.665.7041-.2243.2679-.35.6511-.6649.8214a2.5144,2.5144,0,0,1-.9974.1369c-.1123.0129-.4318.1956-.5476.1956a2.4317,2.4317,0,0,1-1.1344-.43c-.2684-.1313-.69-.15-.9-.352a2.7,2.7,0,0,1-.4694-1.1735,2.8255,2.8255,0,0,1-.2934-.8214c0-.2117.2055-.4673.2543-.6649.065-.2632.0166-.5749.1564-.8019.181-.2937.58-.3388.8606-.5476.1535-.1142.1754-.4652.352-.5476.195-.091.4478.0074.665-.0391a3.9354,3.9354,0,0,1,.704-.1956c.2635,0,.44.1711.6823.2352a2.9633,2.9633,0,0,1,.7845.2537,2.7923,2.7923,0,0,1,.7237.8606c.1848.2587.4667.3915.5476.704C232.6511,195.4682,232.48,195.8033,232.48,196.025Z"/><path class="cls-11" d="M133.4264,191.3452c0,.2962.1519.6333.0586.9-.1055.3015-.4611.4607-.6649.7041-.2244.2679-.35.651-.665.8214a2.518,2.518,0,0,1-.9974.1369c-.1122.0129-.4317.1956-.5476.1956a2.4317,2.4317,0,0,1-1.1343-.43c-.2685-.1314-.69-.15-.9-.352a2.7013,2.7013,0,0,1-.4694-1.1735,2.8253,2.8253,0,0,1-.2933-.8214c0-.2118.2054-.4674.2542-.665.065-.2632.0166-.5748.1565-.8018.1809-.2937.58-.3389.8605-.5476.1535-.1142.1754-.4652.352-.5476.195-.0911.4479.0074.665-.0392a3.9469,3.9469,0,0,1,.7041-.1955c.2634,0,.44.1711.6822.2351a2.9641,2.9641,0,0,1,.7846.2538,2.7941,2.7941,0,0,1,.7236.8605c.1848.2588.4667.3916.5476.7041C133.597,190.7885,133.4264,191.1236,133.4264,191.3452Z"/><path class="cls-11" d="M166.7125,174.8371c0,.2006.1029.4289.04.6093-.0714.2042-.3123.312-.45.4768-.152.1814-.237.4409-.45.5563a1.7042,1.7042,0,0,1-.6755.0927c-.076.0087-.2924.1324-.3708.1324a1.6471,1.6471,0,0,1-.7682-.2913c-.1818-.089-.4672-.1013-.6093-.2384a1.83,1.83,0,0,1-.3179-.7947,1.9152,1.9152,0,0,1-.1986-.5563c0-.1434.1391-.3165.1721-.45.0441-.1783.0113-.3893.106-.5431.1225-.1988.3927-.2294.5828-.3708.1039-.0774.1187-.315.2384-.3709.132-.0616.3033.0051.45-.0265a2.6711,2.6711,0,0,1,.4768-.1324c.1784,0,.2982.1159.4621.1593a2.0085,2.0085,0,0,1,.5313.1718,1.8934,1.8934,0,0,1,.49.5828c.1252.1752.3161.2652.3709.4768C166.8281,174.46,166.7125,174.6871,166.7125,174.8371Z"/><path class="cls-11" d="M198.157,151.9535c0,.2547.1307.5447.05.7738-.0908.2592-.3966.3962-.5719.6055-.193.23-.301.56-.5719.7065a2.1637,2.1637,0,0,1-.8579.1177c-.0965.0111-.3713.1682-.471.1682a2.0914,2.0914,0,0,1-.9756-.37c-.2309-.113-.5933-.1286-.7738-.3028a2.3235,2.3235,0,0,1-.4037-1.0092,2.4325,2.4325,0,0,1-.2523-.7065c0-.1821.1767-.402.2187-.5719.0559-.2264.0143-.4944.1346-.69.1556-.2525.4988-.2914.74-.471.132-.0982.1508-.4.3028-.4709.1677-.0783.3851.0064.5719-.0337a3.3909,3.3909,0,0,1,.6055-.1682c.2266,0,.3787.1472.5868.2023a2.5509,2.5509,0,0,1,.6748.2182,2.403,2.403,0,0,1,.6224.74c.1589.2226.4014.3368.4709.6056C198.3038,151.4747,198.157,151.7629,198.157,151.9535Z"/><path class="cls-11" d="M219.7493,165.4777c0,.2005.1029.4289.04.6093-.0714.2041-.3122.312-.45.4768-.1519.1814-.2369.4409-.45.5562a1.7037,1.7037,0,0,1-.6755.0928c-.076.0087-.2923.1324-.3708.1324a1.6462,1.6462,0,0,1-.7682-.2914c-.1818-.0889-.4672-.1013-.6093-.2384a1.828,1.828,0,0,1-.3178-.7947,1.9129,1.9129,0,0,1-.1987-.5562c0-.1434.1391-.3165.1722-.45.044-.1782.0112-.3893.1059-.543.1225-.1989.3928-.23.5828-.3708.1039-.0774.1188-.3151.2384-.3709.132-.0616.3033.005.45-.0265a2.6711,2.6711,0,0,1,.4768-.1324c.1785,0,.2982.1158.4621.1592a2.005,2.005,0,0,1,.5313.1719,1.89,1.89,0,0,1,.49.5827c.1252.1753.3161.2652.3709.4769C219.8649,165.1007,219.7493,165.3276,219.7493,165.4777Z"/><path class="cls-11" d="M233.7885,147.5388c0,.2.1028.4288.04.6092-.0715.2042-.3123.3121-.45.4768-.152.1815-.237.441-.45.5563a1.7024,1.7024,0,0,1-.6755.0927c-.076.0088-.2924.1325-.3709.1325a1.6462,1.6462,0,0,1-.7682-.2914c-.1817-.089-.4671-.1013-.6092-.2384a1.8294,1.8294,0,0,1-.3179-.7947,1.9125,1.9125,0,0,1-.1987-.5563c0-.1434.1392-.3165.1722-.45.044-.1782.0113-.3893.106-.543.1225-.1989.3927-.23.5827-.3709.104-.0773.1188-.315.2385-.3708.132-.0617.3032.005.45-.0265a2.6713,2.6713,0,0,1,.4768-.1325c.1784,0,.2982.1159.462.1593a2.0039,2.0039,0,0,1,.5313.1719,1.8907,1.8907,0,0,1,.49.5827c.1251.1752.3161.2652.3708.4768C233.904,147.1617,233.7885,147.3887,233.7885,147.5388Z"/><path class="cls-11" d="M249.3875,179.5169c0,.2005.1029.4288.04.6092-.0715.2042-.3123.312-.45.4768-.152.1814-.237.4409-.45.5563a1.7035,1.7035,0,0,1-.6754.0927c-.0761.0087-.2924.1325-.3709.1325a1.6472,1.6472,0,0,1-.7682-.2914c-.1818-.089-.4671-.1013-.6093-.2384a1.8293,1.8293,0,0,1-.3178-.7947,1.9125,1.9125,0,0,1-.1987-.5563c0-.1434.1391-.3165.1722-.45.044-.1782.0112-.3893.1059-.543.1226-.1989.3928-.23.5828-.3709.104-.0773.1188-.315.2384-.3708.1321-.0617.3033.005.45-.0265a2.6737,2.6737,0,0,1,.4768-.1325c.1785,0,.2982.1159.4621.1593a2.0073,2.0073,0,0,1,.5313.1718,1.8923,1.8923,0,0,1,.49.5828c.1251.1752.316.2652.3708.4768C249.5031,179.14,249.3875,179.3668,249.3875,179.5169Z"/><path class="cls-11" d="M189.583,168.7266c0,.2961.1519.6333.0587.9-.1055.3015-.4611.4608-.665.7041-.2244.2679-.35.6511-.6649.8214a2.5149,2.5149,0,0,1-.9975.1369c-.1122.0129-.4317.1956-.5476.1956a2.4306,2.4306,0,0,1-1.1343-.43c-.2684-.1313-.69-.1495-.9-.352a2.7013,2.7013,0,0,1-.4693-1.1734,2.825,2.825,0,0,1-.2934-.8215c0-.2117.2054-.4673.2542-.6649.065-.2632.0166-.5749.1565-.8019.1809-.2936.58-.3388.8605-.5476.1535-.1142.1754-.4651.3521-.5476.195-.091.4478.0075.6649-.0391a3.9471,3.9471,0,0,1,.7041-.1956c.2635,0,.44.1711.6823.2352a2.9634,2.9634,0,0,1,.7845.2538,2.7916,2.7916,0,0,1,.7236.8605c.1848.2587.4668.3916.5476.7041C189.7537,168.17,189.583,168.505,189.583,168.7266Z"/><path class="cls-11" d="M134.2063,136.7485c0,.2961.1519.6333.0587.9-.1055.3014-.4611.4607-.665.704-.2244.2679-.35.6511-.6649.8215a2.5183,2.5183,0,0,1-.9974.1369c-.1123.0128-.4318.1955-.5477.1955a2.4316,2.4316,0,0,1-1.1343-.43c-.2684-.1314-.69-.15-.9-.3521a2.7,2.7,0,0,1-.4694-1.1734,2.8255,2.8255,0,0,1-.2934-.8214c0-.2118.2055-.4674.2543-.665.065-.2632.0165-.5748.1564-.8019.181-.2936.58-.3388.8606-.5476.1535-.1142.1753-.4651.352-.5476.195-.091.4478.0075.6649-.0391a3.9471,3.9471,0,0,1,.7041-.1956c.2635,0,.44.1712.6823.2352a2.9634,2.9634,0,0,1,.7845.2538,2.7919,2.7919,0,0,1,.7237.8605c.1848.2587.4667.3916.5476.7041C134.377,136.1918,134.2063,136.5269,134.2063,136.7485Z"/><path class="cls-11" d="M147.2137,154.5584c0,.2005.1028.4288.04.6092-.0715.2042-.3123.312-.45.4768-.152.1814-.237.4409-.45.5563a1.7042,1.7042,0,0,1-.6755.0927c-.076.0087-.2924.1325-.3709.1325a1.6472,1.6472,0,0,1-.7682-.2914c-.1818-.089-.4671-.1013-.6092-.2384a1.8294,1.8294,0,0,1-.3179-.7947,1.9125,1.9125,0,0,1-.1987-.5563c0-.1434.1392-.3165.1722-.45.044-.1783.0112-.3893.106-.543.1225-.1989.3927-.2295.5827-.3709.104-.0773.1188-.315.2384-.3708.1321-.0617.3033.005.45-.0265a2.669,2.669,0,0,1,.4768-.1325c.1784,0,.2982.1159.462.1593a2.0073,2.0073,0,0,1,.5313.1718,1.8923,1.8923,0,0,1,.49.5828c.1251.1752.3161.2652.3708.4768C147.3292,154.1813,147.2137,154.4083,147.2137,154.5584Z"/><path class="cls-11" d="M180.2181,174.5721c0,.2547.1306.5447.05.7738-.0908.2593-.3966.3963-.572.6056-.193.23-.3009.56-.5719.7064a2.1647,2.1647,0,0,1-.8578.1178c-.0965.011-.3713.1682-.471.1682a2.0911,2.0911,0,0,1-.9756-.37c-.2309-.1129-.5933-.1286-.7738-.3027a2.324,2.324,0,0,1-.4037-1.0093,2.43,2.43,0,0,1-.2523-.7065c0-.1821.1767-.4019.2187-.5719.0559-.2263.0142-.4944.1345-.69.1557-.2526.4988-.2915.74-.471.132-.0982.1508-.4.3027-.471.1677-.0783.3852.0064.5719-.0336a3.3923,3.3923,0,0,1,.6056-.1683c.2266,0,.3787.1472.5868.2023a2.55,2.55,0,0,1,.6748.2183,2.4015,2.4015,0,0,1,.6223.74c.159.2225.4015.3368.471.6055C180.3649,174.0933,180.2181,174.3815,180.2181,174.5721Z"/><path class="cls-11" d="M250.9474,153.7784c0,.2005.1029.4289.04.6093-.0715.2041-.3123.312-.45.4768-.152.1814-.237.4409-.45.5562a1.7034,1.7034,0,0,1-.6754.0928c-.076.0087-.2924.1324-.3709.1324a1.6462,1.6462,0,0,1-.7682-.2914c-.1818-.0889-.4671-.1013-.6092-.2384a1.8294,1.8294,0,0,1-.3179-.7947,1.9129,1.9129,0,0,1-.1987-.5562c0-.1434.1391-.3165.1722-.45.044-.1782.0112-.3893.1059-.543.1226-.1989.3928-.23.5828-.3708.104-.0774.1188-.3151.2384-.3709.1321-.0616.3033.005.45-.0265a2.6721,2.6721,0,0,1,.4769-.1324c.1784,0,.2981.1158.462.1592a2.0039,2.0039,0,0,1,.5313.1719,1.8907,1.8907,0,0,1,.49.5827c.1251.1753.316.2652.3708.4769C251.063,153.4014,250.9474,153.6283,250.9474,153.7784Z"/><path class="cls-11" d="M215.85,170.1574c0,.2006.1029.4289.04.6093-.0715.2041-.3123.312-.45.4768-.152.1814-.237.4409-.45.5563a1.7035,1.7035,0,0,1-.6754.0927c-.076.0087-.2924.1324-.3709.1324a1.6462,1.6462,0,0,1-.7682-.2914c-.1818-.0889-.4671-.1012-.6092-.2384a1.83,1.83,0,0,1-.3179-.7946,1.9135,1.9135,0,0,1-.1987-.5563c0-.1434.1391-.3165.1722-.45.044-.1783.0112-.3893.106-.5431.1225-.1988.3927-.2294.5827-.3708.104-.0774.1188-.315.2384-.3709.1321-.0616.3033.0051.45-.0265a2.6721,2.6721,0,0,1,.4769-.1324c.1784,0,.2981.1159.462.1593a2.0073,2.0073,0,0,1,.5313.1718,1.8911,1.8911,0,0,1,.49.5828c.1251.1752.316.2651.3708.4768C215.9651,169.78,215.85,170.0073,215.85,170.1574Z"/><path class="cls-11" d="M224.429,191.2162c0,.2005.1029.4288.04.6092-.0715.2042-.3123.312-.45.4768-.1519.1814-.2369.4409-.45.5563a1.7037,1.7037,0,0,1-.6755.0927c-.076.0087-.2923.1325-.3708.1325a1.6472,1.6472,0,0,1-.7682-.2914c-.1818-.089-.4672-.1013-.6093-.2384a1.8293,1.8293,0,0,1-.3178-.7947,1.9125,1.9125,0,0,1-.1987-.5563c0-.1434.1391-.3165.1722-.45.044-.1782.0112-.3893.1059-.543.1226-.1989.3928-.23.5828-.3709.104-.0773.1188-.315.2384-.3708.1321-.0617.3033.005.45-.0265a2.6737,2.6737,0,0,1,.4768-.1325c.1785,0,.2982.1159.4621.1593a2.0073,2.0073,0,0,1,.5313.1718,1.8906,1.8906,0,0,1,.49.5828c.1252.1752.3161.2652.3709.4768C224.5446,190.8391,224.429,191.0661,224.429,191.2162Z"/><path class="cls-11" d="M150.5853,193.6851c0,.2961.1519.6333.0587.9-.1055.3014-.4611.4607-.6649.704-.2244.2679-.35.6511-.665.8214a2.5144,2.5144,0,0,1-.9974.1369c-.1123.0129-.4318.1956-.5476.1956a2.432,2.432,0,0,1-1.1344-.43c-.2684-.1314-.69-.15-.9-.3521a2.7,2.7,0,0,1-.4694-1.1734,2.8255,2.8255,0,0,1-.2934-.8214c0-.2118.2055-.4674.2543-.665.065-.2632.0166-.5748.1564-.8019.181-.2936.58-.3388.8606-.5476.1535-.1142.1754-.4651.352-.5476.195-.091.4478.0075.665-.0391a3.9461,3.9461,0,0,1,.704-.1956c.2635,0,.44.1711.6823.2352a2.9634,2.9634,0,0,1,.7845.2538,2.7919,2.7919,0,0,1,.7237.8605c.1848.2587.4667.3916.5476.7041C150.756,193.1284,150.5853,193.4635,150.5853,193.6851Z"/><path class="cls-11" d="M116.2674,159.3672c0,.2961.1519.6332.0587.9-.1055.3015-.4612.4607-.665.7041-.2244.2679-.35.6511-.6649.8214a2.5149,2.5149,0,0,1-.9975.1369c-.1122.0129-.4317.1956-.5476.1956a2.4317,2.4317,0,0,1-1.1343-.43c-.2684-.1313-.69-.15-.9-.352a2.7012,2.7012,0,0,1-.4693-1.1735,2.8255,2.8255,0,0,1-.2934-.8214c0-.2117.2054-.4673.2542-.6649.065-.2632.0166-.5749.1565-.8019.1809-.2937.58-.3388.8605-.5476.1535-.1142.1754-.4652.3521-.5476.195-.0911.4478.0074.6649-.0391a3.9388,3.9388,0,0,1,.7041-.1956c.2635,0,.44.1711.6823.2352a2.9633,2.9633,0,0,1,.7845.2537,2.792,2.792,0,0,1,.7236.8606c.1848.2587.4668.3915.5476.704C116.4381,158.81,116.2674,159.1455,116.2674,159.3672Z"/><path class="cls-11" d="M129.2747,177.177c0,.2005.1029.4289.04.6093-.0715.2041-.3123.312-.45.4768-.1519.1814-.2369.4409-.45.5562a1.7037,1.7037,0,0,1-.6755.0928c-.076.0087-.2923.1324-.3708.1324a1.6462,1.6462,0,0,1-.7682-.2914c-.1818-.0889-.4672-.1013-.6093-.2384a1.8293,1.8293,0,0,1-.3178-.7947,1.9129,1.9129,0,0,1-.1987-.5562c0-.1434.1391-.3165.1722-.45.044-.1782.0112-.3893.1059-.543.1226-.1989.3928-.23.5828-.3709.104-.0773.1188-.315.2384-.3708.1321-.0616.3033.005.45-.0265a2.6734,2.6734,0,0,1,.4768-.1324c.1785,0,.2982.1158.4621.1592a2.0039,2.0039,0,0,1,.5313.1719,1.8907,1.8907,0,0,1,.49.5827c.1251.1753.316.2652.3708.4769C129.39,176.8,129.2747,177.0269,129.2747,177.177Z"/><path class="cls-11" d="M148.7122,153.5134c0,.2547-.1307.5447-.05.7738.0908.2593.3966.3962.5719.6055.193.23.301.56.5719.7065a2.1637,2.1637,0,0,0,.8579.1177c.0965.0111.3713.1682.471.1682a2.0918,2.0918,0,0,0,.9756-.37c.2308-.113.5933-.1286.7737-.3028a2.3223,2.3223,0,0,0,.4037-1.0092,2.43,2.43,0,0,0,.2523-.7065c0-.1821-.1767-.402-.2186-.5719-.0559-.2264-.0143-.4944-.1346-.69-.1556-.2525-.4988-.2914-.74-.471-.132-.0982-.1509-.4-.3028-.4709-.1677-.0783-.3852.0064-.5719-.0337a3.3909,3.3909,0,0,0-.6055-.1682c-.2267,0-.3787.1472-.5869.2023a2.5514,2.5514,0,0,0-.6747.2182,2.403,2.403,0,0,0-.6224.74c-.1589.2226-.4014.3368-.471.6056C148.5654,153.0346,148.7122,153.3228,148.7122,153.5134Z"/><path class="cls-11" d="M127.12,167.0376c0,.2005-.1029.4289-.04.6093.0715.2041.3123.312.45.4768.152.1814.237.4409.45.5563a1.7055,1.7055,0,0,0,.6755.0927c.076.0087.2923.1324.3708.1324a1.6462,1.6462,0,0,0,.7682-.2914c.1818-.0889.4672-.1013.6093-.2384a1.8293,1.8293,0,0,0,.3178-.7947,1.9119,1.9119,0,0,0,.1987-.5562c0-.1434-.1391-.3165-.1722-.45-.044-.1782-.0112-.3893-.1059-.543-.1226-.1989-.3928-.23-.5828-.3708-.104-.0774-.1188-.3151-.2384-.3709-.1321-.0616-.3033.0051-.45-.0265a2.6734,2.6734,0,0,0-.4768-.1324c-.1785,0-.2982.1159-.4621.1592a2.0111,2.0111,0,0,0-.5313.1719,1.89,1.89,0,0,0-.49.5828c-.1251.1752-.316.2651-.3708.4768C127.0043,166.6606,127.12,166.8875,127.12,167.0376Z"/><path class="cls-11" d="M113.0807,149.0987c0,.2005-.1029.4288-.04.6092.0714.2042.3123.3121.45.4768.152.1815.237.441.45.5563a1.7024,1.7024,0,0,0,.6755.0927c.076.0088.2924.1325.3708.1325a1.6462,1.6462,0,0,0,.7682-.2914c.1818-.0889.4672-.1013.6093-.2384a1.8294,1.8294,0,0,0,.3179-.7947,1.9152,1.9152,0,0,0,.1986-.5563c0-.1434-.1391-.3165-.1721-.45-.0441-.1782-.0113-.3893-.106-.543-.1225-.1989-.3927-.23-.5828-.3709-.1039-.0773-.1187-.315-.2384-.3708-.132-.0617-.3033.005-.45-.0265a2.6713,2.6713,0,0,0-.4768-.1325c-.1784,0-.2982.1159-.4621.1593a2.005,2.005,0,0,0-.5313.1719,1.8918,1.8918,0,0,0-.49.5827c-.1252.1752-.3161.2652-.3709.4768C112.9651,148.7216,113.0807,148.9486,113.0807,149.0987Z"/><path class="cls-11" d="M104.5012,170.1574c0,.2006-.1029.4289-.04.6093.0714.2041.3123.312.45.4768.152.1814.237.4409.45.5563a1.7042,1.7042,0,0,0,.6755.0927c.076.0087.2924.1324.3709.1324a1.6466,1.6466,0,0,0,.7682-.2914c.1817-.0889.4671-.1012.6092-.2384a1.83,1.83,0,0,0,.3179-.7946,1.9164,1.9164,0,0,0,.1987-.5563c0-.1434-.1392-.3165-.1722-.45-.044-.1783-.0113-.3893-.106-.5431-.1225-.1988-.3927-.2294-.5828-.3708-.1039-.0774-.1187-.315-.2384-.3709-.132-.0616-.3032.0051-.45-.0265a2.6711,2.6711,0,0,0-.4768-.1324c-.1784,0-.2982.1159-.462.1593a2.0073,2.0073,0,0,0-.5313.1718,1.8911,1.8911,0,0,0-.49.5828c-.1251.1752-.3161.2651-.3708.4768C104.3856,169.78,104.5012,170.0073,104.5012,170.1574Z"/><path class="cls-11" d="M157.2862,170.2865c0,.2961-.1519.6333-.0587.9.1055.3014.4611.4607.665.704.2244.2679.35.6511.6649.8214a2.5147,2.5147,0,0,0,.9974.1369c.1123.0129.4318.1956.5477.1956a2.4316,2.4316,0,0,0,1.1343-.43c.2684-.1314.69-.15.9-.3521a2.7,2.7,0,0,0,.4694-1.1734,2.8255,2.8255,0,0,0,.2934-.8214c0-.2118-.2055-.4674-.2543-.665-.065-.2632-.0166-.5748-.1564-.8019-.181-.2936-.58-.3388-.8606-.5476-.1535-.1142-.1754-.4651-.352-.5476-.195-.091-.4478.0075-.6649-.0391a3.9471,3.9471,0,0,0-.7041-.1956c-.2635,0-.44.1711-.6823.2352a2.9634,2.9634,0,0,0-.7845.2538,2.7919,2.7919,0,0,0-.7237.8605c-.1848.2587-.4667.3916-.5476.7041C157.1155,169.73,157.2862,170.0649,157.2862,170.2865Z"/><path class="cls-11" d="M212.6629,138.3084c0,.2961-.152.6333-.0587.9.1055.3014.4611.4607.6649.704.2244.2679.35.6511.665.8215a2.518,2.518,0,0,0,.9974.1369c.1123.0128.4318.1955.5476.1955a2.432,2.432,0,0,0,1.1344-.43c.2684-.1314.69-.15.9-.3521a2.7014,2.7014,0,0,0,.4694-1.1734,2.8255,2.8255,0,0,0,.2934-.8214c0-.2118-.2055-.4674-.2543-.665-.065-.2632-.0166-.5748-.1564-.8018-.181-.2937-.58-.3389-.8606-.5477-.1535-.1142-.1754-.4651-.352-.5476-.195-.091-.4478.0075-.665-.0391a3.9461,3.9461,0,0,0-.704-.1956c-.2635,0-.44.1712-.6823.2352a2.9653,2.9653,0,0,0-.7846.2538,2.7929,2.7929,0,0,0-.7236.8605c-.1848.2587-.4667.3916-.5476.7041C212.4922,137.7517,212.6629,138.0868,212.6629,138.3084Z"/><path class="cls-11" d="M199.6555,156.1183c0,.2005-.1029.4288-.04.6092.0714.2042.3123.312.45.4768.152.1814.237.4409.45.5563a1.7042,1.7042,0,0,0,.6755.0927c.076.0087.2924.1325.3709.1325a1.6473,1.6473,0,0,0,.7681-.2914c.1818-.089.4672-.1013.6093-.2384a1.8294,1.8294,0,0,0,.3179-.7947,1.9154,1.9154,0,0,0,.1987-.5563c0-.1434-.1392-.3165-.1722-.45-.044-.1782-.0113-.3893-.106-.543-.1225-.1989-.3927-.23-.5828-.3709-.1039-.0773-.1187-.315-.2384-.3708-.132-.0617-.3032.005-.45-.0265a2.6713,2.6713,0,0,0-.4768-.1325c-.1784,0-.2982.1159-.462.1593a2.0073,2.0073,0,0,0-.5313.1718,1.8923,1.8923,0,0,0-.49.5828c-.1251.1752-.3161.2652-.3709.4768C199.54,155.7412,199.6555,155.9682,199.6555,156.1183Z"/><path class="cls-11" d="M156.04,201.8705c0,.2547.1307.5447.05.7738-.0907.2593-.3966.3962-.5719.6055-.193.23-.301.56-.5719.7065a2.1637,2.1637,0,0,1-.8579.1177c-.0965.0111-.3713.1682-.471.1682a2.0918,2.0918,0,0,1-.9756-.37c-.2308-.113-.5933-.1286-.7737-.3028a2.3223,2.3223,0,0,1-.4037-1.0092,2.4285,2.4285,0,0,1-.2523-.7065c0-.1821.1767-.402.2186-.5719.0559-.2264.0143-.4944.1346-.69.1556-.2525.4988-.2914.74-.471.132-.0982.1509-.4.3028-.4709.1677-.0783.3852.0064.5719-.0337a3.3909,3.3909,0,0,1,.6055-.1682c.2267,0,.3787.1472.5869.2023a2.5514,2.5514,0,0,1,.6747.2182,2.4016,2.4016,0,0,1,.6224.74c.1589.2226.4014.3368.471.6056C156.1863,201.3917,156.04,201.68,156.04,201.8705Z"/><path class="cls-11" d="M177.6318,215.3947c0,.2005.1029.4289.04.6093-.0715.2041-.3123.312-.45.4768-.152.1814-.237.4409-.45.5563a1.7053,1.7053,0,0,1-.6754.0927c-.0761.0087-.2924.1324-.3709.1324a1.6462,1.6462,0,0,1-.7682-.2914c-.1818-.0889-.4671-.1013-.6093-.2384a1.8293,1.8293,0,0,1-.3178-.7947,1.9119,1.9119,0,0,1-.1987-.5562c0-.1434.1391-.3165.1722-.45.044-.1782.0112-.3892.1059-.543.1226-.1989.3928-.23.5828-.3708.104-.0774.1188-.3151.2384-.3709.1321-.0616.3033.0051.45-.0265a2.6734,2.6734,0,0,1,.4768-.1324c.1785,0,.2982.1159.4621.1592a2.0111,2.0111,0,0,1,.5313.1719,1.89,1.89,0,0,1,.49.5828c.1251.1752.316.2651.3708.4768C177.7474,215.0177,177.6318,215.2446,177.6318,215.3947Z"/><path class="cls-11" d="M191.671,197.4558c0,.2.1029.4288.04.6092-.0714.2042-.3123.3121-.45.4769-.152.1814-.237.4409-.45.5562a1.7024,1.7024,0,0,1-.6755.0927c-.076.0088-.2924.1325-.3708.1325a1.6462,1.6462,0,0,1-.7682-.2914c-.1818-.0889-.4672-.1013-.6093-.2384a1.8294,1.8294,0,0,1-.3179-.7947,1.9152,1.9152,0,0,1-.1986-.5563c0-.1434.1391-.3165.1721-.45.0441-.1782.0113-.3893.106-.543.1225-.1989.3927-.23.5828-.3709.1039-.0773.1187-.315.2384-.3708.132-.0617.3033.005.45-.0265a2.6713,2.6713,0,0,1,.4768-.1325c.1784,0,.2982.1159.4621.1593a2.005,2.005,0,0,1,.5313.1719,1.8918,1.8918,0,0,1,.49.5827c.1252.1752.3161.2652.3709.4768C191.7866,197.0787,191.671,197.3057,191.671,197.4558Z"/><path class="cls-11" d="M200.2505,218.5145c0,.2006.1029.4289.04.6093-.0714.2041-.3123.312-.45.4768-.152.1814-.237.4409-.45.5563a1.7042,1.7042,0,0,1-.6755.0927c-.076.0087-.2924.1324-.3709.1324a1.647,1.647,0,0,1-.7682-.2914c-.1817-.0889-.4671-.1012-.6092-.2384a1.83,1.83,0,0,1-.3179-.7946,1.9164,1.9164,0,0,1-.1987-.5563c0-.1434.1392-.3165.1722-.45.044-.1783.0113-.3893.106-.5431.1225-.1988.3927-.2294.5828-.3708.1039-.0774.1187-.315.2384-.3709.132-.0616.3032.0051.45-.0265a2.6711,2.6711,0,0,1,.4768-.1324c.1784,0,.2982.1159.462.1593a2.0073,2.0073,0,0,1,.5313.1718,1.8911,1.8911,0,0,1,.49.5828c.1251.1752.3161.2651.3709.4768C200.3661,218.1375,200.2505,218.3644,200.2505,218.5145Z"/><path class="cls-11" d="M147.4655,218.6436c0,.2961.1519.6333.0587.9-.1055.3014-.4611.4607-.665.704-.2244.2679-.35.6511-.6649.8214a2.5147,2.5147,0,0,1-.9974.1369c-.1123.0129-.4318.1956-.5477.1956a2.4316,2.4316,0,0,1-1.1343-.43c-.2684-.1314-.69-.15-.9-.3521a2.7,2.7,0,0,1-.4694-1.1734,2.8255,2.8255,0,0,1-.2934-.8214c0-.2118.2055-.4674.2543-.665.065-.2632.0166-.5748.1564-.8019.181-.2936.58-.3388.8606-.5476.1535-.1142.1754-.4651.352-.5476.195-.091.4478.0075.6649-.0391a3.9471,3.9471,0,0,1,.7041-.1956c.2635,0,.44.1711.6823.2352a2.9634,2.9634,0,0,1,.7845.2538,2.7919,2.7919,0,0,1,.7237.86c.1848.2587.4667.3916.5476.7041C147.6362,218.0869,147.4655,218.422,147.4655,218.6436Z"/><path class="cls-11" d="M92.0888,186.6655c0,.2962.152.6333.0587.9-.1055.3014-.4611.4607-.6649.704-.2244.2679-.35.6511-.665.8215a2.518,2.518,0,0,1-.9974.1369c-.1123.0128-.4318.1955-.5476.1955a2.432,2.432,0,0,1-1.1344-.43c-.2684-.1314-.69-.15-.9-.3521a2.7009,2.7009,0,0,1-.4694-1.1734,2.8255,2.8255,0,0,1-.2934-.8214c0-.2118.2055-.4674.2543-.665.065-.2632.0166-.5748.1564-.8018.181-.2937.58-.3389.8606-.5477.1535-.1142.1754-.4651.352-.5476.195-.091.4478.0075.665-.0391a3.9461,3.9461,0,0,1,.704-.1956c.2635,0,.44.1712.6823.2352a2.9653,2.9653,0,0,1,.7846.2538,2.7929,2.7929,0,0,1,.7236.8605c.1848.2587.4667.3916.5476.7041C92.26,186.1088,92.0888,186.4439,92.0888,186.6655Z"/><path class="cls-11" d="M105.0962,204.4754c0,.2005.1029.4288.04.6092-.0714.2042-.3123.312-.45.4768-.152.1815-.237.4409-.45.5563a1.7042,1.7042,0,0,1-.6755.0927c-.076.0087-.2924.1325-.3709.1325a1.6473,1.6473,0,0,1-.7681-.2914c-.1818-.089-.4672-.1013-.6093-.2384a1.8294,1.8294,0,0,1-.3179-.7947,1.9152,1.9152,0,0,1-.1986-.5563c0-.1434.1391-.3165.1721-.45.044-.1782.0113-.3893.106-.543.1225-.1989.3927-.23.5828-.3709.1039-.0773.1187-.315.2384-.3708.132-.0617.3032.005.45-.0265a2.6713,2.6713,0,0,1,.4768-.1325c.1784,0,.2982.1159.462.1593a2.0073,2.0073,0,0,1,.5313.1718,1.8923,1.8923,0,0,1,.49.5828c.1252.1752.3161.2652.3709.4768C105.2118,204.0983,105.0962,204.3253,105.0962,204.4754Z"/><path class="cls-11" d="M180.2181,197.1908c0,.2547.1306.5446.05.7738-.0908.2592-.3966.3962-.572.6055-.193.23-.3009.56-.5719.7065a2.1629,2.1629,0,0,1-.8578.1177c-.0965.0111-.3713.1682-.471.1682a2.0909,2.0909,0,0,1-.9756-.37c-.2309-.113-.5933-.1287-.7738-.3028a2.324,2.324,0,0,1-.4037-1.0093,2.4308,2.4308,0,0,1-.2523-.7064c0-.1821.1767-.402.2187-.5719.0559-.2264.0142-.4944.1345-.69.1557-.2526.4988-.2914.74-.471.132-.0982.1508-.4.3027-.471.1677-.0782.3852.0065.5719-.0336a3.392,3.392,0,0,1,.6056-.1682c.2266,0,.3787.1472.5868.2023a2.5532,2.5532,0,0,1,.6748.2182,2.4027,2.4027,0,0,1,.6223.74c.159.2225.4015.3368.471.6056C180.3649,196.712,180.2181,197,180.2181,197.1908Z"/><path class="cls-11" d="M201.81,210.715c0,.2005.1029.4288.04.6092-.0714.2042-.3123.3121-.45.4769-.152.1814-.237.4409-.45.5562a1.7024,1.7024,0,0,1-.6755.0927c-.076.0088-.2924.1325-.3709.1325a1.6462,1.6462,0,0,1-.7681-.2914c-.1818-.0889-.4672-.1013-.6093-.2384a1.8294,1.8294,0,0,1-.3179-.7947,1.9152,1.9152,0,0,1-.1986-.5563c0-.1434.1391-.3165.1721-.45.0441-.1782.0113-.3893.106-.543.1225-.1989.3927-.23.5828-.3709.1039-.0773.1187-.315.2384-.3708.132-.0617.3032.005.45-.0265a2.6711,2.6711,0,0,1,.4768-.1324c.1784,0,.2982.1158.462.1592a2.0046,2.0046,0,0,1,.5314.1719,1.8918,1.8918,0,0,1,.49.5827c.1252.1752.3161.2652.3709.4768C201.926,210.338,201.81,210.5649,201.81,210.715Z"/><path class="cls-11" d="M269.6663,166.2577c0,.2005.1029.4288.04.6092-.0715.2042-.3123.312-.45.4768-.1519.1814-.2369.4409-.45.5563a1.7037,1.7037,0,0,1-.6755.0927c-.076.0087-.2923.1325-.3708.1325a1.6472,1.6472,0,0,1-.7682-.2914c-.1818-.089-.4672-.1013-.6093-.2384a1.8285,1.8285,0,0,1-.3178-.7947,1.9125,1.9125,0,0,1-.1987-.5563c0-.1434.1391-.3165.1722-.45.044-.1783.0112-.3893.1059-.543.1226-.1989.3928-.23.5828-.3709.104-.0773.1188-.315.2384-.3708.1321-.0617.3033.005.45-.0265a2.6737,2.6737,0,0,1,.4768-.1325c.1785,0,.2982.1159.4621.1593a2.0085,2.0085,0,0,1,.5313.1718,1.892,1.892,0,0,1,.49.5828c.1252.1752.3161.2652.3709.4768C269.7819,165.8806,269.6663,166.1076,269.6663,166.2577Z"/><path class="cls-11" d="M224.429,213.8348c0,.2005.1029.4289.04.6093-.0715.2041-.3123.312-.45.4768-.1519.1814-.2369.4409-.45.5562a1.7037,1.7037,0,0,1-.6755.0928c-.076.0087-.2923.1324-.3708.1324a1.6462,1.6462,0,0,1-.7682-.2914c-.1818-.0889-.4672-.1013-.6093-.2384a1.8293,1.8293,0,0,1-.3178-.7947,1.9129,1.9129,0,0,1-.1987-.5562c0-.1434.1391-.3165.1722-.45.044-.1782.0112-.3893.1059-.543.1226-.1989.3928-.23.5828-.3708.104-.0774.1188-.3151.2384-.3709.1321-.0616.3033.005.45-.0265a2.6734,2.6734,0,0,1,.4768-.1324c.1785,0,.2982.1158.4621.1592a2.0039,2.0039,0,0,1,.5313.1719,1.8891,1.8891,0,0,1,.49.5827c.1252.1753.3161.2652.3709.4769C224.5446,213.4578,224.429,213.6847,224.429,213.8348Z"/><path class="cls-11" d="M171.6441,213.9639c0,.2961.1519.6333.0587.9-.1056.3015-.4612.4608-.665.7041-.2244.2679-.35.6511-.665.8214a2.5144,2.5144,0,0,1-.9974.1369c-.1122.0129-.4317.1956-.5476.1956a2.4306,2.4306,0,0,1-1.1343-.43c-.2685-.1313-.69-.15-.9-.352a2.7014,2.7014,0,0,1-.4694-1.1734,2.8259,2.8259,0,0,1-.2933-.8215c0-.2117.2054-.4673.2542-.6649.065-.2632.0166-.5749.1565-.8019.1809-.2936.58-.3388.8605-.5476.1535-.1142.1754-.4651.352-.5476.195-.091.4479.0075.665-.0391a3.9471,3.9471,0,0,1,.7041-.1956c.2635,0,.44.1711.6822.2352a2.9676,2.9676,0,0,1,.7846.2537,2.7945,2.7945,0,0,1,.7236.8606c.1848.2587.4667.3915.5476.704C171.8147,213.4071,171.6441,213.7423,171.6441,213.9639Z"/><path class="cls-11" d="M116.2674,181.9858c0,.2961.1519.6333.0587.9-.1055.3014-.4612.4607-.665.704-.2244.2679-.35.6511-.6649.8214a2.5149,2.5149,0,0,1-.9975.1369c-.1122.0129-.4317.1956-.5476.1956a2.4316,2.4316,0,0,1-1.1343-.43c-.2684-.1314-.69-.15-.9-.3521a2.7013,2.7013,0,0,1-.4693-1.1734,2.8255,2.8255,0,0,1-.2934-.8214c0-.2118.2054-.4674.2542-.665.065-.2632.0166-.5748.1565-.8019.1809-.2936.58-.3388.8605-.5476.1535-.1142.1754-.4651.3521-.5476.195-.091.4478.0075.6649-.0391a3.9471,3.9471,0,0,1,.7041-.1956c.2635,0,.44.1711.6823.2352a2.9634,2.9634,0,0,1,.7845.2538,2.7916,2.7916,0,0,1,.7236.8605c.1848.2587.4668.3916.5476.7041C116.4381,181.4291,116.2674,181.7642,116.2674,181.9858Z"/><path class="cls-11" d="M129.2747,199.7956c0,.2006.1029.4289.04.6093-.0715.2042-.3123.312-.45.4768-.1519.1814-.2369.4409-.45.5563a1.7037,1.7037,0,0,1-.6755.0927c-.076.0087-.2923.1324-.3708.1324a1.6471,1.6471,0,0,1-.7682-.2913c-.1818-.089-.4672-.1013-.6093-.2384a1.83,1.83,0,0,1-.3178-.7947,1.9125,1.9125,0,0,1-.1987-.5563c0-.1434.1391-.3165.1722-.45.044-.1783.0112-.3893.1059-.5431.1226-.1988.3928-.2294.5828-.3708.104-.0774.1188-.315.2384-.3709.1321-.0616.3033.0051.45-.0264a2.6653,2.6653,0,0,1,.4768-.1325c.1785,0,.2982.1159.4621.1593a2.0073,2.0073,0,0,1,.5313.1718,1.8923,1.8923,0,0,1,.49.5828c.1251.1752.316.2652.3708.4768C129.39,199.4186,129.2747,199.6456,129.2747,199.7956Z"/><path class="cls-11" d="M188.0176,180.8118c0,.2547.1307.5446.05.7737-.0908.2593-.3966.3963-.5719.6056-.193.23-.301.56-.5719.7065a2.1637,2.1637,0,0,1-.8579.1177c-.0965.0111-.3713.1682-.471.1682a2.0914,2.0914,0,0,1-.9756-.37c-.2309-.113-.5933-.1287-.7737-.3028a2.3215,2.3215,0,0,1-.4037-1.0093,2.4281,2.4281,0,0,1-.2524-.7064c0-.1822.1767-.402.2187-.572.0559-.2263.0143-.4944.1346-.69.1556-.2526.4988-.2914.74-.471.132-.0982.1508-.4.3028-.471.1677-.0783.3851.0064.5719-.0336a3.3909,3.3909,0,0,1,.6055-.1682c.2266,0,.3787.1471.5868.2022a2.5474,2.5474,0,0,1,.6748.2183,2.403,2.403,0,0,1,.6224.74c.1589.2225.4014.3368.4709.6056C188.1644,180.3329,188.0176,180.6212,188.0176,180.8118Z"/><path class="cls-11" d="M209.61,194.336c0,.2.1029.4288.04.6092-.0715.2042-.3123.312-.45.4768-.1519.1815-.2369.441-.45.5563a1.7037,1.7037,0,0,1-.6755.0927c-.076.0087-.2923.1325-.3708.1325a1.6472,1.6472,0,0,1-.7682-.2914c-.1818-.089-.4672-.1013-.6093-.2384a1.828,1.828,0,0,1-.3178-.7947,1.9125,1.9125,0,0,1-.1987-.5563c0-.1434.1391-.3165.1722-.45.044-.1782.0112-.3893.1059-.543.1226-.1989.3928-.23.5828-.3709.1039-.0773.1188-.315.2384-.3708.1321-.0617.3033.005.45-.0265a2.6737,2.6737,0,0,1,.4768-.1325c.1785,0,.2982.1159.4621.1593a2.0085,2.0085,0,0,1,.5313.1718,1.892,1.892,0,0,1,.49.5828c.1252.1752.3161.2652.3709.4768C209.7255,193.9589,209.61,194.1859,209.61,194.336Z"/><path class="cls-11" d="M223.6491,176.397c0,.2006.1029.4289.04.6093-.0714.2042-.3123.312-.45.4768-.152.1814-.237.4409-.45.5563a1.7042,1.7042,0,0,1-.6755.0927c-.076.0087-.2924.1325-.3709.1325a1.6476,1.6476,0,0,1-.7682-.2914c-.1817-.089-.4671-.1013-.6092-.2384a1.83,1.83,0,0,1-.3179-.7947,1.9125,1.9125,0,0,1-.1987-.5563c0-.1434.1392-.3165.1722-.45.044-.1783.0113-.3893.106-.5431.1225-.1988.3927-.2294.5828-.3708.1039-.0774.1187-.315.2384-.3709.132-.0616.3032.0051.45-.0264a2.663,2.663,0,0,1,.4768-.1325c.1784,0,.2982.1159.462.1593a2.0073,2.0073,0,0,1,.5313.1718,1.8923,1.8923,0,0,1,.49.5828c.1251.1752.3161.2652.3708.4768C223.7647,176.02,223.6491,176.247,223.6491,176.397Z"/><path class="cls-11" d="M232.2286,197.4558c0,.2.1028.4288.04.6092-.0715.2042-.3123.3121-.45.4769-.152.1814-.237.4409-.45.5562a1.7024,1.7024,0,0,1-.6755.0927c-.076.0088-.2924.1325-.3709.1325a1.6462,1.6462,0,0,1-.7682-.2914c-.1818-.0889-.4671-.1013-.6092-.2384a1.8294,1.8294,0,0,1-.3179-.7947,1.9125,1.9125,0,0,1-.1987-.5563c0-.1434.1392-.3165.1722-.45.044-.1782.0112-.3893.106-.543.1225-.1989.3927-.23.5827-.3709.104-.0773.1188-.315.2384-.3708.1321-.0617.3033.005.45-.0265a2.669,2.669,0,0,1,.4768-.1325c.1784,0,.2982.1159.462.1593a2.0039,2.0039,0,0,1,.5313.1719,1.8907,1.8907,0,0,1,.49.5827c.1251.1752.3161.2652.3708.4768C232.3441,197.0787,232.2286,197.3057,232.2286,197.4558Z"/><path class="cls-11" d="M179.4436,197.5849c0,.2961.1519.6332.0587.9-.1055.3015-.4611.4608-.665.7041-.2244.2679-.35.6511-.6649.8214a2.5149,2.5149,0,0,1-.9975.1369c-.1122.0129-.4317.1956-.5476.1956a2.4317,2.4317,0,0,1-1.1343-.43c-.2684-.1313-.69-.15-.9-.352a2.7012,2.7012,0,0,1-.4693-1.1735,2.8244,2.8244,0,0,1-.2934-.8214c0-.2117.2055-.4673.2543-.6649.0649-.2632.0165-.5749.1564-.8019.1809-.2936.58-.3388.8605-.5476.1535-.1142.1754-.4652.3521-.5476.195-.091.4478.0074.6649-.0391a3.9388,3.9388,0,0,1,.7041-.1956c.2635,0,.44.1711.6823.2352a2.9633,2.9633,0,0,1,.7845.2537,2.792,2.792,0,0,1,.7236.8606c.1848.2587.4668.3915.5477.704C179.6143,197.0281,179.4436,197.3633,179.4436,197.5849Z"/><path class="cls-11" d="M124.0669,165.6068c0,.2961.1519.6333.0587.9-.1055.3015-.4611.4608-.665.7041-.2244.2679-.35.6511-.6649.8214a2.5147,2.5147,0,0,1-.9974.1369c-.1123.0129-.4318.1956-.5477.1956a2.4306,2.4306,0,0,1-1.1343-.43c-.2684-.1313-.69-.1495-.9-.352a2.7,2.7,0,0,1-.4694-1.1735,2.8244,2.8244,0,0,1-.2934-.8214c0-.2117.2055-.4673.2543-.6649.065-.2632.0166-.5749.1564-.8019.181-.2936.58-.3388.8606-.5476.1535-.1142.1754-.4651.352-.5476.195-.091.4478.0075.665-.0391a3.9438,3.9438,0,0,1,.704-.1956c.2635,0,.44.1711.6823.2352a2.9669,2.9669,0,0,1,.7845.2537,2.7934,2.7934,0,0,1,.7237.8606c.1848.2587.4667.3915.5476.704C124.2376,165.05,124.0669,165.3852,124.0669,165.6068Z"/><path class="cls-11" d="M137.0743,183.4166c0,.2006.1028.4289.04.6093-.0715.2041-.3123.312-.45.4768-.152.1814-.237.4409-.45.5563a1.7042,1.7042,0,0,1-.6755.0927c-.076.0087-.2924.1324-.3709.1324a1.6462,1.6462,0,0,1-.7682-.2914c-.1817-.0889-.4671-.1012-.6092-.2384a1.829,1.829,0,0,1-.3179-.7946,1.9135,1.9135,0,0,1-.1987-.5563c0-.1434.1392-.3165.1722-.45.044-.1783.0112-.3893.106-.5431.1225-.1988.3927-.2294.5827-.3708.104-.0774.1188-.315.2384-.3709.1321-.0616.3033.0051.45-.0265a2.6688,2.6688,0,0,1,.4768-.1324c.1784,0,.2982.1159.462.1593a2.0073,2.0073,0,0,1,.5313.1718,1.8911,1.8911,0,0,1,.49.5828c.1251.1752.3161.2652.3708.4768C137.19,183.04,137.0743,183.2665,137.0743,183.4166Z"/><path class="cls-12" d="M247.5674,503.6279c-12.5455,4.15-17.6724,6.5346-35.5482,7.2386,1.9516-64.8389,63.6183-279.464,69.8075-282.4457-.96,66.7641-15.3475,223.6294-21.3907,258.2382-1.068,6.1162-1.652,10.656-7.5561,14.4394A23.5779,23.5779,0,0,1,247.5674,503.6279Z"/><path class="cls-13" d="M282.6067,198.8266a128.8182,128.8182,0,0,1-24.2288,8.9683c-10.8691-51.91-23.3484-68.2888-49.88-97.5542C250.7915,118.6723,282.6067,155.13,282.6067,198.8266Z"/></svg>
