<svg id="Layer_1" data-name="Layer 1" xmlns="http://www.w3.org/2000/svg" viewBox="0 0 420 420"><defs><style>.cls-1,.cls-12{fill:#fff;}.cls-2{opacity:0.3;}.cls-3{fill:#603813;}.cls-4{fill:#754c24;opacity:0.5;}.cls-5{fill:#ffb0cd;}.cls-6{fill:#ffcade;}.cls-7{fill:#fee7ed;}.cls-8{fill:#d09af6;}.cls-9{fill:#00b8ab;}.cls-10{fill:#8d173a;}.cls-11{fill:#f997a4;}.cls-12{opacity:0.2;}</style></defs><title>kort muffin</title><rect class="cls-1" x="64" y="52.5" width="299" height="299" rx="69.1376"/><ellipse class="cls-2" cx="199.4428" cy="311.5917" rx="79.1583" ry="18.9083"/><path class="cls-3" d="M292.7035,158.255c-2.7207,17.7111-34.5619,32.4371-77.1963,32.4371s-72.3147-15.186-77.1963-32.4371c-9.253-32.6987,34.562-32.4371,77.1963-32.4371S297.7266,125.5563,292.7035,158.255Z"/><path class="cls-4" d="M287.6325,149.6226c-1.7084,8.2842-21.7019,15.1722-48.4726,15.1722s-45.4073-7.1032-48.4725-15.1722c-5.81-15.2946,21.7019-15.1722,48.4725-15.1722S290.7865,134.328,287.6325,149.6226Z"/><path class="cls-5" d="M254.0467,110.9115c.1577,0-2.0437-.2751-1.885-.2751C270.473,83.702,217.8935,90.0051,218.94,73.5c-22.12,7.0325-46.7676,18.3206-36.6449,36.4786-18.304,3.06-31.63,5.1141-29.7988,21.8393,1.058,9.6639,29.2794,11.0033,65.3974,11.0033s60.6752-1.8883,61.7351-11.5535C281.46,114.57,269.9253,114.4975,254.0467,110.9115Z"/><path class="cls-6" d="M258.3213,114.1543c-.0947-.0238-30.965-3.247-43.833-.7463-11.1818,2.448-19.3226,4.0914-18.204,17.4715.6464,7.7311,17.8867,8.8027,39.9511,8.8027s37.0663-1.5107,37.7138-9.2429C275.0679,117.0808,268.2732,116.6623,258.3213,114.1543Z"/><path class="cls-7" d="M263.4562,121.4346c-.0324-.0083-10.5816-1.1232-14.979-.2582-3.8211.8468-6.603,1.4152-6.2208,6.0436.2209,2.6743,6.1124,3.0449,13.6524,3.0449s12.6666-.5225,12.8879-3.1972C269.1789,122.4469,266.857,122.3021,263.4562,121.4346Z"/><path class="cls-8" d="M237.7743,280.6028l6.9773,35.6618c.0158.0807.14.143.318.189a1.4916,1.4916,0,0,0,1.1818.5863h6.3035a1.5,1.5,0,0,0,1.5-1.5v-1.652a1.5,1.5,0,0,0-1.5-1.5h-5.8365l-3.5173-37.9875"/><path class="cls-8" d="M189.7036,279.0333l-6.9773,35.6618c-.0158.0807-.14.143-.318.1889a1.4914,1.4914,0,0,1-1.1818.5864H174.923a1.5,1.5,0,0,1-1.5-1.5v-1.652a1.5,1.5,0,0,1,1.5-1.5H180.76l3.5173-37.9875"/><path class="cls-9" d="M276.9942,266.6232c-25.9069,19.7245-88.7909,21.4205-121.2892-.3234a7.5773,7.5773,0,0,1-3.3045-5.5148c-3.5456-33.7-10.63-95.99-10.63-95.99s10.9239,12.1258,15.957,12.2947c4.1855-5.2319,18.3874-12.2947,18.3874-12.2947s10.9106,10.202,16.6656,12.8179c6.8013-2.6159,19.2917-12.8179,19.2917-12.8179s7.9136,10.7251,20.9931,13.341c6.2781-7.3245,19.3576-13.6026,19.3576-13.6026S269.1651,173.95,274.92,177.09c4.9165-.4031,15.4338-12.2947,15.4338-12.2947s-6.56,64.8759-10.08,96.0383A8.4669,8.4669,0,0,1,276.9942,266.6232Z"/><circle class="cls-1" cx="233.8504" cy="203.51" r="12.2947"/><path d="M233.85,195.1391a8.341,8.341,0,0,0-2.7329.4656,1.19,1.19,0,0,1,.28.2247c.7225.8167.1732,2.4829-1.2268,3.7214s-3.1208,1.5806-3.8433.7639a1.1789,1.1789,0,0,1-.1318-.1848,8.3686,8.3686,0,1,0,7.6543-4.9908Z"/><circle class="cls-1" cx="198.0127" cy="203.2484" r="12.2947"/><path d="M198.0127,194.8776a8.342,8.342,0,0,0-2.733.4655,1.19,1.19,0,0,1,.2805.2247c.7226.8167.1733,2.4829-1.2268,3.7214s-3.1208,1.5806-3.8433.7639a1.1789,1.1789,0,0,1-.1318-.1848,8.3686,8.3686,0,1,0,7.6544-4.9907Z"/><path class="cls-8" d="M282.7,223.2223c6.4378-2.2409,13.4548-7.0675,17.29-11.8123,8.6869-10.7459,7.326-19.43,8.3675-21.8865-2.4895,4.2938-12.236,19.5085-23.1014,18.7344"/><path class="cls-8" d="M307.7915,191.8049s11.4812-11.6818,8.7133-15.0284c-.4861-.5876-2.8793,1.008-2.8793,1.008s-.05-6.8327-1.8043-6.7833c-1.9612.0552-1.5874,7.6855-1.5874,7.6855s-2.674-7.83-4.6752-7.1092C300.7722,173.3021,307.7915,191.8049,307.7915,191.8049Z"/><path class="cls-10" d="M227.5723,227.4388c0,11.3447-7.0271,20.5414-15.6954,20.5414s-15.6954-9.1967-15.6954-20.5414c5.9792,2.23,7.2762,4.3229,15.9445,4.3229S221.0948,230.1922,227.5723,227.4388Z"/><path class="cls-11" d="M195.1352,251.6137c0,2.9586,1.1543,6.1448,8.193,6.1448,6.3723-1.3655,1.3655-10.4689,14.5653-11.8344-.91-3.1861-2.975-5.0068-10.0137-5.0068S195.1352,245.7063,195.1352,251.6137Z"/><path class="cls-8" d="M148.124,220.0571c-6.3728-2.4193-13.2527-7.4394-16.9548-12.2892-8.3843-10.9836-6.7821-19.627-7.7548-22.111,2.369,4.3615,11.6881,19.8417,22.5708,19.37"/><path class="cls-8" d="M123.9175,187.9532s-11.1516-11.997-8.2915-15.2651c.5023-.5739,2.85,1.0877,2.85,1.0877s.24-6.8286,1.9925-6.73c1.9589.11,1.3727,7.7267,1.3727,7.7267s2.891-7.7528,4.8714-6.9763C131.4492,169.653,123.9175,187.9532,123.9175,187.9532Z"/><path class="cls-12" d="M273.3216,261.6274a39.8642,39.8642,0,0,1-12.665,7.952c-19.71,8.071,21.3263-91.7938,21.3263-91.7938s-4.2533,53.4165-6.5351,79.0744A7.5711,7.5711,0,0,1,273.3216,261.6274Z"/><path class="cls-6" d="M247.9763,113c19.8808-28.7748-31.7258-22.8953-30.8676-36.0993-18.1424,5.6259-21.905,25.2352-13.6027,39.7616C218.69,118.87,241.4331,114.6817,247.9763,113Z"/><path class="cls-7" d="M238.6829,108.2914c14.78-22.5194-23.5858-17.9181-22.9478-28.2517C210.29,92.3231,237.516,96.827,238.6829,108.2914Z"/></svg>