<svg id="Layer_1" data-name="Layer 1" xmlns="http://www.w3.org/2000/svg" xmlns:xlink="http://www.w3.org/1999/xlink" viewBox="0 0 420 420"><defs><style>.cls-1{fill:none;}.cls-2{fill:#fff;}.cls-3{opacity:0.3;}.cls-4{clip-path:url(#clip-path);}.cls-5{fill:#df9227;}.cls-6{clip-path:url(#clip-path-2);}.cls-7{fill:#fbd088;}.cls-8{fill:#ec9f2d;}.cls-9{fill:#d88d2d;}.cls-10{fill:#8d173a;}.cls-11{fill:#f997a4;}.cls-12{fill:#fdb0b7;}.cls-13{fill:#fcc5cb;opacity:0.62;}.cls-14{fill:#fee7ed;}</style><clipPath id="clip-path"><path class="cls-1" d="M203.5783,318.12c-30.8237-54.7269-58.16-125.4079-58.16-125.4079l122.645.9851s-28.3216,74.1288-54.9069,124.3347A5.3416,5.3416,0,0,1,203.5783,318.12Z"/></clipPath><clipPath id="clip-path-2"><path class="cls-1" d="M203.5783,318.3663c-30.8237-54.7269-58.16-125.4079-58.16-125.4079l122.645.9851s-28.3216,74.1288-54.9069,124.3347A5.3416,5.3416,0,0,1,203.5783,318.3663Z"/></clipPath></defs><title>kort sodavandsis copy</title><rect class="cls-2" x="54.5" y="69" width="299" height="299" rx="69.1376"/><ellipse class="cls-3" cx="200.83" cy="340.9698" rx="60.83" ry="14.5302"/><g class="cls-4"><path class="cls-5" d="M203.5783,318.3663c-30.8237-54.7269-58.16-125.4079-58.16-125.4079l122.645.9851s-28.3216,74.1288-54.9069,124.3347A5.3416,5.3416,0,0,1,203.5783,318.3663Z"/><g class="cls-6"><path class="cls-7" d="M185.03,134.9c-1.3878,1.316-2.0856,1.9723-3.489,3.2814q-13.4073,12.3837-27.4123,24.04c-1.52,1.2539-2.2843,1.8789-3.82,3.125q-14.6628,11.78-29.8784,22.7838c-1.6509,1.1831-2.48,1.7724-4.1463,2.9465q-18.0391,12.5979-36.7681,24.1069,15.0069,16.7565,31.02,32.519c1.5325,1.4965,2.3031,2.2426,3.8526,3.7307q14.764,14.0532,30.2424,27.281c1.6759,1.4207,2.5181,2.1286,4.2106,3.54q16.1182,13.3191,32.8988,25.756c1.8161,1.335,2.7284,2,4.5608,3.3241q19.8008,14.1786,40.3952,27.1313,18.37-14.9674,35.8864-30.8951c1.62-1.4855,2.4254-2.23,4.0286-3.7228q14.801-13.8891,28.9072-28.4575c1.48-1.5417,2.2158-2.314,3.6793-3.8617q13.5033-14.3949,26.2774-29.4161c1.3393-1.5889,2.0048-2.3846,3.3275-3.9785q13.7928-16.7778,26.6043-34.2824-19.7521-9.6657-38.8284-20.5552c-1.7649-1.0195-2.6437-1.5322-4.3938-2.5635q-16.1712-9.6441-31.7576-20.1409c-1.6368-1.1157-2.4514-1.6763-4.073-2.8028q-14.9769-10.5233-29.3132-21.8438c-1.5048-1.2023-2.2533-1.8058-3.7423-3.0176q-15.5535-12.7988-30.2037-26.5714Q199.4887,121.0676,185.03,134.9Zm-27.4452,30.8433q14.0144-11.7538,27.3913-24.183,13.1985,12.729,27.0654,24.67-13.2977,12.9944-27.2144,25.2777Q170.84,178.9861,157.5847,165.7437Zm87.868,26.88q-13.1639,13.6267-26.9692,26.56-15.268-11.763-29.8493-24.3319,13.9227-12.384,27.1881-25.4263Q230.3306,181.4464,245.4527,192.6241Zm36.25,24.5309Q268.71,231.4389,255.03,245.0394q-16.5141-10.9263-32.3951-22.7155,13.8075-13.0363,26.9372-26.7131Q265.3468,206.8366,281.7028,217.155Zm-92.32,34.2709q15.0674-12.4478,29.4889-25.61,15.9107,11.8877,32.428,22.8758-14.3056,13.79-29.26,26.8453Q205.3823,263.9086,189.3832,251.4259Zm-34.2421-29.0075q15.1613-11.76,29.7-24.2513,14.6069,12.6657,29.8761,24.4871-14.4466,13.1-29.5164,25.4482Q169.8155,235.6589,155.1411,222.4184Zm-31.2365-30.5942q15.2292-11.1052,29.8624-22.9357,13.2867,13.3467,27.2636,25.9146-14.5615,12.4314-29.7215,24.0943Q137.2269,205.7289,123.9046,191.8242ZM87.4689,216.3131q16.423-10.362,32.2913-21.5216,13.3407,14.0043,27.4205,27.232-15.8186,11.78-32.1906,22.7442Q100.8379,230.9034,87.4689,216.3131Zm31.372,32.1626q16.3771-11.0641,32.1745-22.91,14.6968,13.3414,30.0815,25.8478-15.725,12.4852-32.03,24.1706Q133.5857,262.4236,118.8409,248.4757Zm34.434,30.625q16.3065-11.7882,32.0077-24.3413,16.0258,12.5855,32.6854,24.28-15.6048,13.2116-31.817,25.64Q169.37,292.3128,153.2749,279.1007Zm104.445,25.591q-15.4563,13.9593-31.5479,27.1525-18.0488-11.4817-35.4636-23.8649,16.21-12.534,31.7883-25.8158Q239.82,293.9,257.72,304.6917Zm32.9814-31.9845q-14.1368,14.5007-28.9477,28.2852Q243.857,290.27,226.565,278.6382q14.948-13.1576,29.2259-27.0124Q272.9719,262.6423,290.7013,272.7072Zm30.0075-33.0917q-12.8057,14.9584-26.3224,29.2523-17.724-9.9993-34.8709-20.9159,13.6706-13.699,26.6348-28.043Q303.17,230.2415,320.7088,239.6155Zm27.0133-34.0111q-11.4671,15.3325-23.68,30.0539-17.5326-9.3125-34.5146-19.55,12.377-14.1695,24.0222-28.9081Q330.3893,196.8854,347.7221,205.6044ZM309.15,184.6176q-11.6819,14.6916-24.0646,28.7578-16.3513-10.26-32.0939-21.3922,12.5362-13.5314,24.36-27.65Q292.9848,174.9269,309.15,184.6176Zm-35.8768-23.1059q-11.858,14.0741-24.396,27.5047-15.13-11.1317-29.599-23.0519,12.67-12.915,24.6464-26.435Q258.3033,150.9465,273.2735,161.5117Zm-57.7721,1.277q-13.8759-11.8992-27.04-24.5279,12.7813-12.3207,24.886-25.2638,13.0911,12.1468,26.83,23.4967Q228.17,149.9717,215.5014,162.7887Z"/></g><path class="cls-8" d="M133.0162,187.3033q5.3495-4.032,10.61-8.1779a8.8021,8.8021,0,0,1,11.6106.6193q4.7982,4.6878,9.7038,9.2576a8.7776,8.7776,0,0,1-.3852,13.19q-5.4025,4.4622-10.9036,8.802a8.7591,8.7591,0,0,1-11.4807-.555q-5.1179-4.9113-10.1118-9.9444A8.7782,8.7782,0,0,1,133.0162,187.3033Z"/><path class="cls-8" d="M235.811,195.4219q-6.3177,6.3681-12.8007,12.5645a7.7743,7.7743,0,0,1-10.1783.4934q-7.2531-5.7128-14.329-11.6358a7.78,7.78,0,0,1-.2518-11.7195q6.369-5.8182,12.5814-11.8a7.7654,7.7654,0,0,1,10.2765-.4369q6.8709,5.5607,13.8964,10.9135A7.7553,7.7553,0,0,1,235.811,195.4219Z"/><path class="cls-8" d="M268.9258,224.0516q-4.8356,5.15-9.7908,10.1846a7.8235,7.8235,0,0,1-9.9627.9866q-6.1523-4.171-12.19-8.5a7.817,7.817,0,0,1-.9244-11.9532q4.8793-4.75,9.6484-9.6092a7.8121,7.8121,0,0,1,10.0313-.95q5.8493,4.0546,11.8,7.9522A7.8148,7.8148,0,0,1,268.9258,224.0516Z"/><path class="cls-8" d="M204.5312,243.8208q4.9688-4.245,9.8436-8.5978a8.11,8.11,0,0,1,10.1821-.5062q5.4911,4.0008,11.076,7.8636a8.1136,8.1136,0,0,1,.9061,12.6075q-4.9618,4.6257-10.0246,9.141a8.123,8.123,0,0,1-10.126.5462q-5.78-4.13-11.4539-8.3983A8.1157,8.1157,0,0,1,204.5312,243.8208Z"/><path class="cls-8" d="M170.3594,216.7163q5.6933-4.5468,11.2673-9.2382a6.8387,6.8387,0,0,1,8.8276.0144q5.6492,4.7878,11.43,9.41a6.85,6.85,0,0,1,.2885,10.4878q-5.6781,5.0032-11.4838,9.8567a6.8618,6.8618,0,0,1-8.77.0255q-5.99-4.948-11.8337-10.0622A6.8425,6.8425,0,0,1,170.3594,216.7163Z"/><path class="cls-8" d="M170.0267,273.0649q5.3964-4.0428,10.7065-8.1991a8.5323,8.5323,0,0,1,10.4559-.0518q5.5241,4.2375,11.1441,8.3408a8.54,8.54,0,0,1,.3692,13.5076q-5.4126,4.4255-10.9185,8.7349a8.5523,8.5523,0,0,1-10.4145.096q-5.8142-4.38-11.52-8.8927A8.5415,8.5415,0,0,1,170.0267,273.0649Z"/><path class="cls-8" d="M246.8041,311.3964q-6.7122,5.8945-13.5774,11.61a6.9112,6.9112,0,0,1-8.1827.49q-7.8771-5.0979-15.5968-10.42a6.8766,6.8766,0,0,1-.3747-11.032q6.8025-5.4111,13.46-10.9992a6.8636,6.8636,0,0,1,8.21-.4594q7.509,4.995,15.1565,9.7639A6.8976,6.8976,0,0,1,246.8041,311.3964Z"/><path class="cls-8" d="M136.5333,245.4821q5.3964-4.0428,10.7064-8.1991a8.5325,8.5325,0,0,1,10.456-.0518q5.5241,4.2373,11.144,8.3407a8.54,8.54,0,0,1,.3692,13.5076q-5.4125,4.4256-10.9185,8.735a8.5523,8.5523,0,0,1-10.4144.0959q-5.8142-4.3794-11.52-8.8926A8.5415,8.5415,0,0,1,136.5333,245.4821Z"/></g><circle class="cls-2" cx="231.6144" cy="228.422" r="11.5749"/><path d="M231.6144,220.5412a7.8521,7.8521,0,0,0-2.573.4383,1.118,1.118,0,0,1,.2641.2116c.68.7688.1631,2.3374-1.155,3.5035s-2.938,1.488-3.6183.7191a1.1164,1.1164,0,0,1-.1241-.1739,7.8787,7.8787,0,1,0,7.2063-4.6986Z"/><path class="cls-9" d="M258.5531,261.7534A14.53,14.53,0,0,1,241.5013,273.22c7.9454-5.9726,15.8283-15.4708,2.4732-21.6.8621-1.8389,2.5861-5.5165,3.1117-6.9193A14.53,14.53,0,0,1,258.5531,261.7534Z"/><path class="cls-9" d="M238.6892,278.6048c-1.8983.2321-.9179-1.6666-.9179-1.6666s-3.0914,1.3333-3.5841-.2979c-.3563-1.18,1.6139-2.1648,1.6139-2.1648s-2.9007-.9838-.4926-1.97c1.7094-.7,5.8514.6949,6.1752.776C241.3415,273.6951,240.234,278.4159,238.6892,278.6048Z"/><path class="cls-9" d="M154.5935,259.2906c1.5422,7.8753,5.3548,10.7519,14.2207,16.17-6.4032-11.3287-12.9972-20.1739.3579-26.3026-.862-1.8388-2.586-5.5164-3.1117-6.9192A14.53,14.53,0,0,0,154.5935,259.2906Z"/><path class="cls-9" d="M171.4294,280.575c1.8983.2321.918-1.6666.918-1.6666s3.0913,1.3333,3.584-.2979c.3564-1.18-1.6138-2.1648-1.6138-2.1648s2.9006-.9838.4925-1.97c-1.7094-.7-5.8514.6949-6.1752.776C168.7771,275.6653,169.8846,280.3861,171.4294,280.575Z"/><path class="cls-9" d="M228.5367,338.807h-5.4948l-3.3114-35.7636-5.1091,5.8389,6.5688,33.5741c.0149.0759.1315.1346.2994.1779a1.4042,1.4042,0,0,0,1.1126.5519h5.9345a1.4119,1.4119,0,0,0,1.4119-1.412V340.219A1.4119,1.4119,0,0,0,228.5367,338.807Z"/><path class="cls-9" d="M187.958,338.807h5.4948l3.3114-35.7636,5.1091,5.8389-6.5689,33.5741c-.0148.0759-.1315.1346-.2993.1779a1.4044,1.4044,0,0,1-1.1126.5519H187.958a1.412,1.412,0,0,1-1.412-1.412V340.219A1.412,1.412,0,0,1,187.958,338.807Z"/><path class="cls-10" d="M223.4873,244.9224c0,5.7126-4.8185,16.7467-9.851,16.7467s-9.3585-10.049-9.3585-15.7616a15.1755,15.1755,0,0,0,19.2095-.9851Z"/><path class="cls-11" d="M213.6363,261.6691c-2.4628,0-11.8212-7.3882,0-6.4031C223.4873,253.7883,217.5767,261.6691,213.6363,261.6691Z"/><path class="cls-11" d="M252.726,173.1911c9.6672-2.2331,14.5983-3.1363,15.5834-13.48,0-9.9-6.7882-12.6747-22.9211-13.3511,7.7233-.921,8.8834-4.627,8.9455-8.7395.1166-7.72-5.0458-11.8253-13.9872-13.1861,9.6125-9.5748,9.9279-24.9281-35.0837-49.9345-.4765,22.3963-32.9267,19.953-25.3663,41.6205-8.9637-.6589-17.28,1.0285-18.9632,8.62-1.2341,6.5189,1.0567,10.7667,5.613,13.6233-9.2618-1.07-17.039,2.2995-17.9268,10.5117-.68,6.2882,2.9553,10.8361,12.594,13.7639-11.2555-1.4252-19.7359,5.1993-20.9673,13.3264-2.9553,29.553,27.4205,22.8057,62.5145,25.8721,36.4881,3.1884,67.0262,5.6511,69.9815-12.5733C274.81,176.5134,266.26,173.6494,252.726,173.1911Z"/><path class="cls-12" d="M236.0473,125.479c9.6125-9.5748,14.4735-24.2486-30.5381-49.2551,9.1912,20.1332-17.5339,18.88-18.298,33.5531a7.7425,7.7425,0,0,0,5.7091,7.7889C213.2671,123.2353,222.4135,125.479,236.0473,125.479Z"/><path class="cls-12" d="M253.3022,171.8167c7.31-2.18,10.5482-3.5238,11.56-11.065.2024-7.6872-7.4884-7.6872-23.2746-10.8225-12.0449-2.1808-36.9608-6.3782-49.7874-6.7184-7.6907.4479-14.1671.8958-15.7862,7.1663-.5043,5.1617,2.2513,10.3746,9.4016,12.778C195.256,164.5927,236.3257,176.355,253.3022,171.8167Z"/><path class="cls-13" d="M253.9287,170.135c6.9141-2.0827,9.9769-3.3663,10.934-10.57.1914-7.3436-6.317-8.1994-21.2482-11.1945-5.36-.8557-7.6571-1.7115-15.3141-1.7115-9.9541,0-14.9312,1.7115-15.6969,8.5575-.477,4.931-.6373,10.54,6.1257,12.8362C228.5965,170.3932,241.7,172.7589,253.9287,170.135Z"/><path class="cls-12" d="M249.5732,174.7819c-16.42-3.6312-50.3372-7.1272-58.6615-7.7223-7.3321-1.0924-15.3911,2.0631-16.819,11.5834-1.9252,22.65,22.5437,18.41,45.4047,20.76,23.7691,2.4436,43.6623,4.3312,45.5874-9.6365C266.4318,179.994,264.3411,177.6778,249.5732,174.7819Z"/><path class="cls-13" d="M252.6417,174.8153c-13.2425-3.6261-17.4376-4.2254-24.1511-4.82-5.9132-1.0908-12.4126,2.5422-13.5643,12.049-.6616,14.4588,4.3009,16.3866,13.46,17.357,19.1917,2.0334,35.2129,4.325,36.7655-9.6229C266.2378,180.02,264.5518,177.707,252.6417,174.8153Z"/><path class="cls-12" d="M227.9162,146.6586c11.8826-.52,11.8826-.52,17.2436-1.9477,4.7587-1.8052,5.6852-3.9363,5.7267-7.314.08-6.5234-3.4768-9.9926-9.638-11.1425-15.7777-2.4789-23.839-1.9808-42.7627-6.974a4.1749,4.1749,0,0,0-.7358-.1277c-5.9756-.4643-10.086,1.0747-11.2221,7.36-.7267,4.7075.32,8.0134,2.6,10.3818.7156.7437,3.9183,1.7333,4.8383,1.9578C215.7869,144.1759,216.1808,145.6307,227.9162,146.6586Z"/><path class="cls-13" d="M219.7614,144.7793c14.9024,2.35,18.8909,2.6991,25.547,0,3.9886-2.0011,5.1095-3.29,5.5893-7.4245.6782-5.8444-3.4884-9.0246-9.67-10.0632-9.97-.8429-19.6419-4.5619-28.7047-1.783C204.8589,127.8587,201.8784,141.9592,219.7614,144.7793Z"/><path class="cls-13" d="M236.0473,125.479c9.3585-10.8361,9.051-25.2362-22.6573-42.8519,6.4748,14.1828-.4468,24.1418-.9851,34.4785-.132,2.5354,2.43,5.9353,4.9255,6.4032C225.2112,124.9864,226.443,125.479,236.0473,125.479Z"/><path class="cls-14" d="M234.9871,117.1624c4.8754-4.8563,11.0835-13.9714-11.7461-26.6545C233.6318,103.1575,228.6623,116.2589,234.9871,117.1624Z"/><circle class="cls-2" cx="197.8747" cy="228.1757" r="11.5749"/><path d="M197.8747,220.2949a7.8521,7.8521,0,0,0-2.573.4383,1.118,1.118,0,0,1,.2641.2116c.68.7689.1631,2.3375-1.155,3.5035s-2.9381,1.488-3.6183.7191a1.1164,1.1164,0,0,1-.1241-.1739,7.8787,7.8787,0,1,0,7.2063-4.6986Z"/></svg>