<svg id="Layer_1" data-name="Layer 1" xmlns="http://www.w3.org/2000/svg" viewBox="0 0 420 420"><defs><style>.cls-1,.cls-12,.cls-13{fill:#fff;}.cls-13,.cls-2{opacity:0.3;}.cls-3{fill:#d9bfa0;}.cls-4{fill:#f2f2f2;}.cls-5{fill:#603813;}.cls-6{fill:#ccc;}.cls-7{fill:#ff7bac;}.cls-10,.cls-8{fill:none;}.cls-8{stroke:#e6e6e6;stroke-linejoin:round;}.cls-9{fill:#8d173a;}.cls-10{stroke:#000;stroke-linecap:round;stroke-miterlimit:10;stroke-width:5px;}.cls-11{fill:#fbb03b;}.cls-12{opacity:0.2;}</style></defs><title>kort iskaffe</title><rect class="cls-1" x="57.5" y="60" width="299" height="299" rx="69.1376"/><ellipse class="cls-2" cx="205.5265" cy="335.0423" rx="60.5265" ry="14.4577"/><path class="cls-3" d="M169.7865,228.2775c.4909-7.6292.1094-7.6537.33-11.0869a30.6709,30.6709,0,0,0-11.3109,10.3023c-5.1943,8.657-3.3278,14.8025-3.832,16.6853C156.3392,240.8187,164.176,232.13,169.7865,228.2775Z"/><path class="cls-3" d="M155.1524,242.47s-7.121,9.618-4.7785,11.7583c.4113.3758,1.9809-1.0217,1.9809-1.0217s.73,4.9386,1.9942,4.7248c1.4134-.2391.3682-5.7219.3682-5.7219s2.73,5.394,4.1045,4.6691C162.11,255.1448,155.1524,242.47,155.1524,242.47Z"/><path class="cls-3" d="M247.5141,302.8691c-17.6884,5.47-50.5619,5.0873-69.7829-.45-4.0564-1.1686-6.3573-5.1119-6.9438-9.2924-4.0329-28.7466-10.1795-101.3284-10.7223-134.4387,25.42,9.7474,81.61,11.2764,106.6477,0-.5381,34.9778-8.6006,117.16-11.9872,135.2911-.5985,3.2043-.9257,5.5827-4.2344,7.5648A13.6408,13.6408,0,0,1,247.5141,302.8691Z"/><path class="cls-4" d="M269.3886,157.1643c-10.5119,5.256-24.9436,9.8111-55.7129,9.8111-28.4609,0-43.3048-4.7887-55.7129-9.8111a55.7129,55.7129,0,1,1,111.4258,0Z"/><path class="cls-3" d="M245.3831,121.3438c-2.6405-6.9632-9.8894-11.9661-18.4243-11.9661a20.9225,20.9225,0,0,0-9.0626,2.038,19.2658,19.2658,0,0,0-6.9919-1.2735c-6.1439,0-11.393,2.7118-13.516,6.5414-.3971-.0255-.7965-.0432-1.2006-.0432-7.6413,0-14.1053,4.6426-16.2519,11.0331-4.7085,1.4074-8.0209,4.7508-8.0209,8.6528,0,.0784.0055.1558.0082.2337a11.2751,11.2751,0,0,0-10.329,11.2338c0,5.813-4.6948,10.8559.9557,11.4675,7.0219,4.7908,30.9715,7.8361,48.1634,7.8361,14.3929,0,38.3366-4.9692,40.1362-4.9692,5.4066,0,12.5816-.931,14.9078-5.16.9892-1.7985-1.0127-5.9744-.9556-8.0272C265.1684,135.7359,251.5912,122.2166,245.3831,121.3438Z"/><path class="cls-5" d="M260.2127,158.6879a1.9113,1.9113,0,0,1-1.9053-1.7851c-.4823-7.2875-2.6892-12.5416-6.5593-15.6162-2.7037-2.1483-5.6992-2.86-8.5961-3.5479-3.6834-.8749-7.748-.1195-10.4594-3.897a12.1341,12.1341,0,0,1-2.6758-6.4983,10.5389,10.5389,0,0,0-1.9112-5.7337c-2.2748-2.7185-7.3764-2.4186-13.761-2.2935-1.0465.0222-.17-3.6834-.1908-4.7387a1.9112,1.9112,0,0,1,1.873-1.9488c7.6034-.1452,13.0038,1.6244,16.0586,5.2753a11.07,11.07,0,0,1,2.4464,6.9705,8.9288,8.9288,0,0,0,1.5219,5.0781c1.8786,2.6175,4.5719,3.2571,7.9817,4.0671,3.15.7483,6.72,1.5962,10.0906,4.274,4.7488,3.7727,7.4389,9.949,7.9957,18.3568a1.9115,1.9115,0,0,1-1.781,2.0333Q260.2764,158.688,260.2127,158.6879Z"/><path class="cls-5" d="M242.61,163.3753a23.1716,23.1716,0,0,0-5.3237-12.1971,22.0082,22.0082,0,0,0-6.74-4.9821c-2.2535-1.1994-3.4589-1.904-4.0907-3.5946a4.9152,4.9152,0,0,1-.2367-.8694q-.0241-.37-.0733-.7375a10.9588,10.9588,0,0,1,.6038-3.27c.573-1.9915,1.2224-4.2486.1794-6.8808-1.51-3.8089-5.7767-6.2657-12.6829-7.302a1.91,1.91,0,0,0-1.9522.9713,61.9879,61.9879,0,0,0-7.5053-.9924c-9.9066.5281-8.1852,10.5021-10.6381,15.9387a16.7686,16.7686,0,0,0-1.0135,8.5471c.1646,2.27.1745,3.2544-.4016,3.8534-.6428.6685-1.739.63-3.7841.4951a17.923,17.923,0,0,0-10.1328,1.6782,19.3148,19.3148,0,0,0-4.7676,3.4744,2.9013,2.9013,0,0,0-.2432,3.7061,2.1771,2.1771,0,0,0,1.74.9143,2.1207,2.1207,0,0,0,1.4944-.6357,14.7621,14.7621,0,0,1,3.6419-2.6574,14.0326,14.0326,0,0,1,8.0046-1.2325c2.4744.1636,5.0318.3308,7.13-1.85,2.31-2.4017,2.077-5.6062,1.89-8.1809-.1463-2.017-.2844-3.9219.5171-5.6982.4934-1.0938,3.66-2.112,7.6233-3.1635a2.9626,2.9626,0,0,1,.8511.8656,2.0659,2.0659,0,0,0,.1911.3066,20.4165,20.4165,0,0,0-1.817,4.2608c-.56,1.7174.1492,3.657.8353,5.5326a11.5171,11.5171,0,0,1,.715,2.4206c-.36.73-1.3089,1.1034-2.8019,1.6208A8.733,8.733,0,0,0,199.71,156.08c-2.1669,2.5983-3.0261,5.993-2.5538,10.09a1.9113,1.9113,0,1,0,3.7974-.4379c-.3527-3.0593.2007-5.4157,1.692-7.2037a6.0582,6.0582,0,0,1,2.4286-1.1994c1.8219-.6314,4.0892-1.4172,5.1061-3.821.6441-1.5227,0-3.2824-.6811-5.1455a9.3084,9.3084,0,0,1-.7912-3.0335c.7389-2.2644,2.3443-2.8083,3.8968-3.3342.7175-.2431,5.7532-2.4423,6.3271-2.8012l.0058-.005c.019.0046.0415.0066.0594.012,1.4822.4461,2.3434.74,2.8063,1.5916.7854,1.4448.1508,4.0787-.4628,6.626-.7956,3.3026-1.6976,7.046.3933,9.7246.3986.5107,5.0747,7.2774,5.6075,7.2793.5122.0018,3.4242-.2907,3.8225-.7645.8126-.9668-3.8052-7.0257-4.587-8.0273-.4412-.5652-1.7282-5.098-1.3223-6.7824.0976-.4052.198-.8228.2959-1.2493a20.2067,20.2067,0,0,0,3.2,1.9723,18.259,18.259,0,0,1,5.6727,4.14A19.4362,19.4362,0,0,1,238.83,163.939a1.9114,1.9114,0,0,0,1.8879,1.63,1.9347,1.9347,0,0,0,.2843-.0211A1.9113,1.9113,0,0,0,242.61,163.3753Z"/><path class="cls-5" d="M166.0231,157.9234a1.7263,1.7263,0,0,0,1.7458-1.5777c.442-6.441,2.4642-11.0847,6.0105-13.8022,2.4776-1.8987,5.4194-1.5953,8.074-2.2036,3.3752-.7732,7.4539-1.2483,9.9385-4.587a11.1217,11.1217,0,0,0,2.2935-6.116,10.2037,10.2037,0,0,1,1.9112-5.3515c2.0845-2.4026,5.2348-2.0217,11.0853-1.9112.9589.02,1.1273-2.5044,1.1465-3.4371a1.7182,1.7182,0,0,0-1.7163-1.7224c-6.9672-.1283-12.6855.4036-15.4847,3.6305a12.2232,12.2232,0,0,0-2.6758,6.88,8.1716,8.1716,0,0,1-1.5287,4.587c-1.7214,2.3134-3.7562,2.7243-6.8808,3.44a20.2771,20.2771,0,0,0-8.3416,4.1455c-4.3515,3.3344-6.8166,8.7932-7.3267,16.2243a1.7114,1.7114,0,0,0,1.6319,1.7971C165.9451,157.9223,165.9842,157.9234,166.0231,157.9234Z"/><path class="cls-6" d="M213.4845,170.0333c-29.89,0-45.3184-5.2316-57.4335-10.1354a3.0579,3.0579,0,1,1,2.2946-5.6691c11.5811,4.6876,26.348,9.6886,55.1389,9.6886,31.4942,0,45.4353-4.8474,54.9188-9.5891a3.0579,3.0579,0,0,1,2.7351,5.47C261.0162,164.86,246.2509,170.0333,213.4845,170.0333Z"/><path class="cls-7" d="M223.3687,68.8719l.0253-.15-.1144-.0133c-.45-.662-2.0076-1.3229-3.9529-1.61-2.228-.3292-4.18-.0526-4.61.6147l-.03-.0035-.0149.0885a.5306.5306,0,0,0-.0359.0957.5033.5033,0,0,0-.0069.1592l-9.778,58.2786a9.3284,9.3284,0,0,0,8.7072,1.0124c1.933-11.4675,9.7162-57.91,9.7162-57.91a.5813.5813,0,0,0,.1276-.2454A.5413.5413,0,0,0,223.3687,68.8719Z"/><path class="cls-8" d="M217.62,102.7c2.4946.525,4.1785,1.5212,4.1785,2.6637,0,1.6889-3.6795,3.058-8.2184,3.058s-8.2184-1.3691-8.2184-3.058c0-1.0556,1.2542-2.1262,3.44-2.6758"/><ellipse class="cls-9" cx="219.0191" cy="68.5408" rx="1.4721" ry="4.4317" transform="translate(120.8345 275.9703) rotate(-82.0472)"/><path class="cls-7" d="M257.73,272.025c-28.6687,12.9965-60.3954,13.3787-89.4464,0-1.9112-19.1125-5.3515-62.689-7.0716-86.1973,25.42,9.3651,70.5251,15.0988,104.3542,0C263.4637,208.5715,260.0234,252.9125,257.73,272.025Z"/><circle class="cls-1" cx="218.9316" cy="214.8786" r="8.9829"/><path d="M218.9316,208.7626a6.0933,6.0933,0,0,0-1.9968.34.8676.8676,0,0,1,.205.1642c.5279.5967.1265,1.814-.8964,2.7189s-2.28,1.1548-2.808.5581a.8591.8591,0,0,1-.0963-.135,6.1144,6.1144,0,1,0,5.5925-3.6464Z"/><circle class="cls-1" cx="185.867" cy="214.6875" r="8.9829"/><path d="M185.867,208.5715a6.0959,6.0959,0,0,0-1.9968.34.8747.8747,0,0,1,.205.1642c.5279.5968.1265,1.8141-.8964,2.719s-2.28,1.1548-2.808.5581a.8591.8591,0,0,1-.0963-.135,6.1144,6.1144,0,1,0,5.5925-3.6464Z"/><path class="cls-3" d="M256.1144,223.3083c-.4908-7.6292-.1094-7.6538-.33-11.0869a30.67,30.67,0,0,1,11.311,10.3022c5.1942,8.6571,3.3277,14.8026,3.8319,16.6854C269.5617,235.8494,261.7249,227.1607,256.1144,223.3083Z"/><path class="cls-3" d="M270.7486,237.5007s7.121,9.618,4.7785,11.7583c-.4114.3759-1.981-1.0216-1.981-1.0216s-.73,4.9386-1.9942,4.7248c-1.4134-.2391-.3682-5.722-.3682-5.722s-2.73,5.394-4.1045,4.6691C263.7912,250.1755,270.7486,237.5007,270.7486,237.5007Z"/><path class="cls-3" d="M241.39,331.159h-4.8295L233.65,297.4446l-4.4906,5.5044,5.7736,31.65c.0131.0715.1156.1269.2631.1676a1.2082,1.2082,0,0,0,.978.52h5.216a1.2885,1.2885,0,0,0,1.2411-1.3311V332.49A1.2885,1.2885,0,0,0,241.39,331.159Z"/><path class="cls-3" d="M187.1081,331.159h4.8295l2.9106-33.7144,4.4906,5.5044-5.7737,31.65c-.013.0715-.1156.1269-.2631.1676a1.2079,1.2079,0,0,1-.9779.52h-5.216a1.2885,1.2885,0,0,1-1.2411-1.3311V332.49A1.2884,1.2884,0,0,1,187.1081,331.159Z"/><path class="cls-10" d="M212.0511,234.5645a8.9829,8.9829,0,1,1-17.9657,0"/><path class="cls-11" d="M234.1164,129.2391c0,.1248.064.2669.0247.3792-.0445.1271-.1944.1942-.28.2968-.0946.1129-.1475.2744-.28.3462a1.06,1.06,0,0,1-.42.0577c-.0473.0054-.182.0824-.2308.0824a1.0251,1.0251,0,0,1-.4782-.1813c-.1131-.0554-.2907-.0631-.3792-.1484a1.1387,1.1387,0,0,1-.1978-.4946,1.19,1.19,0,0,1-.1237-.3463c0-.0892.0866-.197.1072-.28.0274-.1109.007-.2423.0659-.338.0763-.1237.2445-.1428.3627-.2308.0647-.0481.074-.1961.1484-.2308.0822-.0384.1888.0031.28-.0165a1.6628,1.6628,0,0,1,.2968-.0824c.1111,0,.1856.0721.2876.0991a1.2468,1.2468,0,0,1,.3307.107,1.1772,1.1772,0,0,1,.305.3627c.0779.109.1967.165.2308.2968C234.1883,129.0044,234.1164,129.1457,234.1164,129.2391Z"/><path class="cls-11" d="M179.3339,149.2459c0,.0983.05.21.0195.2986-.0351.1-.1531.1529-.2207.2337-.0745.0889-.1162.2161-.2207.2726a.8351.8351,0,0,1-.3311.0455c-.0372.0042-.1433.0649-.1817.0649a.8068.8068,0,0,1-.3765-.1428c-.0891-.0436-.229-.05-.2986-.1169a.8957.8957,0,0,1-.1558-.3894.9385.9385,0,0,1-.0974-.2727c0-.07.0682-.1551.0844-.2207.0216-.0873.0055-.1908.052-.2661.06-.0975.1924-.1125.2856-.1818.0509-.0379.0582-.1543.1168-.1817.0647-.03.1486.0025.2207-.013a1.3093,1.3093,0,0,1,.2337-.0649c.0874,0,.1461.0568.2264.0781a.98.98,0,0,1,.26.0842.9261.9261,0,0,1,.24.2856c.0613.0859.1549.13.1817.2337C179.3905,149.0611,179.3339,149.1724,179.3339,149.2459Z"/><path class="cls-11" d="M243.17,134.72c0,.0983.05.21.0195.2986-.035.1-.1531.1529-.2207.2337-.0745.0889-.1162.2161-.2207.2726a.8351.8351,0,0,1-.3311.0455c-.0372.0042-.1433.0649-.1817.0649a.8068.8068,0,0,1-.3765-.1428c-.0891-.0436-.229-.05-.2986-.1169a.8957.8957,0,0,1-.1558-.3894.9385.9385,0,0,1-.0974-.2727c0-.07.0682-.1551.0844-.2207.0216-.0873.0055-.1907.052-.2661.06-.0975.1924-.1125.2856-.1817.0509-.038.0582-.1544.1168-.1818.0647-.03.1486.0025.2207-.013a1.3093,1.3093,0,0,1,.2337-.0649c.0874,0,.1461.0568.2264.0781a.9823.9823,0,0,1,.26.0842.9261.9261,0,0,1,.24.2856c.0613.0859.1549.13.1817.2337C243.2262,134.5356,243.17,134.6469,243.17,134.72Z"/><path class="cls-11" d="M235.1424,115.2257c0,.0983.05.21.0194.2986-.035.1-.153.1529-.2207.2337-.0744.0889-.1161.2161-.2207.2726a.8346.8346,0,0,1-.331.0454c-.0373.0043-.1433.0649-.1818.0649a.8076.8076,0,0,1-.3765-.1428c-.089-.0436-.2289-.05-.2985-.1168a.8961.8961,0,0,1-.1558-.3895.9379.9379,0,0,1-.0974-.2726c0-.07.0682-.1551.0844-.2207.0216-.0873.0055-.1908.0519-.2661.06-.0975.1925-.1125.2856-.1818.051-.0379.0582-.1544.1169-.1817.0647-.03.1486.0024.2207-.013a1.3082,1.3082,0,0,1,.2336-.0649c.0875,0,.1462.0568.2265.078a.9848.9848,0,0,1,.26.0843.9263.9263,0,0,1,.24.2856c.0613.0858.1549.13.1817.2336C235.199,115.0409,235.1424,115.1521,235.1424,115.2257Z"/><path class="cls-11" d="M221.5048,145.1044c0,.1452.0745.31.0288.441-.0518.1477-.226.2258-.3259.345-.11.1313-.1715.3191-.3259.4026a1.2348,1.2348,0,0,1-.4889.0671c-.055.0063-.2115.0958-.2683.0958a1.1928,1.1928,0,0,1-.556-.2108c-.1315-.0644-.338-.0733-.4409-.1726a1.3242,1.3242,0,0,1-.23-.5751,1.3826,1.3826,0,0,1-.1438-.4025c0-.1038.1007-.2291.1246-.3259.0319-.129.0081-.2818.0767-.393.0887-.1439.2842-.1661.4217-.2684.0753-.056.086-.228.1726-.2684.0955-.0446.2194.0037.3259-.0191a1.9254,1.9254,0,0,1,.345-.0959c.1291,0,.2158.0839.3344.1153a1.4522,1.4522,0,0,1,.3845.1243,1.3679,1.3679,0,0,1,.3546.4218c.0906.1268.2288.1919.2684.345C221.5884,144.8316,221.5048,144.9958,221.5048,145.1044Z"/><path class="cls-11" d="M194.3651,129.4322c0,.1451.0744.31.0287.4409-.0517.1478-.226.2258-.3259.3451-.11.1313-.1715.3191-.3259.4025a1.2307,1.2307,0,0,1-.4888.0671c-.055.0063-.2116.0959-.2684.0959a1.1915,1.1915,0,0,1-.5559-.2109c-.1316-.0644-.3381-.0733-.4409-.1725a1.3235,1.3235,0,0,1-.23-.5751,1.3832,1.3832,0,0,1-.1438-.4026c0-.1038.1007-.229.1246-.3259.0318-.129.0081-.2817.0767-.393.0886-.1439.2842-.166.4217-.2683.0752-.056.086-.228.1725-.2684.0956-.0446.22.0036.3259-.0192a1.9368,1.9368,0,0,1,.3451-.0958c.1291,0,.2158.0838.3344.1152a1.456,1.456,0,0,1,.3845.1244,1.3686,1.3686,0,0,1,.3546.4217c.0906.1268.2287.1919.2684.3451C194.4487,129.1593,194.3651,129.3236,194.3651,129.4322Z"/><path class="cls-11" d="M200.74,138.1607c0,.0983.05.21.0195.2986-.0351.1-.1531.1529-.2207.2337-.0745.0889-.1162.216-.2207.2726a.8351.8351,0,0,1-.3311.0454c-.0372.0043-.1433.0649-.1817.0649a.8068.8068,0,0,1-.3765-.1428c-.0891-.0436-.229-.05-.2986-.1168a.8961.8961,0,0,1-.1558-.39.9379.9379,0,0,1-.0974-.2726c0-.07.0682-.1551.0844-.2207.0216-.0874.0055-.1908.0519-.2661.06-.0975.1925-.1125.2856-.1818.051-.0379.0583-.1544.1169-.1817.0647-.03.1486.0024.2207-.013a1.3093,1.3093,0,0,1,.2337-.0649c.0874,0,.1461.0568.2264.078a.9835.9835,0,0,1,.26.0842.9272.9272,0,0,1,.24.2856c.0613.0859.1549.13.1817.2337C200.7965,137.9759,200.74,138.0871,200.74,138.1607Z"/><path class="cls-11" d="M218.0619,153.703c0,.1249.064.267.0247.3793-.0445.127-.1944.1942-.28.2967-.0946.113-.1475.2745-.28.3463a1.0617,1.0617,0,0,1-.42.0577c-.0473.0054-.182.0824-.2308.0824a1.0262,1.0262,0,0,1-.4782-.1813c-.1131-.0554-.2907-.0631-.3792-.1484a1.1386,1.1386,0,0,1-.1978-.4947,1.1882,1.1882,0,0,1-.1237-.3462c0-.0892.0866-.197.1072-.28.0274-.1109.007-.2423.0659-.338.0763-.1238.2445-.1428.3628-.2308.0647-.0481.0739-.1961.1483-.2308.0822-.0384.1888.0031.28-.0165a1.663,1.663,0,0,1,.2968-.0825c.1111,0,.1856.0722.2876.0992a1.25,1.25,0,0,1,.3307.1069,1.1774,1.1774,0,0,1,.305.3628c.0779.109.1967.165.2308.2967C218.1338,153.4684,218.0619,153.61,218.0619,153.703Z"/><path class="cls-11" d="M220.2346,151.9217c0,.0983.05.21.0195.2986-.035.1-.1531.1529-.2207.2336-.0745.089-.1161.2161-.2207.2727a.8351.8351,0,0,1-.3311.0454c-.0372.0043-.1432.0649-.1817.0649a.8072.8072,0,0,1-.3765-.1428c-.0891-.0436-.2289-.05-.2986-.1168a.8961.8961,0,0,1-.1558-.3895.9377.9377,0,0,1-.0973-.2726c0-.07.0681-.1551.0843-.2207.0216-.0874.0055-.1908.052-.2662.06-.0974.1925-.1124.2856-.1817.0509-.0379.0582-.1544.1168-.1818.0647-.03.1487.0025.2207-.0129a1.3035,1.3035,0,0,1,.2337-.065c.0875,0,.1461.0568.2265.0781a.9828.9828,0,0,1,.26.0842.9272.9272,0,0,1,.24.2856c.0613.0859.1549.13.1818.2337C220.2913,151.7369,220.2346,151.8481,220.2346,151.9217Z"/><path class="cls-11" d="M227.1151,143.13c0,.0983.05.21.0195.2986-.035.1-.1531.1529-.2207.2337-.0745.0889-.1162.2161-.2207.2726a.8351.8351,0,0,1-.3311.0455c-.0372.0042-.1433.0649-.1817.0649a.8072.8072,0,0,1-.3765-.1428c-.0891-.0436-.2289-.05-.2986-.1169a.8957.8957,0,0,1-.1558-.3894.9383.9383,0,0,1-.0973-.2727c0-.07.0681-.1551.0843-.2207.0216-.0873.0055-.1908.052-.2661.06-.0975.1924-.1125.2856-.1818.0509-.0379.0582-.1543.1168-.1817.0647-.03.1487.0025.2207-.013a1.3116,1.3116,0,0,1,.2337-.0649c.0874,0,.1461.0568.2264.0781a.9823.9823,0,0,1,.26.0842.9261.9261,0,0,1,.24.2856c.0613.0859.1549.13.1818.2337C227.1718,142.9451,227.1151,143.0564,227.1151,143.13Z"/><path class="cls-11" d="M231.32,153.4507c0,.0983.05.21.0194.2986-.035.1-.153.1529-.2207.2336-.0744.089-.1161.2161-.2207.2727a.8346.8346,0,0,1-.331.0454c-.0373.0043-.1433.0649-.1818.0649a.8076.8076,0,0,1-.3765-.1428c-.089-.0436-.2289-.05-.2985-.1168a.8961.8961,0,0,1-.1558-.3895.9379.9379,0,0,1-.0974-.2726c0-.07.0682-.1551.0844-.2207.0216-.0874.0055-.1908.0519-.2662.06-.0974.1925-.1124.2856-.1817.051-.0379.0582-.1544.1169-.1818.0647-.03.1486.0025.2207-.0129a1.3025,1.3025,0,0,1,.2336-.065c.0875,0,.1462.0568.2265.0781a.9847.9847,0,0,1,.26.0842.9286.9286,0,0,1,.24.2856c.0613.0859.1549.13.1817.2337C231.3765,153.2659,231.32,153.3771,231.32,153.4507Z"/><path class="cls-11" d="M189.7781,156.5719c0,.1452.0744.31.0287.4409-.0517.1478-.226.2258-.3259.3451-.11.1313-.1715.3191-.3258.4026a1.2351,1.2351,0,0,1-.4889.0671c-.055.0063-.2116.0958-.2684.0958a1.1925,1.1925,0,0,1-.5559-.2108c-.1315-.0644-.3381-.0733-.4409-.1726a1.323,1.323,0,0,1-.23-.5751,1.3822,1.3822,0,0,1-.1438-.4026c0-.1037.1007-.229.1246-.3258.0318-.129.0081-.2818.0767-.393.0886-.1439.2842-.1661.4217-.2684.0752-.056.086-.228.1725-.2684.0956-.0446.22.0037.3259-.0192a1.9368,1.9368,0,0,1,.3451-.0958c.1291,0,.2158.0839.3344.1153a1.4522,1.4522,0,0,1,.3845.1243,1.3679,1.3679,0,0,1,.3546.4218c.0906.1268.2287.1919.2684.345C189.8617,156.2991,189.7781,156.4633,189.7781,156.5719Z"/><path class="cls-11" d="M249.7913,151.9849c0,.1452.0744.31.0287.4409-.0517.1478-.226.2259-.3259.3451-.11.1313-.1714.3191-.3258.4026a1.2351,1.2351,0,0,1-.4889.0671c-.055.0063-.2116.0958-.2684.0958a1.1925,1.1925,0,0,1-.5559-.2108c-.1315-.0644-.3381-.0733-.4409-.1726a1.323,1.323,0,0,1-.23-.5751,1.3826,1.3826,0,0,1-.1438-.4025c0-.1038.1007-.2291.1246-.3259.0318-.129.0081-.2818.0767-.393.0886-.1439.2842-.1661.4217-.2684.0752-.056.086-.228.1725-.2684.0956-.0446.2195.0037.3259-.0192a1.9368,1.9368,0,0,1,.3451-.0958c.1291,0,.2158.0839.3344.1153a1.4522,1.4522,0,0,1,.3845.1243,1.3679,1.3679,0,0,1,.3546.4218c.0906.1268.2288.1919.2684.345C249.8749,151.7121,249.7913,151.8763,249.7913,151.9849Z"/><path class="cls-11" d="M184.6854,146.57c0,.0983.05.21.02.2986-.0351.1-.1531.1529-.2207.2336-.0745.089-.1162.2161-.2207.2727a.8351.8351,0,0,1-.3311.0454c-.0372.0043-.1433.0649-.1817.0649a.8068.8068,0,0,1-.3765-.1428c-.0891-.0436-.229-.05-.2986-.1168a.8961.8961,0,0,1-.1558-.3895.9379.9379,0,0,1-.0974-.2726c0-.07.0682-.1551.0844-.2207.0216-.0874.0055-.1908.0519-.2662.06-.0974.1925-.1124.2857-.1817.0509-.0379.0582-.1544.1168-.1818.0647-.03.1486.0025.2207-.0129a1.301,1.301,0,0,1,.2337-.0649c.0874,0,.1461.0567.2264.078a.9835.9835,0,0,1,.26.0842.9272.9272,0,0,1,.24.2856c.0613.0859.1549.13.1817.2337C184.742,146.3854,184.6854,146.4966,184.6854,146.57Z"/><path class="cls-11" d="M231.8229,137.6486c0,.1248.064.2669.0247.3792-.0445.127-.1944.1942-.28.2968-.0946.1129-.1475.2744-.28.3462a1.062,1.062,0,0,1-.42.0577c-.0473.0054-.182.0824-.2308.0824a1.0251,1.0251,0,0,1-.4782-.1813c-.1131-.0554-.2907-.0631-.3792-.1484a1.1387,1.1387,0,0,1-.1978-.4946,1.19,1.19,0,0,1-.1237-.3463c0-.0892.0866-.197.1072-.28.0274-.1109.007-.2423.0659-.338.0763-.1237.2445-.1428.3627-.2308.0648-.0481.074-.1961.1484-.2308.0822-.0384.1888.0031.28-.0165a1.6628,1.6628,0,0,1,.2968-.0824c.1111,0,.1856.0721.2876.0991a1.2468,1.2468,0,0,1,.3307.107,1.1758,1.1758,0,0,1,.305.3627c.0779.109.1967.165.2308.2968C231.8948,137.4139,231.8229,137.5551,231.8229,137.6486Z"/><path class="cls-11" d="M242.4051,144.2767c0,.0983.05.21.0195.2986-.035.1-.1531.1529-.2207.2337-.0745.0889-.1162.216-.2207.2726a.8351.8351,0,0,1-.3311.0454c-.0372.0043-.1433.0649-.1817.0649a.8068.8068,0,0,1-.3765-.1428c-.0891-.0436-.229-.05-.2986-.1168a.8961.8961,0,0,1-.1558-.3895.9379.9379,0,0,1-.0974-.2726c0-.07.0682-.1551.0844-.2207.0216-.0874.0055-.1908.052-.2661.06-.0975.1924-.1125.2856-.1818.0509-.0379.0582-.1544.1168-.1818.0647-.03.1486.0025.2207-.0129a1.301,1.301,0,0,1,.2337-.0649c.0874,0,.1461.0567.2264.078a.9823.9823,0,0,1,.26.0842.9272.9272,0,0,1,.24.2856c.0613.0859.1549.13.1817.2337C242.4617,144.0919,242.4051,144.2031,242.4051,144.2767Z"/><path class="cls-11" d="M249.2856,135.4849c0,.0983.05.21.02.2986-.0351.1-.1531.1529-.2207.2337-.0745.0889-.1162.2161-.2207.2726a.8351.8351,0,0,1-.3311.0455c-.0372.0042-.1433.0649-.1817.0649a.8068.8068,0,0,1-.3765-.1428c-.0891-.0436-.229-.05-.2986-.1169a.8957.8957,0,0,1-.1558-.3894.9385.9385,0,0,1-.0974-.2727c0-.07.0682-.1551.0844-.2207.0216-.0873.0055-.1907.052-.2661.06-.0975.1924-.1125.2856-.1817.0509-.038.0582-.1544.1168-.1818.0647-.03.1486.0025.2207-.013a1.3093,1.3093,0,0,1,.2337-.0649c.0874,0,.1461.0568.2264.0781a.9823.9823,0,0,1,.26.0842.9261.9261,0,0,1,.24.2856c.0613.0859.1549.13.1817.2337C249.3422,135.3,249.2856,135.4114,249.2856,135.4849Z"/><path class="cls-11" d="M254.2548,151.9217c0,.0983.05.21.02.2986-.035.1-.153.1529-.2207.2336-.0745.089-.1161.2161-.2207.2727a.8348.8348,0,0,1-.331.0454c-.0373.0043-.1433.0649-.1818.0649a.8072.8072,0,0,1-.3765-.1428c-.0891-.0436-.2289-.05-.2986-.1168a.8972.8972,0,0,1-.1557-.3895.935.935,0,0,1-.0974-.2726c0-.07.0682-.1551.0844-.2207.0215-.0874.0055-.1908.0519-.2662.06-.0974.1925-.1124.2856-.1817.051-.0379.0582-.1544.1169-.1818.0647-.03.1486.0025.2206-.0129a1.3035,1.3035,0,0,1,.2337-.065c.0875,0,.1462.0568.2265.0781a.9847.9847,0,0,1,.26.0842.9269.9269,0,0,1,.24.2856c.0614.0859.1549.13.1818.2337C254.3115,151.7369,254.2548,151.8481,254.2548,151.9217Z"/><path class="cls-11" d="M239.0883,149.3092c0,.1451.0744.31.0287.4409-.0517.1477-.2259.2258-.3258.3451-.11.1313-.1715.319-.3259.4025a1.2315,1.2315,0,0,1-.4889.0671c-.055.0063-.2116.0959-.2683.0959a1.1919,1.1919,0,0,1-.556-.2109c-.1315-.0644-.3381-.0733-.4409-.1725a1.3235,1.3235,0,0,1-.23-.5751,1.3832,1.3832,0,0,1-.1438-.4026c0-.1038.1007-.229.1246-.3259.0319-.129.0081-.2817.0767-.393.0887-.1439.2842-.166.4217-.2684.0753-.0559.086-.2279.1726-.2683.0955-.0446.2194.0036.3258-.0192a1.9371,1.9371,0,0,1,.3451-.0959c.1291,0,.2158.0839.3344.1153a1.4524,1.4524,0,0,1,.3845.1244,1.3686,1.3686,0,0,1,.3546.4217c.0906.1268.2288.1919.2684.3451C239.1719,149.0363,239.0883,149.2006,239.0883,149.3092Z"/><path class="cls-11" d="M190.5426,147.0157c0,.1451.0744.31.0287.4409-.0517.1477-.226.2258-.3259.3451-.11.1313-.1715.319-.3258.4025a1.2315,1.2315,0,0,1-.4889.0671c-.055.0063-.2116.0959-.2684.0959a1.1915,1.1915,0,0,1-.5559-.2109c-.1315-.0644-.3381-.0733-.4409-.1725a1.3235,1.3235,0,0,1-.23-.5751,1.3832,1.3832,0,0,1-.1438-.4026c0-.1038.1007-.229.1246-.3259.0318-.129.0081-.2817.0767-.393.0886-.1439.2842-.166.4217-.2683.0752-.056.086-.228.1725-.2684.0956-.0446.22.0036.3259-.0192a1.9368,1.9368,0,0,1,.3451-.0958c.1291,0,.2158.0838.3344.1152a1.4524,1.4524,0,0,1,.3845.1244,1.3686,1.3686,0,0,1,.3546.4217c.0906.1268.2287.1919.2684.3451C190.6262,146.7428,190.5426,146.9071,190.5426,147.0157Z"/><path class="cls-11" d="M206.8559,138.9252c0,.0983.05.21.0194.2986-.035.1-.153.1529-.2206.2337-.0745.0889-.1162.216-.2207.2726a.8351.8351,0,0,1-.3311.0454c-.0372.0043-.1433.0649-.1817.0649a.8068.8068,0,0,1-.3765-.1428c-.0891-.0436-.229-.05-.2986-.1168a.8961.8961,0,0,1-.1558-.3895.9379.9379,0,0,1-.0974-.2726c0-.07.0682-.1551.0844-.2207.0216-.0874.0055-.1908.0519-.2661.06-.0975.1925-.1125.2856-.1818.051-.0379.0583-.1544.1169-.1818.0647-.03.1486.0025.2207-.0129a1.3093,1.3093,0,0,1,.2337-.0649c.0874,0,.1461.0568.2264.078a.9847.9847,0,0,1,.26.0842.9272.9272,0,0,1,.24.2856c.0613.0859.1549.13.1817.2337C206.9125,138.74,206.8559,138.8516,206.8559,138.9252Z"/><path class="cls-11" d="M222.2666,127.71c0,.1248.0641.2669.0248.3792-.0445.1271-.1944.1942-.28.2968-.0946.1129-.1475.2744-.28.3462a1.0607,1.0607,0,0,1-.42.0577c-.0473.0054-.1819.0824-.2308.0824a1.0243,1.0243,0,0,1-.4781-.1813c-.1132-.0554-.2908-.0631-.3792-.1484a1.1376,1.1376,0,0,1-.1979-.4946,1.1925,1.1925,0,0,1-.1236-.3463c0-.0892.0866-.197.1071-.28.0274-.1109.007-.2423.066-.338.0762-.1237.2444-.1428.3627-.2308.0647-.0481.0739-.1961.1484-.2308.0822-.0384.1888.0031.28-.0165a1.6581,1.6581,0,0,1,.2968-.0824c.111,0,.1856.0721.2875.0991a1.2445,1.2445,0,0,1,.3307.107,1.1761,1.1761,0,0,1,.3051.3627c.0779.109.1967.165.2308.2968C222.3386,127.4754,222.2666,127.6167,222.2666,127.71Z"/><path class="cls-11" d="M232.8489,134.3382c0,.0983.05.21.0194.2986-.035.1-.153.1529-.2207.2337-.0744.0889-.1161.216-.2207.2726a.8346.8346,0,0,1-.331.0454c-.0373.0043-.1433.0649-.1818.0649a.8076.8076,0,0,1-.3765-.1428c-.089-.0436-.2289-.05-.2985-.1168a.8961.8961,0,0,1-.1558-.3895.9379.9379,0,0,1-.0974-.2726c0-.07.0682-.1551.0844-.2207.0216-.0874.0055-.1908.0519-.2661.06-.0975.1925-.1125.2856-.1818.051-.0379.0582-.1544.1169-.1817.0647-.03.1486.0024.2207-.013a1.3082,1.3082,0,0,1,.2336-.0649c.0875,0,.1462.0568.2265.078a.9847.9847,0,0,1,.26.0842.9286.9286,0,0,1,.24.2856c.0613.0859.1549.13.1817.2337C232.9055,134.1534,232.8489,134.2646,232.8489,134.3382Z"/><path class="cls-11" d="M239.7294,125.5464c0,.0983.05.21.0194.2986-.035.1-.153.153-.2207.2337-.0744.0889-.1161.2161-.2207.2726a.8348.8348,0,0,1-.331.0455c-.0373.0043-.1433.0649-.1818.0649a.8076.8076,0,0,1-.3765-.1428c-.089-.0436-.2289-.05-.2986-.1169a.8968.8968,0,0,1-.1557-.3894.9385.9385,0,0,1-.0974-.2727c0-.07.0682-.1551.0844-.2206.0216-.0874.0055-.1908.0519-.2662.06-.0974.1925-.1124.2856-.1817.051-.0379.0582-.1544.1169-.1818.0647-.03.1486.0025.2207-.013a1.3082,1.3082,0,0,1,.2336-.0649c.0875,0,.1462.0568.2265.0781a.9847.9847,0,0,1,.26.0842.9258.9258,0,0,1,.24.2856c.0614.0859.155.13.1818.2337C239.786,125.3617,239.7294,125.4729,239.7294,125.5464Z"/><path class="cls-11" d="M247.3743,141.2187c0,.0983.05.21.0195.2986-.035.1-.153.1529-.2207.2337-.0745.0889-.1161.216-.2207.2726a.8348.8348,0,0,1-.331.0454c-.0373.0043-.1433.0649-.1818.0649a.8076.8076,0,0,1-.3765-.1428c-.0891-.0436-.2289-.05-.2986-.1168a.8972.8972,0,0,1-.1557-.3895.9379.9379,0,0,1-.0974-.2726c0-.07.0682-.1551.0844-.2207.0215-.0874.0055-.1908.0519-.2661.06-.0975.1925-.1125.2856-.1818.051-.0379.0582-.1544.1169-.1818.0647-.03.1486.0025.2207-.0129a1.3082,1.3082,0,0,1,.2336-.0649c.0875,0,.1462.0567.2265.078a.9847.9847,0,0,1,.26.0842.9269.9269,0,0,1,.24.2856c.0614.0859.155.13.1818.2337C247.431,141.0339,247.3743,141.1451,247.3743,141.2187Z"/><path class="cls-11" d="M218.0646,135.93c0,.1452.0744.31.0287.441-.0517.1477-.226.2258-.3259.345-.11.1313-.1715.3191-.3259.4026a1.2343,1.2343,0,0,1-.4888.0671c-.055.0063-.2116.0958-.2684.0958a1.1914,1.1914,0,0,1-.5559-.2108c-.1316-.0644-.3381-.0733-.4409-.1726a1.3231,1.3231,0,0,1-.23-.5751,1.3853,1.3853,0,0,1-.1437-.4025c0-.1038.1006-.2291.1246-.3259.0318-.129.0081-.2818.0766-.393.0887-.1439.2843-.1661.4218-.2684.0752-.056.0859-.228.1725-.2684.0956-.0446.22.0037.3259-.0191a1.9287,1.9287,0,0,1,.3451-.0959c.1291,0,.2158.0839.3343.1153a1.45,1.45,0,0,1,.3845.1243,1.3682,1.3682,0,0,1,.3547.4218c.0906.1268.2287.1919.2684.345C218.1482,135.6576,218.0646,135.8218,218.0646,135.93Z"/><path class="cls-11" d="M190.9248,120.2582c0,.1451.0745.31.0288.4409-.0517.1478-.226.2258-.3259.3451-.11.1313-.1715.3191-.3259.4026a1.2328,1.2328,0,0,1-.4888.067c-.055.0064-.2116.0959-.2684.0959a1.1911,1.1911,0,0,1-.5559-.2109c-.1316-.0643-.3381-.0733-.441-.1725a1.3247,1.3247,0,0,1-.23-.5751,1.3861,1.3861,0,0,1-.1438-.4026c0-.1038.1007-.229.1246-.3259.0319-.129.0082-.2817.0767-.393.0887-.1439.2842-.166.4218-.2683.0752-.056.0859-.228.1725-.2684.0955-.0446.2195.0036.3259-.0192a1.9358,1.9358,0,0,1,.345-.0958c.1292,0,.2158.0838.3344.1152a1.456,1.456,0,0,1,.3845.1244,1.3689,1.3689,0,0,1,.3547.4217c.09.1268.2287.1919.2683.3451C191.0085,119.9854,190.9248,120.15,190.9248,120.2582Z"/><path class="cls-11" d="M197.3,128.9867c0,.0983.05.21.0195.2986-.035.1-.153.1529-.2207.2337-.0745.0889-.1161.2161-.2207.2726a.8348.8348,0,0,1-.331.0454c-.0373.0043-.1433.0649-.1818.0649a.8072.8072,0,0,1-.3765-.1428c-.0891-.0436-.2289-.05-.2986-.1168a.8974.8974,0,0,1-.1558-.3895.9377.9377,0,0,1-.0973-.2726c0-.07.0682-.1551.0844-.2207.0215-.0874.0055-.1908.0519-.2661.06-.0975.1925-.1125.2856-.1818.0509-.0379.0582-.1544.1168-.1817.0648-.03.1487.0024.2207-.013a1.3116,1.3116,0,0,1,.2337-.0649c.0875,0,.1462.0568.2265.078a.9847.9847,0,0,1,.26.0842.9275.9275,0,0,1,.24.2857c.0614.0858.1549.13.1818.2336C197.3563,128.8019,197.3,128.9131,197.3,128.9867Z"/><path class="cls-11" d="M213.4749,138.7953c0,.1248.064.2669.0247.3792-.0445.1271-.1944.1942-.28.2968-.0946.1129-.1475.2744-.28.3462a1.0581,1.0581,0,0,1-.42.0577c-.0473.0055-.182.0825-.2308.0825a1.0253,1.0253,0,0,1-.4782-.1814c-.1131-.0553-.2907-.063-.3792-.1484a1.1387,1.1387,0,0,1-.1978-.4946,1.1892,1.1892,0,0,1-.1237-.3462c0-.0893.0866-.197.1072-.28.0274-.111.007-.2423.0659-.338.0763-.1238.2445-.1428.3628-.2308.0647-.0482.0739-.1961.1483-.2309.0822-.0383.1888.0032.28-.0165a1.6712,1.6712,0,0,1,.2968-.0824c.1111,0,.1856.0721.2876.0991a1.2541,1.2541,0,0,1,.3307.107,1.1781,1.1781,0,0,1,.305.3627c.0779.1091.1967.1651.2308.2968C213.5468,138.5606,213.4749,138.7019,213.4749,138.7953Z"/><path class="cls-11" d="M248.1388,128.6044c0,.0983.05.21.0195.2986-.035.1-.153.1529-.2207.2337-.0745.0889-.1161.2161-.2207.2726a.8348.8348,0,0,1-.331.0455c-.0373.0043-.1433.0649-.1818.0649a.8076.8076,0,0,1-.3765-.1428c-.0891-.0436-.2289-.05-.2986-.1169a.8968.8968,0,0,1-.1557-.3894.9385.9385,0,0,1-.0974-.2727c0-.07.0682-.1551.0844-.2207.0215-.0873.0055-.1907.0519-.2661.06-.0975.1925-.1124.2856-.1817.051-.0379.0582-.1544.1169-.1818.0647-.03.1486.0025.2207-.013a1.3082,1.3082,0,0,1,.2336-.0649c.0875,0,.1462.0568.2265.0781a.9847.9847,0,0,1,.26.0842.9258.9258,0,0,1,.24.2856c.0614.0859.155.13.1818.2337C248.1955,128.42,248.1388,128.5309,248.1388,128.6044Z"/><path class="cls-11" d="M230.9376,136.6317c0,.0983.05.21.0195.2986-.035.1-.1531.1529-.2207.2337-.0745.0889-.1162.216-.2207.2726a.8351.8351,0,0,1-.3311.0454c-.0372.0043-.1433.0649-.1817.0649a.8072.8072,0,0,1-.3765-.1428c-.0891-.0436-.229-.05-.2986-.1168a.8961.8961,0,0,1-.1558-.3895.9377.9377,0,0,1-.0973-.2726c0-.07.0681-.1551.0843-.2207.0216-.0874.0055-.1908.052-.2661.06-.0975.1924-.1125.2856-.1818.0509-.0379.0582-.1544.1168-.1817.0647-.03.1487.0024.2207-.013a1.3116,1.3116,0,0,1,.2337-.0649c.0874,0,.1461.0568.2264.078a.9823.9823,0,0,1,.26.0842.9272.9272,0,0,1,.24.2856c.0613.0859.1549.13.1818.2337C230.9943,136.4469,230.9376,136.5581,230.9376,136.6317Z"/><path class="cls-11" d="M235.1424,146.9524c0,.0983.05.21.0194.2986-.035.1-.153.1529-.2207.2337-.0744.0889-.1161.2161-.2207.2726a.8346.8346,0,0,1-.331.0455c-.0373.0042-.1433.0649-.1818.0649a.8076.8076,0,0,1-.3765-.1428c-.089-.0436-.2289-.05-.2985-.1169a.8957.8957,0,0,1-.1558-.3894.9385.9385,0,0,1-.0974-.2727c0-.07.0682-.1551.0844-.2207.0216-.0873.0055-.1908.0519-.2661.06-.0975.1925-.1125.2856-.1818.051-.0379.0582-.1543.1169-.1817.0647-.03.1486.0025.2207-.013a1.3082,1.3082,0,0,1,.2336-.0649c.0875,0,.1462.0568.2265.0781a.9811.9811,0,0,1,.26.0842.9275.9275,0,0,1,.24.2856c.0613.0859.1549.13.1817.2337C235.199,146.7676,235.1424,146.8789,235.1424,146.9524Z"/><path class="cls-11" d="M198.9521,148.1624c0,.1452.0744.31.0287.441-.0517.1477-.226.2258-.3259.345-.11.1313-.1715.3191-.3259.4026a1.2343,1.2343,0,0,1-.4888.0671c-.055.0063-.2116.0958-.2684.0958a1.1925,1.1925,0,0,1-.5559-.2108c-.1316-.0644-.3381-.0733-.4409-.1726a1.3243,1.3243,0,0,1-.23-.5751,1.3853,1.3853,0,0,1-.1437-.4025c0-.1038.1007-.2291.1246-.3259.0318-.129.0081-.2818.0767-.393.0886-.1439.2842-.1661.4217-.2684.0752-.056.086-.228.1725-.2684.0956-.0446.2195.0037.3259-.0191a1.9287,1.9287,0,0,1,.3451-.0959c.1291,0,.2158.0839.3344.1153a1.4522,1.4522,0,0,1,.3845.1243,1.3679,1.3679,0,0,1,.3546.4218c.0906.1268.2287.1919.2684.345C199.0357,147.89,198.9521,148.0538,198.9521,148.1624Z"/><path class="cls-11" d="M182.1331,131.3435c0,.1451.0744.31.0287.4409-.0517.1477-.226.2258-.3259.345-.11.1313-.1714.3191-.3258.4026a1.2333,1.2333,0,0,1-.4889.0671c-.055.0063-.2116.0958-.2684.0958a1.1914,1.1914,0,0,1-.5559-.2108c-.1315-.0644-.3381-.0733-.4409-.1726a1.323,1.323,0,0,1-.23-.5751,1.3826,1.3826,0,0,1-.1438-.4025c0-.1038.1007-.2291.1246-.3259.0318-.129.0081-.2817.0767-.393.0886-.1439.2842-.1661.4217-.2684.0752-.056.086-.228.1725-.2684.0956-.0446.22.0037.3259-.0191a1.9287,1.9287,0,0,1,.3451-.0959c.1291,0,.2158.0839.3344.1153a1.4522,1.4522,0,0,1,.3845.1243,1.3679,1.3679,0,0,1,.3546.4218c.0906.1268.2288.1919.2684.345C182.2167,131.0706,182.1331,131.2348,182.1331,131.3435Z"/><path class="cls-11" d="M188.5079,140.0719c0,.0983.05.21.0195.2986-.0351.1-.1531.1529-.2207.2337-.0745.0889-.1162.2161-.2207.2726a.8351.8351,0,0,1-.3311.0455c-.0372.0042-.1433.0649-.1817.0649a.8068.8068,0,0,1-.3765-.1428c-.0891-.0436-.229-.05-.2986-.1169a.8957.8957,0,0,1-.1558-.3894.9385.9385,0,0,1-.0974-.2727c0-.07.0682-.1551.0844-.2207.0216-.0873.0055-.1908.0519-.2661.06-.0975.1925-.1125.2857-.1817.0509-.038.0582-.1544.1168-.1818.0647-.03.1486.0025.2207-.013a1.3093,1.3093,0,0,1,.2337-.0649c.0874,0,.1461.0568.2264.0781a.9835.9835,0,0,1,.26.0842.9261.9261,0,0,1,.24.2856c.0613.0859.1549.13.1817.2337C188.5645,139.8871,188.5079,139.9984,188.5079,140.0719Z"/><path class="cls-11" d="M198.034,128.4746c0,.1248-.064.2669-.0247.3792.0445.1271.1944.1942.28.2968.0946.1129.1475.2744.28.3462a1.06,1.06,0,0,0,.42.0577c.0473.0054.182.0824.2308.0824a1.0251,1.0251,0,0,0,.4782-.1813c.1131-.0554.2907-.0631.3792-.1484a1.1387,1.1387,0,0,0,.1978-.4946,1.19,1.19,0,0,0,.1237-.3463c0-.0892-.0866-.197-.1072-.28-.0274-.1109-.007-.2423-.0659-.338-.0763-.1237-.2445-.1428-.3627-.2308-.0647-.0481-.074-.1961-.1484-.2308-.0822-.0384-.1888.0031-.28-.0165a1.66,1.66,0,0,0-.2968-.0824c-.1111,0-.1856.0721-.2876.0991a1.2468,1.2468,0,0,0-.3307.107,1.1772,1.1772,0,0,0-.305.3627c-.0779.109-.1967.165-.2308.2968C197.9621,128.24,198.034,128.3812,198.034,128.4746Z"/><path class="cls-11" d="M187.4518,135.1027c0,.0983-.05.21-.0195.2986.035.1.1531.1529.2207.2337.0745.0889.1162.216.2207.2726a.8351.8351,0,0,0,.3311.0454c.0372.0043.1433.0649.1817.0649a.8068.8068,0,0,0,.3765-.1428c.0891-.0436.229-.05.2986-.1168a.8961.8961,0,0,0,.1558-.3895.9379.9379,0,0,0,.0974-.2726c0-.07-.0682-.1551-.0844-.2207-.0216-.0874-.0055-.1908-.052-.2661-.06-.0975-.1924-.1125-.2856-.1818-.0509-.0379-.0582-.1544-.1168-.1817-.0647-.03-.1486.0024-.2207-.013a1.3093,1.3093,0,0,0-.2337-.0649c-.0874,0-.1461.0568-.2264.078a.9823.9823,0,0,0-.26.0842.9272.9272,0,0,0-.24.2856c-.0613.0859-.1549.13-.1817.2337C187.3952,134.9179,187.4518,135.0291,187.4518,135.1027Z"/><path class="cls-11" d="M180.5713,126.3109c0,.0983-.05.21-.02.2986.0351.1.1531.153.2207.2337.0745.0889.1162.2161.2207.2726a.8351.8351,0,0,0,.3311.0455c.0372.0043.1433.0649.1817.0649a.8068.8068,0,0,0,.3765-.1428c.0891-.0436.229-.05.2986-.1169a.8957.8957,0,0,0,.1558-.3894.9385.9385,0,0,0,.0974-.2727c0-.07-.0682-.1551-.0844-.2207-.0216-.0873-.0055-.1907-.0519-.2661-.06-.0975-.1925-.1124-.2857-.1817-.0509-.0379-.0582-.1544-.1168-.1818-.0647-.03-.1486.0025-.2207-.013a1.3093,1.3093,0,0,0-.2337-.0649c-.0874,0-.1461.0568-.2264.0781a.9835.9835,0,0,0-.26.0842.9261.9261,0,0,0-.24.2856c-.0613.0859-.1549.13-.1817.2337C180.5147,126.1262,180.5713,126.2374,180.5713,126.3109Z"/><path class="cls-11" d="M176.3666,136.6317c0,.0983-.05.21-.0195.2986.035.1.153.1529.2207.2337.0745.0889.1161.216.2207.2726a.8348.8348,0,0,0,.331.0454c.0373.0043.1433.0649.1818.0649a.8072.8072,0,0,0,.3765-.1428c.0891-.0436.2289-.05.2986-.1168a.8972.8972,0,0,0,.1557-.3895.935.935,0,0,0,.0974-.2726c0-.07-.0682-.1551-.0844-.2207-.0215-.0874-.0055-.1908-.0519-.2661-.06-.0975-.1925-.1125-.2856-.1818-.051-.0379-.0582-.1544-.1168-.1817-.0648-.03-.1487.0024-.2207-.013a1.3116,1.3116,0,0,0-.2337-.0649c-.0875,0-.1462.0568-.2265.078a.9847.9847,0,0,0-.26.0842.9283.9283,0,0,0-.24.2856c-.0614.0859-.1549.13-.1818.2337C176.31,136.4469,176.3666,136.5581,176.3666,136.6317Z"/><path class="cls-11" d="M202.2361,136.6949c0,.1452-.0744.31-.0288.441.0518.1477.226.2258.3259.345.11.1313.1715.3191.3259.4026a1.2351,1.2351,0,0,0,.4889.0671c.055.0063.2116.0958.2683.0958a1.1918,1.1918,0,0,0,.556-.2108c.1315-.0644.338-.0733.4409-.1726a1.3242,1.3242,0,0,0,.23-.5751,1.3826,1.3826,0,0,0,.1438-.4025c0-.1038-.1007-.2291-.1246-.3259-.0319-.129-.0081-.2818-.0767-.393-.0887-.1439-.2842-.1661-.4217-.2684-.0753-.056-.086-.228-.1726-.2684-.0955-.0446-.2194.0037-.3258-.0191a1.9287,1.9287,0,0,0-.3451-.0959c-.1291,0-.2158.0839-.3344.1153a1.4522,1.4522,0,0,0-.3845.1243,1.3679,1.3679,0,0,0-.3546.4218c-.0906.1268-.2288.1919-.2684.345C202.1525,136.4221,202.2361,136.5863,202.2361,136.6949Z"/><path class="cls-11" d="M229.3758,121.0227c0,.1451-.0744.31-.0287.4409.0517.1478.226.2258.3259.3451.11.1313.1715.3191.3259.4025a1.2307,1.2307,0,0,0,.4888.0671c.055.0064.2116.0959.2684.0959a1.1915,1.1915,0,0,0,.5559-.2109c.1316-.0643.3381-.0733.4409-.1725a1.3236,1.3236,0,0,0,.23-.5751,1.3859,1.3859,0,0,0,.1437-.4026c0-.1038-.1007-.229-.1246-.3259-.0318-.129-.0081-.2817-.0767-.393-.0886-.1439-.2842-.166-.4217-.2683-.0752-.056-.086-.228-.1725-.2684-.0956-.0446-.2195.0036-.3259-.0192a1.9368,1.9368,0,0,0-.3451-.0958c-.1291,0-.2158.0838-.3344.1152a1.456,1.456,0,0,0-.3845.1244,1.37,1.37,0,0,0-.3546.4217c-.0906.1268-.2287.1919-.2684.3451C229.2922,120.75,229.3758,120.9141,229.3758,121.0227Z"/><path class="cls-11" d="M223.001,129.7512c0,.0983-.05.21-.0194.2986.035.1.153.1529.2207.2337.0744.0889.1161.2161.2207.2726a.8343.8343,0,0,0,.331.0454c.0372.0043.1433.0649.1818.0649a.8068.8068,0,0,0,.3764-.1428c.0891-.0436.229-.05.2986-.1168a.8961.8961,0,0,0,.1558-.3895.9379.9379,0,0,0,.0974-.2726c0-.07-.0682-.1551-.0844-.2207-.0216-.0874-.0055-.1908-.0519-.2661-.06-.0975-.1925-.1125-.2856-.1818-.051-.0379-.0583-.1544-.1169-.1817-.0647-.03-.1486.0024-.2207-.013a1.3093,1.3093,0,0,0-.2337-.0649c-.0874,0-.1461.0568-.2264.078a.9847.9847,0,0,0-.26.0842.9278.9278,0,0,0-.24.2857c-.0613.0858-.1549.13-.1817.2336C222.9444,129.5664,223.001,129.6776,223.001,129.7512Z"/><path class="cls-11" d="M201.6251,152.1741c0,.1248.0641.2669.0248.3792-.0445.127-.1944.1942-.28.2967-.0946.113-.1475.2745-.28.3463a1.0623,1.0623,0,0,1-.42.0577c-.0473.0054-.182.0824-.2309.0824a1.0248,1.0248,0,0,1-.4781-.1813c-.1132-.0554-.2908-.0631-.3792-.1484a1.1387,1.1387,0,0,1-.1979-.4947,1.1908,1.1908,0,0,1-.1236-.3462c0-.0892.0866-.197.1071-.28.0274-.1109.007-.2423.066-.338.0763-.1238.2444-.1428.3627-.2308.0647-.0481.0739-.1961.1484-.2308.0822-.0384.1888.0031.28-.0165a1.6607,1.6607,0,0,1,.2968-.0825c.111,0,.1856.0722.2876.0992a1.25,1.25,0,0,1,.3307.1069,1.1787,1.1787,0,0,1,.305.3628c.0779.109.1967.165.2308.2967C201.6971,151.9394,201.6251,152.0806,201.6251,152.1741Z"/><path class="cls-11" d="M212.2074,158.8022c0,.0983.05.21.0194.2986-.035.1-.153.1529-.2207.2336-.0744.089-.1161.2161-.2207.2727a.8343.8343,0,0,1-.331.0454c-.0372.0043-.1433.0649-.1818.0649a.8068.8068,0,0,1-.3764-.1428c-.0891-.0436-.229-.05-.2986-.1168a.8961.8961,0,0,1-.1558-.3895.9379.9379,0,0,1-.0974-.2726c0-.07.0682-.1551.0844-.2207.0216-.0874.0055-.1908.0519-.2662.06-.0974.1925-.1124.2856-.1817.051-.0379.0583-.1544.1169-.1818.0647-.03.1486.0025.2207-.0129a1.3012,1.3012,0,0,1,.2337-.065c.0874,0,.1461.0568.2264.0781a.9847.9847,0,0,1,.26.0842.9286.9286,0,0,1,.24.2856c.0613.0859.1549.13.1817.2337C212.264,158.6174,212.2074,158.7286,212.2074,158.8022Z"/><path class="cls-11" d="M219.0879,150.01c0,.0983.05.21.0194.2986-.035.1-.153.1529-.2207.2337-.0744.0889-.1161.2161-.2207.2726a.8343.8343,0,0,1-.331.0455c-.0373.0042-.1433.0649-.1818.0649a.8068.8068,0,0,1-.3764-.1428c-.0891-.0436-.229-.05-.2986-.1169a.8957.8957,0,0,1-.1558-.3894.9385.9385,0,0,1-.0974-.2727c0-.07.0682-.1551.0844-.2207.0216-.0873.0055-.1908.0519-.2661.06-.0975.1925-.1125.2856-.1818.051-.0379.0582-.1543.1169-.1817.0647-.03.1486.0025.2207-.013a1.3093,1.3093,0,0,1,.2337-.0649c.0874,0,.1461.0568.2264.0781a.9811.9811,0,0,1,.26.0842.9275.9275,0,0,1,.24.2856c.0613.0859.1549.13.1817.2337C219.1445,149.8256,219.0879,149.9369,219.0879,150.01Z"/><path class="cls-11" d="M223.2926,160.3312c0,.0982.05.21.0195.2986-.035.1-.1531.1529-.2207.2336-.0745.089-.1162.2161-.2207.2727a.8351.8351,0,0,1-.3311.0454c-.0372.0043-.1432.0649-.1817.0649a.8072.8072,0,0,1-.3765-.1428c-.0891-.0436-.2289-.05-.2986-.1168a.8961.8961,0,0,1-.1558-.3895.9377.9377,0,0,1-.0973-.2726c0-.07.0681-.1551.0843-.2207.0216-.0874.0055-.1908.052-.2662.06-.0974.1924-.1124.2856-.1817.0509-.0379.0582-.1544.1168-.1818.0647-.03.1487.0025.2207-.0129a1.3035,1.3035,0,0,1,.2337-.065c.0875,0,.1461.0568.2265.0781a.9828.9828,0,0,1,.26.0842.9272.9272,0,0,1,.24.2856c.0613.0859.1549.13.1818.2337C223.3493,160.1464,223.2926,160.2576,223.2926,160.3312Z"/><path class="cls-11" d="M197.4231,160.3944c0,.1452.0744.31.0287.4409-.0517.1478-.226.2258-.3259.3451-.11.1313-.1715.3191-.3259.4026a1.2343,1.2343,0,0,1-.4888.0671c-.055.0063-.2116.0958-.2684.0958a1.1915,1.1915,0,0,1-.5559-.2109c-.1316-.0643-.3381-.0733-.4409-.1725a1.3243,1.3243,0,0,1-.23-.5751,1.3859,1.3859,0,0,1-.1437-.4026c0-.1037.1007-.229.1246-.3258.0318-.129.0081-.2818.0767-.393.0886-.1439.2842-.1661.4217-.2684.0752-.056.086-.228.1725-.2684.0956-.0446.2195.0037.3259-.0192a1.9368,1.9368,0,0,1,.3451-.0958c.1291,0,.2158.0839.3344.1153a1.4522,1.4522,0,0,1,.3845.1243,1.3679,1.3679,0,0,1,.3546.4218c.0906.1268.2287.1919.2684.345C197.5067,160.1216,197.4231,160.2858,197.4231,160.3944Z"/><path class="cls-11" d="M170.2833,144.7222c0,.1451.0745.31.0288.4409-.0517.1478-.226.2258-.3259.3451-.11.1313-.1715.319-.3259.4025a1.231,1.231,0,0,1-.4888.0671c-.055.0063-.2116.0959-.2684.0959a1.1915,1.1915,0,0,1-.5559-.2109c-.1316-.0644-.3381-.0733-.4409-.1725a1.3236,1.3236,0,0,1-.23-.5751,1.3861,1.3861,0,0,1-.1438-.4026c0-.1038.1007-.229.1246-.3259.0319-.129.0082-.2817.0767-.393.0887-.1439.2842-.166.4218-.2683.0752-.056.0859-.228.1725-.2684.0956-.0446.22.0036.3259-.0192a1.9358,1.9358,0,0,1,.345-.0958c.1292,0,.2158.0838.3344.1152a1.4548,1.4548,0,0,1,.3845.1244,1.3689,1.3689,0,0,1,.3547.4217c.0905.1268.2287.1919.2683.3451C170.367,144.4493,170.2833,144.6136,170.2833,144.7222Z"/><path class="cls-11" d="M176.6581,153.4507c0,.0983.05.21.02.2986-.035.1-.153.1529-.2207.2336-.0745.089-.1161.2161-.2207.2727a.8348.8348,0,0,1-.331.0454c-.0373.0043-.1433.0649-.1818.0649a.8076.8076,0,0,1-.3765-.1428c-.0891-.0436-.2289-.05-.2986-.1168a.8972.8972,0,0,1-.1557-.3895.9379.9379,0,0,1-.0974-.2726c0-.07.0682-.1551.0844-.2207.0215-.0874.0055-.1908.0519-.2662.06-.0974.1925-.1124.2856-.1817.051-.0379.0582-.1544.1169-.1818.0647-.03.1486.0025.2207-.0129a1.3,1.3,0,0,1,.2336-.065c.0875,0,.1462.0568.2265.0781a.9847.9847,0,0,1,.26.0842.9269.9269,0,0,1,.24.2856c.0614.0859.155.13.1818.2337C176.7148,153.2659,176.6581,153.3771,176.6581,153.4507Z"/><path class="cls-11" d="M213.4749,149.8806c0,.1248.064.2669.0247.3792-.0445.127-.1944.1942-.28.2967-.0946.113-.1475.2745-.28.3463a1.0617,1.0617,0,0,1-.42.0577c-.0473.0054-.182.0824-.2308.0824a1.0251,1.0251,0,0,1-.4782-.1813c-.1131-.0554-.2907-.0631-.3792-.1484a1.1386,1.1386,0,0,1-.1978-.4947,1.1882,1.1882,0,0,1-.1237-.3462c0-.0892.0866-.197.1072-.28.0274-.1109.007-.2423.0659-.338.0763-.1238.2445-.1428.3628-.2308.0647-.0481.0739-.1961.1483-.2308.0822-.0384.1888.0031.28-.0165a1.663,1.663,0,0,1,.2968-.0825c.1111,0,.1856.0722.2876.0992a1.25,1.25,0,0,1,.3307.1069,1.1774,1.1774,0,0,1,.305.3628c.0779.109.1967.165.2308.2967C213.5468,149.6459,213.4749,149.7871,213.4749,149.8806Z"/><path class="cls-11" d="M224.0571,156.5087c0,.0983.05.21.02.2986-.035.1-.1531.1529-.2207.2336-.0745.089-.1162.2161-.2207.2727a.8351.8351,0,0,1-.3311.0454c-.0372.0043-.1432.0649-.1817.0649a.8072.8072,0,0,1-.3765-.1428c-.0891-.0436-.2289-.05-.2986-.1168a.8961.8961,0,0,1-.1558-.3895.9377.9377,0,0,1-.0973-.2726c0-.07.0681-.1551.0843-.2207.0216-.0874.0055-.1908.052-.2662.06-.0974.1924-.1124.2856-.1817.0509-.0379.0582-.1544.1168-.1818.0647-.03.1487.0025.2207-.0129a1.3035,1.3035,0,0,1,.2337-.065c.0875,0,.1461.0568.2264.0781a.9823.9823,0,0,1,.26.0842.9272.9272,0,0,1,.24.2856c.0613.0859.1549.13.1818.2337C224.1138,156.3239,224.0571,156.4351,224.0571,156.5087Z"/><path class="cls-11" d="M257.3128,134.72c0,.0983.05.21.0195.2986-.035.1-.153.1529-.2207.2337-.0745.0889-.1161.2161-.2207.2726a.8348.8348,0,0,1-.331.0455c-.0373.0042-.1433.0649-.1818.0649a.8072.8072,0,0,1-.3765-.1428c-.0891-.0436-.2289-.05-.2986-.1169a.8968.8968,0,0,1-.1557-.3894.9356.9356,0,0,1-.0974-.2727c0-.07.0682-.1551.0844-.2207.0215-.0873.0055-.1907.0519-.2661.06-.0975.1925-.1125.2856-.1817.051-.038.0582-.1544.1168-.1818.0648-.03.1487.0025.2207-.013a1.3116,1.3116,0,0,1,.2337-.0649c.0875,0,.1462.0568.2265.0781a.9847.9847,0,0,1,.26.0842.9272.9272,0,0,1,.24.2856c.0614.0859.1549.13.1818.2337C257.37,134.5356,257.3128,134.6469,257.3128,134.72Z"/><path class="cls-11" d="M235.1424,158.0377c0,.0983.05.21.0194.2986-.035.1-.153.1529-.2207.2336-.0744.089-.1161.2161-.2207.2727a.8346.8346,0,0,1-.331.0454c-.0373.0043-.1433.0649-.1818.0649a.8076.8076,0,0,1-.3765-.1428c-.089-.0436-.2289-.05-.2985-.1168a.8961.8961,0,0,1-.1558-.3895.9379.9379,0,0,1-.0974-.2726c0-.07.0682-.1551.0844-.2207.0216-.0874.0055-.1908.0519-.2662.06-.0974.1925-.1124.2856-.1817.051-.0379.0582-.1544.1169-.1818.0647-.03.1486.0025.2207-.0129a1.3,1.3,0,0,1,.2336-.065c.0875,0,.1462.0568.2265.0781a.9847.9847,0,0,1,.26.0842.9286.9286,0,0,1,.24.2856c.0613.0859.1549.13.1817.2337C235.199,157.8529,235.1424,157.9641,235.1424,158.0377Z"/><path class="cls-11" d="M209.2728,158.1009c0,.1452.0745.31.0288.4409-.0517.1478-.226.2258-.3259.3451-.11.1313-.1715.3191-.3259.4026a1.2346,1.2346,0,0,1-.4888.0671c-.055.0063-.2116.0958-.2684.0958a1.1919,1.1919,0,0,1-.556-.2109c-.1315-.0643-.338-.0732-.4409-.1725a1.3242,1.3242,0,0,1-.23-.5751,1.3861,1.3861,0,0,1-.1438-.4026c0-.1037.1007-.229.1246-.3258.0319-.129.0081-.2818.0767-.393.0887-.1439.2842-.1661.4217-.2684.0753-.056.086-.228.1726-.2684.0955-.0446.22.0037.3259-.0192a1.9334,1.9334,0,0,1,.345-.0958c.1292,0,.2158.0839.3344.1153a1.4522,1.4522,0,0,1,.3845.1243,1.3679,1.3679,0,0,1,.3546.4218c.0906.1268.2288.1919.2684.345C209.3565,157.8281,209.2728,157.9923,209.2728,158.1009Z"/><path class="cls-11" d="M182.1331,142.4287c0,.1451.0744.31.0287.4409-.0517.1478-.226.2258-.3259.3451-.11.1313-.1714.3191-.3258.4025a1.2315,1.2315,0,0,1-.4889.0671c-.055.0063-.2116.0959-.2684.0959a1.1915,1.1915,0,0,1-.5559-.2109c-.1315-.0644-.3381-.0733-.4409-.1725a1.3235,1.3235,0,0,1-.23-.5751,1.3832,1.3832,0,0,1-.1438-.4026c0-.1038.1007-.229.1246-.3259.0318-.129.0081-.2817.0767-.393.0886-.1439.2842-.166.4217-.2683.0752-.056.086-.228.1725-.2684.0956-.0446.22.0036.3259-.0192a1.9368,1.9368,0,0,1,.3451-.0958c.1291,0,.2158.0838.3344.1152a1.456,1.456,0,0,1,.3845.1244,1.3686,1.3686,0,0,1,.3546.4217c.0906.1268.2288.1919.2684.3451C182.2167,142.1558,182.1331,142.32,182.1331,142.4287Z"/><path class="cls-11" d="M188.5079,151.1572c0,.0983.05.21.0195.2986-.0351.1-.1531.1529-.2207.2336-.0745.089-.1162.2161-.2207.2727a.8351.8351,0,0,1-.3311.0454c-.0372.0043-.1433.0649-.1817.0649a.8068.8068,0,0,1-.3765-.1428c-.0891-.0436-.229-.05-.2986-.1168a.8961.8961,0,0,1-.1558-.3895.9379.9379,0,0,1-.0974-.2726c0-.07.0682-.1551.0844-.2207.0216-.0874.0055-.1908.0519-.2662.06-.0974.1925-.1124.2857-.1817.0509-.0379.0582-.1544.1168-.1818.0647-.03.1486.0025.2207-.0129a1.3012,1.3012,0,0,1,.2337-.065c.0874,0,.1461.0568.2264.0781a.9835.9835,0,0,1,.26.0842.9272.9272,0,0,1,.24.2856c.0613.0859.1549.13.1817.2337C188.5645,150.9724,188.5079,151.0836,188.5079,151.1572Z"/><path class="cls-11" d="M217.2974,141.8533c0,.1248.064.2669.0247.3792-.0445.1271-.1944.1942-.28.2968-.0946.1129-.1475.2744-.28.3462a1.0581,1.0581,0,0,1-.42.0577c-.0473.0055-.182.0825-.2308.0825a1.0253,1.0253,0,0,1-.4782-.1814c-.1131-.0553-.2907-.063-.3792-.1484a1.1387,1.1387,0,0,1-.1978-.4946,1.1892,1.1892,0,0,1-.1237-.3462c0-.0893.0866-.197.1072-.28.0274-.111.007-.2423.0659-.338.0763-.1238.2445-.1428.3628-.2308.0647-.0482.0739-.1961.1483-.2309.0822-.0383.1888.0032.28-.0165a1.6712,1.6712,0,0,1,.2968-.0824c.1111,0,.1856.0721.2876.0991a1.2541,1.2541,0,0,1,.3307.107,1.1781,1.1781,0,0,1,.305.3627c.0779.1091.1967.1651.2308.2968C217.3693,141.6186,217.2974,141.76,217.2974,141.8533Z"/><path class="cls-11" d="M227.88,148.4814c0,.0983.05.21.0195.2986-.035.1-.1531.1529-.2207.2337-.0745.0889-.1162.2161-.2207.2726a.8351.8351,0,0,1-.3311.0455c-.0372.0042-.1433.0649-.1817.0649a.8072.8072,0,0,1-.3765-.1428c-.0891-.0436-.2289-.05-.2986-.1169a.8957.8957,0,0,1-.1558-.3894.9383.9383,0,0,1-.0973-.2727c0-.07.0681-.1551.0843-.2207.0216-.0873.0055-.1908.052-.2661.06-.0975.1924-.1125.2856-.1818.0509-.0379.0582-.1543.1168-.1817.0647-.03.1487.0025.2207-.013a1.3116,1.3116,0,0,1,.2337-.0649c.0874,0,.1461.0568.2264.0781a.9787.9787,0,0,1,.26.0842.9261.9261,0,0,1,.24.2856c.0613.0859.1549.13.1818.2337C227.9363,148.2966,227.88,148.4079,227.88,148.4814Z"/><path class="cls-11" d="M234.76,139.69c0,.0983.05.21.0195.2986-.035.1-.1531.1529-.2207.2337-.0745.0889-.1162.216-.2207.2726a.8351.8351,0,0,1-.3311.0454c-.0372.0043-.1433.0649-.1817.0649a.8072.8072,0,0,1-.3765-.1428c-.0891-.0436-.229-.05-.2986-.1168a.8961.8961,0,0,1-.1558-.3895.9379.9379,0,0,1-.0974-.2726c0-.07.0682-.1551.0844-.2207.0216-.0874.0055-.1908.052-.2661.06-.0975.1924-.1125.2856-.1818.0509-.0379.0582-.1544.1168-.1818.0647-.03.1486.0025.2207-.0129a1.3116,1.3116,0,0,1,.2337-.0649c.0874,0,.1461.0567.2264.078a.9823.9823,0,0,1,.26.0842.9272.9272,0,0,1,.24.2856c.0613.0859.1549.13.1818.2337C234.8167,139.5049,234.76,139.6161,234.76,139.69Z"/><path class="cls-11" d="M238.9649,150.01c0,.0983.05.21.0194.2986-.035.1-.153.1529-.2207.2337-.0744.0889-.1161.2161-.2207.2726a.8348.8348,0,0,1-.331.0455c-.0373.0042-.1433.0649-.1818.0649a.8076.8076,0,0,1-.3765-.1428c-.089-.0436-.2289-.05-.2985-.1169a.8957.8957,0,0,1-.1558-.3894.9385.9385,0,0,1-.0974-.2727c0-.07.0682-.1551.0844-.2207.0216-.0873.0055-.1908.0519-.2661.06-.0975.1925-.1125.2856-.1818.051-.0379.0582-.1543.1169-.1817.0647-.03.1486.0025.2207-.013a1.3082,1.3082,0,0,1,.2336-.0649c.0875,0,.1462.0568.2265.0781a.9811.9811,0,0,1,.26.0842.9258.9258,0,0,1,.24.2856c.0614.0859.155.13.1818.2337C239.0215,149.8256,238.9649,149.9369,238.9649,150.01Z"/><path class="cls-11" d="M213.0953,150.0737c0,.1451.0745.31.0288.4409-.0517.1477-.226.2258-.3259.3451-.11.1313-.1715.319-.3259.4025a1.2312,1.2312,0,0,1-.4889.0671c-.055.0063-.2115.0959-.2683.0959a1.1919,1.1919,0,0,1-.556-.2109c-.1315-.0644-.338-.0733-.4409-.1725a1.3247,1.3247,0,0,1-.23-.5751,1.3832,1.3832,0,0,1-.1438-.4026c0-.1038.1007-.229.1246-.3259.0319-.129.0081-.2817.0767-.393.0887-.1439.2842-.166.4217-.2684.0753-.0559.086-.2279.1726-.2683.0955-.0446.2194.0036.3259-.0192a1.9337,1.9337,0,0,1,.345-.0959c.1291,0,.2158.0839.3344.1153a1.4524,1.4524,0,0,1,.3845.1244,1.3686,1.3686,0,0,1,.3546.4217c.0906.1268.2288.1919.2684.3451C213.1789,149.8008,213.0953,149.9651,213.0953,150.0737Z"/><path class="cls-11" d="M185.9556,134.4015c0,.1451.0744.31.0287.4409-.0517.1477-.226.2258-.3259.345-.11.1313-.1715.3191-.3258.4026a1.2333,1.2333,0,0,1-.4889.0671c-.055.0063-.2116.0958-.2684.0958a1.1914,1.1914,0,0,1-.5559-.2108c-.1315-.0644-.3381-.0733-.4409-.1726a1.323,1.323,0,0,1-.23-.5751,1.3826,1.3826,0,0,1-.1438-.4025c0-.1038.1007-.2291.1246-.3259.0318-.129.0081-.2818.0767-.393.0886-.1439.2842-.1661.4217-.2684.0752-.056.086-.228.1725-.2684.0956-.0446.2195.0037.3259-.0191a1.9287,1.9287,0,0,1,.3451-.0959c.1291,0,.2158.0839.3344.1153a1.4522,1.4522,0,0,1,.3845.1243,1.3679,1.3679,0,0,1,.3546.4218c.0906.1268.2288.1919.2684.345C186.0392,134.1286,185.9556,134.2928,185.9556,134.4015Z"/><path class="cls-11" d="M192.33,143.13c0,.0983.05.21.0195.2986-.0351.1-.1531.1529-.2207.2337-.0745.0889-.1162.2161-.2207.2726a.8351.8351,0,0,1-.3311.0455c-.0372.0042-.1433.0649-.1817.0649a.8068.8068,0,0,1-.3765-.1428c-.0891-.0436-.229-.05-.2986-.1169a.8957.8957,0,0,1-.1558-.3894.9385.9385,0,0,1-.0974-.2727c0-.07.0682-.1551.0844-.2207.0216-.0873.0055-.1908.0519-.2661.06-.0975.1925-.1125.2857-.1818.0509-.0379.0582-.1543.1168-.1817.0647-.03.1486.0025.2207-.013a1.3093,1.3093,0,0,1,.2337-.0649c.0874,0,.1461.0568.2264.0781a.9835.9835,0,0,1,.26.0842.9261.9261,0,0,1,.24.2856c.0613.0859.1549.13.1817.2337C192.387,142.9451,192.33,143.0564,192.33,143.13Z"/><path class="cls-12" d="M246.4823,300.0633c-6.1485,2.0337-8.6611,3.2025-17.4219,3.5475.9564-31.777,31.1789-136.9633,34.2122-138.4246-.4707,32.7206-7.5217,109.5992-10.4835,126.5607-.5234,2.9975-.81,5.2225-3.7032,7.0767A11.5548,11.5548,0,0,1,246.4823,300.0633Z"/><path class="cls-13" d="M263.6548,150.6823a63.1378,63.1378,0,0,1-11.8743,4.3953c-5.3269-25.4407-11.4429-33.4679-24.446-47.8107C248.0624,111.3992,263.6548,129.2667,263.6548,150.6823Z"/></svg>