<svg id="Layer_1" data-name="Layer 1" xmlns="http://www.w3.org/2000/svg" viewBox="0 0 420 420"><defs><style>.cls-1,.cls-11{fill:#fff;}.cls-11,.cls-2{opacity:0.3;}.cls-3{fill:#c20ca7;}.cls-4{fill:#d88d2d;}.cls-5{fill:#b509e8;}.cls-6{fill:#f30685;}.cls-7{fill:#df9227;}.cls-8{fill:#ec9f2d;}.cls-9{fill:#8d173a;}.cls-10{fill:#f997a4;}</style></defs><title>kort sodavandsis</title><rect class="cls-1" x="60.5" y="55" width="299" height="299" rx="69.1376"/><ellipse class="cls-2" cx="195.6167" cy="321.4435" rx="57.3299" ry="12.0565"/><path class="cls-3" d="M147.4912,169.6468c0,9.4754-.4738,9.4754-.4738,13.7394-3.3164-2.3689-10.1861-9.2386-12.4572-13.95-5.4338-11.2717-3.651-18.2667-4.1248-20.6356C131.8567,153.0648,140.8584,164.4353,147.4912,169.6468Z"/><path class="cls-3" d="M130.6723,149.9853s-8.0423-12.463-4.9746-14.9239c.5387-.4321,2.3689,1.4214,2.3689,1.4214s1.296-6.05,2.8426-5.6853c1.7291.4082,0,7.1066,0,7.1066s3.8057-6.4544,5.4484-5.4484C140.2864,134.8619,130.6723,149.9853,130.6723,149.9853Z"/><path class="cls-3" d="M265.3532,189.3333c-.6084-9.4558-.1356-9.4863-.4094-13.7414a38.014,38.014,0,0,1,14.0191,12.7689c6.4379,10.73,4.1246,18.3468,4.75,20.68C282.02,204.8772,272.307,194.1082,265.3532,189.3333Z"/><path class="cls-3" d="M283.4912,206.9239s8.826,11.9208,5.9226,14.5736c-.51.4658-2.4552-1.2663-2.4552-1.2663s-.9049,6.1211-2.4717,5.856c-1.7518-.2963-.4563-7.0919-.4563-7.0919s-3.3834,6.6855-5.0873,5.787C274.868,222.6334,283.4912,206.9239,283.4912,206.9239Z"/><path class="cls-4" d="M208.3709,329.0711h-1.8951c-11.8443-.4738-13.8924-10.2322-13.7394-16.1083,0-13.0454,1.6582-19.6615,4.5009-31.5058,3.79.4738,15.6345.9475,19.8984.4738,1.8951,10.4229,6.3959,23.1681,7.3435,28.6632C225.3868,317.8379,224.9529,329.0711,208.3709,329.0711Z"/><path class="cls-5" d="M267.8293,270.0865c1.1937,10.1468,2.0115,15.7818,1.2691,19.0367a4.2889,4.2889,0,0,1-6.72,2.5049c-2.7818-2.1587-.6658-6.7613,1.04-12.2847a4.3368,4.3368,0,0,0-5.51-5.3973c-28.4484,9.4263-42.9821,9.5436-50.7224,9.406a146.6414,146.6414,0,0,1-28.65-3.7286,134.9924,134.9924,0,0,1-25.0214-8.4988,4.3362,4.3362,0,0,1-2.5178-3.46c-1.5763-13.8949-3.1034-34.6673-3.7585-50.8007a4.3324,4.3324,0,0,1,5.84-4.2336c6.8712,2.55,17.8577,6.5184,26.6285,8.6577,19.4247,4.7377,42.5015,1.6384,55.4313-.9476,11.2935-2.2587,17.7081-5.1163,24.9319-7.8582a4.3317,4.3317,0,0,1,5.8674,4.0424C265.9661,231.8537,266.18,256.8915,267.8293,270.0865Z"/><path class="cls-3" d="M266.1711,215.3658c-2.8426,9.0017-21.7935,4.2639-27.4788,5.2115-7.1816,1.1969-13.7394,6.6328-35.0591,5.6853-6.9411-.9888-23.2148-2.3689-31.7427-1.8951-7.0279.39-12.0231-8.9106-15.8714-9.7124-6.38-.4361,4.264,18.4772-5.2115,18.4772-6.8371,0-3.79-17.5225-3.79-22.7411-1.6582-19.6615,0-49.2723,3.79-67.2756,19.8984.9475,80.0675,0,112.7578,0C266.408,159.6976,265.6973,201.6264,266.1711,215.3658Z"/><path class="cls-6" d="M263.5654,143.1156c2.3688,12.318,5.6852,22.741-1.4214,22.741-11.2614,0,4.264-21.7935-7.58-19.4246-4.264.9475-8.5279,7.1066-18.4771,6.6328-2.4131-.1149-7.58-1.4217-12.7919-.9476-13.035,1.1859-10.0046,1.4361-17.0558,3.3164-9.9492,2.3689-14.6869,1.8951-24.1623-2.3688-14.687-6.1591-19.0438-9.2506-31.269-9.9492,5.6853-34.5854,22.2673-69.6445,57.8-69.6445C239.403,73.4711,257.88,89.5793,263.5654,143.1156Z"/><path class="cls-7" d="M206.95,328.1235l-3.79-.4737c-7.1066-1.4214-7.58-12.3181-8.0541-16.1083,0-13.0455,1.4213-16.1082,5.6853-23.2148,1.9652-3.2754,6.9822-1.615,10.4229.9475,8.4964,6.3279,8.0542,13.93,9.0017,19.4247C221.1229,315.9429,223.5316,328.1235,206.95,328.1235Z"/><path class="cls-8" d="M204.1069,322.912,201.53,322.59c-4.8324-.9665-5.1546-8.3762-5.4768-10.9535,0-8.8709.9665-10.9535,3.866-15.7859,1.3363-2.2273,4.7478-1.0983,7.0875.6443,5.7775,4.3029,5.4768,9.472,6.1211,13.2086C213.7446,314.6293,215.3826,322.912,204.1069,322.912Z"/><circle class="cls-1" cx="227.7956" cy="170.8312" r="11.1336"/><path d="M227.7956,163.2509a7.5515,7.5515,0,0,0-2.4749.4216,1.0767,1.0767,0,0,1,.2541.2035c.6542.7395.1568,2.2483-1.111,3.37s-2.8261,1.4313-3.48.6918a1.0728,1.0728,0,0,1-.1193-.1674,7.5783,7.5783,0,1,0,6.9315-4.5194Z"/><circle class="cls-1" cx="186.8143" cy="170.5943" r="11.1336"/><path d="M186.8143,163.014a7.5541,7.5541,0,0,0-2.4749.4216,1.0747,1.0747,0,0,1,.2541.2035c.6543.74.1568,2.2484-1.111,3.37s-2.8261,1.4313-3.48.6918a1.0668,1.0668,0,0,1-.1194-.1674,7.5783,7.5783,0,1,0,6.9315-4.5194Z"/><path class="cls-9" d="M190.6793,199.2576c0-7.9806,7.7941-1.6582,17.4547-1.6582s17.53-6.3224,17.53,1.6582-7.8315,14.45-17.4922,14.45S190.6793,207.2381,190.6793,199.2576Z"/><path class="cls-1" d="M215.9513,203.0477H201.7381a3.3006,3.3006,0,0,1-3.0795-3.3164h0c-.2294-2.1788.6295-3.0766,1.1844-3.3164,6.2739,1.37,9.0017,1.8951,16.582,0a3.1635,3.1635,0,0,1,1.6582,3.3164h0C218.0832,201.4251,216.8988,203.0477,215.9513,203.0477Z"/><path class="cls-10" d="M195.5791,209.2068a23.5568,23.5568,0,0,1,12.318-3.3164,27.3887,27.3887,0,0,1,12.555,3.5533c-1.1844,1.1844-4.5008,4.027-12.2807,4.2639A17.1374,17.1374,0,0,1,195.5791,209.2068Z"/><path class="cls-11" d="M264.265,270.2133a175.0145,175.0145,0,0,1-18.7,6.8577c-.492-47.4046,9.35-169.446-18.7759-197.0214C276.6092,100.8337,257.3431,205.4,264.265,270.2133Z"/></svg>