<svg id="Layer_1" data-name="Layer 1" xmlns="http://www.w3.org/2000/svg" viewBox="0 0 420 420"><defs><style>.cls-1{fill:#fff;}.cls-2{opacity:0.3;}.cls-3{fill:#df9227;}.cls-4{fill:none;stroke:#000;stroke-linecap:round;stroke-miterlimit:10;stroke-width:3px;}.cls-5,.cls-6,.cls-7{fill:#603813;}.cls-5{opacity:0.5;}.cls-7,.cls-9{opacity:0.7;}.cls-8,.cls-9{fill:#42210b;}</style></defs><title>kort cookie</title><rect class="cls-1" x="62.5" y="61" width="299" height="299" rx="69.1376"/><ellipse class="cls-2" cx="205.078" cy="311.3896" rx="76.6067" ry="16.1104"/><path class="cls-3" d="M307.33,187.438c0,9.9563,5.1076,21.2918,1.9727,30.2482-3.5477,10.136-15.504,15.4909-22.3573,23.6724-7.5448,9.0071-11.7652,21.8905-22.3573,27.6179-10.6866,5.7784-20.7751,3.1392-33.5359,4.6029-3.7734.4328-14.5158,6.5757-18.412,6.5757-15.6584,0-25.1159-8.0941-38.1389-14.4665-9.0251-4.4162-23.1931-5.0285-30.2481-11.8362-10.3412-9.9786-11.2-25.788-15.7816-39.4541-2.8978-8.6445-9.8636-18.0613-9.8636-27.6178,0-7.1194,6.9077-15.7133,8.5484-22.3573,2.1853-8.8493.5576-19.3276,5.2606-26.96,6.0833-9.8732,19.4985-11.3924,28.933-18.4119,5.1611-3.84,5.8971-15.6395,11.8362-18.4119,6.5561-3.0605,15.0571.2505,22.3573-1.3152,6.761-1.45,16.45-6.5757,23.6724-6.5757,8.8588,0,14.8042,5.7534,22.94,7.9074,9.0785,2.4037,18.6131,3.8385,26.3778,8.5318,10.9866,6.6408,17.0274,18.7092,24.33,28.933,6.2134,8.6988,15.6927,13.1655,18.4119,23.6725C313.0677,168.719,307.33,179.9867,307.33,187.438Z"/><path class="cls-3" d="M239.9291,269.21l8.77,44.8222c.02.1014.1756.18.4.2375a1.875,1.875,0,0,0,1.4854.7369h7.9227a1.885,1.885,0,0,0,1.885-1.885v-2.0763a1.885,1.885,0,0,0-1.885-1.8851h-7.3357L246.75,261.4144"/><path class="cls-3" d="M188.7165,265.2642l-8.7695,44.8222c-.02.1014-.1756.18-.4.2375a1.8749,1.8749,0,0,1-1.4854.7369h-7.9226a1.8851,1.8851,0,0,1-1.8851-1.885V307.1a1.8851,1.8851,0,0,1,1.8851-1.8851h7.3356l4.4208-47.7454"/><path class="cls-3" d="M302.9711,195.117c8.0914-2.8164,16.9108-8.8829,21.7318-14.8465,10.9183-13.5062,9.2078-24.4216,10.5168-27.5085-3.129,5.3968-15.3791,24.52-29.0354,23.5467"/><path class="cls-3" d="M334.5073,155.6294s14.43-14.6825,10.9515-18.8886c-.611-.7387-3.6189,1.2669-3.6189,1.2669s-.0631-8.5879-2.2678-8.5258c-2.4649.0694-1.9951,9.66-1.9951,9.66s-3.3609-9.8416-5.8762-8.9353C325.685,132.3738,334.5073,155.6294,334.5073,155.6294Z"/><path class="cls-3" d="M128.5656,174.4838c-8.01,3.0407-16.657,9.35-21.31,15.4459-10.538,13.8049-8.5242,24.6685-9.7468,27.7906,2.9775-5.4818,14.69-24.9383,28.3685-24.346"/><path class="cls-3" d="M98.1411,214.8342S84.1251,229.9128,87.72,234.0205c.6313.7213,3.5822-1.3672,3.5822-1.3672s.3022,8.5827,2.5043,8.4593c2.462-.138,1.7254-9.7115,1.7254-9.7115s3.6336,9.7442,6.1227,8.7683C107.6075,237.8351,98.1411,214.8342,98.1411,214.8342Z"/><circle class="cls-1" cx="241.573" cy="171.6564" r="15.4528"/><path d="M241.573,161.1353a10.4831,10.4831,0,0,1,3.435.5851,1.4971,1.4971,0,0,0-.3526.2825c-.9081,1.0265-.2177,3.1206,1.542,4.6773s3.9224,1.9866,4.8305.96a1.48,1.48,0,0,0,.1656-.2323,10.5182,10.5182,0,1,1-9.62-6.2727Z"/><circle class="cls-1" cx="192.5842" cy="171.3276" r="15.4528"/><path d="M192.5842,160.8065a10.4831,10.4831,0,0,0-3.4349.5852,1.4962,1.4962,0,0,1,.3526.2824c.9081,1.0265.2177,3.1206-1.542,4.6773s-3.9224,1.9866-4.8305.96a1.4745,1.4745,0,0,1-.1657-.2323,10.5182,10.5182,0,1,0,9.6205-6.2727Z"/><path class="cls-4" d="M225.7914,195.3288c0,6.537-3.5328,11.8363-7.8908,11.8363s-7.8908-5.2993-7.8908-11.8363"/><path class="cls-5" d="M284.7405,137.0245c-.3383,1.2448-1.4781,1.9024-2.1315,2.9071-.7193,1.1062-1.1216,2.6883-2.1314,3.3917-1.0188.71-4.581,1.3728-4.9524,1.3728-1.4928,0-5.8471-2.3941-6.52-3.23-.9859-1.2255-1.0678-3.167-1.5045-4.8453a13.996,13.996,0,0,1-.94-3.3916,30.2139,30.2139,0,0,1,1.3165-6.0566c.58-1.2125.1842-2.2484,1.0836-3.11a21.8572,21.8572,0,0,1,2.8031-1.4118c.625-.3759,1.4355.0308,2.1314-.1615a10.5278,10.5278,0,0,1,2.2569-.8076,15.3908,15.3908,0,0,1,4.7016,2.0189c1.0474.8155,1.6233,2.2976,2.32,3.5532.5924,1.0682,1.4961,1.6168,1.7553,2.9071A34.0273,34.0273,0,0,1,284.7405,137.0245Z"/><path class="cls-5" d="M159.5412,241.5832c-1.2965.5009-6.87.8-8.0941.3971-1.2356-.4065-1.5291-1.4165-2.4182-2.3225-.2629-.268-1.541-.6507-1.7643-.9619-.8973-1.2507-1.4119-6.4073-1.082-7.4976.4837-1.5981,2.1395-2.89,3.3509-4.3133a15.7033,15.7033,0,0,1,2.4135-2.9249,34.0282,34.0282,0,0,1,6.11-2.713,22.6392,22.6392,0,0,1,6.3078.4072,17.5893,17.5893,0,0,1,3.4888,3.066c.5076.7076-.1905,3.8385-.2517,4.8219-.0867,1.3914-.9423,6.8436-1.92,7.8737A38.5359,38.5359,0,0,1,159.5412,241.5832Z"/><path class="cls-5" d="M150.5168,153.4637c-.3735,1.3515-1.632,2.0654-2.3534,3.1563-.7942,1.201-1.2384,2.9188-2.3533,3.6824-1.1249.77-5.058,1.49-5.4681,1.49-1.6482,0-6.4559-2.5994-7.1985-3.507-1.0885-1.3305-1.179-3.4384-1.6612-5.2606-.305-1.1526-1.0382-2.4082-1.0382-3.6824a32.3418,32.3418,0,0,1,1.4535-6.5757c.64-1.3164.2034-2.441,1.1965-3.377a24.2941,24.2941,0,0,1,3.0949-1.5328c.69-.4081,1.5849.0334,2.3534-.1753a11.75,11.75,0,0,1,2.4917-.8768,17.1475,17.1475,0,0,1,5.1913,2.1919c1.1564.8854,1.7923,2.4945,2.5609,3.8577.6541,1.16,1.6519,1.7554,1.9381,3.1564A36.3328,36.3328,0,0,1,150.5168,153.4637Z"/><path class="cls-5" d="M307.7862,174.7251c-.241.9958-1.0529,1.5219-1.5183,2.3257-.5124.8849-.799,2.1506-1.5183,2.7133a11.1432,11.1432,0,0,1-3.5278,1.0983c-1.0634,0-4.1651-1.9153-4.6442-2.5842-.7023-.98-.7606-2.5335-1.0717-3.8762a12.287,12.287,0,0,1-.67-2.7133,26.7565,26.7565,0,0,1,.9378-4.8452c.4131-.97.1312-1.7987.7719-2.4884a14.9819,14.9819,0,0,1,1.9968-1.1294c.4452-.3007,1.0225.0246,1.5182-.1292.4592-.1425,1.1172-.6461,1.6076-.6461a10.3717,10.3717,0,0,1,3.3492,1.6151,9.2232,9.2232,0,0,1,1.6523,2.8426c.4219.8546,1.0657,1.2934,1.25,2.3257A30.539,30.539,0,0,1,307.7862,174.7251Z"/><path class="cls-5" d="M208.4129,261.3048c-.3373.818-1.474,1.25-2.1256,1.91-.7173.7269-1.1186,1.7666-2.1256,2.2288a24.2941,24.2941,0,0,1-4.9389.9022,20.15,20.15,0,0,1-6.5019-2.1227c-.9831-.8053-1.0648-2.0811-1.5-3.184-.2755-.6976-.9378-1.4576-.9378-2.2288a14.285,14.285,0,0,1,1.3129-3.98c.5784-.7968.1837-1.4775,1.0807-2.044a27.5575,27.5575,0,0,1,2.7954-.9278c.6233-.247,1.4316.02,2.1256-.1061a14.4029,14.4029,0,0,1,2.2507-.5307,20.2236,20.2236,0,0,1,4.6888,1.3267,8.045,8.045,0,0,1,2.3132,2.3349c.5907.702,1.4919,1.0625,1.7505,1.91A14.801,14.801,0,0,1,208.4129,261.3048Z"/><path class="cls-5" d="M253.8656,210.6721c-.2409.818-1.0529,1.25-1.5183,1.91-.5124.7269-.799,1.7666-1.5183,2.2288a12.9844,12.9844,0,0,1-3.5278.9022,11.8218,11.8218,0,0,1-4.6442-2.1227c-.7022-.8053-.7606-2.0812-1.0717-3.184a8.6516,8.6516,0,0,1-.67-2.2288,18.5468,18.5468,0,0,1,.9377-3.98c.4132-.7967.1313-1.4775.772-2.044a16.1088,16.1088,0,0,1,1.9967-.9277c.4452-.247,1.0225.02,1.5183-.1061a7.9153,7.9153,0,0,1,1.6076-.5307,11.4656,11.4656,0,0,1,3.3491,1.3267,7.4093,7.4093,0,0,1,1.6523,2.3349c.422.702,1.0657,1.0625,1.25,1.91A20.64,20.64,0,0,1,253.8656,210.6721Z"/><path class="cls-6" d="M249.9894,117.2975c-.1074.3912-.4694.5978-.6769.9136-.2285.3477-.3563.8449-.677,1.066a5.4715,5.4715,0,0,1-1.5729.4314,5.1144,5.1144,0,0,1-2.0707-1.0152,4.095,4.095,0,0,1-.4778-1.5227,4.3615,4.3615,0,0,1-.2987-1.066,9.4113,9.4113,0,0,1,.4181-1.9035c.1842-.3811.0585-.7066.3442-.9775a6.9547,6.9547,0,0,1,.89-.4438c.1985-.1181.4559.01.6769-.0507a3.3649,3.3649,0,0,1,.7168-.2538,4.9148,4.9148,0,0,1,1.4933.6345,3.5521,3.5521,0,0,1,.7367,1.1167c.1881.3357.4751.5081.5575.9137A10.5752,10.5752,0,0,1,249.9894,117.2975Z"/><path class="cls-6" d="M276.6007,177.7937c-.0766.2845-.3351.4348-.4832.6645-.1631.2528-.2543.6145-.4833.7752a3.85,3.85,0,0,1-1.1229.3138,3.6248,3.6248,0,0,1-1.4782-.7383,3.0185,3.0185,0,0,1-.3412-1.1075,3.2212,3.2212,0,0,1-.2132-.7752,6.9593,6.9593,0,0,1,.2985-1.3844c.1315-.2771.0418-.5139.2457-.7109a4.9365,4.9365,0,0,1,.6356-.3227c.1417-.0859.3255.007.4833-.0369a2.3683,2.3683,0,0,1,.5116-.1846,3.4769,3.4769,0,0,1,1.0661.4614,2.5889,2.5889,0,0,1,.5259.8122c.1343.2442.3392.3695.398.6645A7.84,7.84,0,0,1,276.6007,177.7937Z"/><path class="cls-6" d="M234.1932,244.8656c-.1193.3912-.5213.5979-.7518.9137-.2537.3476-.3956.8449-.7518,1.066a6.6147,6.6147,0,0,1-1.7468.4314,5.95,5.95,0,0,1-2.3-1.0152,3.8133,3.8133,0,0,1-.5307-1.5228,4.0341,4.0341,0,0,1-.3316-1.0659,8.6175,8.6175,0,0,1,.4643-1.9035c.2046-.3811.065-.7066.3822-.9776a8.118,8.118,0,0,1,.9887-.4437c.2205-.1181.5063.01.7518-.0507a4.02,4.02,0,0,1,.796-.2538,5.7955,5.7955,0,0,1,1.6584.6345,3.5485,3.5485,0,0,1,.8181,1.1167c.209.3357.5277.5081.6192.9136A9.5423,9.5423,0,0,1,234.1932,244.8656Z"/><path class="cls-6" d="M194.14,219.6589c-.0718.32-.3137.4891-.4524.7475-.1527.2844-.2381.6913-.4525.8722a3.1467,3.1467,0,0,1-1.0512.353,3.2216,3.2216,0,0,1-1.384-.8306,3.9054,3.9054,0,0,1-.3194-1.246,4.21,4.21,0,0,1-.2-.8721,9.2016,9.2016,0,0,1,.28-1.5574c.1231-.3118.0391-.5782.23-.8a4.3844,4.3844,0,0,1,.595-.3631c.1327-.0966.3047.0079.4525-.0415.1368-.0458.3329-.2076.479-.2076a1.8391,1.8391,0,0,1,1.49,1.4328c.1257.2747.3175.4157.3726.7475A10.5889,10.5889,0,0,1,194.14,219.6589Z"/><path class="cls-6" d="M167.8372,147.3264c-.0718.2134-.3137.3261-.4524.4984-.1527.19-.2381.4608-.4525.5814a4.3252,4.3252,0,0,1-1.0513.2353,3.7725,3.7725,0,0,1-1.3839-.5537,1.9556,1.9556,0,0,1-.3194-.8306,2.055,2.055,0,0,1-.2-.5815,4.3391,4.3391,0,0,1,.2795-1.0382c.1231-.2079.0391-.3855.23-.5332a5.1379,5.1379,0,0,1,.595-.2421c.1327-.0644.3047.0053.4525-.0276a2.5975,2.5975,0,0,1,.479-.1385,3.7168,3.7168,0,0,1,.9981.3461,1.959,1.959,0,0,1,.4923.6091c.1258.1832.3176.2772.3726.4984A4.7154,4.7154,0,0,1,167.8372,147.3264Z"/><path class="cls-6" d="M281.8613,205.4116c-.0767.2845-.3351.4348-.4833.6644-.1631.2529-.2543.6145-.4833.7753a3.85,3.85,0,0,1-1.1228.3138,3.6254,3.6254,0,0,1-1.4783-.7384,3.018,3.018,0,0,1-.3411-1.1074,3.2174,3.2174,0,0,1-.2132-.7753,6.9514,6.9514,0,0,1,.2985-1.3843c.1315-.2772.0417-.5139.2457-.711a4.9288,4.9288,0,0,1,.6355-.3227c.1417-.0859.3255.0071.4833-.0369a2.3744,2.3744,0,0,1,.5117-.1846,3.4732,3.4732,0,0,1,1.066.4615,2.5867,2.5867,0,0,1,.5259.8121c.1344.2442.3393.37.398.6645A7.8334,7.8334,0,0,1,281.8613,205.4116Z"/><path class="cls-6" d="M142.5013,189.8491c-.04.1423-.177.2174-.2553.3323-.0862.1264-.1344.3072-.2553.3876a2.1255,2.1255,0,0,1-.5933.1569,1.9582,1.9582,0,0,1-.781-.3692,1.4507,1.4507,0,0,1-.18-.5537,1.5434,1.5434,0,0,1-.1127-.3877,3.3172,3.3172,0,0,1,.1577-.6921c.07-.1386.0221-.257.13-.3555a2.6869,2.6869,0,0,1,.3358-.1614c.0749-.0429.172.0036.2553-.0184a1.3006,1.3006,0,0,1,.27-.0923,1.8932,1.8932,0,0,1,.5632.2307,1.2891,1.2891,0,0,1,.2779.4061c.0709.1221.1792.1848.21.3322A3.7162,3.7162,0,0,1,142.5013,189.8491Z"/><path class="cls-6" d="M214.1318,156.094c-.0767.2845-.3351.4348-.4833.6644-.1631.2529-.2543.6145-.4832.7753a3.85,3.85,0,0,1-1.1229.3138,3.6265,3.6265,0,0,1-1.4783-.7383,3.0185,3.0185,0,0,1-.3411-1.1075,3.2174,3.2174,0,0,1-.2132-.7753,6.9514,6.9514,0,0,1,.2985-1.3843c.1315-.2772.0417-.5139.2457-.711a4.9288,4.9288,0,0,1,.6355-.3227c.1417-.0859.3255.0071.4833-.0369a2.3744,2.3744,0,0,1,.5117-.1846,3.4732,3.4732,0,0,1,1.066.4615,2.5878,2.5878,0,0,1,.5259.8121c.1344.2442.3393.37.398.6645A7.8332,7.8332,0,0,1,214.1318,156.094Z"/><path class="cls-7" d="M188.6859,120.5853c-.3373,1.3515-3.2442,6.0751-4.2512,6.8387-1.0161.77-1.9752.4186-3.1884.6137-.3588.0577-1.38.8768-1.75.8768-1.4888,0-5.8311-2.5993-6.5019-3.507-.9832-1.3305-1.0649-3.4384-1.5-5.2606a16.2608,16.2608,0,0,1-.9378-3.6824,35.3227,35.3227,0,0,1,1.3129-6.5756,22.5716,22.5716,0,0,1,3.8761-4.91,16.4868,16.4868,0,0,1,4.3762-1.0521c.8423,0,2.9091,2.403,3.6473,3.0288,1.0446.8854,4.8467,4.7762,5.1052,6.1772A40.19,40.19,0,0,1,188.6859,120.5853Z"/><path class="cls-5" d="M283.0069,234.5964a22.4618,22.4618,0,0,1,1.8906,7.8666c-.1746,1.4475-1.1219,2.2738-1.8559,3.6394-.217.4038-.36,1.8813-.6275,2.2684-1.0743,1.5559-6.0924,4.7928-7.2346,5.0394-1.6741.3615-3.2614-.6084-4.8968-1.0654-1.0345-.2891-2.4227-.2255-3.3466-.8634a22.9841,22.9841,0,0,1-3.82-4.664,23.2907,23.2907,0,0,1-.7627-6.5089,28.8325,28.8325,0,0,1,2.3952-5.1c.6077-.88,3.8415-1.8372,4.8279-2.2955,1.3957-.6484,6.96-2.6742,8.1627-2.2431A24.6487,24.6487,0,0,1,283.0069,234.5964Z"/><path class="cls-5" d="M174.2194,194.0137c-.3373,1.067-1.4741,1.6306-2.1256,2.4918-.7173.9482-1.1186,2.3043-2.1256,2.9072a19.2745,19.2745,0,0,1-4.9389,1.1767c-1.4888,0-5.8311-2.0521-6.5019-2.7687-.9832-1.05-1.0649-2.7145-1.5-4.1531a10.7183,10.7183,0,0,1-.9378-2.9071,22.8122,22.8122,0,0,1,1.3129-5.1913c.5784-1.0393.1837-1.9272,1.0807-2.6661a23.3581,23.3581,0,0,1,2.7954-1.21c.6233-.3222,1.4315.0263,2.1256-.1385a11.6723,11.6723,0,0,1,2.2506-.6921,16.7632,16.7632,0,0,1,4.6889,1.73,9.7079,9.7079,0,0,1,2.3131,3.0456c.5908.9156,1.492,1.3858,1.7505,2.4918A25.0955,25.0955,0,0,1,174.2194,194.0137Z"/><path class="cls-6" d="M171.6891,194.2329c-.278,1.0314-1.2149,1.5763-1.7519,2.4088-.5912.9165-.9219,2.2274-1.7518,2.81a13.9554,13.9554,0,0,1-4.07,1.1375c-1.227,0-4.8058-1.9837-5.3586-2.6764-.81-1.0154-.8777-2.6241-1.2366-4.0147a11.67,11.67,0,0,1-.7729-2.81,25.2133,25.2133,0,0,1,1.082-5.0183c.4767-1.0046.1514-1.8629.8907-2.5772a17.9058,17.9058,0,0,1,2.3039-1.17c.5137-.3114,1.18.0255,1.7518-.1338a8.6116,8.6116,0,0,1,1.8549-.6691,12.5961,12.5961,0,0,1,3.8644,1.6728,9.3839,9.3839,0,0,1,1.9065,2.944c.4868.8852,1.23,1.34,1.4427,2.4088A28.4251,28.4251,0,0,1,171.6891,194.2329Z"/><path class="cls-8" d="M171.0221,193.3561c-.2289.8536-1,1.3045-1.4424,1.9935-.4867.7585-.759,1.8434-1.4424,2.3257a11.4439,11.4439,0,0,1-3.3514.9414,10.7983,10.7983,0,0,1-4.4119-2.215c-.6672-.84-.7226-2.1716-1.0182-3.3224a9.7017,9.7017,0,0,1-.6363-2.3257,20.9583,20.9583,0,0,1,.8909-4.1531c.3924-.8314.1246-1.5417.7333-2.1329a14.7249,14.7249,0,0,1,1.8969-.9681c.4229-.2577.9714.0211,1.4424-.1107a7.0614,7.0614,0,0,1,1.5272-.5537,10.3458,10.3458,0,0,1,3.1817,1.3843,7.7682,7.7682,0,0,1,1.57,2.4365c.4009.7325,1.0124,1.1086,1.1879,1.9934A23.6451,23.6451,0,0,1,171.0221,193.3561Z"/><path class="cls-6" d="M149.2419,152.8061c-.3253,1.2448-1.4214,1.9024-2.05,2.9072-.6917,1.1061-1.0787,2.6883-2.05,3.3916a15.9381,15.9381,0,0,1-4.7625,1.3728c-1.4356,0-5.6229-2.3941-6.27-3.23-.9481-1.2255-1.0268-3.167-1.4468-4.8453a14.4332,14.4332,0,0,1-.9043-3.3916,31.256,31.256,0,0,1,1.266-6.0566c.5577-1.2125.1771-2.2483,1.0421-3.11a20.7062,20.7062,0,0,1,2.6956-1.4118c.601-.3758,1.38.0308,2.05-.1615.62-.1781,1.5082-.8075,2.17-.8075a14.5085,14.5085,0,0,1,4.5214,2.0188c1.0072.8155,1.561,2.2976,2.2305,3.5532.57,1.0683,1.4387,1.6168,1.688,2.9071A35.3659,35.3659,0,0,1,149.2419,152.8061Z"/><path class="cls-9" d="M148.8017,153.2445c-.2681,1.0669-1.1718,1.6306-1.69,2.4918-.57.9482-.8892,2.3043-1.69,2.9072a12.7579,12.7579,0,0,1-3.9261,1.1767c-1.1834,0-4.6353-2.0521-5.1685-2.7687-.7816-1.05-.8465-2.7146-1.1928-4.1531a12.7656,12.7656,0,0,1-.7454-2.9071,27.7266,27.7266,0,0,1,1.0436-5.1914c.46-1.0392.1461-1.9271.8591-2.666a16.8439,16.8439,0,0,1,2.2221-1.21c.4955-.3222,1.138.0263,1.69-.1385.5109-.1526,1.2432-.6922,1.7891-.6922a11.74,11.74,0,0,1,3.7273,1.7305,9.8046,9.8046,0,0,1,1.8388,3.0456c.47.9156,1.186,1.3858,1.3915,2.4918A31.5152,31.5152,0,0,1,148.8017,153.2445Z"/><path class="cls-6" d="M187.4549,120.3661a21.3987,21.3987,0,0,1-3.8084,5.9389c-.91.6691-1.7694.3635-2.8563.533-.3213.05-1.2363.7613-1.5681.7613-1.3337,0-5.2237-2.2573-5.8246-3.0455-.8808-1.1554-.954-2.986-1.3441-4.5684a13.7662,13.7662,0,0,1-.84-3.1979,29.8509,29.8509,0,0,1,1.1761-5.71,19.72,19.72,0,0,1,3.4723-4.2638,15.1538,15.1538,0,0,1,3.92-.9137c.7545,0,2.6061,2.0868,3.2674,2.63.9357.7689,4.3418,4.1478,4.5734,5.3643A33.8414,33.8414,0,0,1,187.4549,120.3661Z"/><path class="cls-8" d="M185.5325,121.8079a17.1326,17.1326,0,0,1-3.0492,4.7551c-.7288.5357-1.4168.291-2.287.4267-.2573.04-.99.61-1.2555.61-1.0678,0-4.1825-1.8073-4.6636-2.4384-.7052-.9251-.7638-2.3908-1.0762-3.6578a11.0263,11.0263,0,0,1-.6726-2.56,23.9035,23.9035,0,0,1,.9417-4.5721,15.7856,15.7856,0,0,1,2.78-3.4139,12.1312,12.1312,0,0,1,3.1389-.7316c.6041,0,2.0865,1.6709,2.6161,2.106.7492.6157,3.4763,3.321,3.6617,4.2951A27.0893,27.0893,0,0,1,185.5325,121.8079Z"/><path class="cls-5" d="M229.4652,106.9956c-.3253,1.1025-1.4214,1.6849-2.05,2.5749-.6917.98-1.0787,2.381-2.05,3.004a17.5523,17.5523,0,0,1-4.7626,1.2159c-1.4355,0-5.6228-2.1205-6.27-2.861-.9481-1.0854-1.0269-2.805-1.4468-4.2915a11.6432,11.6432,0,0,1-.9043-3.004,24.9553,24.9553,0,0,1,1.266-5.3644c.5577-1.0739.1771-1.9914,1.0421-2.7549a21.774,21.774,0,0,1,2.6955-1.2505c.6011-.3329,1.3805.0273,2.05-.143a10.7039,10.7039,0,0,1,2.17-.7153,15.4953,15.4953,0,0,1,4.5214,1.7881,9.9921,9.9921,0,0,1,2.2305,3.1471c.57.9462,1.4387,1.4321,1.688,2.5749A27.7825,27.7825,0,0,1,229.4652,106.9956Z"/><path class="cls-6" d="M227.5824,106.7764c-.278,1.0313-1.2149,1.5762-1.7519,2.4087-.5912.9166-.9219,2.2275-1.7519,2.81a13.9549,13.9549,0,0,1-4.07,1.1375c-1.227,0-4.8059-1.9837-5.3587-2.6765-.81-1.0153-.8776-2.624-1.2366-4.0146a11.6743,11.6743,0,0,1-.7729-2.81,25.2122,25.2122,0,0,1,1.0821-5.0183c.4767-1.0046.1514-1.8629.8907-2.5772a17.8982,17.8982,0,0,1,2.3038-1.17c.5138-.3114,1.18.0255,1.7519-.1338a8.6063,8.6063,0,0,1,1.8549-.6691,12.5982,12.5982,0,0,1,3.8644,1.6727,9.3836,9.3836,0,0,1,1.9064,2.9441c.4869.8851,1.23,1.34,1.4427,2.4088A28.4175,28.4175,0,0,1,227.5824,106.7764Z"/><path class="cls-8" d="M225.59,106.9663c-.2409.8938-1.0529,1.3661-1.5183,2.0876-.5124.7943-.799,1.93-1.5183,2.4356a12.0942,12.0942,0,0,1-3.5278.9858,11.3888,11.3888,0,0,1-4.6442-2.32c-.7023-.88-.7606-2.2742-1.0717-3.4794a10.1151,10.1151,0,0,1-.67-2.4355,21.85,21.85,0,0,1,.9378-4.3493c.4131-.8707.1313-1.6145.7719-2.2336a15.52,15.52,0,0,1,1.9968-1.0138c.4452-.27,1.0225.0221,1.5183-.116a7.4632,7.4632,0,0,1,1.6076-.58,10.9176,10.9176,0,0,1,3.3491,1.45,8.1313,8.1313,0,0,1,1.6523,2.5515c.4219.7672,1.0657,1.1611,1.25,2.0877A24.6227,24.6227,0,0,1,225.59,106.9663Z"/><path class="cls-6" d="M283.4555,136.5861c-.3021,1.1025-1.32,1.685-1.9037,2.5749-.6424.98-1.0018,2.3811-1.9037,3.0041a15.3625,15.3625,0,0,1-4.4232,1.2159c-1.3333,0-5.2223-2.12-5.8231-2.861-.88-1.0854-.9537-2.805-1.3438-4.2915a12.32,12.32,0,0,1-.84-3.0041,26.5673,26.5673,0,0,1,1.1758-5.3643c.518-1.074.1645-1.9914.9679-2.755a19.5664,19.5664,0,0,1,2.5035-1.25c.5583-.3329,1.2821.0272,1.9037-.1431a9.4565,9.4565,0,0,1,2.0157-.7152,13.8086,13.8086,0,0,1,4.1993,1.7881,10.014,10.014,0,0,1,2.0716,3.1471c.5291.9462,1.3362,1.432,1.5678,2.5749A29.89,29.89,0,0,1,283.4555,136.5861Z"/><path class="cls-8" d="M281.4633,136.7622c-.265.9673-1.1581,1.4783-1.67,2.259-.5636.8595-.8789,2.0889-1.67,2.6355a13.4771,13.4771,0,0,1-3.8806,1.0667c-1.17,0-4.5816-1.86-5.1086-2.51-.7725-.9522-.8367-2.4608-1.1789-3.7649a10.8059,10.8059,0,0,1-.7368-2.6355,23.3129,23.3129,0,0,1,1.0315-4.7062c.4545-.9422.1444-1.7471.8492-2.417a17.1884,17.1884,0,0,1,2.1963-1.097c.49-.292,1.1248.0239,1.67-.1255a8.2926,8.2926,0,0,1,1.7683-.6275,12.1126,12.1126,0,0,1,3.6841,1.5688,8.7862,8.7862,0,0,1,1.8175,2.7609c.4641.83,1.1723,1.2564,1.3754,2.259A26.2184,26.2184,0,0,1,281.4633,136.7622Z"/><path class="cls-5" d="M240.5456,141.8467c-.2011.6757-.8788,1.0327-1.2673,1.5781-.4276.6-.6668,1.4594-1.2672,1.8412a10.9289,10.9289,0,0,1-2.9445.7453,9.9133,9.9133,0,0,1-3.8762-1.7536,6.693,6.693,0,0,1-.8945-2.63,7.09,7.09,0,0,1-.5591-1.8412,15.19,15.19,0,0,1,.7827-3.2879c.3448-.6582.11-1.2205.6443-1.6885a13.504,13.504,0,0,1,1.6666-.7664c.3716-.204.8534.0167,1.2672-.0877a6.6631,6.6631,0,0,1,1.3418-.4383,9.6285,9.6285,0,0,1,2.7953,1.0959,6.1225,6.1225,0,0,1,1.3791,1.9289c.3522.58.8895.8777,1.0436,1.5781A16.8763,16.8763,0,0,1,240.5456,141.8467Z"/><path class="cls-6" d="M252.5806,210.6721c-.2047.818-.8949,1.25-1.2905,1.91-.4355.7269-.6791,1.7666-1.2905,2.2288a9.717,9.717,0,0,1-2.9987.9022,9.4392,9.4392,0,0,1-3.9475-2.1227c-.597-.8053-.6466-2.0812-.911-3.184a9.8169,9.8169,0,0,1-.5694-2.2288,21.3307,21.3307,0,0,1,.7971-3.98c.3512-.7967.1116-1.4775.6562-2.044a12.8513,12.8513,0,0,1,1.6972-.9277c.3784-.247.8691.02,1.2905-.1061.39-.1171.95-.5307,1.3665-.5307a8.95,8.95,0,0,1,2.8468,1.3267,7.52,7.52,0,0,1,1.4044,2.3349c.3587.702.9059,1.0625,1.0628,1.91A24.2467,24.2467,0,0,1,252.5806,210.6721Z"/><path class="cls-8" d="M251.9432,209.2925c-.1807.7218-.79,1.1031-1.1387,1.6856-.3843.6414-.5993,1.5588-1.1387,1.9666a8.5711,8.5711,0,0,1-2.6459.796,8.3281,8.3281,0,0,1-3.4831-1.8729,8.0849,8.0849,0,0,1-.8038-2.8094,8.6623,8.6623,0,0,1-.5024-1.9666,18.8178,18.8178,0,0,1,.7033-3.5118c.31-.703.0985-1.3037.579-1.8035a11.3294,11.3294,0,0,1,1.4975-.8186c.3339-.218.7669.0178,1.1387-.0937.3444-.1032.8379-.4682,1.2057-.4682a7.8985,7.8985,0,0,1,2.5119,1.1706,6.635,6.635,0,0,1,1.2392,2.06c.3165.6194.7993.9375.9378,1.6857A21.3965,21.3965,0,0,1,251.9432,209.2925Z"/><path class="cls-6" d="M282.8138,234.8837a20.776,20.776,0,0,1,1.7569,7.2719c-.16,1.3376-1.0352,2.1-1.7127,3.3614-.2.373-.3311,1.7382-.578,2.0957-.992,1.4367-5.63,4.4228-6.6863,4.65-1.5481.3323-3.0173-.5657-4.53-.99-.9572-.2682-2.2412-.211-3.0964-.8014a21.32,21.32,0,0,1-3.5384-4.3143,21.5284,21.5284,0,0,1-.7124-6.016,26.5755,26.5755,0,0,1,2.21-4.711c.5613-.8128,3.5513-1.6938,4.4632-2.1162,1.29-.5978,6.4352-2.4641,7.5477-2.0643A22.87,22.87,0,0,1,282.8138,234.8837Z"/><path class="cls-8" d="M281.6682,235.1742a19.2133,19.2133,0,0,1,1.6249,6.7252c-.1479,1.237-.9574,1.9422-1.5839,3.1087-.1853.3449-.3063,1.6075-.5346,1.9381-.9174,1.3287-5.2069,4.09-6.1836,4.3-1.4318.3072-2.7905-.5232-4.19-.9154-.8852-.2481-2.0726-.1951-2.8635-.7412a19.7164,19.7164,0,0,1-3.2725-3.99,19.91,19.91,0,0,1-.6588-5.5637,24.576,24.576,0,0,1,2.0439-4.3568c.519-.7517,3.2843-1.5665,4.1276-1.9572,1.1933-.5527,5.9514-2.2787,6.98-1.9091A21.1556,21.1556,0,0,1,281.6682,235.1742Z"/><path class="cls-6" d="M207.128,261.78c-.3012.741-1.3161,1.1324-1.8979,1.7305-.6405.6584-.9987,1.6-1.8979,2.0188a21.4155,21.4155,0,0,1-4.41.8172,17.8138,17.8138,0,0,1-5.8052-1.9227c-.8779-.7295-.9508-1.8851-1.34-2.8841-.246-.6319-.8373-1.32-.8373-2.0188a13.0708,13.0708,0,0,1,1.1722-3.6051c.5164-.7218.1641-1.3384.9649-1.8515a24.3309,24.3309,0,0,1,2.4959-.84c.5566-.2238,1.2782.0183,1.8979-.0962a12.7024,12.7024,0,0,1,2.01-.4806,17.8648,17.8648,0,0,1,4.1865,1.2016,7.2393,7.2393,0,0,1,2.0653,2.115c.5274.6359,1.3321.9624,1.5629,1.7305A13.5973,13.5973,0,0,1,207.128,261.78Z"/><path class="cls-8" d="M206.5046,261.7432c-.26.64-1.1371.9784-1.64,1.4951-.5534.5689-.8629,1.3826-1.64,1.7443a18.5071,18.5071,0,0,1-3.81.706,15.3884,15.3884,0,0,1-5.0157-1.6612c-.7585-.63-.8215-1.6287-1.1575-2.4918-.2125-.546-.7234-1.1408-.7234-1.7443a11.29,11.29,0,0,1,1.0128-3.1148c.4461-.6236.1417-1.1563.8336-1.6a21.0436,21.0436,0,0,1,2.1565-.726c.4808-.1933,1.1043.0158,1.64-.0831a10.97,10.97,0,0,1,1.7362-.4153,15.4278,15.4278,0,0,1,3.6171,1.0383,6.2529,6.2529,0,0,1,1.7844,1.8273c.4557.5494,1.151.8315,1.35,1.4951A11.749,11.749,0,0,1,206.5046,261.7432Z"/><path class="cls-6" d="M159.4822,240.4279a21.3945,21.3945,0,0,1-7.0455.3675c-1.0742-.35-1.3268-1.2258-2.0981-2.01-.228-.2319-1.3393-.5607-1.5327-.83-.7774-1.0837-1.2109-5.56-.9207-6.508.4254-1.3892,1.87-2.5157,2.9284-3.7552a13.7731,13.7731,0,0,1,2.1086-2.5467,29.8546,29.8546,0,0,1,5.3255-2.3731,19.72,19.72,0,0,1,5.4886.3359,15.1586,15.1586,0,0,1,3.0277,2.6528c.44.6131-.1765,3.334-.2326,4.1881-.0793,1.2085-.8392,5.9457-1.6927,6.8431A33.8379,33.8379,0,0,1,159.4822,240.4279Z"/><path class="cls-8" d="M159.1386,240.6931a20.1145,20.1145,0,0,1-6.623.3454c-1.01-.3285-1.2472-1.1523-1.9723-1.8895-.2143-.218-1.259-.5271-1.4408-.7806-.7308-1.0186-1.1383-5.2268-.8655-6.1177.4-1.3058,1.758-2.3648,2.7528-3.53a12.9476,12.9476,0,0,1,1.9822-2.394,28.0612,28.0612,0,0,1,5.0061-2.2308,18.539,18.539,0,0,1,5.1594.3157,14.2433,14.2433,0,0,1,2.8461,2.4938c.4135.5763-.1659,3.134-.2186,3.9369-.0745,1.136-.7888,5.5891-1.5912,6.4327A31.8158,31.8158,0,0,1,159.1386,240.6931Z"/><path class="cls-6" d="M306.5113,175.3826c-.1928.9958-.8423,1.5219-1.2147,2.3257-.41.8849-.6391,2.1507-1.2146,2.7134A7.6672,7.6672,0,0,1,301.26,181.52c-.8507,0-3.3321-1.9153-3.7154-2.5841a13.7222,13.7222,0,0,1-.8574-3.8762,14.8717,14.8717,0,0,1-.5358-2.7133,32.7764,32.7764,0,0,1,.75-4.8453c.33-.97.105-1.7987.6175-2.4883a11.6069,11.6069,0,0,1,1.5974-1.1294c.3562-.3007.818.0246,1.2146-.1293.3674-.1424.8937-.646,1.2861-.646a7.7311,7.7311,0,0,1,2.6794,1.6151,9.9639,9.9639,0,0,1,1.3218,2.8425,8.7818,8.7818,0,0,1,1,2.3257A38.1575,38.1575,0,0,1,306.5113,175.3826Z"/><path class="cls-8" d="M305.7713,175.1634c-.179.9247-.7822,1.4132-1.1279,2.16a9.688,9.688,0,0,1-1.1279,2.5195,7.12,7.12,0,0,1-2.6206,1.02c-.79,0-3.0941-1.7785-3.45-2.4a12.74,12.74,0,0,1-.7961-3.5993,13.8059,13.8059,0,0,1-.4976-2.5195,30.4417,30.4417,0,0,1,.6966-4.4992c.3069-.9007.0975-1.67.5734-2.3106a10.7947,10.7947,0,0,1,1.4833-1.0488c.3308-.2791.76.0229,1.1279-.12.3411-.1323.83-.6,1.1942-.6a7.1786,7.1786,0,0,1,2.488,1.5,9.25,9.25,0,0,1,1.2274,2.6395,8.1519,8.1519,0,0,1,.9288,2.16A35.4289,35.4289,0,0,1,305.7713,175.1634Z"/><path class="cls-6" d="M240.0654,142.285c-.18.6046-.7863.9241-1.1339,1.4121-.3826.5372-.5966,1.3057-1.1338,1.6474a9.7808,9.7808,0,0,1-2.6345.6668,8.87,8.87,0,0,1-3.4682-1.569,5.9859,5.9859,0,0,1-.8-2.3534,6.3429,6.3429,0,0,1-.5-1.6474,13.5885,13.5885,0,0,1,.7-2.9417c.3085-.5889.098-1.0921.5765-1.5108a12.0854,12.0854,0,0,1,1.4911-.6857c.3325-.1826.7636.0149,1.1338-.0785a5.9588,5.9588,0,0,1,1.2006-.3922,8.6151,8.6151,0,0,1,2.5011.9806,5.48,5.48,0,0,1,1.2339,1.7258c.3151.5189.7958.7853.9337,1.412A15.0991,15.0991,0,0,1,240.0654,142.285Z"/><path class="cls-8" d="M238.822,141.8467c-.1445.569-.6317.87-.9109,1.3289-.3075.5057-.4794,1.229-.911,1.55a6.9342,6.9342,0,0,1-2.1167.6276,6.6938,6.6938,0,0,1-2.7865-1.4767,6.3024,6.3024,0,0,1-.643-2.2149,6.7481,6.7481,0,0,1-.4019-1.55,14.6468,14.6468,0,0,1,.5626-2.7687c.2479-.5543.0788-1.0278.4632-1.4219a9.109,9.109,0,0,1,1.198-.6454c.2671-.1718.6135.0141.911-.0738.2755-.0814.67-.3692.9645-.3692a6.36,6.36,0,0,1,2.01.9229,5.2186,5.2186,0,0,1,.9914,1.6243c.2532.4884.6394.7391.75,1.329A16.6268,16.6268,0,0,1,238.822,141.8467Z"/></svg>