<svg id="Layer_1" data-name="Layer 1" xmlns="http://www.w3.org/2000/svg" viewBox="0 0 420 420"><defs><style>.cls-1{fill:#f997a4;opacity:0.37;}.cls-2{fill:#fff;}.cls-3{fill:#ffc2d4;}</style></defs><title>kort bagside</title><rect class="cls-1" x="57" y="58.5" width="299" height="299" rx="69.1376"/><rect class="cls-2" x="64" y="52.5" width="299" height="299" rx="69.1376"/><rect class="cls-3" x="159.2054" y="162.5712" width="42.5041" height="8.8118" rx="4.4059" transform="translate(-18.3768 22.3701) rotate(-6.7506)"/><rect class="cls-3" x="196.2054" y="132.5712" width="42.5041" height="8.8118" rx="4.4059" transform="matrix(0.866, 0.5, -0.5, 0.866, 97.6223, -90.3773)"/><rect class="cls-3" x="92.2054" y="181.5712" width="42.5041" height="8.8118" rx="4.4059" transform="translate(125.641 -31.5353) rotate(34.5917)"/><rect class="cls-3" x="267.2054" y="115.5712" width="42.5041" height="8.8118" rx="4.4059" transform="translate(571.5715 -12.1161) rotate(132.4038)"/><rect class="cls-3" x="165.2054" y="83.5712" width="42.5041" height="8.8118" rx="4.4059" transform="translate(-17.8638 60.4242) rotate(-17.5795)"/><rect class="cls-3" x="115.2054" y="138.5712" width="42.5041" height="8.8118" rx="4.4059" transform="matrix(-0.2132, 0.977, -0.977, -0.2132, 305.2358, 40.1328)"/><rect class="cls-3" x="92.2054" y="91.5712" width="42.5041" height="8.8118" rx="4.4059" transform="translate(-34.3951 81.017) rotate(-34.4512)"/><rect class="cls-3" x="164.7478" y="287.672" width="42.5041" height="8.8118" rx="4.4059" transform="translate(405.0434 560.2669) rotate(173.2494)"/><rect class="cls-3" x="206.7478" y="245.672" width="42.5041" height="8.8118" rx="4.4059" transform="translate(300.4146 580.6516) rotate(-150)"/><rect class="cls-3" x="297.7478" y="191.672" width="42.5041" height="8.8118" rx="4.4059" transform="translate(470.2882 538.5969) rotate(-145.4083)"/><rect class="cls-3" x="137.7478" y="250.672" width="42.5041" height="8.8118" rx="4.4059" transform="translate(-136.5741 200.4728) rotate(-47.5962)"/><rect class="cls-3" x="86.7478" y="234.672" width="42.5041" height="8.8118" rx="4.4059" transform="matrix(-0.9533, 0.302, -0.302, -0.9533, 283.1644, 434.3715)"/><rect class="cls-3" x="289.7478" y="256.672" width="42.5041" height="8.8118" rx="4.4059" transform="translate(-10.3705 509.2787) rotate(-77.6924)"/><rect class="cls-3" x="262.7478" y="226.672" width="42.5041" height="8.8118" rx="4.4059" transform="matrix(-0.9804, 0.1969, -0.1969, -0.9804, 607.9424, 401.7065)"/><rect class="cls-3" x="244.2054" y="166.5712" width="42.5041" height="8.8118" rx="4.4059" transform="translate(-39.2428 88.1606) rotate(-17.5795)"/><rect class="cls-3" x="104.7478" y="297.672" width="42.5041" height="8.8118" rx="4.4059" transform="translate(84.08 626.685) rotate(-150)"/><rect class="cls-3" x="213.7478" y="203.672" width="42.5041" height="8.8118" rx="4.4059" transform="translate(492.8297 387.0894) rotate(173.2494)"/><rect class="cls-3" x="146.7478" y="197.672" width="42.5041" height="8.8118" rx="4.4059" transform="translate(389.1873 343.9777) rotate(162.4205)"/><rect class="cls-3" x="233.7478" y="92.672" width="42.5041" height="8.8118" rx="4.4059" transform="translate(105.7973 325.524) rotate(-77.6924)"/><rect class="cls-3" x="213.7478" y="297.672" width="42.5041" height="8.8118" rx="4.4059" transform="translate(-146.5301 271.8974) rotate(-47.5962)"/><rect class="cls-3" x="264.7478" y="300.672" width="42.5041" height="8.8118" rx="4.4059" transform="translate(118.7934 -78.2111) rotate(19.5825)"/></svg>