<svg id="Layer_1" data-name="Layer 1" xmlns="http://www.w3.org/2000/svg" viewBox="0 0 410 500"><defs><style>.cls-1{opacity:0.3;}.cls-2{fill:#603813;}.cls-3{fill:#754c24;opacity:0.5;}.cls-4{fill:#ffb0cd;}.cls-5{fill:#ffcade;}.cls-6{fill:#fee7ed;}.cls-7{fill:#d09af6;}.cls-8{fill:#00b8ab;}.cls-12,.cls-9{fill:#fff;}.cls-10{fill:#8d173a;}.cls-11{fill:#f997a4;}.cls-12{opacity:0.2;}</style></defs><title>muffin</title><ellipse class="cls-1" cx="181" cy="420.5" rx="123.5" ry="29.5"/><path class="cls-2" d="M326.5022,181.2693c-4.2448,27.6323-53.9224,50.6073-120.4391,50.6073S93.24,208.1838,85.6241,181.2693c-14.4362-51.0153,53.9224-50.6072,120.439-50.6072S334.339,130.254,326.5022,181.2693Z"/><path class="cls-3" d="M318.5905,167.8013c-2.6654,12.9248-33.8586,23.6711-75.6252,23.6711S172.1224,180.39,167.34,167.8013c-9.0646-23.862,33.8586-23.6711,75.6252-23.6711S323.5113,143.9393,318.5905,167.8013Z"/><path class="cls-4" d="M266.1911,107.4056c.246,0-3.1886-.4292-2.9409-.4292,28.5686-42.0221-53.4641-32.1883-51.8316-57.9389-34.5112,10.9718-72.9653,28.5831-57.1722,56.9126-28.5573,4.7741-49.3479,7.979-46.4911,34.0729C109.4061,155.1,153.4361,157.19,209.7861,157.19s94.6634-2.9461,96.317-18.0254C308.96,113.1128,290.9643,113,266.1911,107.4056Z"/><path class="cls-5" d="M272.86,112.465c-.1477-.0372-48.3105-5.0659-68.3867-1.1644-17.4456,3.8193-30.1465,6.3832-28.4013,27.2584,1.0084,12.0618,27.9063,13.7336,62.33,13.7336s57.83-2.3568,58.84-14.42C298.9876,117.0308,288.3868,116.3778,272.86,112.465Z"/><path class="cls-6" d="M280.8714,123.8233c-.05-.0128-16.509-1.7523-23.37-.4027-5.9616,1.3211-10.3019,2.208-9.7055,9.429.3446,4.1723,9.5363,4.7506,21.3,4.7506s19.762-.8153,20.1072-4.9882C289.8,125.4027,286.1773,125.1768,280.8714,123.8233Z"/><path class="cls-7" d="M240.8034,372.1522l10.8858,55.6383c.0246.1258.2179.2231.4961.2948a2.327,2.327,0,0,0,1.8438.9147h9.8345a2.34,2.34,0,0,0,2.34-2.34v-2.5774a2.34,2.34,0,0,0-2.34-2.34h-9.1058L249.27,362.476"/><path class="cls-7" d="M165.8053,369.7034,154.92,425.3417c-.0247.1259-.218.2231-.4961.2948a2.3272,2.3272,0,0,1-1.8438.9148h-9.8345a2.34,2.34,0,0,1-2.34-2.34V421.634a2.34,2.34,0,0,1,2.34-2.34h9.1058l5.4876-59.2669"/><path class="cls-8" d="M301.993,350.3417c-40.419,30.7734-138.5284,33.4195-189.2312-.5046a11.8218,11.8218,0,0,1-5.1556-8.604c-5.5317-52.5777-16.5839-149.7607-16.5839-149.7607s17.0431,18.9184,24.8956,19.1818c6.53-8.1625,28.6874-19.1818,28.6874-19.1818s17.0223,15.9169,26.001,19.9981c10.6111-4.0812,30.0982-19.9981,30.0982-19.9981s12.3466,16.7331,32.7527,20.8143c9.795-11.4275,30.2011-21.2224,30.2011-21.2224s26.12,14.6925,35.0986,19.59c7.6706-.6288,24.0793-19.1818,24.0793-19.1818S312.6007,292.69,307.11,341.3081A13.21,13.21,0,0,1,301.993,350.3417Z"/><circle class="cls-9" cx="234.6816" cy="251.8746" r="19.1818"/><path d="M234.6816,238.8147a13.0142,13.0142,0,0,0-4.2639.7263,1.8563,1.8563,0,0,1,.4377.3506c1.1273,1.2742.27,3.8737-1.9141,5.806s-4.8689,2.466-5.9961,1.1918a1.8377,1.8377,0,0,1-.2056-.2883,13.0564,13.0564,0,1,0,11.942-7.7864Z"/><circle class="cls-9" cx="178.7687" cy="251.4665" r="19.1818"/><path d="M178.7687,238.4066a13.0136,13.0136,0,0,0-4.2638.7263,1.8578,1.8578,0,0,1,.4377.3506c1.1272,1.2742.27,3.8736-1.9141,5.806s-4.8689,2.4659-5.9961,1.1917a1.8226,1.8226,0,0,1-.2057-.2883,13.0564,13.0564,0,1,0,11.942-7.7863Z"/><path class="cls-7" d="M310.8956,282.629c10.044-3.4961,20.9917-11.0265,26.9759-18.4291,13.553-16.7653,11.43-30.3148,13.0547-34.1466-3.8841,6.6991-19.09,30.4365-36.042,29.2288"/><path class="cls-7" d="M350.0419,233.6127s17.9126-18.2256,13.5941-23.4467c-.7584-.9169-4.4922,1.5726-4.4922,1.5726s-.0783-10.66-2.815-10.5831c-3.06.0861-2.4765,11.9906-2.4765,11.9906s-4.1719-12.2165-7.2941-11.0915C339.0907,204.7453,350.0419,233.6127,350.0419,233.6127Z"/><path class="cls-10" d="M224.8866,289.2075c0,17.7-10.9633,32.048-24.4873,32.048s-24.4874-14.3484-24.4874-32.048c9.3285,3.4794,11.352,6.7444,24.876,6.7444S214.7807,293.5032,224.8866,289.2075Z"/><path class="cls-11" d="M174.2794,326.9244c0,4.6158,1.8009,9.5868,12.7824,9.5868,9.9419-2.13,2.13-16.3331,22.7243-18.4635-1.42-4.971-4.6415-7.8115-15.623-7.8115S174.2794,317.7077,174.2794,326.9244Z"/><path class="cls-7" d="M100.9342,277.6907c-9.9427-3.7744-20.6765-11.6067-26.4523-19.1731-13.0809-17.1362-10.5812-30.6213-12.0988-34.4968,3.696,6.8046,18.2354,30.9563,35.2142,30.221"/><path class="cls-7" d="M63.168,227.6034S45.77,208.8861,50.2319,203.7873c.7836-.8954,4.4467,1.6971,4.4467,1.6971s.3751-10.6539,3.1086-10.5006c3.0561.1713,2.1417,12.0549,2.1417,12.0549s4.51-12.0956,7.6-10.8841C74.9187,199.0521,63.168,227.6034,63.168,227.6034Z"/><path class="cls-12" d="M296.2632,342.5474a62.1985,62.1985,0,0,1-19.76,12.4064C245.7521,367.5458,309.7762,211.74,309.7762,211.74S303.14,295.0788,299.58,335.11A11.8124,11.8124,0,0,1,296.2632,342.5474Z"/><path class="cls-5" d="M256.72,110.6641c31.0174-44.8936-49.4974-35.72-48.1585-56.321-28.3051,8.7775-34.1754,39.3711-21.2224,62.0347C211.0281,119.8225,246.5117,113.2877,256.72,110.6641Z"/><path class="cls-6" d="M242.221,103.3179c23.059-35.1341-36.7977-27.9552-35.8023-44.0773C197.9233,78.4046,240.4005,85.4314,242.221,103.3179Z"/></svg>
