<svg id="Layer_1" data-name="Layer 1" xmlns="http://www.w3.org/2000/svg" viewBox="0 0 200 200"><defs><style>.cls-1{fill:#ffc2d4;}</style></defs><title>settings</title><path class="cls-1" d="M169.3022,87.7579c.0064-.9494-.4475-1.2219-1.1982-1.4437-5.439-1.6074-10.8682-3.2478-16.313-4.8348a1.7476,1.7476,0,0,1-1.3359-1.3034,55.0121,55.0121,0,0,0-4.3726-10.3169,1.9248,1.9248,0,0,1,.0064-2.1029c2.6889-4.9039,5.3244-9.8372,8.0124-14.7416a1.1822,1.1822,0,0,0-.1931-1.71q-6.4819-6.3831-12.8738-12.8577a1.203,1.203,0,0,0-1.7192-.2607c-4.971,2.7446-9.9793,5.4216-14.9451,8.1752a2.0236,2.0236,0,0,1-2.2112.0344A49.1054,49.1054,0,0,0,112.2747,42.3a2.2268,2.2268,0,0,1-1.7161-1.7079c-1.5476-5.2751-3.1807-10.5252-4.7136-15.8045-.2908-1.0015-.7444-1.2652-1.7532-1.2558-5.7278.0529-11.4561.0256-17.1843.0256-2.4058,0-3.135.5811-3.8264,2.91-1.4935,5.0324-3.02,10.0552-4.5144,15.0872-.1385.466-.2491.81-.8064.98a51.3383,51.3383,0,0,0-9.4034,3.9381,1.7179,1.7179,0,0,1-1.8618-.0441c-5.0163-2.7492-10.0649-5.44-15.0913-8.17a1.0815,1.0815,0,0,0-1.4626.074c-4.9251,4.4707-9.514,9.28-14.179,14.013-1.4372,1.2481-1.4314,1.2451-.561,2.8495,2.5866,4.7681,5.15,9.5491,7.7715,14.2977a1.7571,1.7571,0,0,1-.0591,1.9524,50.3253,50.3253,0,0,0-4.2256,9.9681,2.924,2.924,0,0,1-1.2669.5223q-8.02,2.4138-16.0437,4.8194a2.92,2.92,0,0,0-1.7636,2.8719c.0495,5.9814.03,11.9634-.0088,17.945-.0054.8447.1911,1.2356,1.072,1.4887,5.4133,1.555,10.8013,3.198,16.2058,4.7845a1.6623,1.6623,0,0,1,1.3069,1.2971,51.5532,51.5532,0,0,0,4.3791,10.8512,1.731,1.731,0,0,1-.0646,1.8722c-2.7625,5.0532-5.4874,10.1272-8.2767,15.1655a1.1916,1.1916,0,0,0,.2591,1.7146q6.5079,6.4487,12.9458,12.9677a1.3542,1.3542,0,0,0,1.9431.27c4.9726-2.7395,9.9809-5.4143,14.9641-8.1347a1.4462,1.4462,0,0,1,1.6128-.07,51.1241,51.1241,0,0,0,10.8989,4.5893,1.8864,1.8864,0,0,1,1.4358,1.5005c1.5361,5.2817,3.1712,10.535,4.668,15.8275a1.8009,1.8009,0,0,0,2.1477,1.5723c5.77-.0858,11.5417-.0372,17.3127-.0375a2.9854,2.9854,0,0,0,3.3406-2.5029c1.5107-5.0747,3.0344-10.1459,4.4951-15.2351a1.8269,1.8269,0,0,1,1.3675-1.4192,50.1179,50.1179,0,0,0,9.7207-4.1641,1.7444,1.7444,0,0,1,1.9514-.0034c4.9375,2.7158,9.9133,5.3622,14.842,8.0936a1.3941,1.3941,0,0,0,2.0286-.2848c4.6794-4.8962,9.699-9.4578,14.2348-14.4995a1.38,1.38,0,0,0,.2227-1.93c-2.7769-5.0231-5.5061-10.0725-8.26-15.1087a1.49,1.49,0,0,1-.0945-1.6336,52.1565,52.1565,0,0,0,4.1868-9.9864,1.28,1.28,0,0,1,1.009-.9455c4.9175-1.4532,9.8274-2.9324,14.7537-4.3545a4.7824,4.7824,0,0,0,2.8125-1.7583c.3569-.2276.2595-.5885.2595-.9141C169.2854,100.3091,169.2585,94.0332,169.3022,87.7579ZM94.4536,120a22,22,0,1,1,22-22A22,22,0,0,1,94.4536,120Z"/></svg>
