<svg id="Layer_1" data-name="Layer 1" xmlns="http://www.w3.org/2000/svg" xmlns:xlink="http://www.w3.org/1999/xlink" viewBox="0 0 400 600"><defs><style>.cls-1{fill:none;}.cls-2{clip-path:url(#clip-path);}.cls-3{clip-path:url(#clip-path-2);}.cls-4{fill:#fbd088;}.cls-15,.cls-5{opacity:0.3;}.cls-6{fill:#c20ca7;}.cls-7{fill:#d88d2d;}.cls-8{fill:#b509e8;}.cls-9{fill:#f30685;}.cls-10{fill:#df9227;}.cls-11{fill:#ec9f2d;}.cls-12,.cls-15{fill:#fff;}.cls-13{fill:#8d173a;}.cls-14{fill:#f997a4;}</style><clipPath id="clip-path"><path class="cls-1" d="M-251.92,509.1093C-314.5,398-370,254.5-370,254.5l249,2S-178.5,407-232.4748,508.9305C-236.77,517.0425-247.4157,517.1071-251.92,509.1093Z"/></clipPath><clipPath id="clip-path-2"><path class="cls-1" d="M-251.92,509.6093C-314.5,398.5-370,255-370,255l249,2s-57.5,150.5-111.4748,252.4305C-236.77,517.5425-247.4157,517.6071-251.92,509.6093Z"/></clipPath></defs><title>sodavandsis</title><g class="cls-2"><g class="cls-3"><path class="cls-4" d="M-289.5782,137.1279c-2.8174,2.6717-4.2341,4.0042-7.0834,6.662q-27.22,25.142-55.6538,48.8063c-3.0866,2.5459-4.6377,3.8148-7.7558,6.3446q-29.7693,23.9152-60.6605,46.2569c-3.3519,2.4019-5.0354,3.5983-8.4182,5.9821q-36.6237,25.577-74.6484,48.9429,30.4677,34.02,62.9778,66.0217c3.1114,3.0382,4.6758,4.5531,7.8218,7.5742q29.9745,28.5317,61.3995,55.3873c3.4025,2.8843,5.1124,4.3216,8.5487,7.1864q32.7242,27.0411,66.7926,52.2911c3.6873,2.71,5.5394,4.06,9.26,6.7488q40.2,28.7859,82.0123,55.0833,37.2952-30.3877,72.8584-62.7246c3.2882-3.0161,4.924-4.5279,8.1789-7.5584q30.05-28.1984,58.6888-57.7758c3.0049-3.13,4.4987-4.698,7.47-7.84q27.4149-29.2253,53.35-59.7221c2.7191-3.2258,4.07-4.8413,6.7557-8.0773q28.0026-34.0631,54.0133-69.6018-40.1017-19.6237-78.8314-41.7321c-3.5832-2.07-5.3674-3.1107-8.92-5.2046q-32.8315-19.58-64.4757-40.8909c-3.3232-2.2653-4.9772-3.4035-8.2692-5.6905q-30.4071-21.3648-59.5133-44.3483c-3.0551-2.4409-4.5747-3.6663-7.5977-6.1266Q-202.8564,107.1378-232.6,79.1758-260.2231,109.044-289.5782,137.1279Zm-55.72,62.62q28.4525-23.8635,55.6111-49.0975,26.7962,25.8427,54.9494,50.0855-26.9974,26.3818-55.2519,51.32Q-318.3871,226.6327-345.2986,199.7475Zm178.3938,54.5739q-26.7258,27.6656-54.7542,53.9223-30.998-23.8816-60.6014-49.4,28.2666-25.1429,55.1986-51.6217Q-197.6063,231.6279-166.9048,254.3214Zm73.5967,49.8039q-26.379,29-54.1533,56.6121-33.5278-22.1829-65.77-46.1181,28.0325-26.4669,54.6892-54.2341Q-126.5149,283.1765-93.3081,304.1253ZM-280.74,373.7036q30.5906-25.272,59.87-51.9953,32.3027,24.1349,65.837,46.4437-29.0441,27.9965-59.4044,54.5025Q-248.2579,399.0465-280.74,373.7036Zm-69.52-58.8924q30.7811-23.8749,60.2981-49.2363,29.6554,25.7148,60.656,49.715-29.33,26.596-59.9257,51.6662Q-320.4672,341.6925-350.26,314.8112Zm-63.4179-62.1139q30.9189-22.5462,60.628-46.5652,26.9753,27.0972,55.3519,52.6132-29.5635,25.2389-60.342,48.9175Q-386.63,280.9272-413.6776,252.6973Zm-73.9736,49.7187q33.3428-21.0375,65.5593-43.6943,27.0851,28.4322,55.6706,55.2877-32.1158,23.9166-65.355,46.1764Q-460.5089,332.0377-487.6512,302.416Zm63.693,65.298q33.25-22.463,65.3221-46.5124,29.8384,27.0865,61.0731,52.4775-31.9257,25.3481-65.029,49.0723Q-394.0226,396.0316-423.9582,367.714Zm69.9095,62.1764q33.1062-23.933,64.9837-49.4188,32.5364,25.5514,66.36,49.2939-31.6818,26.8229-64.5965,52.0557Q-321.3724,456.7142-354.0487,429.89Zm212.05,51.9562q-31.38,28.3405-64.05,55.1262-36.6435-23.3107-72-48.4516,32.91-25.4472,64.5381-52.4125Q-178.3408,459.9359-141.9992,481.8466Zm66.96-64.9367q-28.701,29.44-58.7709,57.4262-36.3348-21.7692-71.4416-45.3848,30.3478-26.7131,59.3357-54.8418Q-111.0338,396.4756-75.0389,416.91Zm60.9228-67.1843q-25.9989,30.3695-53.4411,59.39-35.9839-20.301-70.7966-42.4644,27.7548-27.8125,54.0754-56.9344Q-49.7253,330.6941-14.1161,349.7256Zm54.8437-69.051Q17.4467,311.8034-7.3478,341.6915-42.9434,322.785-77.4212,302.001-52.2927,273.2333-28.65,243.31,5.5376,262.9727,40.7276,280.6746Zm-78.31-42.6084Q-61.3,267.8939-86.44,296.4517-119.6373,275.62-151.5985,253.02q25.4516-27.4719,49.4563-56.1362Q-70.4028,218.3918-37.5828,238.0662Zm-72.8387-46.9108q-24.0747,28.5738-49.53,55.8414-30.7176-22.6-60.0933-46.801,25.7238-26.2207,50.0382-53.67Q-140.8146,169.7052-110.4215,191.1554Zm-117.2919,2.5926Q-255.8849,169.59-282.61,143.95q25.9491-25.014,50.5247-51.2917,26.5782,24.661,54.4725,47.704Q-201.9937,167.7264-227.7134,193.748Z"/></g></g><ellipse class="cls-5" cx="175.5" cy="543.5" rx="116.5" ry="24.5"/><path class="cls-6" d="M77.7044,235.0343c0,19.255-.9628,19.255-.9628,27.92C70.0023,258.14,56.0425,244.18,51.4272,234.6067c-11.042-22.9051-7.4191-37.12-8.3819-41.9335C45.9336,201.338,64.2258,224.444,77.7044,235.0343Z"/><path class="cls-6" d="M43.5267,195.08s-16.3428-25.326-10.1089-30.3266c1.0947-.8782,4.8138,2.8882,4.8138,2.8882s2.6337-12.2949,5.7765-11.553c3.5137.83,0,14.4413,0,14.4413s7.7335-13.116,11.0716-11.0717C63.0635,164.3479,43.5267,195.08,43.5267,195.08Z"/><path class="cls-6" d="M317.2115,275.0393c-1.2364-19.2153-.2756-19.2771-.832-27.924,11.1587,5.73,22.7118,16.32,28.4883,25.9476,13.0824,21.8041,8.3814,37.2825,9.6513,42.0245C351.08,306.626,331.3422,284.7422,317.2115,275.0393Z"/><path class="cls-6" d="M354.07,310.7849s17.9353,24.2243,12.0354,29.615c-1.0361.9466-4.9893-2.5732-4.9893-2.5732s-1.8388,12.4386-5.0228,11.9c-3.56-.6022-.9273-14.4115-.9273-14.4115s-6.8753,13.5855-10.3378,11.76C336.5465,342.7082,354.07,310.7849,354.07,310.7849Z"/><path class="cls-7" d="M201.4179,559h-3.851c-24.0688-.9628-28.2309-20.7928-27.92-32.7335,0-26.51,3.37-39.9542,9.1461-64.023,7.702.9628,31.7708,1.9255,40.4356.9628,3.851,21.18,12.9971,47.08,14.9226,58.2464C235.9958,536.1732,235.1141,559,201.4179,559Z"/><path class="cls-8" d="M322.2431,439.1375c2.4258,20.6193,4.0876,32.07,2.579,38.6845-1.3834,6.0652-8.741,8.9041-13.6557,5.09-5.6529-4.3867-1.353-13.74,2.1135-24.9638a8.8128,8.8128,0,0,0-11.1961-10.9677c-57.81,19.1551-87.3438,19.3934-103.0728,19.1138-18.86-.3352-41.7948-3.6632-58.2189-7.5769a274.3155,274.3155,0,0,1-50.8461-17.27,8.8112,8.8112,0,0,1-5.1163-7.0312c-3.2033-28.2359-6.3064-70.4474-7.6377-103.232A8.8041,8.8041,0,0,1,89.06,322.3809c13.9629,5.1819,36.2885,13.2461,54.1117,17.5932,39.4728,9.6276,86.3671,3.3295,112.6419-1.9255,22.9494-4.59,35.9845-10.3969,50.664-15.9686a8.8026,8.8026,0,0,1,11.9232,8.2146C318.4568,361.4448,318.8914,412.3241,322.2431,439.1375Z"/><path class="cls-6" d="M318.8735,327.94c-5.7765,18.2922-44.2866,8.6647-55.84,10.59-14.5936,2.4323-27.92,13.4785-71.2436,11.553-14.105-2.0092-47.1748-4.8137-64.5043-3.851-14.2813.7934-24.4319-18.1072-32.2521-19.7364-12.9641-.8862,8.6647,37.5473-10.59,37.5473-13.8936,0-7.702-35.6073-7.702-46.212-3.37-39.9542,0-100.1261,7.702-136.7107,40.4356,1.9255,162.7049,0,229.1347,0C319.3549,214.8165,317.9107,300.02,318.8735,327.94Z"/><path class="cls-9" d="M313.5783,181.12c4.8138,25.0316,11.5531,46.2121-2.8882,46.2121-22.8843,0,8.6648-44.2866-15.404-39.4728-8.6648,1.9255-17.3295,14.4412-37.5473,13.4785-4.9035-.2335-15.404-2.8889-25.9943-1.9255-26.4885,2.41-20.33,2.9183-34.659,6.7393-20.2178,4.8137-29.8453,3.851-49.1-4.8138C118.14,188.8222,109.2864,182.54,84.4436,181.12c11.553-70.2808,45.2493-141.5244,117.4556-141.5244C264.478,39.5958,302.0253,72.3294,313.5783,181.12Z"/><path class="cls-10" d="M198.53,557.0745l-7.702-.9628c-14.4413-2.8882-15.404-25.0315-16.3668-32.7335,0-26.51,2.8883-32.7335,11.553-47.1748,3.9935-6.6558,14.1886-3.2819,21.1806,1.9255,17.2655,12.8588,16.3667,28.3063,18.2922,39.4728C227.3311,532.3222,232.2259,557.0745,198.53,557.0745Z"/><path class="cls-11" d="M192.7529,546.4842l-5.2373-.6546c-9.82-1.964-10.4746-17.0213-11.1293-22.2586,0-18.0264,1.964-22.2586,7.856-32.0786,2.7155-4.5259,9.6481-2.2316,14.4026,1.3094,11.74,8.7438,11.1293,19.248,12.4386,26.8412C212.3377,529.6528,215.6662,546.4842,192.7529,546.4842Z"/><circle class="cls-12" cx="240.8906" cy="237.4412" r="22.6246"/><path d="M240.8906,222.0371a15.35,15.35,0,0,0-5.0291.8567,2.1878,2.1878,0,0,1,.5162.4136c1.33,1.5029.3188,4.5689-2.2576,6.8481s-5.7428,2.9085-7.0723,1.4056a2.1556,2.1556,0,0,1-.2426-.34,15.4,15.4,0,1,0,14.0854-9.184Z"/><circle class="cls-12" cx="157.6127" cy="236.9598" r="22.6246"/><path d="M157.6127,221.5558a15.3484,15.3484,0,0,0-5.0292.8567,2.19,2.19,0,0,1,.5163.4135c1.33,1.5029.3187,4.5689-2.2577,6.8481s-5.7428,2.9085-7.0723,1.4056a2.1621,2.1621,0,0,1-.2426-.34,15.4,15.4,0,1,0,14.0855-9.1839Z"/><path class="cls-13" d="M165.4667,295.2062c0-16.2172,15.8384-3.37,35.47-3.37s35.6218-12.8476,35.6218,3.37S220.6439,324.57,201.0125,324.57,165.4667,311.4235,165.4667,295.2062Z"/><path class="cls-12" d="M216.8219,302.9082H187.9393c-3.4418,0-6.2578-3.2974-6.2578-6.7392h0c-.4661-4.4277,1.2792-6.2521,2.4068-6.7393,12.7491,2.784,18.2923,3.851,33.6963,0a6.4288,6.4288,0,0,1,3.37,6.7393h0C221.1543,299.6108,218.7474,302.9082,216.8219,302.9082Z"/><path class="cls-14" d="M175.4236,315.424c4.8137-2.8883,14.449-7.1457,25.0315-6.7393a55.66,55.66,0,0,1,25.5129,7.2207c-2.4069,2.4068-9.1461,8.1834-24.9555,8.6647C186.47,325.0129,177.8305,317.8309,175.4236,315.424Z"/><path class="cls-15" d="M315,439.3952a355.6289,355.6289,0,0,1-38,13.9356C276,357,296,109,238.8453,52.9639,340.0848,95.1994,300.9342,307.6882,315,439.3952Z"/></svg>
