<svg id="Layer_1" data-name="Layer 1" xmlns="http://www.w3.org/2000/svg" viewBox="0 0 1920 1080"><defs><style>.cls-1{fill:#f997a4;opacity:0.37;}.cls-2{fill:#ffc2d4;}.cls-3{fill:#42210b;}.cls-4{fill:#603813;}.cls-5{opacity:0.3;}.cls-6{fill:#fff;}</style></defs><title>spilskaerm</title><rect class="cls-1" y="-3" width="1919" height="1083"/><rect class="cls-2" y="-3" width="33.5418" height="1081.5119"/><rect class="cls-2" x="70.1165" y="-3" width="33.5418" height="1081.5119"/><rect class="cls-2" x="136.1838" y="-3" width="33.5418" height="1081.5119"/><rect class="cls-2" x="202.2511" y="-3" width="33.5418" height="1081.5119"/><rect class="cls-2" x="271.3676" y="-3" width="33.5418" height="1081.5119"/><rect class="cls-2" x="337.4349" y="-3" width="33.5418" height="1081.5119"/><rect class="cls-2" x="405.535" y="-2.5144" width="33.5418" height="1079.5311"/><rect class="cls-2" x="474.6515" y="-2.5144" width="33.5418" height="1079.5311"/><rect class="cls-2" x="540.7188" y="-2.5144" width="33.5418" height="1079.5311"/><rect class="cls-2" x="606.786" y="-2.5144" width="33.5418" height="1079.5311"/><rect class="cls-2" x="675.9025" y="-2.5144" width="33.5418" height="1079.5311"/><rect class="cls-2" x="741.9698" y="-2.5144" width="33.5418" height="1079.5311"/><rect class="cls-2" x="809.0535" y="-3" width="33.5418" height="1078.5215"/><rect class="cls-2" x="878.17" y="-3" width="33.5418" height="1078.5215"/><rect class="cls-2" x="944.2373" y="-3" width="33.5418" height="1078.5215"/><rect class="cls-2" x="1010.3046" y="-3" width="33.5418" height="1078.5215"/><rect class="cls-2" x="1079.4211" y="-3" width="33.5418" height="1078.5215"/><rect class="cls-2" x="1145.4883" y="-3" width="33.5418" height="1078.5215"/><rect class="cls-2" x="1213.5885" y="-3" width="33.5418" height="1077.0263"/><rect class="cls-2" x="1282.705" y="-3" width="33.5418" height="1077.0263"/><rect class="cls-2" x="1348.7722" y="-3" width="33.5418" height="1077.0263"/><rect class="cls-2" x="1414.8395" y="-3" width="33.5418" height="1077.0263"/><rect class="cls-2" x="1483.956" y="-3" width="33.5418" height="1077.0263"/><rect class="cls-2" x="1550.0233" y="-3" width="33.5418" height="1077.0263"/><rect class="cls-2" x="1616.0906" y="-3" width="33.5418" height="1075.5311"/><rect class="cls-2" x="1685.2071" y="-3" width="33.5418" height="1075.5311"/><rect class="cls-2" x="1751.2744" y="-3" width="33.5418" height="1075.5311"/><rect class="cls-2" x="1817.3416" y="-3" width="33.5418" height="1075.5311"/><rect class="cls-2" x="1886.4582" y="-3" width="33.5418" height="1075.5311"/><path class="cls-3" d="M1847.5314,1061H70c-18.3885,0-62-4.6115-62-23V786s33.5366-33,61-33c25.7621,0,148.039,77.3406,264,64,30.2566-3.4808,76.3823-23.8762,106.769-26C497,787,577.7965,827.8932,620,823c69-8,124.6619-56.5976,176-60,60.3549-4,229,72,336,69,35.16-.9858,155.2531-60.037,187-63,75-7,162,39,235,33,42.5064-3.4937,101-49,167-49,67,0,160,38,160,38v236.5314A33.4686,33.4686,0,0,1,1847.5314,1061Z"/><path class="cls-4" d="M1877.5314,1071H41.2952A33.2952,33.2952,0,0,1,8,1037.7048V801s63.5366-38,91-38c28.7621,0,151,77,264,64,30.2566-3.4808,76.3823-23.8762,106.769-26C527,797,607.7965,837.8932,650,833c69-8,124.6619-56.5976,176-60,60.3549-4,229,72,336,69,35.16-.9858,155.2531-60.037,187-63,75-7,162,39,235,33,42.5064-3.4937,101-49,167-49,67,0,160,38,160,38v236.5314A33.4686,33.4686,0,0,1,1877.5314,1071Z"/><g class="cls-5"><path class="cls-6" d="M1727,792c8-39,172.7734,37.9082,173,38C1900,830,1789,799,1727,792Z"/></g><g class="cls-5"><path class="cls-6" d="M823.4727,804.1523C851,779,983,856,1147.6377,870.6787,1049,877,792,849,823.4727,804.1523Z"/></g><g class="cls-5"><path class="cls-6" d="M74.7485,790.5C91,815,191,867,328.8008,852.2422,158,833,99,763,74.7485,790.5Z"/></g><g class="cls-5"><path class="cls-6" d="M1365.6641,804.6832c32.7329-14.7276,65.9561,20.71,167.3359,23.4891C1533,828.1723,1430.1436,854.9254,1365.6641,804.6832Z"/></g></svg>
