<svg id="Layer_1" data-name="Layer 1" xmlns="http://www.w3.org/2000/svg" viewBox="0 0 200 200"><defs><style>.cls-1{fill:#ffc2d4;}</style></defs><title>stik</title><path class="cls-1" d="M169.9568,60.8289c.0261.4389.0432.88.0432,1.3254v79.6914A22.18,22.18,0,0,1,147.8457,164H68.1543a22.1209,22.1209,0,0,1-4.9919-.5742A18.167,18.167,0,0,0,79.1543,173h79.6914A18.1746,18.1746,0,0,0,177,154.8457V75.1543A18.1162,18.1162,0,0,0,169.9568,60.8289Z"/><path class="cls-1" d="M156.822,46.3949A22.2583,22.2583,0,0,1,157,49.1543v79.6914A22.18,22.18,0,0,1,134.8457,151H55.1543a22.2554,22.2554,0,0,1-2.7593-.178A18.1537,18.1537,0,0,0,68.1543,160h79.6914A18.1746,18.1746,0,0,0,166,141.8457V62.1543A18.1542,18.1542,0,0,0,156.822,46.3949Z"/><rect class="cls-1" x="37" y="31" width="116" height="116" rx="18.1543"/></svg>
