<svg id="Layer_1" data-name="Layer 1" xmlns="http://www.w3.org/2000/svg" viewBox="0 0 200 200"><defs><style>.cls-1{fill:#ffc2d4;}</style></defs><title>time</title><path class="cls-1" d="M115.6791,100l35.8132-48.27A10.4834,10.4834,0,0,0,143.0731,35H62.509a10.4834,10.4834,0,0,0-8.4843,16.6414L89.1237,100l-35.099,48.3586A10.4834,10.4834,0,0,0,62.509,165h80.5641a10.4835,10.4835,0,0,0,8.4192-16.73Zm14.5318,51H74.2957a7.124,7.124,0,0,1-5.8884-11.3206l27.65-37.34A7.2408,7.2408,0,0,1,97.3518,101a7.244,7.244,0,0,1-1.2942-1.34l-27.65-37.34A7.1239,7.1239,0,0,1,74.2957,51h55.9152a7.1231,7.1231,0,0,1,5.8433,11.3808l-28.2648,37.34A7.2616,7.2616,0,0,1,106.5466,101a7.2629,7.2629,0,0,1,1.2428,1.28l28.2648,37.34A7.1231,7.1231,0,0,1,130.2109,151Z"/></svg>
