<svg id="Layer_1" data-name="Layer 1" xmlns="http://www.w3.org/2000/svg" width="1920" height="1080" viewBox="0 0 1920 1080"><defs><style>.cls-1{fill:#f997a4;opacity:0.37;}.cls-2{fill:#ffc2d4;}.cls-3{fill:#42210b;}.cls-4{fill:#603813;}.cls-5,.cls-7{fill:#fff;}.cls-5,.cls-6{opacity:0.3;}.cls-8{fill:#f898a4;}.cls-9{fill:#fdc5cc;}</style></defs><title>Titelskaerm</title><rect class="cls-1" y="324" width="1919" height="756"/><rect class="cls-2" x="1" y="357" width="33.54" height="722"/><rect class="cls-2" x="70.12" y="357" width="33.54" height="722"/><rect class="cls-2" x="136.18" y="357" width="33.54" height="722"/><rect class="cls-2" x="202.25" y="357" width="33.54" height="722"/><rect class="cls-2" x="271.37" y="357" width="33.54" height="722"/><rect class="cls-2" x="337.43" y="357" width="33.54" height="722"/><rect class="cls-2" x="405.53" y="356" width="33.54" height="722"/><rect class="cls-2" x="474.65" y="356" width="33.54" height="722"/><rect class="cls-2" x="540.72" y="356" width="33.54" height="722"/><rect class="cls-2" x="606.79" y="356" width="33.54" height="722"/><rect class="cls-2" x="675.9" y="356" width="33.54" height="722"/><rect class="cls-2" x="741.97" y="356" width="33.54" height="722"/><rect class="cls-2" x="809.05" y="355" width="33.54" height="722"/><rect class="cls-2" x="878.17" y="355" width="33.54" height="722"/><rect class="cls-2" x="944.24" y="355" width="33.54" height="722"/><rect class="cls-2" x="1010.3" y="355" width="33.54" height="722"/><rect class="cls-2" x="1079.42" y="355" width="33.54" height="722"/><rect class="cls-2" x="1145.49" y="355" width="33.54" height="722"/><rect class="cls-2" x="1213.59" y="354" width="33.54" height="722"/><rect class="cls-2" x="1282.7" y="354" width="33.54" height="722"/><rect class="cls-2" x="1348.77" y="354" width="33.54" height="722"/><rect class="cls-2" x="1414.84" y="354" width="33.54" height="722"/><rect class="cls-2" x="1483.96" y="354" width="33.54" height="722"/><rect class="cls-2" x="1550.02" y="354" width="33.54" height="722"/><rect class="cls-2" x="1616.09" y="353" width="33.54" height="722"/><rect class="cls-2" x="1685.21" y="353" width="33.54" height="722"/><rect class="cls-2" x="1751.27" y="353" width="33.54" height="722"/><rect class="cls-2" x="1817.34" y="353" width="33.54" height="722"/><rect class="cls-2" x="1886.46" y="353" width="33.54" height="722"/><path class="cls-3" d="M1921,416.5s-131.09,28.1-172.5,27c-113-3-155.67-50.41-270-62-97.64-9.9-183.5,4.5-219,20-67,29.24,49,206-45,212-98-12,24.5-177.5-58-212-37.65-15.74-83-20-163-5-123.56,23.17-155,113.22-258,110-128-4-191-96-243-113-57.89-18.93-101-1-137.4,23-56.55,37.28-133.6,158-218.6,160C40.53,578.76,0,416.5,0,416.5V-2H1921Z"/><path class="cls-4" d="M1919,408.5s-122.09,28.1-163.5,27c-113-3-155.67-50.41-270-62-97.64-9.9-183.5,4.5-219,20-67,29.24,49,206-45,212-98-12,24.5-177.5-58-212-37.65-15.74-83-20-163-5-123.56,23.17-155,113.22-258,110-128-4-191-96-243-113-57.89-18.93-101-1-137.4,23-56.55,37.28-133.6,158-218.6,160C47.53,570.76-1,408.5-1,408.5V-1H1919Z"/><path class="cls-4" d="M331.41,384.58C281.78,417.3,214.14,523.27,139.53,525"/><path class="cls-5" d="M134,538s6-28,15-43c24.37-40.61,90-39,130-80,19.91-20.38,56-25,56-25-15.79,10.41-34.13,29.17-53.53,49C239.68,481.81,186.64,536.76,134,538Z"/><path class="cls-5" d="M738,479.15c-1.58,0-3.17,0-4.79-.07,0,0,5.94-9.95,11.83-15.08,31-27,64.52-17.55,97-42,61.57-46.36,118.6-39.55,118.6-39.55-50.6,9.55-83,31.79-114.05,53.31C814.38,458.05,783.92,479.15,738,479.15Z"/><g class="cls-6"><path class="cls-7" d="M1201.92,588s-6.92-6,.08-15c7.69-8.16,8.89-8.43,14-15,12.5-16.06,16.23-34.56,10.33-66.16-7.52-40.3-15.29-82,13.93-94.72,0,0-26.26.88-9,93.8,6.06,32.7,12.4,66.5-1.48,84.33C1223.82,582.91,1214.44,587.2,1201.92,588Z"/></g><g class="cls-6"><path class="cls-7" d="M1760.46,419.42c-.89,0-8.06.4-8.7-.05-1.11-.79-1-4.12,0-5,34.4-29.45,93.27-13.59,164.94-21.95C1901.26,396.7,1804.06,417.58,1760.46,419.42Z"/></g><path class="cls-8" d="M542.18,294.18q-5.34-2.7-9.22-13.95a154,154,0,0,1-5-20c-1.6-8.29-3.49-19.82-5.57-34.61-4.13-27.19-7.81-50.7-11.27-70.46a234.69,234.69,0,0,0-7.18-30.34c-2.4-7.38-6.71-10.07-12.9-8-4.87,1.63-10,5.78-15.3,12.45s-10.32,16.19-14.94,28.52c-1.44,4-3.69,6.59-6.78,7.73a9.32,9.32,0,0,1-7.91-.78,11.68,11.68,0,0,1-5.65-6.31,20.17,20.17,0,0,1-1.18-8.54,44.19,44.19,0,0,1,2.55-11.32q7.29-21.23,21-36.05c9.1-9.84,19.4-16.64,30.71-20.3,10.54-3.42,19.59-3.06,27,1s12.75,11.64,16.07,22.71A111.27,111.27,0,0,1,539.91,122q1.32,9.47,2,15.5c.41,4,.67,6.83.75,8.43,2.25-30.09,8.88-52.52,19.49-67S586.49,55,603,50.9c12.65-3.13,23.58-1.59,32.61,4.5s15,16.27,18.13,30.43a111.44,111.44,0,0,1,2,21.29c4.2-25.32,11.94-44.45,22.94-57.19S704,29.24,721.12,26.35c13.79-2.33,25-.12,33.5,6.48s13.64,16.86,15.59,30.7c1.06,7.52,1.1,16.83.2,28q-3.36,37.89-5.88,75.74a109,109,0,0,0,.77,22.42Q767,200.38,772.94,205c3.95,3.06,8.95,4.14,15,3.27,5.75-.82,11.1-3.47,16.12-8s10.76-11.56,17.38-21.19a9.5,9.5,0,0,1,6.79-4.43,6.21,6.21,0,0,1,5.81,2.49c1.56,1.91,2.52,4.68,2.91,8.28.71,6.69-.4,12.19-3.28,16.5-7.9,11.81-15.82,20.75-23.92,26.85A57.26,57.26,0,0,1,783.42,240c-14.46,2.17-26.43-.22-36.17-7.36s-16-17.85-18.69-32.28c-1.84-10-2.44-24.91-1.52-44.72q1.23-24.28,2.81-48.6.17-2.4.57-8.5t.38-11.49a65.56,65.56,0,0,0-.9-10.48q-1.5-8.94-6.15-12.74c-3.11-2.53-7.09-3.38-11.9-2.52-9.05,1.62-17.61,8.54-25.38,20.72S673,113.1,669.55,138.56s-3.23,57.65.54,96.46q1.7,15.54-1.5,21.75c-2.14,4.15-6.47,7-13,8.62-5.7,1.41-10.18,1.14-13.48-.87s-5.9-6.67-7.82-14c-1.79-6.84-3.2-16.06-4.17-27.67s-1.88-25.31-2.66-41.14c-2-42.57-3.93-69.79-6.82-81.53q-2.32-9.55-7.57-13.07c-3.5-2.34-8-2.81-13.54-1.4-9.33,2.38-17.75,9.56-25,21.49s-12,31-14.06,57.06.37,59.88,7.25,101.31q2.17,13.15.38,19.16c-1.2,4-5,7-11.45,9.14C550.55,295.85,545.73,296,542.18,294.18Z"/><path class="cls-8" d="M939.15,169.67c1.41,2,2.17,4.85,2.29,8.47q.33,10.35-4.48,16.22c-6.21,8-15,15.52-26.29,22.72a79,79,0,0,1-36.58,12.4c-18,1.5-32.35-1.91-43.48-10.55s-17.89-21.33-20-38.29a70.51,70.51,0,0,1,3.79-34,60.27,60.27,0,0,1,19.41-26.78,57.61,57.61,0,0,1,31.6-12c10.8-.89,19.7,1.48,26.58,7s10.55,13.4,11.13,23.56c.69,11.9-3.22,22.35-11.48,31.46s-22.59,16.93-42.82,24c5.18,7.47,13.81,10.61,26,9.62,7.85-.64,16.57-4,26.33-10.06a95.78,95.78,0,0,0,25.3-22.71,9.5,9.5,0,0,1,7.09-3.92A6.26,6.26,0,0,1,939.15,169.67Zm-92.43-23.5c-3.92,7.84-5.29,17-4.22,27.47,0,.18,0,.35,0,.52,10.26-3.47,18.25-7.82,24-13.15s8.36-11.15,7.86-17.52a10.79,10.79,0,0,0-3.49-7.64,10.32,10.32,0,0,0-8.07-2.32C856,134.1,850.63,138.34,846.72,146.17Z"/><path class="cls-8" d="M926.19,215.78q-4.49-10.16-5.6-32.91c-1.07-22.41,1.2-43.87,7.22-64.33q2.19-7.61,7.79-11.31c3.73-2.46,9.07-3.8,16-4,3.74-.09,6.36.29,7.87,1.12s2.28,2.46,2.33,4.88c.05,2.76-1.24,9-3.8,18.71q-2.55,10.42-4,18.09a168.24,168.24,0,0,0-2.23,19.09q6.74-20.37,16.86-34.51t21.2-21c7.34-4.57,14.33-6.8,20.87-6.7s11.13,1.59,13.77,4.41,3.86,7.09,3.71,12.78c-.14,5.52-2.18,15.48-6,29.89-1.6,6.18-2.68,10.82-3.28,13.91,9.4-21,20.07-36.17,31.76-45.36s22.62-13.44,32.51-12.82c12.13.77,17.77,6.86,16.91,18-.5,6.71-3.46,18.69-8.66,36-4.48,14.74-6.8,24.54-7.13,29.35-.46,6.9,1.84,10.5,6.91,10.87,3.49.25,7.79-1.54,13-5.36s12.21-10.1,21.3-18.77a9.47,9.47,0,0,1,7.56-2.9,6.22,6.22,0,0,1,5.16,3.65c1.12,2.2,1.48,5.1,1.1,8.71-.73,6.86-3,12-6.67,15.44a126.34,126.34,0,0,1-26.18,20.17,51.93,51.93,0,0,1-29.65,6.62c-8.74-.56-15.19-3.44-19.42-8.75s-6.17-12.77-5.74-22.43c.22-4.83,1.81-13.4,4.9-25.69,2.83-10.75,4.39-18.19,4.6-22.33.13-2.75-.8-4.19-2.8-4.28-2.36-.11-5.86,2.62-10.43,8.22s-9.17,13.08-13.74,22.43a170.15,170.15,0,0,0-11.15,29.72q-3.18,12.36-7,16.42c-2.55,2.71-6.56,4-12,4-5.66-.07-9.89-2.8-12.73-8.24s-4.29-12-4.3-19.81c0-6.55.86-16.05,2.65-28.48,1.44-11,2.19-18.28,2.19-21.74q0-4.14-3-4.14c-2.72,0-6.19,3.11-10.3,9.35a122.69,122.69,0,0,0-11.7,23.95,205.48,205.48,0,0,0-8.58,28.64C956.5,212.51,954.44,218,952,221s-6.29,4.44-11.6,4.63C933.9,225.81,929.18,222.56,926.19,215.78Z"/><path class="cls-8" d="M1263.53,173.43a17.13,17.13,0,0,1,.26,8.75c-1.57,8.13-5.07,12.46-10.45,13a137.71,137.71,0,0,1-35.91,0c-5.66,13.77-14,24.19-24.88,31.39s-22.27,10-34.38,8.53c-10.24-1.26-18.7-4.71-25.49-10.46a49.27,49.27,0,0,1-14.81-21.48,63.55,63.55,0,0,1-3.4-27.34c1.15-13.06,4.75-24.49,11-34.22a57.47,57.47,0,0,1,56.87-26.61c14.11,1.83,24.86,8,32,18.25s10.3,22.11,9.59,35.46a198.11,198.11,0,0,0,31,.14,17.13,17.13,0,0,1,3.86.19A6,6,0,0,1,1263.53,173.43Zm-84.53,30q7.05-5.83,11-18.08a37.1,37.1,0,0,1-10.74-15.85,40.91,40.91,0,0,1-2-19.06,42.74,42.74,0,0,1,1.88-8.11l-1.36-.18c-7.3-.94-13.78,1.63-19.35,7.67s-9,15.09-10.31,27.1c-1,9.43,0,16.85,3.24,22.25s7.28,8.41,12.33,9C1169.18,208.89,1174.29,207.3,1179,203.41Z"/><path class="cls-8" d="M1235.16,236.36Q1233,225.46,1237,203c3.9-22.09,10.85-42.52,21.26-61.14q3.83-6.93,10.13-9.3c4.2-1.58,9.72-1.71,16.53-.34q5.52,1.11,7.47,2.84t1.2,5.27c-.56,2.71-3.2,8.5-7.86,17.41q-4.79,9.6-7.92,16.89a169.6,169.6,0,0,0-6.43,18.24q13.08-20.08,27.15-31.39c9.35-7.53,18.13-12.38,26.23-14.6s15.2-2.55,21.23-1.08c11.88,2.91,16.4,9.91,13.6,20.76-.56,2.17-2.73,7.23-6.47,15.18-3.14,6.32-4.9,10.33-5.33,12-1.48,5.86,0,9.33,4.36,10.47,4.92,1.27,12.17-.75,21.94-5.95a10.68,10.68,0,0,1,8-1.27,6.47,6.47,0,0,1,4.62,4.39,13.63,13.63,0,0,1-.17,8.15c-1.75,6.15-4.87,10.46-9.32,13a76.77,76.77,0,0,1-20.37,7.71,46.24,46.24,0,0,1-21.88-.19c-9.13-2.3-15.52-6.21-19.23-11.87s-4.71-12.35-2.93-20.09a37,37,0,0,1,2.54-7.38c1.12-3.28,1.83-5.51,2.1-6.69.62-2.69,0-4.27-2-4.71-2.68-.62-6.85,1.4-12.45,6.09s-11.5,11.22-17.66,19.62a168.55,168.55,0,0,0-16.24,27.3q-5.27,11.34-9.77,14.8c-3,2.31-7.14,2.94-12.39,1.95C1240.5,247.84,1236.59,243.63,1235.16,236.36Z"/><path class="cls-8" d="M1405.45,320.64c-13.12,18.62-25.41,23.65-50.82,18.4-14-2.34-18.4-5.26-46.44-11.39-3.56-6.55,20.38-22.29,28.92-20.15,49.06,12.26,49.94-6.14,64.4-30.84,3.28-5.61,7.12-14.06,12.21-24.94q-10.68,16.18-22.5,22.74c-7.9,4.38-15.11,5.62-21.77,3.72-7.5-2.15-12.66-7.28-15.58-15.5s-3.07-17.49-.33-27.83a212.79,212.79,0,0,1,11.78-33.7,197.66,197.66,0,0,1,17.78-30.72q4.76-6.75,10.56-8.63c3.86-1.24,9.34-.87,16.41,1.19,4,1.16,6.57,2.56,7.76,4.17a6.36,6.36,0,0,1,.74,5.9c-.39,1.33-2.73,5.49-7,12.52q-5.4,8.38-9.17,15.37-5.12,9.57-9.39,18.43a100.13,100.13,0,0,0-6,14.84c-1.82,6.3-.94,10,2.65,11,2.56.75,6.49-.78,11.84-4.58s11.78-10,19.35-18.7a347.74,347.74,0,0,0,24.8-32.88q4.52-6.71,10-8.46t14.38,1.23c4.12,1.39,6.82,2.87,8.09,4.4s1.51,3.45.72,5.73c-1.4,4.08-8.62,17.28-21.3,39.76C1450.86,244.13,1421.31,298.13,1405.45,320.64Z"/><path class="cls-9" d="M550.53,285.82q-5.34-2.69-9.21-13.95a153.74,153.74,0,0,1-5-20c-1.61-8.3-3.49-19.83-5.57-34.61-4.13-27.2-7.82-50.7-11.27-70.46a237.23,237.23,0,0,0-7.18-30.34c-2.41-7.38-6.71-10.07-12.9-8-4.88,1.63-10,5.77-15.3,12.45s-10.32,16.19-14.94,28.52c-1.44,4-3.69,6.58-6.78,7.72a9.24,9.24,0,0,1-7.91-.78,11.71,11.71,0,0,1-5.66-6.3,20.51,20.51,0,0,1-1.18-8.55,44.71,44.71,0,0,1,2.55-11.32C455,116,462,104,471.15,94.12s19.4-16.64,30.71-20.31c10.54-3.42,19.58-3.06,27,1s12.75,11.65,16.08,22.72a110.94,110.94,0,0,1,3.33,16.16q1.34,9.48,2,15.5t.76,8.43c2.24-30.09,8.88-52.52,19.49-67s24.38-23.93,40.92-28C624,39.41,635,41,644,47s15,16.28,18.13,30.43a110,110,0,0,1,2,21.3c4.21-25.33,11.94-44.45,22.94-57.2S712.34,20.89,729.47,18c13.79-2.33,25-.11,33.51,6.48s13.64,16.86,15.59,30.7c1.06,7.52,1.1,16.84.19,28q-3.36,37.89-5.88,75.75a109.65,109.65,0,0,0,.77,22.41c1.13,7.16,3.69,12.26,7.64,15.32s9,4.14,15.05,3.26c5.75-.82,11.1-3.47,16.12-8s10.77-11.57,17.38-21.2a9.45,9.45,0,0,1,6.79-4.42,6.24,6.24,0,0,1,5.82,2.48q2.32,2.88,2.9,8.28c.71,6.7-.4,12.19-3.28,16.5-7.9,11.81-15.81,20.76-23.91,26.85a57.46,57.46,0,0,1-26.39,11.27c-14.46,2.17-26.43-.22-36.16-7.37s-16-17.84-18.69-32.28c-1.85-10-2.44-24.91-1.53-44.72q1.23-24.28,2.82-48.6c.11-1.59.29-4.42.57-8.5s.39-7.9.37-11.49a65.66,65.66,0,0,0-.89-10.48c-1-6-3-10.21-6.16-12.74S725,52.11,720.21,53c-9.06,1.62-17.62,8.54-25.39,20.72s-13.52,31.06-16.92,56.52-3.22,57.64.54,96.45q1.71,15.56-1.5,21.76c-2.14,4.14-6.47,7-13,8.61-5.71,1.42-10.19,1.14-13.48-.86s-5.91-6.67-7.83-14c-1.78-6.85-3.2-16.06-4.16-27.67s-1.89-25.32-2.66-41.14c-2-42.57-3.93-69.8-6.82-81.54q-2.34-9.55-7.57-13.07c-3.51-2.33-8-2.81-13.55-1.4-9.33,2.38-17.74,9.57-25,21.49s-12,31-14.06,57.07.37,59.88,7.24,101.31q2.17,13.16.39,19.15c-1.2,4-5,7-11.45,9.14Q555.86,288.51,550.53,285.82Z"/><path class="cls-9" d="M947.5,161.31c1.41,2,2.17,4.85,2.29,8.48.23,6.9-1.28,12.3-4.47,16.21-6.21,8-15,15.53-26.29,22.73a79.13,79.13,0,0,1-36.59,12.4c-18,1.49-32.35-1.92-43.48-10.56s-17.88-21.33-20-38.29a70.41,70.41,0,0,1,3.78-34,60.29,60.29,0,0,1,19.42-26.78,57.66,57.66,0,0,1,31.59-12c10.81-.88,19.71,1.49,26.58,7s10.55,13.41,11.14,23.57c.69,11.89-3.22,22.34-11.48,31.46s-22.59,16.92-42.82,23.94c5.17,7.47,13.8,10.61,26,9.62,7.85-.63,16.56-4,26.33-10.05a96,96,0,0,0,25.3-22.72,9.46,9.46,0,0,1,7.08-3.91A6.22,6.22,0,0,1,947.5,161.31Zm-92.43-23.5c-3.91,7.84-5.28,17-4.22,27.48l.06.51c10.26-3.47,18.24-7.81,24-13.14s8.35-11.15,7.86-17.52a10.9,10.9,0,0,0-3.49-7.65,10.41,10.41,0,0,0-8.07-2.32C864.38,125.75,859,130,855.07,137.81Z"/><path class="cls-9" d="M934.54,207.43q-4.47-10.17-5.59-32.92c-1.07-22.4,1.19-43.87,7.21-64.32q2.19-7.6,7.8-11.31c3.73-2.46,9.07-3.81,16-4q5.59-.14,7.87,1.13c1.5.83,2.28,2.46,2.32,4.87,0,2.77-1.24,9-3.8,18.72q-2.54,10.41-4,18.08a166,166,0,0,0-2.24,19.09q6.74-20.37,16.87-34.5c6.75-9.42,13.84-16.41,21.19-21s14.34-6.79,20.88-6.7,11.13,1.59,13.76,4.41,3.87,7.09,3.72,12.79c-.15,5.52-2.19,15.47-6,29.89-1.59,6.18-2.67,10.81-3.28,13.91,9.4-21,20.08-36.18,31.76-45.37s22.63-13.44,32.51-12.81c12.14.77,17.77,6.86,16.92,18-.5,6.72-3.46,18.69-8.67,36-4.48,14.74-6.8,24.53-7.13,29.35q-.69,10.33,6.91,10.86c3.5.26,7.8-1.53,13-5.35s12.22-10.11,21.3-18.78a9.49,9.49,0,0,1,7.57-2.9,6.25,6.25,0,0,1,5.16,3.65c1.12,2.2,1.48,5.11,1.1,8.71-.73,6.87-3,12-6.67,15.44a126,126,0,0,1-26.19,20.17,51.83,51.83,0,0,1-29.65,6.62c-8.73-.55-15.19-3.44-19.42-8.75s-6.17-12.77-5.74-22.43c.22-4.82,1.82-13.39,4.9-25.69,2.84-10.75,4.4-18.19,4.6-22.32q.21-4.14-2.79-4.29c-2.36-.11-5.87,2.62-10.44,8.22s-9.17,13.08-13.74,22.43a169.93,169.93,0,0,0-11.14,29.73q-3.18,12.35-7,16.42c-2.56,2.71-6.57,4-12.06,3.95-5.66-.06-9.89-2.79-12.73-8.24s-4.28-12-4.29-19.8c0-6.56.85-16.06,2.65-28.48,1.43-11,2.18-18.29,2.19-21.74,0-2.76-1-4.15-3-4.15-2.73,0-6.19,3.11-10.3,9.35a122.41,122.41,0,0,0-11.7,24A206.36,206.36,0,0,0,966.6,196c-1.74,8.16-3.81,13.68-6.23,16.6s-6.28,4.44-11.6,4.62Q939,217.57,934.54,207.43Z"/><path class="cls-9" d="M1271.89,165.07a17.15,17.15,0,0,1,.25,8.75c-1.57,8.14-5.06,12.47-10.45,13a138.51,138.51,0,0,1-35.9,0c-5.67,13.77-14,24.18-24.89,31.38s-22.26,10-34.38,8.53c-10.24-1.26-18.7-4.71-25.48-10.45a49.38,49.38,0,0,1-14.81-21.48,63.73,63.73,0,0,1-3.41-27.34c1.15-13.06,4.76-24.49,11-34.23a57.51,57.51,0,0,1,56.87-26.61c14.11,1.84,24.85,8,32,18.25s10.29,22.12,9.58,35.46a196.74,196.74,0,0,0,31,.15,16.53,16.53,0,0,1,3.86.19A6,6,0,0,1,1271.89,165.07Zm-84.53,30c4.7-3.89,8.36-9.9,11-18.08a37,37,0,0,1-10.75-15.84,41,41,0,0,1-2-19.07,42.16,42.16,0,0,1,1.88-8.11l-1.37-.17c-7.29-.94-13.77,1.63-19.34,7.67s-9,15.09-10.32,27.09q-1.56,14.16,3.25,22.26c3.19,5.4,7.27,8.41,12.32,9A19.53,19.53,0,0,0,1187.36,195.05Z"/><path class="cls-9" d="M1243.52,228q-2.14-10.89,1.79-33.34c3.9-22.08,10.86-42.52,21.27-61.14q3.83-6.93,10.13-9.3c4.19-1.57,9.72-1.7,16.53-.33,3.68.73,6.16,1.69,7.46,2.83s1.7,2.91,1.21,5.28c-.56,2.7-3.21,8.5-7.86,17.41q-4.8,9.59-7.93,16.88a172.08,172.08,0,0,0-6.43,18.25q13.1-20.08,27.15-31.39c9.35-7.53,18.13-12.39,26.23-14.6s15.2-2.56,21.23-1.09c11.89,2.92,16.41,9.91,13.6,20.76-.56,2.18-2.73,7.23-6.47,15.18-3.14,6.33-4.9,10.33-5.32,12q-2.23,8.79,4.35,10.47c4.92,1.28,12.18-.74,21.94-6a10.75,10.75,0,0,1,8-1.27,6.49,6.49,0,0,1,4.62,4.39,13.6,13.6,0,0,1-.18,8.16c-1.75,6.14-4.87,10.46-9.31,13a76.84,76.84,0,0,1-20.38,7.71,46.11,46.11,0,0,1-21.88-.19c-9.13-2.29-15.52-6.21-19.23-11.87s-4.7-12.34-2.93-20.08a37.55,37.55,0,0,1,2.54-7.39q1.69-4.92,2.1-6.69c.63-2.69,0-4.26-2-4.71-2.67-.61-6.85,1.41-12.44,6.09s-11.51,11.23-17.67,19.62a170.88,170.88,0,0,0-16.24,27.3q-5.26,11.35-9.77,14.81t-12.38,1.94C1248.85,239.49,1245,235.28,1243.52,228Z"/><path class="cls-9" d="M1413.8,312.28c-13.12,18.62-25.41,23.66-50.81,18.4-14-2.34-18.4-5.25-46.44-11.39-3.56-6.55,20.37-22.28,28.91-20.15,49.07,12.27,49.94-6.13,64.4-30.84,3.29-5.61,7.12-14.05,12.22-24.94q-10.69,16.19-22.51,22.74c-7.89,4.38-15.11,5.63-21.77,3.72-7.49-2.14-12.65-7.28-15.58-15.5s-3.07-17.48-.32-27.83a211.79,211.79,0,0,1,11.78-33.7,197,197,0,0,1,17.78-30.72q4.76-6.75,10.55-8.62c3.87-1.25,9.35-.87,16.41,1.18,4,1.16,6.57,2.57,7.76,4.18a6.38,6.38,0,0,1,.75,5.9q-.6,2-7,12.51-5.4,8.39-9.17,15.38-5.11,9.56-9.38,18.42a99,99,0,0,0-6,14.84q-2.75,9.45,2.64,11c2.57.76,6.49-.78,11.85-4.57s11.77-10,19.34-18.71a344.36,344.36,0,0,0,24.8-32.88q4.52-6.71,10-8.45c3.65-1.16,8.46-.77,14.37,1.23q6.19,2.08,8.1,4.4t.72,5.72c-1.4,4.09-8.62,17.29-21.31,39.77C1459.21,235.77,1429.66,289.77,1413.8,312.28Z"/><rect class="cls-2" x="1825.21" y="365.07" width="42.5" height="8.81" rx="4.41" transform="translate(-30.63 219.61) rotate(-6.75)"/><rect class="cls-2" x="1576.21" y="359.07" width="42.5" height="8.81" rx="4.41" transform="translate(395.76 -750.03) rotate(30)"/><rect class="cls-2" x="1751.21" y="359.07" width="42.5" height="8.81" rx="4.41" transform="translate(519.69 -942.01) rotate(34.59)"/><rect class="cls-2" x="1639.21" y="365.07" width="42.5" height="8.81" rx="4.41" transform="translate(3053.02 -607.46) rotate(132.4)"/><rect class="cls-2" x="1690.21" y="381.07" width="42.5" height="8.81" rx="4.41" transform="translate(-36.5 534.91) rotate(-17.58)"/><rect class="cls-2" x="1525.21" y="337.07" width="42.5" height="8.81" rx="4.41" transform="translate(2209.73 -1096.65) rotate(102.31)"/><rect class="cls-2" x="1466.21" y="328.07" width="42.5" height="8.81" rx="4.41" transform="translate(-36.35 299.42) rotate(-11.36)"/><rect class="cls-2" x="1198.21" y="365.07" width="42.5" height="8.81" rx="4.41" transform="translate(-48.88 247.37) rotate(-11.36)"/><rect class="cls-2" x="1243.21" y="350.07" width="42.5" height="8.81" rx="4.41" transform="translate(243.33 -471.24) rotate(23.3)"/><rect class="cls-2" x="1414.21" y="328.07" width="42.5" height="8.81" rx="4.41" transform="translate(655.53 -917.64) rotate(45)"/><rect class="cls-2" x="61.47" y="467.78" width="42.5" height="8.81" rx="4.41" transform="translate(354.18 867.3) rotate(155.44)"/><rect class="cls-2" x="263.1" y="366.27" width="42.5" height="8.81" rx="4.41" transform="translate(746.03 299.23) rotate(118.69)"/><rect class="cls-2" x="115.58" y="470.21" width="42.5" height="8.81" rx="4.41" transform="translate(625.94 543.53) rotate(114.1)"/><rect class="cls-2" x="213.25" y="396.37" width="42.5" height="8.81" rx="4.41" transform="matrix(0.96, 0.28, -0.28, 0.96, 121.83, -49.69)"/><rect class="cls-2" x="169.41" y="425.91" width="42.5" height="8.81" rx="4.41" transform="translate(477.99 803.1) rotate(166.27)"/><rect class="cls-2" x="306.24" y="342.98" width="42.5" height="8.81" rx="4.41" transform="translate(353.1 -129.35) rotate(46.39)"/><rect class="cls-2" x="365.97" y="349.63" width="42.5" height="8.81" rx="4.41" transform="translate(872.01 554.72) rotate(160.05)"/><rect class="cls-2" x="29.41" y="425.91" width="42.5" height="8.81" rx="4.41" transform="translate(-217.79 770.42) rotate(-135)"/><rect class="cls-2" x="406.97" y="327.63" width="42.5" height="8.81" rx="4.41" transform="translate(633.06 833.7) rotate(-150)"/><rect class="cls-2" x="467.97" y="336.63" width="42.5" height="8.81" rx="4.41" transform="translate(1062.8 177.77) rotate(129.23)"/><rect class="cls-2" x="501.97" y="352.63" width="42.5" height="8.81" rx="4.41" transform="matrix(-0.99, -0.16, 0.16, -0.99, 982.93, 792.83)"/><rect class="cls-2" x="527.97" y="366.63" width="42.5" height="8.81" rx="4.41" transform="translate(1212.02 366.32) rotate(145.55)"/><rect class="cls-2" x="1148.21" y="357.07" width="42.5" height="8.81" rx="4.41" transform="translate(897.78 -832.04) rotate(60)"/><rect class="cls-2" x="1100.21" y="349.07" width="42.5" height="8.81" rx="4.41" transform="translate(46.84 -123.82) rotate(6.45)"/><rect class="cls-2" x="889.21" y="349.07" width="42.5" height="8.81" rx="4.41" transform="translate(1724.76 -185.77) rotate(125.27)"/><rect class="cls-2" x="990.21" y="337.07" width="42.5" height="8.81" rx="4.41" transform="translate(1812.91 -363.73) rotate(120)"/><rect class="cls-2" x="837.21" y="365.07" width="42.5" height="8.81" rx="4.41" transform="translate(1786.64 260.22) rotate(150)"/><rect class="cls-2" x="940.21" y="353.07" width="42.5" height="8.81" rx="4.41" transform="translate(46.28 -105.81) rotate(6.45)"/><rect class="cls-2" x="1038.21" y="337.07" width="42.5" height="8.81" rx="4.41" transform="translate(618.01 -680.37) rotate(48.77)"/></svg>
